<svg width="327" height="154" viewBox="0 0 327 154" fill="none" xmlns="http://www.w3.org/2000/svg">
<path d="M113.024 138.913H26.8407V64.3957L19.458 69.1463V142.605C19.458 144.643 21.1109 146.296 23.1494 146.296H113.024V138.913Z" fill="#D1BEE3"/>
<path d="M300.155 138.914V64.3953L257.063 36.669L214.274 64.2005C214.175 64.2651 214.072 64.3163 213.971 64.3748V138.914H300.155Z" fill="#8659B2"/>
<path d="M300.155 138.913H213.971V146.296H303.846C305.885 146.296 307.537 144.643 307.537 142.605V69.1442L300.155 64.3946V138.913Z" fill="#D1BEE3"/>
<path d="M206.591 43.8869V146.092H120.408V43.8879L113.025 48.6396V149.782C113.025 151.822 114.677 153.474 116.716 153.474H210.282C212.321 153.474 213.973 151.822 213.973 149.782V48.6365L206.591 43.8869Z" fill="#C3CFED"/>
<path d="M69.9315 36.669L26.8398 64.3963V138.914H113.023V64.3738C112.923 64.3143 112.819 64.263 112.72 64.1994L69.9315 36.669Z" fill="#8659B2"/>
<path d="M323.61 61.9281L261.058 21.6819C258.625 20.1172 255.5 20.1162 253.069 21.6819L226.22 38.9596L167.493 1.17432C165.06 -0.390411 161.936 -0.392464 159.503 1.17432L100.781 38.9596L73.927 21.6819C71.4938 20.1172 68.3705 20.1162 65.9372 21.6819L3.389 61.9281C-0.0398765 64.1347 -1.03142 68.7028 1.1752 72.1317C2.58613 74.325 4.96297 75.5206 7.39004 75.5206C8.7579 75.5206 10.1432 75.1412 11.3788 74.3455L69.9321 36.6699L112.72 64.1993C112.82 64.2639 112.922 64.3152 113.023 64.3737V58.5126V48.6402L163.498 16.1623L213.971 48.6371V64.3757C214.073 64.3173 214.176 64.265 214.275 64.2014L257.064 36.6699L315.622 74.3455C316.857 75.1412 318.241 75.5206 319.609 75.5206C322.036 75.5206 324.413 74.324 325.824 72.1317C328.032 68.7028 327.04 64.1347 323.61 61.9281Z" fill="#F250A7"/>
<path d="M163.868 36.4544C159.997 36.4544 156.666 38.8066 155.229 42.1575H172.507C171.069 38.8066 167.738 36.4544 163.868 36.4544Z" fill="#5986CD"/>
<path d="M180.644 49.5408H147.09V45.8494C147.09 36.5985 154.617 29.0722 163.868 29.0722C173.119 29.0722 180.644 36.5985 180.644 45.8494V49.5408ZM163.497 16.1616L120.405 43.8889V146.092H206.59V43.8869L163.497 16.1616Z" fill="#5986CD"/>
<path d="M155.229 42.1573C156.665 38.8064 159.997 36.4541 163.868 36.4541C167.738 36.4541 171.07 38.8064 172.506 42.1573H155.229ZM163.868 29.0714C154.617 29.0714 147.09 36.5977 147.09 45.8487V49.54H180.645V45.8487C180.645 36.5977 173.12 29.0714 163.868 29.0714Z" fill="#C3CFED"/>
<path d="M103.47 94.9184C102.258 82.1299 93.3041 77.4767 92.5125 73.3024C91.4369 67.5971 89.8916 61.6294 86.9724 57.5453C79.97 61.047 74.4237 72.4287 74.4237 72.4287C71.1046 70.9665 65.6721 70.9696 63.5824 73.0132C62.3509 67.9981 60.2509 62.6158 54.8769 57.5453C50.799 62.0191 49.0343 67.551 45.266 75.347C41.264 83.6208 31.2901 93.8776 35.6982 106.167C41.4249 122.138 66.9497 126.796 75.6983 125.12C85.2477 123.288 93.5204 120.104 98.5274 113.918C99.885 112.239 101.002 110.341 101.839 108.188C102.036 107.681 102.218 107.16 102.384 106.625C103.007 104.612 103.404 102.394 103.545 99.9479C103.569 99.5398 103.584 99.1245 103.594 98.7041C103.602 98.337 103.606 97.9679 103.604 97.5916C103.596 96.6626 103.55 95.7726 103.47 94.9184Z" fill="#C4CFED"/>
<path d="M55.3318 87.5742C55.8968 88.535 56.1767 89.4968 56.391 90.4586C56.592 91.4194 56.6771 92.3802 56.6781 93.342C56.6771 94.3038 56.592 95.2656 56.391 96.2264C56.1767 97.1872 55.8968 98.149 55.3318 99.1097H54.9934C54.4274 98.149 54.1485 97.1872 53.9342 96.2264C53.7322 95.2656 53.6461 94.3038 53.644 93.342C53.6461 92.3802 53.7322 91.4194 53.9342 90.4586C54.1485 89.4968 54.4274 88.535 54.9934 87.5742H55.3318Z" fill="#231F20"/>
<path d="M85.2238 87.5742C85.7888 88.535 86.0698 89.4968 86.282 90.4586C86.484 91.4194 86.5691 92.3802 86.5701 93.342C86.5691 94.3038 86.484 95.2656 86.282 96.2264C86.0698 97.1872 85.7888 98.149 85.2238 99.1097H84.8844C84.3194 98.149 84.0395 97.1872 83.8262 96.2264C83.6252 95.2656 83.5381 94.3038 83.5381 93.342C83.5381 92.3802 83.6252 91.4194 83.8262 90.4586C84.0395 89.4968 84.3194 88.535 84.8844 87.5742H85.2238Z" fill="#231F20"/>
<path d="M68.6949 104.492H64.6713C62.6708 104.492 62.6708 101.551 64.6713 101.551H75.5465C77.5931 101.551 77.5931 104.492 75.5465 104.492H71.73V116.104C71.73 118.103 68.6949 118.15 68.6949 116.104V104.492Z" fill="#231F20"/>
<path d="M55.1619 87.8928C52.5861 87.8928 49.7817 89.7098 49.7817 93.3417C49.7817 96.951 52.5861 98.7905 55.1619 98.7905C57.8063 98.7905 60.6343 96.951 60.6343 93.3417C60.6343 89.7098 57.8063 87.8928 55.1619 87.8928ZM55.4152 101.619C51.1629 101.803 46.7466 98.9751 46.7466 93.3417C46.7466 87.6867 51.1629 84.9048 55.4152 84.9048C59.4387 85.1109 63.6459 87.8928 63.6459 93.3417C63.6459 98.7905 59.4387 101.619 55.4152 101.619Z" fill="#231F20"/>
<path d="M85.0208 87.8928C82.4451 87.8928 79.6396 89.7098 79.6396 93.3417C79.6396 96.951 82.4451 98.7905 85.0208 98.7905C87.6642 98.7905 90.4922 96.951 90.4922 93.3417C90.4922 89.7098 87.6642 87.8928 85.0208 87.8928ZM85.2731 101.619C81.0198 101.803 76.6045 98.9751 76.6045 93.3417C76.6045 87.6867 81.0198 84.9048 85.2731 84.9048C89.2967 85.1109 93.5048 87.8928 93.5048 93.3417C93.5048 98.7905 89.2967 101.619 85.2731 101.619Z" fill="#231F20"/>
<path d="M138.032 76.5802C138.032 76.5802 128.019 67.8039 136.682 60.4561C139.914 57.7142 150.353 68.737 150.353 68.737C150.353 68.737 156.973 66.4402 162.729 66.3448C168.483 66.2484 175.832 69.421 175.832 69.421C175.832 69.421 182.386 57.747 186.822 60.4561C195.622 65.8311 187.179 75.7927 187.179 75.7927C187.179 75.7927 198.157 88.8704 213.758 92.9668C194.703 100.058 185.848 114.724 175.252 122.073C168.518 126.744 160.476 127.784 151.033 121.512C144.537 117.2 132.507 106.756 113.633 94.5008C128.202 89.298 138.032 76.5802 138.032 76.5802Z" fill="#C1BAB5"/>
<path d="M113.633 94.5022C113.633 94.5022 132.237 94.171 141.678 91.4158C142.446 91.1913 145.134 88.069 146.026 87.9326C150.517 87.2446 155.867 88.0444 154.851 94.1926C154.214 98.0459 152.333 99.4333 154.018 99.0036C154.876 98.7842 157.536 97.7137 158.824 94.8334C161.259 89.3866 158.804 82.1689 157.991 80.9908C152.727 73.3691 133.095 88.1069 113.633 94.5022Z" fill="white"/>
<path d="M213.756 92.9685C213.756 92.9685 198.953 95.3894 185.769 91.6714C184.599 91.3423 182.749 88.8783 182.087 88.2969C178.463 85.111 170.746 87.7903 171.801 92.9685C172.536 96.5717 173.701 99.1239 172.483 98.8809C171.749 98.7342 169.464 97.3941 168.052 94.9619C165.603 90.7404 166.747 82.241 168.337 80.3922C174.6 73.112 195.193 90.2984 213.756 92.9685Z" fill="white"/>
<path d="M148.686 87.5965C149.251 88.5573 149.532 89.5191 149.745 90.4809C149.946 91.4417 150.032 92.4035 150.034 93.3643C150.032 94.3261 149.946 95.2879 149.745 96.2486C149.532 97.2094 149.251 98.1712 148.686 99.132H148.348C147.784 98.1712 147.503 97.2094 147.29 96.2486C147.088 95.2879 147.003 94.3261 147 93.3643C147.003 92.4035 147.088 91.4417 147.29 90.4809C147.503 89.5191 147.784 88.5573 148.348 87.5965H148.686Z" fill="#231F20"/>
<path d="M178.58 87.5965C179.145 88.5573 179.425 89.5191 179.638 90.4809C179.84 91.4417 179.926 92.4035 179.927 93.3643C179.926 94.3261 179.84 95.2879 179.638 96.2486C179.425 97.2094 179.145 98.1712 178.58 99.132H178.241C177.676 98.1712 177.396 97.2094 177.183 96.2486C176.982 95.2879 176.895 94.3261 176.894 93.3643C176.895 92.4035 176.982 91.4417 177.183 90.4809C177.396 89.5191 177.676 88.5573 178.241 87.5965H178.58Z" fill="#231F20"/>
<path d="M162.05 104.516H158.026C156.026 104.516 156.026 101.573 158.026 101.573H168.902C170.948 101.573 170.948 104.516 168.902 104.516H165.086V116.126C165.086 118.126 162.05 118.173 162.05 116.126V104.516Z" fill="#231F20"/>
<path d="M148.516 87.9151C145.943 87.9151 143.137 89.7321 143.137 93.364C143.137 96.9734 145.943 98.8129 148.516 98.8129C151.162 98.8129 153.99 96.9734 153.99 93.364C153.99 89.7321 151.162 87.9151 148.516 87.9151ZM148.772 101.641C144.517 101.824 140.102 98.9975 140.102 93.364C140.102 87.708 144.517 84.9262 148.772 84.9262C152.794 85.1333 157.001 87.9151 157.001 93.364C157.001 98.8129 152.794 101.641 148.772 101.641Z" fill="#231F20"/>
<path d="M178.375 87.9151C175.8 87.9151 172.995 89.7321 172.995 93.364C172.995 96.9734 175.8 98.8129 178.375 98.8129C181.02 98.8129 183.848 96.9734 183.848 93.364C183.848 89.7321 181.02 87.9151 178.375 87.9151ZM178.628 101.641C174.375 101.824 169.96 98.9975 169.96 93.364C169.96 87.708 174.375 84.9262 178.628 84.9262C182.651 85.1333 186.86 87.9151 186.86 93.364C186.86 98.8129 182.651 101.641 178.628 101.641Z" fill="#231F20"/>
<path d="M292.434 107.851C291.2 105.88 288.527 104.236 287.175 102.076C285.79 99.8683 284.713 97.9058 284.849 95.4274C285.108 95.4295 285.408 95.369 285.663 95.3669C285.484 95.0337 285.34 94.6902 285.229 94.3405C284.118 90.8706 286.164 86.7024 287.405 83.412C288.596 80.2467 289.571 80.3666 290.348 77.2125C291.584 72.2046 291.101 65.152 289.718 60.2599C289.123 58.164 288.46 55.1043 286.985 53.2597C285.615 51.5483 284.691 52.2845 282.84 53.3837C278.409 56.022 274.228 59.1423 271.539 62.9936C269.355 66.1261 266.312 70.849 266.572 74.4881C261.302 70.5035 250.711 73.1285 250.711 73.1285C250.325 71.8139 249.211 67.4622 247.615 65.3971C243.704 60.3379 233.291 51.979 230.919 51.3812C228.545 50.7813 223.606 65.7673 223.434 69.3181C223.224 73.6955 224.189 79.1474 228.927 82.037C227.648 81.4197 226.166 81.2105 224.624 81.2946C226.664 85.7899 229.299 85.027 229.299 90.0216C229.299 91.8632 228.468 93.4351 227.325 94.9363C225.999 96.6774 224.251 98.321 222.889 100.173C223.952 99.8335 225.918 99.2603 227.449 98.723C228.139 98.48 228.741 98.2452 229.133 98.0411C228.681 98.5989 228.055 99.2746 227.4 99.9668C226.59 100.823 225.739 101.703 225.123 102.41C223.709 104.039 221.642 105.157 219.967 106.979C222.004 107.058 223.943 107.49 226.24 106.643C227.186 106.294 228.193 105.73 229.292 104.831C228.691 105.979 227.474 106.85 225.695 108.207C224.014 109.486 221.833 111.199 219.188 113.985C220.31 114.122 221.378 114.09 222.383 113.937C226.346 113.323 229.289 110.75 230.376 108.728C230.677 111.01 229.257 118.946 229.4 120.792C229.485 121.838 229.663 123.316 230.666 124.099C232.086 122.463 232.498 119.408 234.314 117.749C234.243 119.783 235.262 121.657 236.11 123.575C236.925 125.431 237.491 128.333 239.562 129.533C239.723 127.14 239.629 124.685 239.574 122.285C240.936 123.786 242.626 125.536 243.52 127.319C244.238 128.738 244.263 129.511 245.676 130.557C246.597 131.238 248.721 132.796 249.799 132.929C249.907 131.292 249.165 127.688 252.218 129.526C254.511 130.901 254.561 134.239 256.806 135.368C258.474 133.748 260.52 132.212 262.072 130.526C262.86 129.67 263.693 128.845 264.576 128.147C265.655 130.068 265.591 132.656 267.03 134.318C268.153 133.563 268.051 132.334 268.591 131.255C269.2 130.048 270.084 128.918 270.671 127.738C271.558 125.972 272.605 122.931 274.201 121.588C275.995 123.865 275.234 127.349 276.163 129.901C277.689 126.189 280.831 122.997 281.421 118.874C282.78 120.887 282.501 123.728 282.738 126.037C284.713 121.259 283.874 115.27 285.922 110.482C287.414 111.209 288.836 112.61 290.25 113.176C290.308 112.964 290.328 112.747 290.319 112.528C290.22 110.435 287.307 107.974 286.388 106.378C288.922 106.06 290.238 107.8 292.434 107.851Z" fill="#FDE3B0"/>
<path d="M247.643 93.1968C246.682 92.6318 245.72 92.3509 244.758 92.1376C243.797 91.9366 242.837 91.8515 241.875 91.8494C240.913 91.8515 239.951 91.9366 238.99 92.1376C238.029 92.3509 237.068 92.6318 236.106 93.1968V93.5352C237.068 94.1002 238.029 94.3801 238.99 94.5944C239.951 94.7964 240.913 94.8815 241.875 94.8835C242.837 94.8815 243.797 94.7964 244.758 94.5944C245.72 94.3801 246.682 94.1002 247.643 93.5352V93.1968Z" fill="#231F20"/>
<path d="M277.536 93.1978C276.575 92.6328 275.613 92.3519 274.652 92.1386C273.691 91.9376 272.729 91.8525 271.768 91.8505C270.806 91.8525 269.845 91.9376 268.884 92.1386C267.922 92.3519 266.961 92.6328 266 93.1978V93.5372C266.961 94.1012 267.922 94.3821 268.884 94.5954C269.845 94.7964 270.806 94.8825 271.768 94.8835C272.729 94.8825 273.691 94.7964 274.652 94.5954C275.613 94.3821 276.575 94.1012 277.536 93.5372V93.1978Z" fill="#231F20"/>
<path d="M255.405 104.518H251.381C249.382 104.518 249.382 101.576 251.381 101.576H262.258C264.303 101.576 264.303 104.518 262.258 104.518H258.441V116.129C258.441 118.128 255.405 118.176 255.405 116.129V104.518Z" fill="#231F20"/>
<path d="M241.873 87.9108C239.299 87.9108 236.494 89.7267 236.494 93.3586C236.494 96.97 239.299 98.8085 241.873 98.8085C244.519 98.8085 247.347 96.97 247.347 93.3586C247.347 89.7267 244.519 87.9108 241.873 87.9108ZM242.128 101.637C237.874 101.821 233.459 98.9931 233.459 93.3586C233.459 87.7037 237.874 84.9218 242.128 84.9218C246.151 85.1289 250.358 87.9108 250.358 93.3586C250.358 98.8085 246.151 101.637 242.128 101.637Z" fill="#231F20"/>
<path d="M271.732 87.9177C269.156 87.9177 266.352 89.7347 266.352 93.3666C266.352 96.977 269.156 98.8165 271.732 98.8165C274.376 98.8165 277.205 96.977 277.205 93.3666C277.205 89.7347 274.376 87.9177 271.732 87.9177ZM271.984 101.644C267.731 101.828 263.317 99.0011 263.317 93.3666C263.317 87.7116 267.731 84.9298 271.984 84.9298C276.008 85.1359 280.217 87.9177 280.217 93.3666C280.217 98.8165 276.008 101.644 271.984 101.644Z" fill="#231F20"/>
</svg>
