<svg width="320" height="46" viewBox="0 0 320 46" fill="none" xmlns="http://www.w3.org/2000/svg">
<path d="M44.9291 22.6236C43.4118 21.2536 41.4069 19.572 39.8619 18.1442C38.8967 18.801 37.8656 19.3974 36.7647 19.9066C38.0504 20.5724 39.8999 20.716 40.7341 21.7946C38.431 22.7535 35.7928 24.1848 35.7928 24.1848C35.7928 24.1848 37.8068 25.9872 39.9101 26.3003C38.1187 27.0752 35.3346 27.2243 33.2461 27.7591C34.9603 28.5575 37.3748 28.4033 39.273 29.1723C39.3279 29.1947 39.3812 29.2229 39.4362 29.2461C41.6443 27.8274 43.927 26.4855 45.4756 25.7746C45.0942 25.1311 44.8663 24.341 44.8663 23.406C44.8663 23.131 44.8918 22.8732 44.9291 22.6236Z" fill="#E1ACAF"/>
<path d="M305.763 14.0056C305.763 14.0056 310.286 8.6693 305.573 5.79104C303.197 4.33974 299.686 10.5926 299.686 10.5926C299.686 10.5926 295.749 8.89334 292.667 8.94473C289.585 8.99613 286.038 10.2265 286.038 10.2265C286.038 10.2265 280.447 4.32169 278.715 5.79104C274.075 9.72668 279.438 14.4274 279.438 14.4274C279.438 14.4274 275.64 18.3532 275.686 18.3128C277.231 19.9634 278.891 21.4614 280.586 22.8268C280.566 23.0171 280.553 23.2133 280.553 23.4169C280.553 24.1941 280.712 24.8698 280.984 25.4453C279.411 26.742 277.719 28.6343 275.897 30.6298C275.897 30.6298 283.576 36.6186 286.402 38.4952C291.461 41.8545 295.768 41.2982 299.375 38.7962C305.051 34.8593 309.794 27.0041 320.001 23.205C311.644 21.011 305.763 14.0056 305.763 14.0056Z" fill="#CCC6C4"/>
<path d="M270.498 26.7856C271.362 26.0417 271.952 24.9192 271.952 23.4275C271.952 22.675 271.8 22.019 271.54 21.4556C273.132 20.4398 274.525 19.3392 275.682 18.3148C271.871 14.245 268.765 9.25708 267.628 3.06817C265.354 5.67493 260.556 11.9011 260.556 11.9011C260.556 11.9011 258.206 12.7937 257.199 11.7936C254.653 9.25825 252.156 3.71986 251.227 3.36871C250.009 2.90927 247.801 13.7408 244.36 19.4267C243.382 21.0432 242.168 22.5891 240.98 23.9395C241.04 24.129 241.111 24.3154 241.209 24.4959C241.072 24.4975 240.911 24.5296 240.773 24.5281C240.7 25.8558 241.276 26.9073 242.018 28.0898C242.743 29.2464 244.175 30.1273 244.836 31.1831C243.66 31.1556 242.954 30.2238 241.597 30.3944C242.089 31.2474 243.641 32.563 243.697 33.6823C249.025 36.9184 256.319 40.4127 262.423 39.9462C267.574 39.5515 272.027 34.8621 275.894 30.6275C274.258 29.4234 272.461 28.1349 270.498 26.7856Z" fill="#D7EAD9"/>
<path d="M106.105 19.845C105.062 17.3689 103.526 13.6651 104.075 12.08C104.645 11.6551 105.184 11.2243 105.616 10.6507C106.484 11.4789 107.501 12.6312 108.516 13.815C109.474 12.1906 110.577 10.7601 111.673 9.54307C110.72 6.60085 109.564 3.91326 108.515 3.12778C107.02 2.0037 100.93 6.08334 98.8708 8.83723C96.9714 7.92267 83.8321 7.04303 81.9818 8.89452C79.3193 6.22969 74.8716 1.46933 72.168 3.25804C71.0784 5.02086 69.7283 9.27235 68.8809 12.8145C69.4835 13.8809 70.2957 14.8645 71.417 15.7955C72.871 14.2006 74.4055 12.3048 75.1165 11.4699C75.5582 12.0105 76.0024 12.297 76.4245 12.5846C76.5085 14.5267 76.4347 16.625 76.2162 18.644C76.884 18.943 77.5969 19.2396 78.3722 19.535C77.7111 20.1431 76.7886 20.5583 75.8886 20.9843C75.8066 21.4571 75.7191 21.9228 75.6198 22.3709C75.5143 22.8519 75.4064 23.3788 75.3012 23.9309C76.2876 24.4111 77.3411 24.6912 78.2843 25.3598C77.1535 25.6831 76.0216 26.1331 74.8551 26.6989C74.7433 27.5444 74.6519 28.4166 74.5931 29.3009C76.1793 29.494 77.5129 29.4618 79.4433 30.0503C77.9778 31.0932 76.2813 31.8065 74.5452 32.3934C74.6421 34.8087 75.0968 37.0949 76.1891 38.7789C79.373 43.6876 84.864 40.8164 90.9842 40.5323C95.5366 40.3208 101.423 44.7328 105.573 38.8731C106.89 37.0137 107.595 34.6765 107.887 32.2734C107.425 31.4624 107.028 30.609 106.721 29.7066C105.495 26.1076 105.459 22.7993 106.105 19.845Z" fill="#FCD6B6"/>
<path d="M172.072 17.1231C172.124 17.1325 172.176 17.1376 172.227 17.1376C173.47 17.1376 174.581 14.3743 172.558 13.2075C175.071 12.8269 174.864 8.29176 172.046 8.29136C171.867 8.29136 171.678 8.30941 171.479 8.34825C172.558 6.1613 170.299 3.5722 167.734 3.57181C166.575 3.57181 165.355 4.09991 164.35 5.43193C164.648 3.51334 163.66 2.49638 162.539 2.49638C161.636 2.49599 160.646 3.15788 160.174 4.54208C160.713 2.38966 158.486 1.15141 156.315 1.15141C154.282 1.15141 152.298 2.23782 152.685 4.67548C151.997 4.07244 150.734 3.59731 149.429 3.59731C147.641 3.59731 145.772 4.48755 145.178 7.16061C144.903 7.09784 144.641 7.06841 144.394 7.06841C141.223 7.06802 140.492 11.9245 142.746 13.1271C140.397 14.0989 141.26 17.2169 143.071 17.7713C142.689 18.2915 142.307 19.1445 141.916 20.0967C143.106 22.6246 143.384 26.2739 140.503 31.5101C138.991 34.2601 137.039 36.3682 134.839 37.9062C135.136 38.0671 135.467 38.1565 135.806 38.1565C136.325 38.1565 136.86 37.9498 137.304 37.4825C137.714 37.814 138.134 37.9549 138.527 37.9549C139.897 37.9549 140.944 36.2513 140.113 35.0311C140.179 35.035 140.243 35.0374 140.306 35.0374C142.707 35.0374 142.311 31.9013 141.136 31.1249C141.339 31.2437 141.539 31.2983 141.73 31.2983C143.042 31.2983 143.962 28.7598 142.726 27.0868C143.56 24.863 144.735 21.8839 144.983 21.4464C145.414 22.4724 143.378 31.1147 143.612 31.5976C144.86 34.1612 148.737 36.9544 150.791 38.8875C152.592 40.5832 155.51 41.7402 158.598 41.7402C161.101 41.7402 163.716 40.9806 165.939 39.1303C168.886 36.6809 170.709 35.0311 173.261 30.8687C173.646 30.2417 171.036 21.6704 171.156 20.801C171.196 20.934 172.304 23.2092 173.232 25.0187C173.469 23.724 173.925 22.4806 174.488 21.2871C173.48 19.569 172.536 17.778 172.072 17.1231Z" fill="#FAD7E5"/>
<path d="M133.795 35.201C133.671 35.243 133.55 35.2622 133.435 35.2622C132.334 35.2622 131.769 33.4829 133.309 32.9332C132.285 31.9076 134.013 28.6841 136.006 28.6841C136.22 28.6841 136.436 28.7206 136.652 28.801C136.071 26.4277 137.459 25.1027 138.898 25.1031C139.063 25.1031 139.229 25.1208 139.393 25.1557C140.328 24.2513 141.142 21.9769 141.915 20.096C140.615 17.3335 138.224 15.9108 137.663 15.2344C135.157 12.2094 135.067 8.26237 134.792 4.33065C129.314 7.51338 126.062 13.7376 124.826 13.8267C121.226 14.088 117.247 4.75281 116.843 5.00863C115.988 5.55046 113.85 7.12495 111.673 9.54339C113.039 13.7584 113.99 18.4968 113.615 18.9244C113.17 19.4321 110.851 16.5401 108.516 13.8153C107.462 15.6024 106.591 17.623 106.105 19.8453C106.416 20.5837 106.685 21.2181 106.839 21.6485C107.722 24.107 108.374 28.2808 107.888 32.2737C112.805 40.9034 125.897 44.1544 134.839 37.9055C134.012 37.4586 133.456 36.4514 133.795 35.201Z" fill="#D4EBED"/>
<path d="M113.615 18.9241C113.99 18.4964 113.039 13.758 111.673 9.54301C110.577 10.7601 109.474 12.1906 108.516 13.8149C110.85 16.5398 113.17 19.4314 113.615 18.9241Z" fill="#E2CBAA"/>
<path d="M205.602 34.4686C207.004 32.9914 208.161 32.08 209.057 31.3969C209.166 31.1191 209.268 30.8355 209.359 30.5416C208.138 30.985 207.104 30.7582 206.019 30.7166C206.917 29.7404 208.023 29.1409 208.781 28.2687C209.106 27.8956 209.552 27.4334 209.98 26.9814C209.993 26.7574 210.003 26.5298 210.008 26.2983C209.19 26.5852 208.15 26.8892 207.584 27.0705C208.31 26.0837 209.238 25.2068 209.947 24.2797C209.305 17.4156 204.501 14.9199 204.076 12.6823C203.5 9.62629 202.671 6.42944 201.109 4.2417C197.358 6.11752 194.387 12.2138 194.387 12.2138C192.608 11.4311 189.699 11.4323 188.58 12.5269C187.92 9.8409 186.795 6.95793 183.917 4.2417C181.732 6.63778 180.787 9.60157 178.769 13.7773C177.689 16.0098 175.798 18.5122 174.488 21.2869C175.517 23.0415 176.612 24.7191 177.33 25.035C179.436 25.2782 181.143 27.546 180.79 30.3109C182.423 31.1246 184.062 33.8648 182.522 34.5942C183.672 36.1129 182.906 37.5038 181.726 38.0774C186.654 40.3397 192.361 40.9573 195.069 40.4382C200.18 39.4573 204.605 37.7522 207.287 34.4443C206.757 34.5247 206.194 34.5416 205.602 34.4686Z" fill="#CDD7EF"/>
<path d="M240.98 23.94C240.389 22.0826 241.478 19.8533 242.142 18.0924C242.78 16.3971 243.302 16.4614 243.719 14.772C244.381 12.0895 244.122 8.31234 243.381 5.69145C243.062 4.56855 242.706 2.92971 241.917 1.94178C241.183 1.02486 240.689 1.41917 239.697 2.00848C237.324 3.42132 235.084 5.09233 233.644 7.15609C232.474 8.83377 230.844 11.3636 230.983 13.3128C228.16 11.1784 222.486 12.5846 222.486 12.5846C222.28 11.8807 221.684 9.5498 220.829 8.44299C218.733 5.73304 213.156 1.25517 211.886 0.935406C210.614 0.614464 207.969 8.64113 207.876 10.5432C207.763 12.8883 208.281 15.8085 210.819 17.356C210.134 17.0256 209.34 16.9134 208.514 16.9589C209.606 19.3668 211.018 18.9579 211.018 21.6334C211.018 22.6256 210.565 23.4723 209.947 24.2801C209.989 24.7321 210.014 25.2022 210.017 25.693C210.019 25.899 210.013 26.0983 210.009 26.2988C210.384 26.1673 210.716 26.0394 210.928 25.9284C210.682 26.2332 210.337 26.604 209.98 26.9818C209.902 28.2844 209.692 29.4693 209.359 30.542C209.872 30.356 210.418 30.0539 211.014 29.5658C210.689 30.1865 210.025 30.6585 209.057 31.3973C208.608 32.5418 208.011 33.5521 207.287 34.4447C209.422 34.1238 211.01 32.7407 211.594 31.6531C211.757 32.8757 210.995 37.1268 211.072 38.1155C211.118 38.6754 211.213 39.4668 211.75 39.8866C212.511 39.0105 212.731 37.374 213.704 36.4857C213.666 37.5749 214.212 38.5785 214.666 39.606C215.103 40.5999 215.405 42.1543 216.515 42.797C216.601 41.5152 216.551 40.2005 216.522 38.9151C217.251 39.7194 218.156 40.6564 218.635 41.6113C219.019 42.3717 219.033 42.7856 219.79 43.3455C220.284 43.7108 221.421 44.5457 221.998 44.6159C222.057 43.7398 221.659 41.8091 223.294 42.7935C224.523 43.5307 224.549 45.3182 225.752 45.9229C226.646 45.055 227.742 44.2326 228.573 43.3298C228.995 42.8712 229.441 42.4286 229.914 42.0551C230.492 43.0838 230.457 44.4704 231.228 45.3614C231.83 44.9561 231.775 44.2977 232.064 43.7202C232.391 43.074 232.864 42.4682 233.179 41.8358C233.654 40.8898 234.215 39.2612 235.07 38.542C236.031 39.7618 235.622 41.627 236.12 42.994C236.938 41.0059 238.62 39.2969 238.937 37.088C239.664 38.1661 239.517 39.6884 239.643 40.9247C240.7 38.3654 240.251 35.1576 241.348 32.5936C242.147 32.9824 242.909 33.7326 243.666 34.0359C243.697 33.9213 243.703 33.8028 243.697 33.6832C239.348 31.0411 236.307 28.5716 236.307 28.5716C236.307 28.5716 238.587 26.6589 240.98 23.94Z" fill="#FFE9C5"/>
<path d="M116.797 20.3143C117.099 20.829 117.249 21.3442 117.364 21.8593C117.471 22.3741 117.517 22.8889 117.518 23.404C117.517 23.9192 117.471 24.4343 117.364 24.9491C117.249 25.4638 117.099 25.979 116.797 26.4941H116.615C116.313 25.979 116.163 25.4638 116.048 24.9491C115.94 24.4343 115.894 23.9192 115.893 23.404C115.894 22.8889 115.94 22.3741 116.048 21.8593C116.163 21.3442 116.313 20.829 116.615 20.3143H116.797Z" fill="#1D1D1B"/>
<path d="M132.808 20.3143C133.111 20.829 133.261 21.3442 133.375 21.8593C133.483 22.3741 133.529 22.8889 133.529 23.404C133.529 23.9192 133.483 24.4343 133.375 24.9491C133.261 25.4638 133.111 25.979 132.808 26.4941H132.626C132.324 25.979 132.174 25.4638 132.06 24.9491C131.952 24.4343 131.905 23.9192 131.905 23.404C131.905 22.8889 131.952 22.3741 132.059 21.8593C132.174 21.3442 132.324 20.829 132.626 20.3143H132.808Z" fill="#1D1D1B"/>
<path d="M123.955 29.3781H121.8C120.728 29.3781 120.728 27.8012 121.8 27.8012H127.625C128.721 27.8012 128.721 29.3781 127.625 29.3781H125.581V35.598C125.581 36.6683 123.955 36.6934 123.955 35.598V29.3781Z" fill="#1D1D1B"/>
<path d="M116.706 20.4856C115.327 20.4856 113.824 21.4586 113.824 23.4047C113.824 25.3382 115.327 26.3234 116.706 26.3234C118.122 26.3234 119.638 25.3382 119.638 23.4047C119.638 21.4586 118.122 20.4856 116.706 20.4856ZM116.842 27.8382C114.564 27.9371 112.198 26.4219 112.198 23.4047C112.198 20.375 114.564 18.8848 116.842 18.8848C118.997 18.9963 121.251 20.4856 121.251 23.4047C121.251 26.3234 118.997 27.8382 116.842 27.8382Z" fill="#1D1D1B"/>
<path d="M132.699 20.4856C131.32 20.4856 129.817 21.4586 129.817 23.4047C129.817 25.3382 131.32 26.3234 132.699 26.3234C134.115 26.3234 135.63 25.3382 135.63 23.4047C135.63 21.4586 134.115 20.4856 132.699 20.4856ZM132.834 27.8382C130.556 27.9371 128.191 26.4219 128.191 23.4047C128.191 20.375 130.556 18.8848 132.834 18.8848C134.989 18.9963 137.244 20.4856 137.244 23.4047C137.244 26.3234 134.989 27.8382 132.834 27.8382Z" fill="#1D1D1B"/>
<path d="M79.9395 23.3279C80.4538 23.0254 80.9694 22.8747 81.4845 22.7601C81.9993 22.6526 82.514 22.6067 83.0288 22.6059C83.5443 22.6067 84.0591 22.6526 84.5743 22.7601C85.089 22.8747 85.6042 23.0254 86.1189 23.3279V23.5091C85.6042 23.8116 85.089 23.9615 84.5743 24.0761C84.0591 24.1844 83.5443 24.2303 83.0288 24.2314C82.514 24.2303 81.9993 24.1844 81.4845 24.0761C80.9694 23.9615 80.4538 23.8116 79.9395 23.5091V23.3279Z" fill="#1D1D1B"/>
<path d="M102.131 23.3283C101.616 23.0258 101.101 22.8755 100.586 22.7613C100.071 22.6534 99.5557 22.6071 99.0413 22.6067C98.5258 22.6071 98.011 22.6534 97.4958 22.7613C96.9811 22.8755 96.4659 23.0258 95.9512 23.3283V23.5099C96.4659 23.812 96.9811 23.9627 97.4958 24.0769C98.011 24.1844 98.5258 24.2307 99.0413 24.2314C99.5557 24.2307 100.071 24.1844 100.586 24.0773C101.101 23.9627 101.616 23.812 102.131 23.5099V23.3283Z" fill="#1D1D1B"/>
<path d="M90.2778 29.3916H88.1227C87.0516 29.3916 87.0516 27.8151 88.1227 27.8151H93.9483C95.0441 27.8151 95.0441 29.3916 93.9483 29.3916H91.9041V35.6115C91.9041 36.6822 90.2778 36.7069 90.2778 35.6115V29.3916Z" fill="#1D1D1B"/>
<path d="M83.0284 20.4997C81.6493 20.4997 80.147 21.4727 80.147 23.418C80.147 25.3519 81.6493 26.3371 83.0284 26.3371C84.4456 26.3371 85.9604 25.3519 85.9604 23.418C85.9604 21.4727 84.4456 20.4997 83.0284 20.4997ZM83.1649 27.8519C80.8862 27.9504 78.5215 26.4359 78.5215 23.418C78.5215 20.3887 80.8862 18.8985 83.1649 18.8985C85.3197 19.0096 87.5737 20.4997 87.5737 23.418C87.5737 26.3371 85.3197 27.8519 83.1649 27.8519Z" fill="#1D1D1B"/>
<path d="M99.0223 20.4997C97.6428 20.4997 96.1398 21.4727 96.1398 23.418C96.1398 25.3519 97.6428 26.3371 99.0223 26.3371C100.439 26.3371 101.954 25.3519 101.954 23.418C101.954 21.4727 100.439 20.4997 99.0223 20.4997ZM99.1577 27.8519C96.8789 27.9504 94.5146 26.4359 94.5146 23.418C94.5146 20.3887 96.8789 18.8985 99.1577 18.8985C101.313 19.0096 103.567 20.4997 103.567 23.418C103.567 26.3371 101.313 27.8519 99.1577 27.8519Z" fill="#1D1D1B"/>
<path d="M184.16 20.326C184.463 20.8407 184.613 21.3559 184.727 21.8714C184.836 22.3858 184.881 22.901 184.882 23.4157C184.881 23.9313 184.836 24.446 184.727 24.9608C184.613 25.4759 184.463 25.9907 184.16 26.5059H183.979C183.676 25.9907 183.526 25.4759 183.412 24.9608C183.304 24.446 183.258 23.9313 183.257 23.4157C183.258 22.901 183.304 22.3858 183.412 21.8714C183.526 21.3559 183.676 20.8407 183.979 20.326H184.16Z" fill="#1D1D1B"/>
<path d="M200.172 20.326C200.475 20.8407 200.625 21.3559 200.739 21.8714C200.847 22.3858 200.893 22.901 200.894 23.4157C200.893 23.9313 200.847 24.446 200.739 24.9608C200.625 25.4759 200.475 25.9907 200.172 26.5059H199.991C199.688 25.9907 199.538 25.4759 199.423 24.9608C199.316 24.446 199.27 23.9313 199.269 23.4157C199.27 22.901 199.316 22.3858 199.423 21.8714C199.538 21.3559 199.688 20.8407 199.991 20.326H200.172Z" fill="#1D1D1B"/>
<path d="M191.318 29.3888H189.162C188.091 29.3888 188.091 27.8124 189.162 27.8124H194.988C196.083 27.8124 196.083 29.3888 194.988 29.3888H192.943V35.6087C192.943 36.679 191.318 36.7041 191.318 35.6087V29.3888Z" fill="#1D1D1B"/>
<path d="M184.069 20.4964C182.69 20.4964 181.187 21.4694 181.187 23.4151C181.187 25.349 182.69 26.3338 184.069 26.3338C185.486 26.3338 187 25.349 187 23.4151C187 21.4694 185.486 20.4964 184.069 20.4964ZM184.205 27.849C181.926 27.9475 179.562 26.4326 179.562 23.4151C179.562 20.3858 181.926 18.8956 184.205 18.8956C186.36 19.0066 188.614 20.4964 188.614 23.4151C188.614 26.3338 186.36 27.849 184.205 27.849Z" fill="#1D1D1B"/>
<path d="M200.062 20.4964C198.683 20.4964 197.18 21.4694 197.18 23.4151C197.18 25.349 198.683 26.3338 200.062 26.3338C201.478 26.3338 202.994 25.349 202.994 23.4151C202.994 21.4694 201.478 20.4964 200.062 20.4964ZM200.197 27.849C197.919 27.9475 195.555 26.4326 195.555 23.4151C195.555 20.3858 197.919 18.8956 200.197 18.8956C202.353 19.0066 204.607 20.4964 204.607 23.4151C204.607 26.3338 202.353 27.849 200.197 27.849Z" fill="#1D1D1B"/>
<path d="M220.843 23.3327C220.328 23.0302 219.813 22.8796 219.298 22.765C218.783 22.6575 218.268 22.6116 217.753 22.6108C217.238 22.6116 216.723 22.6575 216.208 22.765C215.693 22.8796 215.178 23.0302 214.663 23.3327V23.514C215.178 23.8165 215.693 23.9664 216.208 24.081C216.723 24.1892 217.238 24.2352 217.753 24.2363C218.268 24.2352 218.783 24.1892 219.298 24.081C219.813 23.9664 220.328 23.8165 220.843 23.514V23.3327Z" fill="#1D1D1B"/>
<path d="M236.854 23.3326C236.34 23.0301 235.824 22.8798 235.309 22.7656C234.795 22.6577 234.28 22.6118 233.765 22.611C233.249 22.6118 232.735 22.6577 232.219 22.7656C231.705 22.8798 231.19 23.0301 230.675 23.3326V23.5142C231.19 23.8167 231.705 23.967 232.219 24.0812C232.735 24.1891 233.249 24.2354 233.765 24.2354C234.28 24.2354 234.795 24.1891 235.309 24.0816C235.824 23.967 236.34 23.8167 236.854 23.5142V23.3326Z" fill="#1D1D1B"/>
<path d="M225.001 29.3966H222.845C221.774 29.3966 221.774 27.8202 222.845 27.8202H228.671C229.767 27.8202 229.767 29.3966 228.671 29.3966H226.626V35.6165C226.626 36.6868 225.001 36.712 225.001 35.6165V29.3966Z" fill="#1D1D1B"/>
<path d="M217.752 20.5046C216.373 20.5046 214.871 21.4772 214.871 23.4229C214.871 25.3568 216.373 26.342 217.752 26.342C219.169 26.342 220.684 25.3568 220.684 23.4229C220.684 21.4772 219.169 20.5046 217.752 20.5046ZM217.889 27.8568C215.61 27.9553 213.245 26.4408 213.245 23.4229C213.245 20.3936 215.61 18.9034 217.889 18.9034C220.043 19.0145 222.297 20.5046 222.297 23.4229C222.297 26.342 220.043 27.8568 217.889 27.8568Z" fill="#1D1D1B"/>
<path d="M233.746 20.5046C232.367 20.5046 230.864 21.4772 230.864 23.4229C230.864 25.3568 232.367 26.342 233.746 26.342C235.162 26.342 236.677 25.3568 236.677 23.4229C236.677 21.4772 235.162 20.5046 233.746 20.5046ZM233.881 27.8568C231.603 27.9553 229.238 26.4408 229.238 23.4229C229.238 20.3936 231.603 18.9034 233.881 18.9034C236.037 19.0145 238.291 20.5046 238.291 23.4229C238.291 26.342 236.037 27.8568 233.881 27.8568Z" fill="#1D1D1B"/>
<path d="M175.324 33.3044C175.012 34.9228 176.203 36.8979 177.8 36.8979C178.017 36.8979 178.242 36.861 178.472 36.7818C178.853 37.8999 179.694 38.3574 180.555 38.3574C180.956 38.3574 181.359 38.2554 181.724 38.0781C179.226 36.932 176.93 35.3642 175.324 33.3044Z" fill="#FAD7E5"/>
<path d="M140.503 31.5092C143.384 26.2729 143.106 22.6237 141.916 20.0958C141.142 21.9771 140.329 24.2512 139.393 25.1559C139.229 25.1206 139.063 25.1029 138.898 25.1029C137.459 25.1026 136.071 26.4275 136.652 28.8012C136.436 28.7208 136.22 28.6839 136.007 28.6839C134.013 28.6839 132.284 31.9078 133.308 32.933C131.769 33.4827 132.335 35.262 133.435 35.262C133.55 35.262 133.67 35.2432 133.795 35.2008C133.456 36.4512 134.012 37.4584 134.839 37.9053C137.039 36.3673 138.991 34.2592 140.503 31.5092Z" fill="#D2D3DC"/>
<path d="M106.839 21.6488C106.685 21.2184 106.416 20.5844 106.105 19.8456C105.459 22.8 105.495 26.1087 106.72 29.7077C107.028 30.6097 107.425 31.463 107.887 32.2744C108.374 28.2815 107.722 24.1073 106.839 21.6488Z" fill="#E2CBAA"/>
<path d="M78.2846 25.3601C77.3418 24.6916 76.2883 24.4114 75.3016 23.9308C75.1387 24.7908 74.9846 25.7234 74.8555 26.6992C76.0219 26.1335 77.1538 25.6834 78.2846 25.3601Z" fill="#D8B1B8"/>
<path d="M78.3722 19.536C77.597 19.2406 76.8845 18.944 76.2163 18.645C76.1304 19.4434 76.0201 20.2269 75.8887 20.9854C76.7887 20.5593 77.7111 20.1442 78.3722 19.536Z" fill="#D8B1B8"/>
<path d="M68.1776 18.2948C68.5398 18.7322 69.9373 17.4206 71.4173 15.7975C70.2963 14.8664 69.4838 13.8824 68.8811 12.8164C68.22 15.5813 67.8645 17.9142 68.1776 18.2948Z" fill="#D8B1B8"/>
<path d="M74.5932 29.3011C74.5249 30.3329 74.5045 31.3731 74.5453 32.3936C76.2815 31.8066 77.978 31.0933 79.4434 30.0505C77.5131 29.4619 76.1795 29.4941 74.5932 29.3011Z" fill="#D8B1B8"/>
<path d="M174.325 27.0469C174.106 26.6966 173.69 25.9134 173.232 25.0185C172.925 26.6895 172.982 28.4449 173.642 30.2862C174.039 31.3918 174.615 32.3946 175.324 33.3037C175.404 32.887 175.579 32.4927 175.878 32.1632C173.929 31.8359 173.381 28.6046 174.325 27.0469Z" fill="#CDD7EF"/>
<path d="M182.521 34.5939C184.061 33.8645 182.422 31.124 180.789 30.3106C181.142 27.5457 179.435 25.278 177.329 25.0347C176.611 24.7189 175.516 23.0408 174.487 21.2866C173.924 22.4801 173.468 23.7235 173.231 25.0182C173.69 25.9132 174.106 26.6963 174.325 27.0467C173.381 28.6039 173.929 31.8357 175.878 32.1629C175.579 32.4925 175.404 32.8864 175.324 33.3034C176.93 35.3633 179.227 36.9311 181.725 38.0771C182.905 37.5035 183.671 36.1127 182.521 34.5939Z" fill="#CCBEDD"/>
<path d="M210.008 26.2982C210.013 26.0977 210.018 25.8984 210.017 25.6924C210.013 25.2016 209.988 24.7315 209.947 24.2795C209.238 25.2067 208.31 26.0836 207.583 27.0703C208.15 26.889 209.189 26.585 210.008 26.2982Z" fill="#CECACB"/>
<path d="M206.019 30.7155C207.103 30.7571 208.137 30.9842 209.358 30.5409C209.691 29.4678 209.901 28.2833 209.979 26.9803C209.551 27.4327 209.104 27.8949 208.78 28.268C208.022 29.1398 206.915 29.7397 206.019 30.7155Z" fill="#CECACB"/>
<path d="M205.602 34.4683C206.193 34.5412 206.756 34.5244 207.286 34.4439C208.011 33.5513 208.607 32.541 209.056 31.3966C208.16 32.0796 207.003 32.9911 205.602 34.4683Z" fill="#CECACB"/>
<path d="M244.836 31.182C244.174 30.1262 242.743 29.2454 242.018 28.0887C241.276 26.9062 240.699 25.8547 240.773 24.5274C240.911 24.5285 241.072 24.4964 241.209 24.4948C241.111 24.3147 241.04 24.1276 240.98 23.9385C238.587 26.6574 236.307 28.5701 236.307 28.5701C236.307 28.5701 239.347 31.0396 243.697 33.6816C243.64 32.5619 242.089 31.2463 241.597 30.3934C242.954 30.2227 243.66 31.1545 244.836 31.182Z" fill="#D8DDB1"/>
<path d="M251.5 20.3387C251.803 20.8534 251.953 21.3686 252.068 21.8841C252.175 22.3985 252.221 22.9137 252.222 23.4284C252.221 23.9436 252.175 24.4587 252.068 24.9735C251.953 25.4882 251.803 26.0034 251.5 26.5186H251.319C251.016 26.0034 250.866 25.4882 250.752 24.9735C250.643 24.4587 250.597 23.9436 250.597 23.4284C250.597 22.9137 250.643 22.3985 250.752 21.8841C250.866 21.3686 251.016 20.8534 251.319 20.3387H251.5Z" fill="#1D1D1B"/>
<path d="M267.511 20.3387C267.814 20.8534 267.964 21.3686 268.078 21.8841C268.186 22.3985 268.232 22.9137 268.233 23.4284C268.232 23.9436 268.186 24.4587 268.078 24.9735C267.964 25.4882 267.814 26.0034 267.511 26.5186H267.33C267.027 26.0034 266.877 25.4882 266.763 24.9735C266.655 24.4587 266.609 23.9436 266.608 23.4284C266.609 22.9137 266.655 22.3985 266.763 21.8841C266.877 21.3686 267.027 20.8534 267.33 20.3387H267.511Z" fill="#1D1D1B"/>
<path d="M258.657 29.4016H256.502C255.43 29.4016 255.43 27.8248 256.502 27.8248H262.327C263.423 27.8248 263.423 29.4016 262.327 29.4016H260.283V35.6211C260.283 36.6918 258.657 36.7169 258.657 35.6211V29.4016Z" fill="#1D1D1B"/>
<path d="M251.409 20.5091C250.03 20.5091 248.527 21.4821 248.527 23.4277C248.527 25.3616 250.03 26.3464 251.409 26.3464C252.825 26.3464 254.341 25.3616 254.341 23.4277C254.341 21.4821 252.825 20.5091 251.409 20.5091ZM251.545 27.8617C249.267 27.9605 246.901 26.4453 246.901 23.4277C246.901 20.3984 249.267 18.9083 251.545 18.9083C253.7 19.0193 255.954 20.5091 255.954 23.4277C255.954 26.3464 253.7 27.8617 251.545 27.8617Z" fill="#1D1D1B"/>
<path d="M267.402 20.5091C266.022 20.5091 264.52 21.4821 264.52 23.4277C264.52 25.3616 266.022 26.3464 267.402 26.3464C268.818 26.3464 270.333 25.3616 270.333 23.4277C270.333 21.4821 268.818 20.5091 267.402 20.5091ZM267.538 27.8617C265.259 27.9605 262.895 26.4453 262.895 23.4277C262.895 20.3984 265.259 18.9083 267.538 18.9083C269.692 19.0193 271.947 20.5091 271.947 23.4277C271.947 26.3464 269.692 27.8617 267.538 27.8617Z" fill="#1D1D1B"/>
<path d="M153.477 23.2999C152.963 22.9974 152.447 22.8468 151.932 22.7326C151.418 22.6247 150.903 22.5792 150.388 22.578C149.872 22.5792 149.357 22.6247 148.843 22.7326C148.328 22.8468 147.813 22.9974 147.298 23.2999V23.4812C147.813 23.7837 148.328 23.9336 148.843 24.0481C149.357 24.1564 149.872 24.2023 150.388 24.2031C150.903 24.2023 151.418 24.1564 151.932 24.0481C152.447 23.9336 152.963 23.7837 153.477 23.4812V23.2999Z" fill="#1D1D1B"/>
<path d="M169.489 23.3003C168.975 22.9978 168.459 22.8472 167.944 22.733C167.43 22.6251 166.914 22.5792 166.4 22.5784C165.884 22.5792 165.369 22.6251 164.854 22.733C164.339 22.8472 163.824 22.9978 163.31 23.3003V23.482C163.824 23.7841 164.339 23.9344 164.854 24.0485C165.369 24.1564 165.884 24.2027 166.4 24.2031C166.914 24.2027 167.43 24.1564 167.944 24.0485C168.459 23.9344 168.975 23.7841 169.489 23.482V23.3003Z" fill="#1D1D1B"/>
<path d="M157.637 29.3641H155.481C154.41 29.3641 154.41 27.7876 155.481 27.7876H161.307C162.403 27.7876 162.403 29.3641 161.307 29.3641H159.262V35.584C159.262 36.6547 157.637 36.6798 157.637 35.584V29.3641Z" fill="#1D1D1B"/>
<path d="M150.388 20.4719C149.008 20.4719 147.506 21.445 147.506 23.3906C147.506 25.3245 149.008 26.3093 150.388 26.3093C151.804 26.3093 153.319 25.3245 153.319 23.3906C153.319 21.445 151.804 20.4719 150.388 20.4719ZM150.523 27.8246C148.245 27.9234 145.88 26.4082 145.88 23.3906C145.88 20.3613 148.245 18.8712 150.523 18.8712C152.678 18.9818 154.932 20.4719 154.932 23.3906C154.932 26.3093 152.678 27.8246 150.523 27.8246Z" fill="#1D1D1B"/>
<path d="M166.381 20.4719C165.002 20.4719 163.499 21.445 163.499 23.3906C163.499 25.3245 165.002 26.3093 166.381 26.3093C167.797 26.3093 169.312 25.3245 169.312 23.3906C169.312 21.445 167.797 20.4719 166.381 20.4719ZM166.516 27.8246C164.238 27.9234 161.873 26.4082 161.873 23.3906C161.873 20.3613 164.238 18.8712 166.516 18.8712C168.672 18.9818 170.925 20.4719 170.925 23.3906C170.925 26.3093 168.672 27.8246 166.516 27.8246Z" fill="#1D1D1B"/>
<path d="M40.2305 17.8809L40.2318 17.8828L40.2305 17.8809Z" fill="#F3A995"/>
<path d="M280.98 25.4468C280.709 24.8708 280.549 24.1956 280.549 23.4183C280.549 23.2143 280.562 23.0185 280.583 22.8282C278.888 21.4629 277.228 19.9649 275.682 18.3139C274.525 19.3387 273.13 20.4404 271.538 21.4574C271.797 22.0208 271.949 22.6764 271.949 23.4293C271.949 24.921 271.359 26.0435 270.495 26.787C272.459 28.1375 274.257 29.4264 275.893 30.6309C277.716 28.6358 279.408 26.7431 280.98 25.4468Z" fill="#B7BDB2"/>
<path d="M290.129 16.7877C288.284 14.1161 283.143 16.573 276.89 19.5502C278.008 20.6511 279.174 21.6771 280.357 22.6403C280.719 22.556 281.065 22.4665 281.391 22.3716C281.802 22.2515 283.242 20.5789 283.72 20.5059C286.126 20.1371 288.991 20.5656 288.447 23.8589C288.106 25.9227 287.098 26.6666 288.001 26.4363C288.46 26.319 289.885 25.7457 290.575 24.2023C291.88 21.2844 290.564 17.4182 290.129 16.7877Z" fill="white"/>
<path d="M271.723 21.9405C271.867 22.3873 271.949 22.8821 271.949 23.4298C271.949 23.542 271.939 23.648 271.933 23.7559C274.665 23.5569 277.89 23.2168 280.357 22.6412C279.173 21.6776 278.008 20.652 276.889 19.5507C275.232 20.3397 273.496 21.164 271.723 21.9405Z" fill="white"/>
<path d="M75.8886 20.9846C76.0201 20.2262 76.1299 19.4427 76.2162 18.6442C74.1752 17.7304 72.6172 16.7931 71.417 15.7958C69.9371 17.4193 68.5392 18.7305 68.177 18.2935C67.8639 17.9125 68.2194 15.58 68.8809 12.8147C67.4669 10.3107 67.1962 7.35165 66.7344 3.54234C63.0424 6.03611 59.7137 11.4556 57.5954 14.3264C55.4131 10.4386 52.4972 6.60619 48.9084 3.74911C48.7734 8.17166 45.6496 14.0439 40.2359 17.8913C40.1135 17.978 39.9864 18.06 39.8616 18.1448C41.9956 20.1167 45.0092 22.5748 46.3993 24.0241L46.9706 25.2533C45.8477 25.3757 42.5637 27.2378 39.4355 29.247C39.4371 29.2474 39.4387 29.2482 39.4399 29.2486C41.6229 30.1695 43.6882 31.7255 45.5958 33.2329C45.9364 33.5021 46.2734 33.7704 46.6034 34.0325C46.6045 34.0333 46.6053 34.0337 46.6065 34.0345C50.5896 37.1956 53.5938 41.1089 59.1907 40.3662C63.5253 39.791 65.6974 35.1299 69.8053 33.8418C71.3209 33.3667 72.9492 32.9332 74.5448 32.3937C74.5044 31.3736 74.5244 30.3331 74.5927 29.3012C73.6852 29.1905 72.6949 29.0073 71.4602 28.5899C72.6431 27.8585 73.7645 27.2284 74.8552 26.6991C74.9843 25.7234 75.1381 24.7904 75.3013 23.9311C74.6527 23.6149 74.0332 23.2131 73.4953 22.5536C74.0619 21.8717 74.9635 21.4224 75.8886 20.9846Z" fill="#D8CCE6"/>
<path d="M33.2461 27.7591C35.3346 27.2244 38.1187 27.0753 39.9102 26.3C37.8068 25.9869 35.7929 24.1848 35.7929 24.1848C35.7929 24.1848 38.4306 22.7532 40.7341 21.7946C39.8996 20.7161 38.0504 20.5725 36.7647 19.9067C37.8656 19.3974 38.8967 18.8006 39.8619 18.1438C39.0027 17.3497 38.2843 16.6333 37.8739 16.0946C38.3137 13.8602 38.9583 10.4303 38.8579 7.09924C38.7935 4.96878 38.1136 2.2247 37.3685 1.08767C37.117 0.703568 36.8942 0.625877 36.4822 0.825584C34.7139 1.6809 33.1167 2.79557 31.6442 4.08796C30.4087 5.17281 26.7571 8.87579 25.8296 10.2337C25.717 10.3985 25.6016 10.4668 25.3917 10.4252C23.6057 10.0736 22.5233 9.36858 20.7369 9.7162C20.5356 9.75543 19.6179 9.87235 19.4943 9.70796C17.8963 7.5885 14.6959 3.0243 12.4803 1.56163C11.6948 1.04295 10.8619 0.595276 10.034 0.144466C9.54908 -0.119976 9.34074 -0.0250282 9.05786 0.452854C7.92868 2.36084 7.37155 5.4243 7.17969 7.61792C6.98077 9.89668 7.87571 13.881 8.53721 16.3606C7.08631 19.8588 -1.21147 24.5705 0.150375 25.2524C3.98833 27.1741 11.5293 32.0047 14.0956 34.3443C17.7107 37.64 20.5772 39.6524 22.4844 39.4884C22.8006 39.4609 23.7391 39.6571 24.6211 39.4884C28.2774 38.7865 30.8595 35.7265 33.4902 33.4588C33.4961 33.4537 33.5043 33.447 33.5102 33.4419L33.5063 33.4588C34.6578 32.4661 36.9997 30.8112 39.4358 29.2461C39.3813 29.2226 39.3275 29.1943 39.273 29.1724C37.3748 28.4034 34.9603 28.5572 33.2461 27.7591Z" fill="#F3A995"/>
<path d="M34.4175 22.2375C34.5532 22.5772 34.6333 22.9637 34.6333 23.4023C34.6333 25.3362 33.1184 26.3214 31.702 26.3214C30.3225 26.3214 28.8202 25.3362 28.8202 23.4023C28.8202 23.1724 28.8426 22.9574 28.8818 22.7546C27.6318 23.2505 26.8342 24.1003 26.7824 25.4422C26.6851 27.9799 29.4162 29.2829 23.6985 29.2213C18.075 29.1608 20.2337 27.2564 20.2521 25.7145C20.2678 24.4024 19.6448 23.5208 18.6094 22.9613C18.6278 23.103 18.6403 23.2485 18.6403 23.4023C18.6403 25.3362 17.1255 26.3214 15.7083 26.3214C14.3296 26.3214 12.8269 25.3362 12.8269 23.4023C12.8269 22.9358 12.9152 22.527 13.0659 22.1719C6.99702 22.4894 -0.597274 25.0906 0.166628 25.2538C7.87431 26.9029 11.3693 28.1949 14.4473 30.3402C17.4402 32.426 18.8459 37.0518 23.7303 33.6352C29.1408 36.6888 29.3169 32.6531 32.9513 30.0479C35.5804 28.1631 40.1811 27.2442 46.9706 25.2538C47.6059 25.0675 40.3965 22.6537 34.4175 22.2375Z" fill="white"/>
<path d="M13.0848 21.7786C13.6815 21.7739 14.203 21.9014 14.7067 22.0599C15.2058 22.2239 15.6751 22.4417 16.1212 22.6982C16.5669 22.9568 16.9902 23.2542 17.3822 23.6046C17.7706 23.9612 18.1418 24.3489 18.4364 24.8683L18.3458 25.0253C17.7486 25.03 17.2276 24.9025 16.7242 24.744C16.2243 24.5799 15.7555 24.3622 15.3086 24.1056C14.8637 23.847 14.4403 23.55 14.0488 23.1993C13.6596 22.8426 13.2884 22.4546 12.9941 21.9355L13.0848 21.7786Z" fill="#1D1D1B"/>
<path d="M34.4485 21.9355C34.1543 22.4546 33.7831 22.8426 33.3939 23.1989C33.0019 23.5497 32.579 23.8475 32.1337 24.1052C31.6868 24.3622 31.2179 24.58 30.7181 24.744C30.2151 24.9025 29.694 25.0296 29.0969 25.0253L29.0059 24.8676C29.3005 24.3485 29.6713 23.9608 30.0601 23.6042C30.4524 23.2542 30.8754 22.956 31.3211 22.6979C31.7672 22.4413 32.2368 22.2239 32.7359 22.0595C33.2393 21.901 33.7607 21.7731 34.3575 21.7782L34.4485 21.9355Z" fill="#1D1D1B"/>
<path d="M22.9634 29.3749H20.8082C19.7371 29.3749 19.7371 27.7985 20.8082 27.7985H26.6338C27.7296 27.7985 27.7296 29.3749 26.6338 29.3749H24.5897V35.5944C24.5897 36.6656 22.9634 36.6907 22.9634 35.5944V29.3749Z" fill="#1D1D1B"/>
<path d="M15.7149 20.4817C14.3362 20.4817 12.8335 21.4548 12.8335 23.4004C12.8335 25.3343 14.3362 26.3191 15.7149 26.3191C17.1321 26.3191 18.6469 25.3343 18.6469 23.4004C18.6469 21.4548 17.1321 20.4817 15.7149 20.4817ZM15.8515 27.8344C13.5727 27.9328 11.208 26.418 11.208 23.4004C11.208 20.3711 13.5727 18.881 15.8515 18.881C18.0062 18.9916 20.2603 20.4817 20.2603 23.4004C20.2603 26.3191 18.0062 27.8344 15.8515 27.8344Z" fill="#1D1D1B"/>
<path d="M31.7089 20.4817C30.329 20.4817 28.8267 21.4548 28.8267 23.4004C28.8267 25.3343 30.329 26.3191 31.7089 26.3191C33.1252 26.3191 34.6401 25.3343 34.6401 23.4004C34.6401 21.4548 33.1252 20.4817 31.7089 20.4817ZM31.8438 27.8344C29.5659 27.9328 27.2012 26.418 27.2012 23.4004C27.2012 20.3711 29.5659 18.881 31.8438 18.881C33.999 18.9916 36.2538 20.4817 36.2538 23.4004C36.2538 26.3191 33.999 27.8344 31.8438 27.8344Z" fill="#1D1D1B"/>
<path d="M320 23.2043C320 23.2043 312.07 24.501 305.008 22.5095C304.382 22.3329 303.391 21.0134 303.036 20.7019C301.095 18.9956 296.961 20.4304 297.527 23.2043C297.92 25.1343 298.544 26.5012 297.891 26.3714C297.498 26.2929 296.274 25.5753 295.518 24.2719C294.206 22.0108 294.819 17.458 295.671 16.4681C299.026 12.5681 310.057 21.7742 320 23.2043Z" fill="white"/>
<path d="M292.304 29.3906H290.148C289.077 29.3906 289.077 27.8141 290.148 27.8141H295.974C297.069 27.8141 297.069 29.3906 295.974 29.3906H293.93V35.6101C293.93 36.6812 292.304 36.7063 292.304 35.6101V29.3906Z" fill="#1D1D1B"/>
<path d="M301.048 20.4977C299.669 20.4977 298.167 21.4708 298.167 23.4164C298.167 25.3503 299.669 26.3351 301.048 26.3351C302.465 26.3351 303.98 25.3503 303.98 23.4164C303.98 21.4708 302.465 20.4977 301.048 20.4977ZM301.184 27.8499C298.906 27.9488 296.541 26.434 296.541 23.4164C296.541 20.3871 298.906 18.8969 301.184 18.8969C303.339 19.0076 305.594 20.4977 305.594 23.4164C305.594 26.3351 303.339 27.8499 301.184 27.8499Z" fill="#1D1D1B"/>
<path d="M285.055 20.4977C283.676 20.4977 282.173 21.4708 282.173 23.4164C282.173 25.3503 283.676 26.3351 285.055 26.3351C286.472 26.3351 287.987 25.3503 287.987 23.4164C287.987 21.4708 286.472 20.4977 285.055 20.4977ZM285.191 27.8499C282.913 27.9488 280.548 26.434 280.548 23.4164C280.548 20.3871 282.913 18.8969 285.191 18.8969C287.346 19.0076 289.6 20.4977 289.6 23.4164C289.6 26.3351 287.346 27.8499 285.191 27.8499Z" fill="#1D1D1B"/>
<path d="M299.601 21.9159C298.912 21.9159 298.16 22.4028 298.16 23.375C298.16 24.3422 298.912 24.835 299.601 24.835C300.31 24.835 301.067 24.3422 301.067 23.375C301.067 22.4028 300.31 21.9159 299.601 21.9159Z" fill="#1D1D1B"/>
<path d="M283.607 21.9159C282.917 21.9159 282.166 22.4028 282.166 23.375C282.166 24.3422 282.917 24.835 283.607 24.835C284.316 24.835 285.073 24.3422 285.073 23.375C285.073 22.4028 284.316 21.9159 283.607 21.9159Z" fill="#1D1D1B"/>
<path d="M49.3739 20.4876C47.9948 20.4876 46.4921 21.4606 46.4921 23.4063C46.4921 25.3401 47.9948 26.3249 49.3739 26.3249C50.7903 26.3249 52.3051 25.3401 52.3051 23.4063C52.3051 21.4606 50.7903 20.4876 49.3739 20.4876ZM49.5097 27.8402C47.2317 27.9391 44.8662 26.4238 44.8662 23.4063C44.8662 20.3769 47.2317 18.8868 49.5097 18.8868C51.6648 18.9974 53.9185 20.4876 53.9185 23.4063C53.9185 26.3249 51.6648 27.8402 49.5097 27.8402Z" fill="#1D1D1B"/>
<path d="M49.4645 20.3166C49.767 20.8314 49.9173 21.3465 50.0315 21.8617C50.1394 22.3764 50.1853 22.8912 50.186 23.406C50.1853 23.9215 50.1394 24.4363 50.0315 24.9514C49.9173 25.4662 49.767 25.9813 49.4645 26.4961H49.2833C48.9804 25.9813 48.8305 25.4662 48.7159 24.9514C48.608 24.4363 48.5617 23.9215 48.5605 23.406C48.5617 22.8912 48.608 22.3764 48.7159 21.8617C48.8305 21.3465 48.9804 20.8314 49.2833 20.3166H49.4645Z" fill="#1D1D1B"/>
<path d="M65.476 20.3166C65.7785 20.8314 65.9292 21.3465 66.043 21.8617C66.1513 22.3764 66.1968 22.8912 66.1972 23.406C66.1968 23.9215 66.1513 24.4363 66.043 24.9514C65.9292 25.4662 65.7785 25.9813 65.476 26.4961H65.2944C64.9915 25.9813 64.8416 25.4662 64.727 24.9514C64.6199 24.4363 64.5732 23.9215 64.5732 23.406C64.5732 22.8912 64.6199 22.3764 64.727 21.8617C64.8416 21.3465 64.9915 20.8314 65.2944 20.3166H65.476Z" fill="#1D1D1B"/>
<path d="M56.6224 29.3798H54.4664C53.3953 29.3798 53.3953 27.8034 54.4664 27.8034H60.2924C61.3882 27.8034 61.3882 29.3798 60.2924 29.3798H58.2483V35.5993C58.2483 36.6704 56.6224 36.6956 56.6224 35.5993V29.3798Z" fill="#1D1D1B"/>
<path d="M65.3671 20.4876C63.988 20.4876 62.4853 21.4606 62.4853 23.4063C62.4853 25.3401 63.988 26.3249 65.3671 26.3249C66.7838 26.3249 68.2983 25.3401 68.2983 23.4063C68.2983 21.4606 66.7838 20.4876 65.3671 20.4876ZM65.5024 27.8402C63.2245 27.9391 60.8594 26.4238 60.8594 23.4063C60.8594 20.3769 63.2245 18.8868 65.5024 18.8868C67.658 18.9974 69.9124 20.4876 69.9124 23.4063C69.9124 26.3249 67.658 27.8402 65.5024 27.8402Z" fill="#1D1D1B"/>
</svg>
