<svg width="567" height="420" viewBox="0 0 567 420" fill="none" xmlns="http://www.w3.org/2000/svg">
<path d="M112.209 194.575C112.209 221.959 92.7105 244.158 68.6562 244.158C44.6019 244.158 0 218.513 0 196.082C0 173.652 44.6019 144.991 68.6562 144.991C92.7105 144.991 112.209 167.19 112.209 194.575Z" fill="#A8E3D9"/>
<path d="M567 216.015C567 230.223 543.909 241.742 515.424 241.742C486.938 241.742 463.847 230.223 463.847 216.015C463.847 201.807 486.634 176.991 515.12 176.991C543.605 176.991 567 201.807 567 216.015Z" fill="#FBC4E0"/>
<path d="M463.847 216.015C463.847 201.807 486.633 176.99 515.12 176.99C523.392 176.99 531.228 179.092 538.193 182.41C520.538 82.2149 416.451 5.272 290.67 5.272C272.158 5.272 254.122 6.95432 236.755 10.1158C255.598 21.9203 268.144 42.8953 268.144 66.8205C268.144 103.724 238.315 133.641 201.519 133.641C164.723 133.641 134.894 103.724 134.894 66.8205C134.894 60.56 135.77 54.5084 137.375 48.7626C98.4137 73.8377 68.6422 108.249 52.9254 147.943C58.6203 146.064 64.0208 144.991 68.6563 144.991C92.7094 144.991 112.209 167.19 112.209 194.575C112.209 221.959 92.7094 244.158 68.6563 244.158C61.2005 244.158 51.7706 241.691 42.3066 237.623C57.1959 340.362 162.705 420 290.67 420C418.094 420 523.265 341.039 538.855 238.931C531.821 240.724 523.863 241.742 515.423 241.742C486.938 241.742 463.847 230.223 463.847 216.015Z" fill="#66C87F"/>
<path d="M268.144 66.821C268.144 103.724 238.315 133.642 201.518 133.642C164.723 133.642 134.893 103.724 134.893 66.821C134.893 29.9167 164.723 0.000198364 201.518 0.000198364C238.315 0.000198364 268.144 29.9167 268.144 66.821Z" fill="#FAB22C"/>
<path d="M454.816 344.356C455.121 345.745 453.113 347.368 450.331 347.982C447.55 348.598 445.047 347.972 444.742 346.585C444.437 345.197 446.129 342.282 448.911 341.667C451.693 341.051 454.51 342.968 454.816 344.356Z" fill="#FBC4E0"/>
<path d="M456.421 343.138C455.038 343.443 453.419 341.43 452.806 338.64C452.191 335.85 452.815 333.34 454.198 333.034C455.583 332.729 458.489 334.425 459.102 337.216C459.717 340.007 457.805 342.831 456.421 343.138Z" fill="#FBC4E0"/>
<path d="M457.635 344.746C457.33 343.358 459.338 341.735 462.12 341.12C464.901 340.503 467.404 341.13 467.709 342.517C468.014 343.904 466.321 346.819 463.539 347.434C460.757 348.051 457.941 346.133 457.635 344.746Z" fill="#FBC4E0"/>
<path d="M456.03 345.966C457.414 345.66 459.033 347.673 459.646 350.463C460.261 353.252 459.637 355.762 458.252 356.068C456.869 356.374 453.963 354.677 453.35 351.887C452.735 349.097 454.647 346.273 456.03 345.966Z" fill="#FBC4E0"/>
<path d="M457.097 344.359C457.203 344.842 456.899 345.319 456.418 345.426C455.938 345.532 455.461 345.227 455.355 344.744C455.249 344.263 455.553 343.785 456.034 343.678C456.515 343.572 456.99 343.877 457.097 344.359Z" fill="#F250A7"/>
<path d="M159.732 319.039C160.037 320.427 158.029 322.051 155.247 322.665C152.466 323.281 149.963 322.655 149.658 321.268C149.354 319.88 151.045 316.965 153.827 316.35C156.609 315.734 159.426 317.651 159.732 319.039Z" fill="#FBC4E0"/>
<path d="M161.336 317.821C159.953 318.127 158.334 316.114 157.721 313.323C157.106 310.534 157.73 308.024 159.113 307.718C160.498 307.412 163.404 309.109 164.017 311.9C164.632 314.691 162.72 317.514 161.336 317.821Z" fill="#FBC4E0"/>
<path d="M162.549 319.431C162.244 318.043 164.252 316.42 167.034 315.805C169.815 315.188 172.318 315.815 172.623 317.202C172.928 318.59 171.235 321.504 168.454 322.119C165.671 322.736 162.855 320.818 162.549 319.431Z" fill="#FBC4E0"/>
<path d="M160.945 320.648C162.329 320.342 163.948 322.355 164.561 325.145C165.176 327.934 164.552 330.444 163.167 330.75C161.784 331.056 158.878 329.359 158.265 326.57C157.65 323.779 159.562 320.955 160.945 320.648Z" fill="#FBC4E0"/>
<path d="M162.013 319.041C162.119 319.524 161.815 320.001 161.334 320.108C160.854 320.214 160.377 319.909 160.271 319.426C160.165 318.945 160.469 318.467 160.95 318.36C161.431 318.253 161.906 318.559 162.013 319.041Z" fill="#F250A7"/>
<path d="M421.359 328.262C422.634 330.23 420.749 333.727 417.152 336.072C413.554 338.416 409.605 338.721 408.329 336.753C407.053 334.785 407.163 328.551 410.759 326.207C414.358 323.86 420.083 326.295 421.359 328.262Z" fill="#FDE3B0"/>
<path d="M424.622 326.841C422.659 328.119 419.173 326.23 416.836 322.623C414.497 319.014 414.193 315.052 416.155 313.773C418.117 312.494 424.335 312.603 426.671 316.211C429.01 319.821 426.584 325.562 424.622 326.841Z" fill="#FDE3B0"/>
<path d="M426.039 330.112C424.763 328.144 426.647 324.649 430.243 322.304C433.842 319.958 437.791 319.654 439.067 321.622C440.343 323.59 440.236 329.824 436.636 332.17C433.039 334.515 427.314 332.08 426.039 330.112Z" fill="#FDE3B0"/>
<path d="M422.778 331.533C424.74 330.254 428.225 332.144 430.563 335.752C432.902 339.36 433.206 343.32 431.243 344.6C429.281 345.878 423.064 345.772 420.726 342.163C418.388 338.553 420.815 332.812 422.778 331.533Z" fill="#FDE3B0"/>
<path d="M424.629 328.581C424.962 329.095 424.815 329.783 424.304 330.117C423.789 330.451 423.104 330.305 422.771 329.79C422.439 329.278 422.584 328.59 423.096 328.256C423.609 327.92 424.295 328.067 424.629 328.581Z" fill="#F36B21"/>
<path d="M518.562 269.398L517.777 211.229C517.749 209.319 516.211 207.762 514.294 207.736C512.344 207.709 510.739 209.272 510.715 211.229L510.591 220.389L500.271 214.062C499.298 213.463 498.006 213.667 497.27 214.582C496.467 215.577 496.622 217.035 497.614 217.839L510.484 228.268L509.929 269.398H518.562Z" fill="#8659B2"/>
<path d="M128.575 320.304C127.275 322.711 125.7 326.134 123.585 324.987C121.47 323.837 118.028 317.688 119.329 315.28C120.628 312.873 124.984 312.714 127.1 313.863C129.214 315.012 129.874 317.897 128.575 320.304Z" fill="#D2BEE4"/>
<path d="M130.969 330.751C128.569 329.447 125.154 327.869 126.3 325.746C127.446 323.626 133.576 320.174 135.978 321.479C138.378 322.782 138.537 327.15 137.39 329.273C136.245 331.393 133.369 332.054 130.969 330.751Z" fill="#D2BEE4"/>
<path d="M120.554 333.151C121.854 330.743 123.427 327.318 125.544 328.467C127.658 329.617 131.1 335.765 129.799 338.174C128.498 340.582 124.144 340.74 122.028 339.59C119.914 338.441 119.254 335.558 120.554 333.151Z" fill="#D2BEE4"/>
<path d="M118.158 322.705C120.559 324.008 123.973 325.588 122.829 327.709C121.682 329.831 115.551 333.283 113.149 331.977C110.749 330.674 110.591 326.307 111.737 324.184C112.883 322.064 115.758 321.402 118.158 322.705Z" fill="#D2BEE4"/>
<path d="M125.361 327.203C125.099 327.689 124.495 327.868 124.011 327.606C123.526 327.343 123.346 326.736 123.61 326.251C123.871 325.766 124.476 325.585 124.96 325.848C125.444 326.111 125.624 326.717 125.361 327.203Z" fill="#8659B2"/>
<path d="M480.201 309.807C478.901 312.214 477.326 315.638 475.211 314.49C473.096 313.341 469.654 307.191 470.955 304.784C472.254 302.377 476.61 302.217 478.726 303.366C480.84 304.516 481.5 307.4 480.201 309.807Z" fill="#D2BEE4"/>
<path d="M482.595 320.253C480.195 318.95 476.78 317.372 477.926 315.249C479.072 313.129 485.202 309.677 487.604 310.981C490.004 312.285 490.163 316.653 489.016 318.775C487.871 320.896 484.995 321.557 482.595 320.253Z" fill="#D2BEE4"/>
<path d="M472.18 322.655C473.48 320.247 475.053 316.822 477.17 317.97C479.284 319.12 482.726 325.269 481.425 327.678C480.124 330.085 475.77 330.243 473.654 329.094C471.54 327.945 470.88 325.062 472.18 322.655Z" fill="#D2BEE4"/>
<path d="M469.787 312.208C472.188 313.511 475.602 315.091 474.458 317.212C473.311 319.334 467.179 322.786 464.778 321.48C462.378 320.176 462.22 315.81 463.366 313.687C464.512 311.567 467.387 310.904 469.787 312.208Z" fill="#D2BEE4"/>
<path d="M476.989 316.706C476.727 317.191 476.123 317.371 475.639 317.109C475.154 316.845 474.974 316.239 475.238 315.753C475.499 315.268 476.104 315.088 476.588 315.351C477.072 315.614 477.252 316.22 476.989 316.706Z" fill="#8659B2"/>
<path d="M149.117 344.602C148.051 345.537 145.666 344.55 143.792 342.399C141.918 340.248 141.262 337.746 142.329 336.811C143.396 335.875 146.758 335.964 148.632 338.116C150.507 340.267 150.185 343.667 149.117 344.602Z" fill="#FBC4E0"/>
<path d="M150.953 345.426C150.02 344.357 151.003 341.965 153.149 340.086C155.294 338.206 157.788 337.549 158.72 338.617C159.653 339.689 159.564 343.061 157.42 344.941C155.274 346.821 151.885 346.496 150.953 345.426Z" fill="#FBC4E0"/>
<path d="M150.129 347.269C151.197 346.333 153.581 347.32 155.454 349.471C157.329 351.623 157.984 354.123 156.917 355.059C155.851 355.994 152.488 355.905 150.614 353.754C148.739 351.602 149.063 348.203 150.129 347.269Z" fill="#FBC4E0"/>
<path d="M148.293 346.442C149.225 347.513 148.242 349.905 146.097 351.783C143.953 353.663 141.458 354.32 140.526 353.251C139.594 352.18 139.681 348.809 141.827 346.929C143.972 345.048 147.36 345.374 148.293 346.442Z" fill="#FBC4E0"/>
<path d="M150.209 346.609C149.838 346.935 149.274 346.896 148.949 346.524C148.625 346.152 148.664 345.588 149.035 345.261C149.405 344.937 149.968 344.974 150.295 345.347C150.618 345.719 150.579 346.284 150.209 346.609Z" fill="#F250A7"/>
<path d="M90.428 186.799C89.717 186.051 88.5364 186.023 87.7901 186.736L77.0854 196.964L76.8088 177.955C76.7841 176.041 75.2409 174.48 73.3199 174.457C71.3706 174.432 69.7697 176 69.7462 177.955L69.2082 214.889L43.5672 198.724C42.356 197.962 40.7445 198.282 39.9217 199.47C39.0742 200.697 39.3779 202.379 40.5997 203.229L69.0893 223.032L68.2536 280.348L78.299 280.261L77.2208 206.289L90.5457 189.244C91.1096 188.525 91.0754 187.482 90.428 186.799Z" fill="#8659B2"/>
<path d="M262.893 350.303C263.217 350.857 263.378 351.409 263.502 351.963C263.616 352.517 263.666 353.07 263.667 353.624C263.666 354.177 263.616 354.73 263.502 355.284C263.378 355.836 263.217 356.39 262.893 356.944H262.699C262.375 356.39 262.214 355.836 262.091 355.284C261.976 354.73 261.927 354.177 261.926 353.624C261.927 353.07 261.976 352.517 262.091 351.963C262.214 351.409 262.375 350.857 262.699 350.303H262.893Z" fill="#231F20"/>
<path d="M280.052 350.303C280.376 350.857 280.537 351.409 280.659 351.963C280.774 352.517 280.824 353.07 280.824 353.624C280.824 354.177 280.774 354.73 280.659 355.284C280.537 355.836 280.376 356.39 280.052 356.944H279.856C279.532 356.39 279.371 355.836 279.249 355.284C279.135 354.73 279.084 354.177 279.084 353.624C279.084 353.07 279.135 352.517 279.249 351.963C279.371 351.409 279.532 350.857 279.856 350.303H280.052Z" fill="#231F20"/>
<path d="M251.784 358.329L250.638 359.811L250.779 361.658C250.862 362.754 249.128 362.9 249.042 361.792C248.85 359.256 248.664 356.803 248.471 354.255C248.385 353.134 250.119 352.961 250.207 354.123L250.461 357.474L253.967 353.252C254.394 352.781 254.863 352.85 255.217 353.156C255.612 353.484 255.648 353.946 255.305 354.331C254.6 355.313 253.754 356.201 252.982 357.189L256.345 360.689C257.217 361.724 255.591 362.644 255.001 361.841L251.784 358.329Z" fill="#231F20"/>
<path d="M270.564 360.042H268.256C267.106 360.042 267.106 358.348 268.256 358.348H274.497C275.672 358.348 275.672 360.042 274.497 360.042H272.307V366.726C272.307 367.877 270.564 367.905 270.564 366.726V360.042Z" fill="#231F20"/>
<path d="M262.796 350.487C261.317 350.487 259.708 351.533 259.708 353.624C259.708 355.703 261.317 356.76 262.796 356.76C264.314 356.76 265.937 355.703 265.937 353.624C265.937 351.533 264.314 350.487 262.796 350.487ZM262.943 358.388C260.5 358.495 257.965 356.867 257.965 353.624C257.965 350.368 260.5 348.767 262.943 348.767C265.251 348.886 267.667 350.487 267.667 353.624C267.667 356.76 265.251 358.388 262.943 358.388Z" fill="#231F20"/>
<path d="M279.935 350.487C278.457 350.487 276.845 351.533 276.845 353.624C276.845 355.703 278.457 356.76 279.935 356.76C281.453 356.76 283.075 355.703 283.075 353.624C283.075 351.533 281.453 350.487 279.935 350.487ZM280.08 358.388C277.638 358.495 275.104 356.867 275.104 353.624C275.104 350.368 277.638 348.767 280.08 348.767C282.388 348.886 284.805 350.487 284.805 353.624C284.805 356.76 282.388 358.388 280.08 358.388Z" fill="#231F20"/>
<path d="M298.436 360.056C297.977 360.106 297.584 359.787 297.536 359.328L296.743 351.851C296.692 351.377 297.01 350.997 297.469 350.948L302.181 350.445C303.389 350.317 303.543 352.03 302.362 352.156L298.582 352.56L298.793 354.534L302.1 354.181C303.269 354.055 303.451 355.78 302.283 355.904L298.976 356.258L299.186 358.232L303.188 357.805C304.382 357.676 304.657 359.393 303.371 359.53L298.436 360.056Z" fill="#231F20"/>
<path d="M308.287 356.263L305.997 355.966C304.858 355.82 305.074 354.139 306.212 354.285L312.404 355.085C313.569 355.236 313.354 356.916 312.187 356.766L310.015 356.485L309.164 363.115C309.018 364.256 307.286 364.059 307.436 362.892L308.287 356.263Z" fill="#231F20"/>
<path d="M317.902 361.283L316.772 362.775L316.93 364.621C317.023 365.716 315.288 365.88 315.194 364.77C314.978 362.239 314.767 359.786 314.55 357.24C314.454 356.119 316.187 355.931 316.287 357.091L316.573 360.441L320.036 356.185C320.46 355.709 320.928 355.777 321.286 356.078C321.685 356.401 321.724 356.864 321.386 357.251C320.69 358.24 319.851 359.136 319.089 360.132L322.485 363.6C323.367 364.627 321.752 365.562 321.153 364.763L317.902 361.283Z" fill="#231F20"/>
<path d="M330.886 361.668C330.775 362.239 330.297 362.482 329.832 362.391C329.364 362.3 329.078 361.906 329.19 361.336L330.166 356.321L324.816 360.937C324.373 361.214 324.132 361.275 323.678 361.186C323.361 361.016 323.055 360.727 323.166 360.155L324.59 352.841C324.675 352.412 325.219 352.034 325.685 352.125C326.125 352.211 326.41 352.753 326.326 353.182L325.345 358.223L330.679 353.684C331.096 353.416 331.221 353.319 331.688 353.41C332.361 353.542 332.377 354.016 332.284 354.484L330.886 361.668Z" fill="#231F20"/>
<path d="M288.642 355.172L292.583 355.318L292.369 361.126L288.428 360.98L288.642 355.172ZM294.645 361.211L294.109 361.191L294.356 354.509C294.372 354.029 293.998 353.623 293.518 353.605L287.837 353.394C287.357 353.376 286.952 353.754 286.935 354.234L286.688 360.915L286.153 360.896C286.121 360.895 286.09 360.895 286.061 360.897C286.031 360.893 286 360.89 285.969 360.889C285.487 360.871 285.085 361.247 285.066 361.73L285.026 362.831C285.007 363.313 285.384 363.718 285.864 363.735C286.344 363.754 286.748 363.378 286.767 362.896L286.774 362.667L293.711 362.923L293.703 363.153C293.684 363.635 294.059 364.04 294.539 364.058C295.02 364.075 295.425 363.7 295.441 363.217L295.482 362.116C295.5 361.634 295.125 361.229 294.645 361.211Z" fill="#231F20"/>
<path d="M154.621 285.915H141.524C139.68 285.915 138.187 284.416 138.187 282.569V270.907C138.187 269.059 139.68 267.561 141.524 267.561H154.621C156.465 267.561 157.958 269.059 157.958 270.907V282.569C157.958 284.416 156.465 285.915 154.621 285.915ZM165.936 270.605C165.606 269.129 165.028 267.719 164.201 266.374C163.373 265.029 162.307 263.896 161.005 262.972C159.702 262.05 158.028 261.321 155.981 260.783C153.935 260.244 151.579 259.975 148.911 259.975H147.234C144.566 259.975 142.21 260.244 140.164 260.783C138.117 261.321 136.443 262.05 135.14 262.972C133.837 263.896 132.772 265.029 131.944 266.374C131.117 267.719 130.539 269.129 130.209 270.605C129.878 272.08 129.715 273.718 129.715 275.516V277.961C129.715 279.759 129.878 281.396 130.209 282.872C130.539 284.348 131.117 285.757 131.944 287.103C132.772 288.449 133.837 289.581 135.14 290.504C136.443 291.426 138.117 292.156 140.164 292.694C142.21 293.233 144.566 293.502 147.234 293.502H148.911C151.579 293.502 153.935 293.233 155.981 292.694C158.028 292.156 159.702 291.426 161.005 290.504C162.307 289.581 163.373 288.449 164.201 287.103C165.028 285.757 165.606 284.348 165.936 282.872C166.265 281.396 166.43 279.759 166.43 277.961V275.516C166.43 273.718 166.265 272.08 165.936 270.605Z" fill="white"/>
<path d="M196.991 285.915H183.894C182.05 285.915 180.557 284.416 180.557 282.569V270.907C180.557 269.059 182.05 267.561 183.894 267.561H196.991C198.835 267.561 200.329 269.059 200.329 270.907V282.569C200.329 284.416 198.835 285.915 196.991 285.915ZM208.306 270.605C207.976 269.129 207.398 267.719 206.571 266.374C205.743 265.029 204.677 263.896 203.375 262.972C202.072 262.05 200.398 261.321 198.351 260.783C196.305 260.244 193.949 259.975 191.281 259.975H189.604C186.937 259.975 184.58 260.244 182.534 260.783C180.487 261.321 178.813 262.05 177.51 262.972C176.207 263.896 175.142 265.029 174.314 266.374C173.487 267.719 172.909 269.129 172.579 270.605C172.249 272.08 172.085 273.718 172.085 275.516V277.961C172.085 279.759 172.249 281.396 172.579 282.872C172.909 284.348 173.487 285.757 174.314 287.103C175.142 288.449 176.207 289.581 177.51 290.504C178.813 291.426 180.487 292.156 182.534 292.694C184.58 293.233 186.937 293.502 189.604 293.502H191.281C193.949 293.502 196.305 293.233 198.351 292.694C200.398 292.156 202.072 291.426 203.375 290.504C204.677 289.581 205.743 288.449 206.571 287.103C207.398 285.757 207.976 284.348 208.306 282.872C208.635 281.396 208.8 279.759 208.8 277.961V275.516C208.8 273.718 208.635 272.08 208.306 270.605Z" fill="white"/>
<path d="M272.4 285.915H259.302C257.459 285.915 255.965 284.416 255.965 282.569V270.907C255.965 269.059 257.459 267.561 259.302 267.561H272.4C274.243 267.561 275.737 269.059 275.737 270.907V282.569C275.737 284.416 274.243 285.915 272.4 285.915ZM283.714 270.605C283.384 269.129 282.806 267.719 281.979 266.374C281.151 265.029 280.085 263.896 278.783 262.972C277.48 262.05 275.806 261.321 273.759 260.783C271.713 260.244 269.357 259.975 266.689 259.975H265.012C262.345 259.975 259.988 260.244 257.942 260.783C255.895 261.321 254.222 262.05 252.918 262.972C251.615 263.896 250.55 265.029 249.723 266.374C248.895 267.719 248.317 269.129 247.988 270.605C247.657 272.08 247.493 273.718 247.493 275.516V277.961C247.493 279.759 247.657 281.396 247.988 282.872C248.317 284.348 248.895 285.757 249.723 287.103C250.55 288.449 251.615 289.581 252.918 290.504C254.222 291.426 255.895 292.156 257.942 292.694C259.988 293.233 262.345 293.502 265.012 293.502H266.689C269.357 293.502 271.713 293.233 273.759 292.694C275.806 292.156 277.48 291.426 278.783 290.504C280.085 289.581 281.151 288.449 281.979 287.103C282.806 285.757 283.384 284.348 283.714 282.872C284.044 281.396 284.208 279.759 284.208 277.961V275.516C284.208 273.718 284.044 272.08 283.714 270.605Z" fill="white"/>
<path d="M352.43 285.915H339.331C337.489 285.915 335.994 284.416 335.994 282.569V270.907C335.994 269.059 337.489 267.561 339.331 267.561H352.43C354.272 267.561 355.766 269.059 355.766 270.907V282.569C355.766 284.416 354.272 285.915 352.43 285.915ZM363.743 270.605C363.414 269.129 362.836 267.719 362.008 266.374C361.181 265.029 360.114 263.896 358.812 262.972C357.509 262.05 355.836 261.321 353.789 260.783C351.743 260.244 349.386 259.975 346.719 259.975H345.041C342.374 259.975 340.017 260.244 337.972 260.783C335.926 261.321 334.251 262.05 332.948 262.972C331.646 263.896 330.581 265.029 329.752 266.374C328.924 267.719 328.346 269.129 328.017 270.605C327.686 272.08 327.522 273.718 327.522 275.516V277.961C327.522 279.759 327.686 281.396 328.017 282.872C328.346 284.348 328.924 285.757 329.752 287.103C330.581 288.449 331.646 289.581 332.948 290.504C334.251 291.426 335.926 292.156 337.972 292.694C340.017 293.233 342.374 293.502 345.041 293.502H346.719C349.386 293.502 351.743 293.233 353.789 292.694C355.836 292.156 357.509 291.426 358.812 290.504C360.114 289.581 361.181 288.449 362.008 287.103C362.836 285.757 363.414 284.348 363.743 282.872C364.074 281.396 364.238 279.759 364.238 277.961V275.516C364.238 273.718 364.074 272.08 363.743 270.605Z" fill="white"/>
<path d="M436.599 285.915H423.5C421.658 285.915 420.163 284.416 420.163 282.569V270.907C420.163 269.059 421.658 267.561 423.5 267.561H436.599C438.441 267.561 439.935 269.059 439.935 270.907V282.569C439.935 284.416 438.441 285.915 436.599 285.915ZM447.912 270.605C447.583 269.129 447.005 267.719 446.177 266.374C445.35 265.029 444.283 263.896 442.981 262.972C441.678 262.05 440.004 261.321 437.957 260.783C435.912 260.244 433.555 259.975 430.888 259.975H429.21C426.543 259.975 424.186 260.244 422.141 260.783C420.095 261.321 418.42 262.05 417.117 262.972C415.815 263.896 414.75 265.029 413.921 266.374C413.093 267.719 412.515 269.129 412.186 270.605C411.855 272.08 411.691 273.718 411.691 275.516V277.961C411.691 279.759 411.855 281.396 412.186 282.872C412.515 284.348 413.093 285.757 413.921 287.103C414.75 288.449 415.815 289.581 417.117 290.504C418.42 291.426 420.095 292.156 422.141 292.694C424.186 293.233 426.543 293.502 429.21 293.502H430.888C433.555 293.502 435.912 293.233 437.957 292.694C440.004 292.156 441.678 291.426 442.981 290.504C444.283 289.581 445.35 288.449 446.177 287.103C447.005 285.757 447.583 284.348 447.912 282.872C448.243 281.396 448.407 279.759 448.407 277.961V275.516C448.407 273.718 448.243 272.08 447.912 270.605Z" fill="white"/>
<path d="M115.599 276.693C118.066 276.139 119.829 275.283 120.886 274.122C121.944 272.961 122.473 271.552 122.473 269.891V268.946C122.473 267.915 122.339 266.975 122.07 266.121C121.802 265.267 121.326 264.453 120.645 263.677C119.963 262.9 119.089 262.248 118.025 261.716C116.958 261.186 115.583 260.764 113.898 260.448C112.211 260.134 110.265 259.976 108.058 259.976H106.977C103.129 259.976 99.4133 260.491 95.8267 261.52V269.314C99.8736 268.13 103.846 267.688 107.253 267.539C110.659 267.389 113.925 267.456 113.925 267.456C114.479 267.449 114.932 267.898 114.932 268.454V270.352V272.174C114.932 272.733 114.479 273.188 113.92 273.188H104.103V280.752H114.884C115.43 280.752 115.874 281.194 115.874 281.743V283.103V285.025C115.874 285.575 115.427 286.021 114.877 286.015C114.877 286.015 110.93 286.167 107.345 285.941C103.759 285.716 99.2827 285.363 94.8379 284.21V291.98C98.7471 292.995 102.839 293.502 107.115 293.502H108.058C110.403 293.502 112.472 293.348 114.265 293.041C116.059 292.733 117.526 292.314 118.667 291.784C119.809 291.254 120.74 290.6 121.461 289.824C122.181 289.049 122.687 288.233 122.979 287.381C123.27 286.527 123.416 285.578 123.416 284.533V283.587C123.416 280.067 120.81 277.768 115.599 276.693Z" fill="white"/>
<path d="M243.217 260.92V268.483H223.399V292.556H214.916V260.92H243.217Z" fill="white"/>
<path d="M313.866 273.622V270.884C313.866 269.035 312.373 267.538 310.531 267.538H299.807C299.255 267.538 298.809 267.987 298.809 268.54V275.974C298.809 276.524 299.251 276.969 299.799 276.969H310.531C312.373 276.969 313.866 275.469 313.866 273.622ZM322.35 271.296V273.187C322.35 274.493 322.231 275.689 321.993 276.773C321.755 277.857 321.342 278.886 320.753 279.862C320.163 280.839 319.399 281.664 318.464 282.341C317.53 283.018 316.33 283.552 314.867 283.943C313.403 284.335 311.721 284.531 309.82 284.531H308.509C304.187 284.531 300.954 284.37 298.809 284.047V292.556H290.324V260.92C295.751 260.29 301.499 259.975 307.567 259.975H308.878C310.932 259.975 312.748 260.171 314.327 260.563C315.904 260.956 317.192 261.486 318.189 262.154C319.186 262.823 320.002 263.65 320.637 264.633C321.273 265.616 321.718 266.647 321.971 267.723C322.224 268.798 322.35 269.99 322.35 271.296Z" fill="white"/>
<path d="M454.523 260.92H463.007V273.187H468.432L478.686 260.92H486.963V262.811L475.352 276.737L486.963 290.664V292.556H478.686L468.801 280.75H463.007V292.556H454.523V260.92Z" fill="white"/>
<path d="M395.23 283.98C395.23 284.54 394.78 284.992 394.223 284.992H382.555C382.007 284.992 381.562 284.546 381.562 283.996L382.287 269.499C382.287 268.938 382.741 268.483 383.3 268.483H394.235C394.784 268.483 395.23 268.931 395.23 269.482V283.98ZM403.714 284.992V260.921H374.516L373.574 279.089C373.528 280.75 373.375 282.053 373.114 282.998C372.852 283.944 372.409 284.609 371.78 284.992H368.193V299.403H375.735V292.556H400.886V299.403H408.403V284.992H403.714Z" fill="white"/>
<path d="M215.846 332.578V357.981H220.554V328.389H219.971L215.846 332.578Z" fill="#8659B2"/>
<path d="M360.255 328.306V357.981H364.963V332.427L360.855 328.306H360.255Z" fill="#8659B2"/>
<path d="M365.604 321.051C364.81 320.254 363.731 319.806 362.608 319.806H362.606L218.197 319.891C217.066 319.891 215.98 320.346 215.185 321.153L178.913 357.981H190.827L219.971 328.39H220.553L360.254 328.306H360.854L390.442 357.981H402.428L365.604 321.051Z" fill="#FAB22C"/>
<path d="M399.066 45.3367C396.51 45.8656 393.962 46.5456 391.457 47.4511C388.954 48.3554 386.492 49.4899 384.15 50.9172C381.81 52.3422 379.6 54.0658 377.61 56.0338C375.618 57.9982 373.85 60.1929 372.28 62.4808L377.997 62.1101C375.593 59.3051 373.067 56.5721 370.367 54.0079C367.669 51.4438 364.792 49.0508 361.725 46.9399C358.664 44.8291 355.411 43.0063 352.027 41.5495C348.644 40.0903 345.134 38.9983 341.58 38.2628C341.325 38.2097 341.075 38.3738 341.023 38.63C340.975 38.8637 341.109 39.0939 341.327 39.1707C344.694 40.3677 347.917 41.8859 350.928 43.7099C353.942 45.5315 356.743 47.6542 359.318 50.0082C361.896 52.3622 364.251 54.9406 366.429 57.6677C368.61 60.3959 370.617 63.2694 372.522 66.2314C373.498 67.7473 375.512 68.1817 377.021 67.203C377.401 66.9563 377.713 66.6446 377.952 66.2916L378.238 65.8607C379.207 63.6354 380.335 61.5092 381.695 59.5282C383.052 57.5461 384.644 55.7115 386.461 54.0611C388.276 52.4071 390.31 50.9408 392.481 49.6458C394.655 48.3519 396.962 47.2292 399.342 46.2375C399.582 46.1371 399.698 45.8597 399.598 45.6189C399.509 45.4052 399.283 45.2907 399.066 45.3367Z" fill="#8659B2"/>
<path d="M328.183 42.9586C327.044 43.4391 325.928 44.0625 324.897 44.8216C323.861 45.5795 322.909 46.472 322.049 47.4424C321.19 48.414 320.423 49.4611 319.724 50.5414C319.027 51.6228 318.397 52.7372 317.81 53.8635L321.803 53.2755C319.589 50.6122 317.184 48.1094 314.595 45.8274C312.006 43.5442 309.234 41.4841 306.329 39.6767C303.422 37.8669 300.381 36.3074 297.264 34.9769C294.146 33.644 290.954 32.5378 287.723 31.6064C287.473 31.5344 287.213 31.6796 287.141 31.9298C287.074 32.1648 287.2 32.4115 287.422 32.5001C290.524 33.7125 293.553 35.0867 296.46 36.658C299.368 38.2293 302.152 39.999 304.761 41.9764C307.371 43.9538 309.805 46.1391 312.036 48.5037C314.268 50.8672 316.297 53.4101 318.134 56.0829C318.838 57.1064 320.234 57.3638 321.254 56.6578C321.609 56.4123 321.872 56.0817 322.033 55.7122L322.127 55.4938C322.649 53.2413 323.309 51.049 324.33 49.0338C324.839 48.028 325.443 47.0693 326.163 46.1851C326.884 45.2997 327.717 44.4934 328.657 43.7732C328.865 43.6138 328.905 43.3152 328.747 43.1062C328.612 42.9315 328.381 42.8748 328.187 42.9574L328.183 42.9586Z" fill="#8659B2"/>
<path d="M386.082 71.2922C385.432 70.3466 384.596 69.5698 383.737 68.8603C382.869 68.1543 381.954 67.5369 381.018 66.969C380.079 66.4071 379.118 65.903 378.14 65.4473C377.651 65.2206 377.161 64.9975 376.66 64.8062C376.16 64.6174 375.65 64.4592 375.13 64.3411C374.092 64.0955 373.015 64.0035 371.954 63.876C371.423 63.8134 370.897 63.739 370.373 63.6481L368.81 63.3695C366.725 63.0047 364.642 62.6659 362.544 62.3637C361.773 62.2515 361.058 62.7887 360.947 63.5643C360.845 64.2844 361.3 64.9574 361.986 65.1356L361.991 65.1368C363.987 65.6598 365.978 66.2524 367.95 66.8876C368.442 67.0481 368.936 67.2028 369.425 67.3728C369.913 67.5428 370.397 67.734 370.875 67.9418C371.831 68.3538 372.766 68.8225 373.734 69.1625C374.217 69.3372 374.707 69.4789 375.205 69.5946C375.704 69.7103 376.211 69.7988 376.716 69.8933C377.724 70.081 378.741 70.2498 379.764 70.408C380.79 70.5615 381.817 70.7102 382.862 70.8495C383.91 70.99 384.957 71.1317 386.082 71.2922Z" fill="#8659B2"/>
<path d="M328.922 59.3343C328.686 58.7723 328.334 58.3096 327.972 57.8857C327.606 57.4655 327.21 57.0924 326.802 56.7548C325.984 56.0819 325.113 55.5435 324.217 55.1044C323.319 54.6687 322.399 54.3181 321.451 54.0891C320.976 53.9746 320.495 53.8896 320.009 53.8329C319.522 53.7762 319.029 53.7467 318.536 53.7266C317.547 53.6936 316.557 53.6936 315.586 53.6216C314.613 53.5625 313.662 53.4055 312.708 53.2627C310.8 52.9687 308.906 52.6476 307.012 52.2014C306.252 52.0219 305.491 52.4953 305.312 53.258C305.133 54.0206 305.604 54.7832 306.365 54.9627C306.434 54.9792 306.513 54.991 306.581 54.9957C308.462 55.1374 310.322 55.5175 312.16 55.9815C313.077 56.22 313.994 56.4596 314.885 56.8138C315.778 57.155 316.648 57.5835 317.517 57.9967C317.952 58.201 318.387 58.3993 318.826 58.574C319.266 58.7499 319.71 58.9034 320.158 59.0321C321.056 59.2906 321.977 59.4476 322.911 59.5539C323.846 59.6566 324.798 59.692 325.781 59.6554C326.273 59.6365 326.772 59.5999 327.287 59.5456C327.806 59.4913 328.326 59.4217 328.922 59.3343Z" fill="#8659B2"/>
<path d="M231.886 219.988H132.95V134.194L124.475 139.662V224.239C124.475 226.586 126.372 228.488 128.712 228.488H231.886V219.988Z" fill="#D1BEE3"/>
<path d="M446.708 219.987V134.191L397.24 102.27L348.119 133.968C348.005 134.041 347.887 134.101 347.771 134.169V219.987H446.708Z" fill="#8659B2"/>
<path d="M446.708 219.988H347.771V228.488H450.945C453.286 228.488 455.182 226.586 455.182 224.239V139.66L446.708 134.192V219.988Z" fill="#D1BEE3"/>
<path d="M339.296 110.58V228.251H240.361V110.582L231.885 116.052V232.502C231.885 234.849 233.782 236.752 236.124 236.752H343.534C345.874 236.752 347.77 234.849 347.77 232.502V116.048L339.296 110.58Z" fill="#C3CFED"/>
<path d="M182.417 102.27L132.949 134.193V219.987H231.885V134.166C231.769 134.099 231.651 134.04 231.537 133.967L182.417 102.27Z" fill="#8659B2"/>
<path d="M473.633 131.351L401.824 85.0141C399.031 83.2125 395.445 83.2113 392.654 85.0141L361.831 104.905L294.415 61.4029C291.622 59.6014 288.037 59.599 285.243 61.4029L217.83 104.906L187.004 85.0141C184.211 83.2125 180.625 83.2113 177.832 85.0141L106.028 131.351C102.092 133.892 100.954 139.151 103.487 143.099C105.107 145.624 107.835 147 110.621 147C112.192 147 113.781 146.564 115.2 145.648L182.418 102.27L231.538 133.966C231.651 134.039 231.77 134.099 231.885 134.167V127.419V116.051L289.829 78.6591L347.77 116.049V134.169C347.887 134.102 348.005 134.041 348.119 133.968L397.24 102.27L464.462 145.648C465.88 146.564 467.47 147 469.04 147C471.826 147 474.555 145.623 476.174 143.099C478.709 139.151 477.57 133.892 473.633 131.351Z" fill="#F250A7"/>
<path d="M290.255 102.022C285.811 102.022 281.987 104.731 280.338 108.589H300.171C298.522 104.731 294.697 102.022 290.255 102.022Z" fill="#5986CD"/>
<path d="M309.512 117.089H270.993V112.839C270.993 102.188 279.635 93.5227 290.255 93.5227C300.874 93.5227 309.512 102.188 309.512 112.839V117.089ZM289.828 78.6583L240.36 110.582V228.25H339.297V110.579L289.828 78.6583Z" fill="#5986CD"/>
<path d="M280.337 108.589C281.986 104.731 285.81 102.022 290.254 102.022C294.698 102.022 298.521 104.731 300.171 108.589H280.337ZM290.254 93.5223C279.634 93.5223 270.994 102.188 270.994 112.839V117.089H309.513V112.839C309.513 102.188 300.874 93.5223 290.254 93.5223Z" fill="#C3CFED"/>
<path d="M220.919 169.335C219.527 154.611 209.249 149.254 208.34 144.448C207.105 137.879 205.331 131.008 201.98 126.306C193.942 130.338 187.575 143.442 187.575 143.442C183.764 141.758 177.528 141.762 175.129 144.115C173.715 138.341 171.305 132.144 165.135 126.306C160.454 131.457 158.428 137.826 154.102 146.802C149.508 156.328 138.058 168.137 143.119 182.286C149.693 200.675 178.995 206.039 189.038 204.107C200 201.998 209.497 198.332 215.245 191.21C216.803 189.278 218.085 187.092 219.047 184.613C219.273 184.03 219.481 183.43 219.672 182.814C220.388 180.496 220.843 177.943 221.005 175.126C221.033 174.656 221.049 174.179 221.061 173.694C221.07 173.272 221.075 172.846 221.073 172.413C221.063 171.343 221.01 170.319 220.919 169.335Z" fill="#C4CFED"/>
<path d="M165.658 160.877C166.307 161.984 166.628 163.091 166.874 164.198C167.105 165.305 167.203 166.411 167.204 167.518C167.203 168.625 167.105 169.733 166.874 170.839C166.628 171.946 166.307 173.053 165.658 174.16H165.27C164.62 173.053 164.3 171.946 164.054 170.839C163.822 169.733 163.723 168.625 163.721 167.518C163.723 166.411 163.822 165.305 164.054 164.198C164.3 163.091 164.62 161.984 165.27 160.877H165.658Z" fill="#231F20"/>
<path d="M199.972 160.877C200.621 161.984 200.943 163.091 201.187 164.198C201.419 165.305 201.517 166.411 201.518 167.518C201.517 168.625 201.419 169.733 201.187 170.839C200.943 171.946 200.621 173.053 199.972 174.16H199.583C198.934 173.053 198.613 171.946 198.368 170.839C198.137 169.733 198.037 168.625 198.037 167.518C198.037 166.411 198.137 165.305 198.368 164.198C198.613 163.091 198.934 161.984 199.583 160.877H199.972Z" fill="#231F20"/>
<path d="M180.998 180.357H176.379C174.082 180.357 174.082 176.969 176.379 176.969H188.863C191.213 176.969 191.213 180.357 188.863 180.357H184.482V193.726C184.482 196.028 180.998 196.081 180.998 193.726V180.357Z" fill="#231F20"/>
<path d="M165.463 161.245C162.506 161.245 159.287 163.336 159.287 167.518C159.287 171.675 162.506 173.793 165.463 173.793C168.499 173.793 171.746 171.675 171.746 167.518C171.746 163.336 168.499 161.245 165.463 161.245ZM165.754 177.049C160.873 177.26 155.803 174.005 155.803 167.518C155.803 161.007 160.873 157.804 165.754 157.804C170.373 158.042 175.203 161.245 175.203 167.518C175.203 173.793 170.373 177.049 165.754 177.049Z" fill="#231F20"/>
<path d="M199.74 161.245C196.783 161.245 193.562 163.336 193.562 167.518C193.562 171.675 196.783 173.793 199.74 173.793C202.774 173.793 206.021 171.675 206.021 167.518C206.021 163.336 202.774 161.245 199.74 161.245ZM200.029 177.049C195.147 177.26 190.078 174.005 190.078 167.518C190.078 161.007 195.147 157.804 200.029 157.804C204.648 158.042 209.479 161.245 209.479 167.518C209.479 173.793 204.648 177.049 200.029 177.049Z" fill="#231F20"/>
<path d="M260.593 148.221C260.593 148.221 249.099 138.117 259.043 129.657C262.755 126.5 274.738 139.191 274.738 139.191C274.738 139.191 282.338 136.547 288.944 136.437C295.55 136.326 303.986 139.979 303.986 139.979C303.986 139.979 311.509 126.538 316.603 129.657C326.705 135.845 317.011 147.315 317.011 147.315C317.011 147.315 329.614 162.371 347.523 167.088C325.649 175.252 315.483 192.138 303.319 200.599C295.59 205.977 286.359 207.174 275.518 199.952C268.062 194.987 254.251 182.965 232.584 168.854C249.308 162.864 260.593 148.221 260.593 148.221Z" fill="#C1BAB5"/>
<path d="M232.584 168.854C232.584 168.854 253.94 168.473 264.779 165.301C265.661 165.042 268.746 161.447 269.77 161.29C274.926 160.498 281.067 161.419 279.9 168.498C279.169 172.934 277.009 174.533 278.945 174.037C279.93 173.785 282.983 172.553 284.462 169.236C287.257 162.964 284.439 154.655 283.506 153.298C277.463 144.523 254.926 161.491 232.584 168.854Z" fill="white"/>
<path d="M347.524 167.089C347.524 167.089 330.53 169.876 315.395 165.595C314.052 165.216 311.928 162.379 311.168 161.71C307.008 158.042 298.149 161.127 299.36 167.089C300.204 171.237 301.541 174.175 300.144 173.896C299.301 173.728 296.677 172.185 295.056 169.384C292.246 164.523 293.559 154.738 295.385 152.609C302.575 144.227 326.213 164.014 347.524 167.089Z" fill="white"/>
<path d="M272.827 160.905C273.476 162.011 273.797 163.119 274.043 164.226C274.274 165.332 274.371 166.439 274.374 167.546C274.371 168.653 274.274 169.76 274.043 170.867C273.797 171.974 273.476 173.08 272.827 174.188H272.439C271.79 173.08 271.469 171.974 271.224 170.867C270.992 169.76 270.893 168.653 270.891 167.546C270.893 166.439 270.992 165.332 271.224 164.226C271.469 163.119 271.79 162.011 272.439 160.905H272.827Z" fill="#231F20"/>
<path d="M307.141 160.905C307.79 162.011 308.111 163.119 308.356 164.226C308.588 165.332 308.686 166.44 308.687 167.546C308.686 168.653 308.588 169.761 308.356 170.867C308.111 171.974 307.79 173.08 307.141 174.188H306.752C306.103 173.08 305.782 171.974 305.537 170.867C305.306 169.761 305.206 168.653 305.205 167.546C305.206 166.44 305.306 165.332 305.537 164.226C305.782 163.119 306.103 162.011 306.752 160.905H307.141Z" fill="#231F20"/>
<path d="M288.166 180.384H283.547C281.251 180.384 281.251 176.996 283.547 176.996H296.032C298.381 176.996 298.381 180.384 296.032 180.384H291.651V193.753C291.651 196.055 288.166 196.109 288.166 193.753V180.384Z" fill="#231F20"/>
<path d="M272.632 161.272C269.676 161.272 266.457 163.364 266.457 167.545C266.457 171.701 269.676 173.819 272.632 173.819C275.669 173.819 278.915 171.701 278.915 167.545C278.915 163.364 275.669 161.272 272.632 161.272ZM272.924 177.075C268.041 177.287 262.973 174.031 262.973 167.545C262.973 161.033 268.041 157.83 272.924 157.83C277.543 158.069 282.373 161.272 282.373 167.545C282.373 173.819 277.543 177.075 272.924 177.075Z" fill="#231F20"/>
<path d="M306.909 161.272C303.952 161.272 300.732 163.364 300.732 167.545C300.732 171.701 303.952 173.819 306.909 173.819C309.944 173.819 313.191 171.701 313.191 167.545C313.191 163.364 309.944 161.272 306.909 161.272ZM307.198 177.075C302.317 177.287 297.248 174.031 297.248 167.545C297.248 161.033 302.317 157.83 307.198 157.83C311.817 158.069 316.649 161.272 316.649 167.545C316.649 173.819 311.817 177.075 307.198 177.075Z" fill="#231F20"/>
<path d="M437.845 184.225C436.429 181.955 433.361 180.063 431.808 177.576C430.218 175.034 428.982 172.774 429.138 169.921C429.435 169.923 429.78 169.854 430.073 169.851C429.867 169.468 429.702 169.072 429.574 168.669C428.299 164.674 430.647 159.875 432.072 156.087C433.439 152.443 434.559 152.581 435.451 148.949C436.87 143.184 436.315 135.064 434.727 129.431C434.044 127.018 433.283 123.495 431.59 121.372C430.018 119.401 428.957 120.249 426.831 121.514C421.745 124.552 416.946 128.144 413.858 132.579C411.351 136.185 407.858 141.623 408.156 145.813C402.107 141.225 389.949 144.247 389.949 144.247C389.505 142.734 388.227 137.723 386.394 135.346C381.904 129.521 369.951 119.897 367.228 119.209C364.502 118.518 358.833 135.772 358.635 139.86C358.394 144.9 359.502 151.177 364.941 154.504C363.473 153.793 361.771 153.552 360.001 153.649C362.343 158.825 365.368 157.946 365.368 163.697C365.368 165.817 364.414 167.627 363.102 169.355C361.579 171.36 359.573 173.252 358.009 175.384C359.23 174.994 361.486 174.334 363.245 173.715C364.036 173.435 364.728 173.165 365.178 172.93C364.658 173.571 363.94 174.35 363.188 175.147C362.258 176.133 361.281 177.146 360.574 177.96C358.951 179.835 356.578 181.123 354.655 183.221C356.993 183.312 359.219 183.809 361.856 182.834C362.942 182.432 364.098 181.782 365.36 180.748C364.67 182.068 363.273 183.072 361.231 184.634C359.301 186.108 356.798 188.078 353.761 191.287C355.049 191.445 356.275 191.408 357.429 191.23C361.978 190.524 365.356 187.562 366.604 185.234C366.95 187.862 365.32 196.998 365.484 199.123C365.581 200.329 365.786 202.03 366.937 202.93C368.568 201.047 369.041 197.531 371.125 195.62C371.043 197.963 372.213 200.12 373.187 202.327C374.122 204.464 374.772 207.806 377.15 209.186C377.335 206.432 377.226 203.606 377.163 200.842C378.727 202.572 380.667 204.586 381.694 206.637C382.518 208.273 382.546 209.163 384.168 210.366C385.226 211.151 387.664 212.945 388.901 213.096C389.026 211.212 388.174 207.064 391.678 209.179C394.311 210.762 394.368 214.605 396.945 215.906C398.861 214.041 401.209 212.272 402.991 210.331C403.895 209.346 404.851 208.395 405.866 207.591C407.104 209.803 407.03 212.783 408.682 214.697C409.971 213.827 409.855 212.412 410.474 211.171C411.173 209.781 412.188 208.48 412.862 207.121C413.881 205.087 415.082 201.587 416.914 200.04C418.974 202.662 418.1 206.673 419.167 209.611C420.918 205.336 424.525 201.663 425.203 196.916C426.763 199.233 426.443 202.504 426.715 205.163C428.982 199.66 428.019 192.766 430.369 187.254C432.082 188.091 433.715 189.703 435.338 190.355C435.405 190.112 435.428 189.862 435.417 189.608C435.304 187.2 431.96 184.366 430.905 182.529C433.814 182.162 435.324 184.165 437.845 184.225Z" fill="#FDE3B0"/>
<path d="M386.425 167.353C385.322 166.703 384.218 166.379 383.114 166.134C382.011 165.902 380.908 165.804 379.804 165.802C378.7 165.804 377.596 165.902 376.493 166.134C375.389 166.379 374.286 166.703 373.182 167.353V167.743C374.286 168.393 375.389 168.716 376.493 168.962C377.596 169.195 378.7 169.293 379.804 169.295C380.908 169.293 382.011 169.195 383.114 168.962C384.218 168.716 385.322 168.393 386.425 167.743V167.353Z" fill="#231F20"/>
<path d="M420.741 167.353C419.638 166.702 418.534 166.379 417.43 166.133C416.327 165.902 415.222 165.804 414.119 165.802C413.015 165.804 411.911 165.902 410.808 166.133C409.704 166.379 408.601 166.702 407.497 167.353V167.744C408.601 168.393 409.704 168.716 410.808 168.962C411.911 169.193 413.015 169.293 414.119 169.294C415.222 169.293 416.327 169.193 417.43 168.962C418.534 168.716 419.638 168.393 420.741 167.744V167.353Z" fill="#231F20"/>
<path d="M395.338 180.387H390.719C388.423 180.387 388.423 176.998 390.719 176.998H403.204C405.553 176.998 405.553 180.387 403.204 180.387H398.823V193.755C398.823 196.057 395.338 196.11 395.338 193.755V180.387Z" fill="#231F20"/>
<path d="M379.803 161.266C376.847 161.266 373.628 163.357 373.628 167.539C373.628 171.695 376.847 173.813 379.803 173.813C382.84 173.813 386.086 171.695 386.086 167.539C386.086 163.357 382.84 161.266 379.803 161.266ZM380.095 177.069C375.212 177.282 370.144 174.026 370.144 167.539C370.144 161.028 375.212 157.825 380.095 157.825C384.714 158.064 389.544 161.266 389.544 167.539C389.544 173.813 384.714 177.069 380.095 177.069Z" fill="#231F20"/>
<path d="M414.079 161.274C411.123 161.274 407.903 163.366 407.903 167.547C407.903 171.704 411.123 173.822 414.079 173.822C417.114 173.822 420.362 171.704 420.362 167.547C420.362 163.366 417.114 161.274 414.079 161.274ZM414.369 177.078C409.486 177.289 404.419 174.034 404.419 167.547C404.419 161.037 409.486 157.834 414.369 157.834C418.988 158.071 423.82 161.274 423.82 167.547C423.82 173.822 418.988 177.078 414.369 177.078Z" fill="#231F20"/>
</svg>
