<svg width="207" height="269" viewBox="0 0 207 269" fill="none" xmlns="http://www.w3.org/2000/svg">
<path d="M111.609 192.66C109.867 192.66 108.362 191.354 108.154 189.581L86.641 5.67313C86.4181 3.76201 87.7858 2.03279 89.6962 1.8091C91.5995 1.58849 93.3365 2.95312 93.561 4.86348L115.074 188.773C115.297 190.682 113.929 192.413 112.018 192.637C111.882 192.652 111.745 192.66 111.609 192.66Z" fill="#8E70B1"/>
<path d="M2.33594 143.501L28.8563 167.77L120.877 143.112L94.3561 118.844L2.33594 143.501Z" fill="#FDBC4E"/>
<path d="M103.398 222.408C103.146 222.408 102.905 222.285 102.759 222.07L85.1328 196.264V267.219L177.378 242.501V202.612L103.598 222.381C103.532 222.399 103.465 222.408 103.398 222.408Z" fill="#FDBC4E"/>
<path d="M84.3583 269C84.2607 269 84.164 268.976 84.0703 268.938C84.1632 268.975 84.2592 269 84.3583 269Z" fill="#FFE5BE"/>
<path d="M178.266 167.864C178.29 167.867 178.314 167.873 178.337 167.879C178.313 167.873 178.29 167.867 178.266 167.864Z" fill="#FFE5BE"/>
<path d="M177.826 169.514L85.6172 194.221L103.731 220.742L195.94 196.035L177.826 169.514Z" fill="#FDBC4E"/>
<path d="M177.953 167.875C178.056 167.846 178.163 167.849 178.267 167.864C178.164 167.849 178.058 167.846 177.953 167.875Z" fill="#FFE5BE"/>
<path d="M65.3229 222.407C65.2161 222.407 65.1077 222.385 65.0048 222.338L29.4219 206.287V242.595L83.5888 267.027V196.263L65.9623 222.069C65.8144 222.286 65.5721 222.407 65.3229 222.407Z" fill="#F5813D"/>
<path d="M28.0391 168.16C28.0793 168.108 28.1258 168.06 28.1768 168.02C28.1242 168.062 28.0785 168.108 28.0391 168.16Z" fill="#FFE5BE"/>
<path d="M28.7344 167.862C28.8141 167.871 28.8938 167.887 28.9705 167.922C28.8946 167.888 28.8149 167.871 28.7344 167.862Z" fill="#FFE5BE"/>
<path d="M28.2186 167.975C28.2132 167.979 28.2085 167.984 28.2031 167.988C28.2689 167.943 28.3409 167.909 28.4152 167.887C28.3471 167.907 28.2805 167.935 28.2186 167.975Z" fill="#FFE5BE"/>
<path d="M85.1081 193.543C85.0802 193.447 85.0299 193.361 84.9688 193.283C85.0291 193.361 85.0802 193.446 85.1081 193.543Z" fill="#FFE5BE"/>
<path d="M84.6719 193.052C84.7648 193.094 84.8422 193.158 84.9111 193.23C84.8429 193.159 84.7655 193.095 84.6719 193.052Z" fill="#FFE5BE"/>
<path d="M28.9264 169.6L10.7734 196.178L65.0557 220.664L83.2079 194.086L28.9264 169.6Z" fill="#FDBC4E"/>
<path d="M28.6562 167.855C28.6788 167.856 28.7013 167.857 28.723 167.859C28.7005 167.856 28.6788 167.856 28.6562 167.855Z" fill="#FFE5BE"/>
<path d="M28.4219 167.887C28.4381 167.881 28.4559 167.88 28.473 167.876C28.4559 167.88 28.4389 167.881 28.4219 167.887Z" fill="#FFE5BE"/>
<path d="M85.1016 193.542C85.1039 193.55 85.1031 193.559 85.1054 193.566C85.1039 193.559 85.1062 193.554 85.1039 193.547C85.1039 193.546 85.1023 193.544 85.1016 193.542Z" fill="#FFE5BE"/>
<path d="M84.9219 193.229C84.9381 193.246 84.9536 193.263 84.9683 193.281C84.9536 193.263 84.9381 193.246 84.9219 193.229Z" fill="#FFE5BE"/>
<path d="M83.875 193.168C83.9594 193.099 84.053 193.04 84.1614 193.012C84.0515 193.041 83.9586 193.099 83.875 193.168Z" fill="#FFE5BE"/>
<path d="M83.6562 193.465C83.6942 193.373 83.7522 193.292 83.8196 193.223C83.7515 193.293 83.6942 193.374 83.6562 193.465Z" fill="#FFE5BE"/>
<path d="M83.5938 193.727C83.5961 193.661 83.6077 193.597 83.6263 193.536C83.6069 193.599 83.5961 193.662 83.5938 193.727Z" fill="#FFE5BE"/>
<path d="M83.8125 193.223C83.8319 193.203 83.8513 193.183 83.873 193.166C83.8513 193.184 83.8327 193.202 83.8125 193.223Z" fill="#FFE5BE"/>
<path d="M83.6351 193.489C83.6344 193.492 83.6344 193.496 83.6328 193.5C83.6367 193.488 83.6452 193.478 83.6506 193.467C83.6467 193.475 83.6382 193.48 83.6351 193.489Z" fill="#FFE5BE"/>
<path d="M30.9375 168.81L84.4241 192.938L175.855 168.439L122.37 144.312L30.9375 168.81Z" fill="#F5813D"/>
<path d="M178.007 167.711L204.639 143.341L150.461 118.901L123.828 143.272L178.007 167.711Z" fill="#F5813D"/>
<path d="M178.012 167.71L142.554 151.716L123.833 143.271L150.466 118.9L204.644 143.34L178.012 167.71ZM195.943 196.036L103.734 220.744L85.6201 194.223L116.011 186.079L177.829 169.515L178.932 171.131L195.943 196.036ZM177.384 242.501L85.1386 267.218V196.264L102.764 222.07C102.912 222.284 103.152 222.407 103.404 222.407C103.47 222.407 103.538 222.399 103.604 222.381L177.384 202.612V242.501ZM83.5906 267.029L29.4236 242.595V206.288L65.0073 222.338C65.1102 222.385 65.2178 222.407 65.3246 222.407C65.5746 222.407 65.8161 222.286 65.9648 222.07L83.5906 196.264V267.029ZM10.7699 196.175L28.9228 169.597L48.4884 178.423L83.2051 194.083L65.0522 220.661L10.7699 196.175ZM2.33818 143.5L94.3591 118.843L120.879 143.112L28.8593 167.768L2.33818 143.5ZM175.863 168.439L84.4312 192.938L30.9454 168.811L122.378 144.312L175.863 168.439ZM206.798 142.995C206.758 142.738 206.59 142.519 206.352 142.412L150.638 117.28C150.356 117.153 150.025 117.205 149.797 117.414L122.444 142.444L95.0906 117.414C94.8963 117.236 94.623 117.169 94.3676 117.237L0.57414 142.37C0.300902 142.443 0.0895775 142.659 0.0222355 142.934C-0.0451065 143.208 0.0431388 143.498 0.251357 143.689L27.6317 168.743L8.97098 196.064C8.84172 196.254 8.80302 196.49 8.86494 196.71C8.92687 196.931 9.08323 197.112 9.29222 197.206L27.8755 205.589V243.095C27.8755 243.399 28.0543 243.676 28.3314 243.8L84.0465 268.932C84.0565 268.936 84.0674 268.933 84.0774 268.938C84.1703 268.976 84.2671 269 84.3646 269C84.4319 269 84.4985 268.992 84.5651 268.974L178.359 243.842C178.698 243.751 178.932 243.445 178.932 243.095V202.197L197.399 197.248C197.641 197.183 197.837 197.005 197.924 196.77C198.012 196.534 197.979 196.271 197.837 196.064L179.177 168.742L206.556 143.689C206.748 143.513 206.84 143.252 206.798 142.995Z" fill="#FFE5BE"/>
<path d="M3.98438 21.9474L14.9781 115.93L188.652 95.6133L177.658 1.63099L3.98438 21.9474Z" fill="#8E70B1"/>
<path d="M14.9784 115.93L3.98467 21.9477L177.658 1.63133L188.652 95.6137L14.9784 115.93ZM179.106 0.683121C179.082 0.479546 178.978 0.293007 178.817 0.165291C178.655 0.0383453 178.448 -0.0197144 178.247 0.00428009L3.03569 20.5002C2.61151 20.5498 2.30731 20.9345 2.35685 21.3587L13.531 116.879C13.555 117.083 13.6587 117.268 13.8197 117.396C13.9567 117.504 14.1262 117.562 14.2996 117.562C14.3298 117.562 14.36 117.561 14.3894 117.558L189.601 97.0619C190.026 97.0124 190.329 96.6277 190.28 96.2027L179.106 0.683121Z" fill="#CFC4E1"/>
<path d="M32.9824 50.5706L32.72 48.3228C32.2208 48.3553 31.7757 48.4072 31.3848 48.4536C29.8692 48.6301 28.9156 49.7749 29.1269 51.5784C29.3011 53.0685 30.055 53.8549 31.1007 53.7326C32.4599 53.5739 33.193 52.3741 32.9824 50.5706ZM36.2737 45.1786L36.879 50.3539C37.0601 51.8958 37.8752 52.7534 39.0773 52.6133C40.2794 52.4724 40.8583 51.0799 40.6014 48.8847C39.9225 43.0825 36.0747 40.0885 30.2469 40.7704C24.4702 41.4462 21.4669 45.6655 22.2162 52.0699C22.9655 58.4729 26.8613 61.8848 32.638 61.2091C34.964 60.9374 37.4781 60.0062 39.424 58.7461L41.1455 61.4576C39.0865 62.8919 35.7992 63.9918 33.0018 64.3192C24.6901 65.2914 19.1719 60.9297 18.1912 52.5406C17.2089 44.1499 21.5714 38.6317 29.8831 37.6595C38.2475 36.6811 43.6952 40.6806 44.6001 48.4172C45.0862 52.5723 43.1782 55.2861 39.4411 55.7227C37.0098 56.0075 35.1521 55.2969 34.0413 53.7326C33.5575 55.4843 31.9135 56.6035 30.1363 56.8117C27.3907 57.133 25.5918 55.3302 25.2002 51.9848C24.7698 48.2996 26.7854 45.8381 30.6278 45.3884C32.3005 45.1925 34.4918 45.1229 36.2737 45.1786Z" fill="white"/>
<path d="M62.5534 54.1615C61.7461 54.7336 60.9767 54.9557 60.0625 55.0633C58.6251 55.2313 57.7659 54.9077 57.012 54.1213L51.7694 48.7215L56.1025 41.591L59.9101 41.7544L56.0754 47.925L62.5534 54.1615ZM50.3405 37.1782L52.5055 55.6825L48.4534 56.1562L46.1328 36.3182C46.8024 35.9235 47.5323 35.5984 48.2382 35.5155C49.4411 35.3747 50.212 36.0806 50.3405 37.1782Z" fill="white"/>
<path d="M71.8269 46.7186C71.5575 44.4181 70.2974 43.1618 68.4683 43.3763C66.6385 43.5899 65.7034 45.1031 65.9728 47.4036C66.2414 49.7033 67.4977 50.934 69.3275 50.7204C71.1574 50.5068 72.0963 49.019 71.8269 46.7186ZM61.8425 47.8866C61.337 43.5744 63.6259 40.7104 68.0697 40.1903C72.5127 39.6717 75.4247 41.9265 75.9301 46.2387C76.434 50.5509 74.1204 53.4179 69.6774 53.9381C65.2336 54.4583 62.3464 52.1988 61.8425 47.8866Z" fill="white"/>
<path d="M88.4389 51.0265C87.4225 51.6225 86.3265 51.9886 84.9665 52.1481C81.9872 52.4964 80.0691 51.052 79.7363 48.2028L79.0389 42.2434L77.1053 42.4694L76.75 39.4375L78.8144 39.1968L78.4661 36.2167C79.1356 35.8196 79.8663 35.4968 80.5715 35.414C81.6698 35.2855 82.4152 35.9938 82.5437 37.0914L82.7357 38.7378L86.7081 38.2726L87.0626 41.3045L83.091 41.7697L83.7079 47.0487C83.8488 48.2516 84.564 48.9366 85.7142 48.8019C86.3157 48.7315 87.0556 48.4853 87.565 48.0813L88.4389 51.0265Z" fill="white"/>
<path d="M99.1941 43.5156C98.9247 41.2152 97.6638 39.9581 95.8348 40.1733C94.0049 40.3869 93.0699 41.9002 93.3392 44.2007C93.6078 46.5004 94.8641 47.7311 96.6947 47.5175C98.5238 47.303 99.4635 45.8161 99.1941 43.5156ZM89.2097 44.6837C88.7042 40.3715 90.9923 37.5067 95.4361 36.9873C99.8791 36.468 102.792 38.7235 103.297 43.0357C103.801 47.3479 101.487 50.215 97.0438 50.7352C92.6 51.2545 89.7136 48.9959 89.2097 44.6837Z" fill="white"/>
<path d="M114.241 37.8573C113.637 37.9022 113.114 37.9633 112.67 38.0144C110.475 38.2714 109.276 40.0285 109.593 42.7461C109.832 44.785 110.861 45.8826 112.456 45.696C114.025 45.5134 115.015 44.4707 114.691 41.6996L114.241 37.8573ZM117.351 29.3335L119.482 47.5507C118.813 47.947 118.081 48.2705 117.376 48.3541C116.357 48.4725 115.603 47.6853 115.385 46.4933C114.44 48.166 112.906 48.8758 111.312 49.0631C108.255 49.42 105.964 47.2774 105.489 43.2268C104.948 38.5996 107.353 35.5901 111.952 35.0521C112.449 34.9941 113.131 34.9399 113.893 34.8772L113.144 28.4743C113.812 28.0788 114.543 27.7537 115.248 27.6716C116.45 27.5307 117.222 28.2359 117.351 29.3335Z" fill="white"/>
<path d="M125.368 39.817C125.975 39.8 126.578 39.7551 127.127 39.6908C128.801 39.495 129.669 38.7581 129.541 37.6605C129.436 36.7711 128.74 36.2696 127.643 36.398C126.18 36.5691 125.347 37.8331 125.368 39.817ZM132.432 42.4611L134.323 44.8104C132.822 46.0194 131.079 46.7532 128.884 47.0102C124.729 47.4963 121.987 45.353 121.504 41.2227C120.978 36.727 123.251 33.7338 127.669 33.2167C130.988 32.8281 133.117 34.2748 133.438 37.0188C133.747 39.6583 131.5 41.5106 127.449 41.9851C126.874 42.0524 126.292 42.0664 125.711 42.0826C126.161 43.4341 127.119 44.1431 128.817 43.9442C130.307 43.7701 131.467 43.2631 132.432 42.4611Z" fill="white"/>
<path d="M146.415 44.2413C145.399 44.8381 144.302 45.2043 142.943 45.3629C139.964 45.7113 138.046 44.2669 137.714 41.4176L137.015 35.4583L135.082 35.685L134.727 32.6531L136.792 32.4116L136.443 29.4315C137.112 29.0352 137.843 28.7124 138.549 28.6288C139.646 28.5011 140.392 29.2086 140.52 30.3062L140.712 31.9526L144.685 31.4882L145.039 34.5201L141.068 34.9853L141.684 40.2643C141.825 41.4664 142.541 42.1514 143.691 42.0167C144.293 41.9463 145.032 41.7009 145.541 41.2969L146.415 44.2413Z" fill="white"/>
<path d="M162.819 42.4318C162.012 43.0031 161.242 43.226 160.328 43.3328C158.89 43.5016 158.032 43.1772 157.278 42.3908L152.035 36.9911L156.368 29.8606L160.176 30.0239L156.341 36.1954L162.819 42.4318ZM150.605 25.4477L152.77 43.9521L148.719 44.4258L146.398 24.5878C147.067 24.193 147.798 23.8687 148.503 23.7858C149.707 23.645 150.477 24.3501 150.605 25.4477Z" fill="white"/>
<path d="M164.376 42.5938L168.427 42.12L166.88 28.8947L162.829 29.3684L164.376 42.5938ZM162.075 25.1917C161.916 23.8324 162.69 22.9725 164.075 22.8107C165.46 22.6481 166.413 23.3061 166.572 24.6653C166.733 26.0508 165.962 26.9356 164.578 27.0981C163.192 27.2599 162.237 26.5772 162.075 25.1917Z" fill="white"/>
<path d="M43.1491 75.761L45.0045 91.6282L41.0189 92.0949L39.8679 82.2552L33.6059 90.5437L33.8845 92.9293L29.8998 93.3945L27.8594 75.953C28.4585 75.5342 29.0297 75.2935 29.6443 75.2215C30.947 75.0682 31.8844 75.8322 32.0284 77.0622L33.0153 85.5L39.2781 77.2116L38.9785 74.6526C39.5784 74.233 40.1481 73.9923 40.7635 73.9203C42.067 73.7678 43.0044 74.531 43.1491 75.761Z" fill="white"/>
<path d="M72.8239 85.3541L73.4571 90.7662C72.8572 91.1857 72.2627 91.4296 71.6473 91.5008C70.3686 91.6509 69.432 90.887 69.2881 89.6585L69.1874 88.7963L48.8919 91.171L46.8516 73.7287C47.4507 73.3091 48.0211 73.0692 48.6365 72.9972C49.94 72.8447 50.8766 73.6079 51.0213 74.8379L52.5207 87.6553L57.6859 87.05L56.0031 72.659C56.6014 72.2394 57.1727 71.9987 57.7873 71.9259C59.0915 71.7742 60.0281 72.5366 60.1721 73.7666L61.6714 86.584L66.887 85.9741L65.2034 71.5823C65.8025 71.1627 66.373 70.922 66.9876 70.8508C68.2926 70.6975 69.2285 71.4607 69.3732 72.6907L70.8803 85.5809L72.8239 85.3541Z" fill="white"/>
<path d="M85.9105 69.2861L81.9196 82.9194C81.1548 85.5527 79.3017 87.6147 77.2397 88.1055L75.2589 85.6695C76.5345 85.2701 77.6608 84.2414 78.2908 82.5958L78.6546 81.6561C78.1337 81.4673 77.7653 81.0864 77.4231 80.5028L71.7656 70.941C72.1875 70.4936 72.9693 70.1515 73.7077 70.0656C75.0855 69.9046 76.0058 70.0957 76.8875 71.6632L78.8412 75.1503L80.0518 77.8261L82.2926 69.0608L85.9105 69.2861Z" fill="white"/>
<path d="M100.342 70.2902L95.865 70.8142L97.5803 85.4754L93.5947 85.9414L91.8795 71.2794L87.4271 71.8004L87.0703 68.7514L99.9853 67.2405L100.342 70.2902Z" fill="white"/>
<path d="M119.833 79.781L118.474 68.1695L112.644 68.8514L113.084 75.3836C113.237 77.7592 112.933 79.4156 112.206 80.6727L119.833 79.781ZM125.77 79.1602L126.403 84.5723C125.804 84.9918 125.209 85.2357 124.594 85.3077C123.315 85.4571 122.378 84.6946 122.234 83.4647L122.133 82.6031L111.53 83.8439L111.643 86.2992C111.117 86.7102 110.571 86.9486 110.03 87.0113C108.851 87.1499 107.987 86.3774 107.843 85.1482L107.414 81.4823C109.057 80.6169 109.641 78.7786 109.411 75.1143L108.844 66.2042L122.103 64.653L123.826 79.3878L125.77 79.1602Z" fill="white"/>
<path d="M140.134 71.5202C139.698 67.7816 137.765 65.7637 134.912 66.0973C132.058 66.4309 130.62 68.8436 131.057 72.5822C131.494 76.3217 133.451 78.3373 136.305 78.0029C139.158 77.6693 140.572 75.2597 140.134 71.5202ZM126.948 73.0629C126.279 67.3319 129.107 63.584 134.569 62.9454C140.005 62.3091 143.622 65.3031 144.292 71.0341C144.963 76.766 142.134 80.5131 136.698 81.1494C131.237 81.7887 127.62 78.7947 126.948 73.0629Z" fill="white"/>
<path d="M164.601 77.6351L162.15 66.2759L159.682 78.2102L156.04 78.6359L150.693 67.4664L151.096 79.2149L147.456 79.6406L147.383 61.9684C147.867 61.6386 148.675 61.2942 149.265 61.2253C150.643 61.0643 151.725 61.3615 152.287 62.542L157.829 74.3129L160.475 60.4876C160.951 60.082 161.615 59.7809 162.279 59.7028C163.682 59.5387 164.427 59.9497 164.852 61.6712L168.661 77.1598L164.601 77.6351Z" fill="white"/>
<path d="M58.4915 138.439C58.5194 138.461 58.5488 138.48 58.5767 138.502C58.2237 140.738 57.7872 143.086 57.2701 145.23C53.4394 143.441 49.518 141.932 45.2414 141.308C45.1168 139.434 44.9357 137.426 44.6562 135.636C49.6814 135.038 55.3342 135.763 58.4915 138.439Z" fill="#5B8DC9"/>
<path d="M30.6703 100.93C34.7743 96.2238 41.9195 95.7385 46.6249 99.8448L48.2504 101.263C49.1716 102.066 50.0346 102.929 50.8458 103.826C43.1657 105.053 35.2782 107.746 28.424 111.793C27.2707 108.153 27.9735 104.018 30.6703 100.93Z" fill="#5B8DC9"/>
<path d="M58.7935 121.018C59.3864 124.634 59.4878 128.097 59.3183 131.43C54.5695 129.38 48.6109 128.596 43.1028 129.032C42.6778 127.739 42.1933 126.52 41.6406 125.411C46.0953 124.519 50.2573 122.164 54.8288 121.485C56.1509 121.287 57.4737 121.136 58.7935 121.018Z" fill="#5B8DC9"/>
<path d="M32.6953 117.623C39.157 113.236 47.0616 110.217 54.5977 108.979C54.7107 109.178 54.8299 109.374 54.9398 109.573C55.9624 111.421 56.7588 113.302 57.3796 115.167C56.4995 115.231 55.621 115.312 54.7448 115.42C51.4783 115.822 48.177 116.343 45.005 117.249C42.2919 118.022 39.8529 119.422 37.129 119.914C36.5222 119.522 35.9076 119.214 35.2791 118.981C34.3889 118.652 33.5119 118.192 32.6953 117.623Z" fill="#5B8DC9"/>
<path d="M59.3327 131.429C59.2607 132.811 59.1446 134.172 58.9975 135.509C58.8783 136.518 58.7359 137.513 58.5826 138.504C58.5548 138.481 58.5261 138.462 58.4975 138.44C55.3409 135.765 49.6873 135.039 44.6622 135.638C44.6606 135.623 44.6591 135.607 44.6575 135.595C44.2984 133.291 43.7844 131.07 43.1172 129.031C48.6253 128.595 54.5839 129.379 59.3327 131.429Z" fill="#C1CFEA"/>
<path d="M54.7493 115.42C55.6248 115.312 56.5041 115.231 57.3842 115.167C57.7743 116.342 58.0947 117.515 58.3579 118.668C58.5329 119.459 58.6776 120.242 58.8053 121.017C57.4856 121.136 56.1627 121.286 54.8407 121.484C50.2684 122.164 46.1071 124.519 41.6525 125.41C41.4938 125.092 41.3336 124.775 41.164 124.474C40.3265 122.984 39.3706 121.755 38.369 120.857C37.9641 120.486 37.5492 120.183 37.1328 119.914C39.8575 119.422 42.2965 118.022 45.0095 117.249C48.1815 116.342 51.4828 115.823 54.7493 115.42Z" fill="#C1CFEA"/>
<path d="M31.7448 116.886C30.1263 115.475 29.0201 113.701 28.4141 111.793C35.2682 107.745 43.1558 105.053 50.8366 103.826C52.2918 105.441 53.5558 107.184 54.5977 108.977C47.0616 110.215 39.157 113.235 32.6953 117.621C32.3687 117.392 32.049 117.15 31.7448 116.886Z" fill="#C1CFEA"/>
<path d="M166.132 138.479C166.16 138.501 166.189 138.52 166.217 138.542C165.864 140.778 165.429 143.125 164.911 145.27C161.081 143.481 157.159 141.972 152.882 141.347C152.758 139.474 152.576 137.466 152.297 135.676C157.322 135.078 162.976 135.803 166.132 138.479Z" fill="#6DC390"/>
<path d="M138.303 100.969C142.408 96.2629 149.552 95.7775 154.257 99.8839L155.883 101.302C156.804 102.105 157.667 102.968 158.478 103.866C150.799 105.092 142.911 107.785 136.057 111.832C134.903 108.192 135.606 104.057 138.303 100.969Z" fill="#6DC390"/>
<path d="M166.45 121.053C167.043 124.669 167.143 128.133 166.975 131.465C162.226 129.415 156.267 128.631 150.759 129.068C150.334 127.774 149.85 126.555 149.297 125.446C153.752 124.554 157.914 122.199 162.485 121.52C163.807 121.322 165.13 121.171 166.45 121.053Z" fill="#6DC390"/>
<path d="M140.336 117.658C146.798 113.272 154.702 110.252 162.239 109.014C162.351 109.213 162.471 109.409 162.58 109.608C163.604 111.456 164.4 113.337 165.021 115.202C164.141 115.266 163.262 115.348 162.385 115.455C159.12 115.858 155.818 116.378 152.646 117.284C149.933 118.057 147.494 119.457 144.77 119.949C144.163 119.558 143.548 119.248 142.92 119.016C142.03 118.687 141.153 118.227 140.336 117.658Z" fill="#6DC390"/>
<path d="M166.973 131.464C166.901 132.846 166.785 134.206 166.638 135.544C166.519 136.554 166.377 137.548 166.223 138.539C166.195 138.516 166.166 138.497 166.138 138.476C162.982 135.8 157.328 135.074 152.303 135.673C152.301 135.657 152.3 135.643 152.298 135.63C151.939 133.327 151.424 131.105 150.758 129.066C156.266 128.631 162.225 129.415 166.973 131.464Z" fill="#CDE8D5"/>
<path d="M162.382 115.455C163.258 115.347 164.138 115.267 165.017 115.202C165.407 116.377 165.728 117.55 165.991 118.703C166.166 119.494 166.31 120.277 166.438 121.053C165.118 121.17 163.796 121.321 162.473 121.519C157.902 122.199 153.74 124.554 149.285 125.445C149.127 125.127 148.967 124.81 148.797 124.509C147.959 123.019 147.004 121.789 146.003 120.892C145.597 120.522 145.182 120.218 144.766 119.95C147.49 119.457 149.929 118.057 152.642 117.284C155.815 116.377 159.116 115.858 162.382 115.455Z" fill="#CDE8D5"/>
<path d="M139.385 116.925C137.766 115.514 136.66 113.74 136.055 111.832C142.909 107.784 150.796 105.092 158.476 103.865C159.932 105.48 161.196 107.223 162.238 109.016C154.701 110.254 146.798 113.274 140.336 117.66C140.009 117.431 139.69 117.19 139.385 116.925Z" fill="#CDE8D5"/>
<path d="M63.6731 197.243C60.0304 197.401 56.25 194.979 56.25 190.155C56.25 185.312 60.0304 182.93 63.6731 182.93C67.1184 183.106 70.7223 185.488 70.7223 190.155C70.7223 194.822 67.1184 197.243 63.6731 197.243Z" fill="#5B8DC9"/>
<path d="M30.6719 190.155C30.6719 185.489 34.2758 183.106 37.7211 182.93C41.3638 182.93 45.145 185.312 45.145 190.155C45.145 194.979 41.3638 197.401 37.7211 197.243C34.2758 197.243 30.6719 194.822 30.6719 190.155Z" fill="#5B8DC9"/>
<path d="M171.4 197.22C167.758 197.377 163.977 194.955 163.977 190.132C163.977 185.288 167.758 182.907 171.4 182.907C174.846 183.083 178.449 185.465 178.449 190.132C178.449 194.798 174.846 197.22 171.4 197.22Z" fill="#6DC390"/>
<path d="M138.398 190.131C138.398 185.465 142.002 183.084 145.448 182.906C149.09 182.906 152.871 185.288 152.871 190.131C152.871 194.955 149.09 197.377 145.448 197.219C142.002 197.219 138.398 194.798 138.398 190.131Z" fill="#6DC390"/>
<path d="M128.896 163.827C127.945 160.855 129.696 157.286 130.759 154.468C131.78 151.757 132.615 151.86 133.28 149.16C134.338 144.871 133.925 138.832 132.74 134.642C132.231 132.847 131.662 130.226 130.399 128.647C129.227 127.182 128.436 127.812 126.849 128.754C123.056 131.013 119.476 133.685 117.172 136.983C115.302 139.665 112.698 143.71 112.92 146.827C108.406 143.414 99.3367 145.662 99.3367 145.662C99.0062 144.537 98.0518 140.81 96.6856 139.041C93.3363 134.708 84.4201 127.551 82.3882 127.039C80.3556 126.526 76.1262 139.359 75.9783 142.399C75.798 146.148 76.6247 150.816 80.6822 153.291C79.5877 152.762 78.3175 152.583 76.997 152.655C78.7448 156.505 81.0011 155.851 81.0011 160.129C81.0011 161.705 80.289 163.052 79.3106 164.337C79.3795 165.069 79.419 165.831 79.4252 166.627C79.4275 166.949 79.4236 167.265 79.4174 167.58C80.0072 167.372 80.5228 167.17 80.8587 166.996C80.4717 167.473 79.936 168.052 79.3749 168.645C79.2541 170.74 78.9143 172.639 78.381 174.362C79.1914 174.064 80.0529 173.58 80.9949 172.81C80.4802 173.793 79.4383 174.54 77.915 175.701C77.1967 177.545 76.2407 179.17 75.0781 180.608C78.4715 180.082 80.9918 177.879 81.9222 176.147C82.1815 178.102 80.9647 184.898 81.087 186.479C81.1606 187.374 81.3131 188.64 82.1715 189.31C83.3883 187.909 83.7405 185.293 85.2963 183.872C85.2344 185.614 86.1075 187.219 86.8336 188.862C87.5317 190.451 88.0163 192.936 89.7896 193.963C89.9274 191.914 89.8469 189.812 89.7997 187.757C90.967 189.042 92.4129 190.541 93.1784 192.067C93.7938 193.283 93.8155 193.945 95.0253 194.84C95.814 195.424 97.6323 196.759 98.5557 196.871C98.6494 195.47 98.0131 192.384 100.627 193.958C102.592 195.136 102.633 197.994 104.557 198.961C105.985 197.574 107.737 196.257 109.066 194.814C109.741 194.081 110.454 193.374 111.211 192.776C112.134 194.421 112.079 196.639 113.311 198.062C114.273 197.415 114.186 196.362 114.648 195.439C115.17 194.406 115.927 193.437 116.431 192.426C117.189 190.914 118.086 188.311 119.452 187.161C120.988 189.11 120.337 192.094 121.133 194.279C122.44 191.099 125.129 188.367 125.636 184.836C126.799 186.559 126.561 188.994 126.763 190.97C128.454 186.878 127.736 181.749 129.49 177.65C130.767 178.272 131.985 179.471 133.197 179.957C133.245 179.775 133.263 179.59 133.255 179.401C126.293 175.174 121.431 171.221 121.431 171.221C121.431 171.221 125.073 168.171 128.896 163.827Z" fill="#FFE6BE"/>
<path d="M171.498 130.448C167.862 134.616 160.193 144.569 160.193 144.569C160.193 144.569 156.435 145.997 154.825 144.398C150.756 140.345 146.763 131.49 145.279 130.929C143.33 130.194 139.802 147.511 134.3 156.601C132.735 159.187 130.791 161.666 128.89 163.826C128.986 164.126 129.108 164.42 129.263 164.705C129.044 164.707 128.786 164.758 128.565 164.756C128.448 166.879 129.37 168.559 130.556 170.45C131.715 172.3 134.004 173.708 135.06 175.396C133.18 175.352 132.053 173.862 129.882 174.135C130.67 175.5 133.165 177.608 133.248 179.4C141.765 184.571 153.423 190.151 163.177 189.405C176.609 188.376 187.079 169.074 195.342 164.468C184.832 156.68 174.336 145.895 171.498 130.448Z" fill="#CDE8D5"/>
<path d="M72.3396 180.649C74.6052 178.263 76.473 176.797 77.9119 175.7C78.0799 175.267 78.2355 174.821 78.3779 174.362C76.4111 175.087 74.7507 174.717 73.0068 174.651C74.4403 173.09 76.2098 172.131 77.422 170.737C77.9491 170.131 78.6782 169.377 79.3718 168.644C79.3927 168.295 79.4051 167.94 79.4144 167.579C78.1016 168.04 76.4188 168.531 75.5077 168.822C76.675 167.236 78.1712 165.828 79.3075 164.338C78.2703 153.386 70.6018 149.402 69.9246 145.827C69.0027 140.941 67.6798 135.831 65.1804 132.333C59.1839 135.332 54.4343 145.078 54.4343 145.078C51.5913 143.826 46.94 143.828 45.1497 145.579C44.0962 141.285 42.2965 136.675 37.6956 132.333C34.2031 136.164 32.6922 140.902 29.4652 147.577C26.0377 154.663 17.4969 163.446 21.2719 173.97C26.1763 187.648 48.0338 191.637 55.5258 190.201C63.7028 188.632 70.7876 185.906 75.0751 180.607C74.2151 180.74 73.3002 180.767 72.3396 180.649Z" fill="#C1CFEA"/>
<path d="M135.065 175.398C134.008 173.71 131.719 172.302 130.561 170.452C129.374 168.562 128.452 166.881 128.569 164.759C128.791 164.76 129.049 164.709 129.267 164.707C129.113 164.421 128.99 164.127 128.894 163.829C125.071 168.172 121.43 171.221 121.43 171.221C121.43 171.221 126.291 175.175 133.252 179.402C133.169 177.61 130.674 175.503 129.887 174.137C132.057 173.864 133.184 175.353 135.065 175.398Z" fill="#D0D8AE"/>
<path d="M72.3359 180.648C73.2965 180.766 74.2115 180.739 75.0714 180.606C76.234 179.17 77.19 177.543 77.9083 175.7C76.4693 176.796 74.6016 178.262 72.3359 180.648Z" fill="#C6C4C5"/>
<path d="M79.4136 167.579C79.4206 167.265 79.4237 166.949 79.4222 166.627C79.4152 165.83 79.3757 165.068 79.3068 164.337C78.1713 165.827 76.6743 167.235 75.5078 168.82C76.4181 168.53 78.1016 168.039 79.4136 167.579Z" fill="#C6C4C5"/>
<path d="M73.0078 174.651C74.7517 174.718 76.4121 175.088 78.3789 174.362C78.9122 172.639 79.252 170.74 79.3728 168.645C78.6792 169.378 77.9501 170.131 77.423 170.738C76.2116 172.132 74.4413 173.09 73.0078 174.651Z" fill="#C6C4C5"/>
<path d="M38.0858 158.05C38.5695 158.872 38.8095 159.696 38.993 160.52C39.1648 161.343 39.2383 162.165 39.2391 162.989C39.2383 163.813 39.1648 164.637 38.993 165.46C38.8095 166.283 38.5695 167.106 38.0858 167.93H37.7955C37.3117 167.106 37.0718 166.283 36.8891 165.46C36.7165 164.637 36.6429 163.813 36.6406 162.989C36.6429 162.165 36.7165 161.343 36.8891 160.52C37.0718 159.696 37.3117 158.872 37.7955 158.05H38.0858Z" fill="#373535"/>
<path d="M63.685 158.05C64.1688 158.872 64.4095 159.696 64.5914 160.52C64.7648 161.343 64.8376 162.165 64.8383 162.989C64.8376 163.813 64.7648 164.637 64.5914 165.46C64.4095 166.283 64.1688 167.106 63.685 167.93H63.3947C62.911 167.106 62.6702 166.283 62.4883 165.46C62.3165 164.637 62.2422 163.813 62.2422 162.989C62.2422 162.165 62.3165 161.343 62.4883 160.52C62.6702 159.696 62.911 158.872 63.3947 158.05H63.685Z" fill="#373535"/>
<path d="M49.5275 172.534H46.0822C44.3684 172.534 44.3684 170.015 46.0822 170.015H55.3947C57.1472 170.015 57.1472 172.534 55.3947 172.534H52.1267V182.478C52.1267 184.191 49.5275 184.23 49.5275 182.478V172.534Z" fill="#373535"/>
<path d="M37.9407 158.32C35.7355 158.32 33.3336 159.877 33.3336 162.986C33.3336 166.078 35.7355 167.654 37.9407 167.654C40.2056 167.654 42.6268 166.078 42.6268 162.986C42.6268 159.877 40.2056 158.32 37.9407 158.32ZM38.1575 170.075C34.5164 170.233 30.7344 167.811 30.7344 162.986C30.7344 158.143 34.5164 155.761 38.1575 155.761C41.6035 155.938 45.2067 158.32 45.2067 162.986C45.2067 167.654 41.6035 170.075 38.1575 170.075Z" fill="#373535"/>
<path d="M63.5048 158.32C61.2988 158.32 58.8961 159.877 58.8961 162.986C58.8961 166.078 61.2988 167.654 63.5048 167.654C65.7681 167.654 68.1901 166.078 68.1901 162.986C68.1901 159.877 65.7681 158.32 63.5048 158.32ZM63.7207 170.075C60.0781 170.233 56.2969 167.811 56.2969 162.986C56.2969 158.143 60.0781 155.761 63.7207 155.761C67.166 155.938 70.77 158.32 70.77 162.986C70.77 167.654 67.166 170.075 63.7207 170.075Z" fill="#373535"/>
<path d="M96.708 162.845C95.886 162.362 95.0617 162.12 94.2373 161.938C93.4153 161.766 92.5917 161.693 91.7681 161.691C90.9445 161.693 90.1209 161.766 89.2981 161.938C88.4745 162.12 87.6517 162.362 86.8281 162.845V163.135C87.6517 163.619 88.4745 163.859 89.2981 164.042C90.1209 164.215 90.9445 164.288 91.7681 164.289C92.5917 164.288 93.4153 164.215 94.2373 164.042C95.0617 163.859 95.886 163.619 96.708 163.135V162.845Z" fill="#373535"/>
<path d="M122.302 162.845C121.48 162.362 120.655 162.121 119.832 161.938C119.009 161.766 118.185 161.693 117.363 161.692C116.538 161.693 115.715 161.766 114.892 161.938C114.068 162.121 113.245 162.362 112.422 162.845V163.136C113.245 163.62 114.068 163.86 114.892 164.042C115.715 164.215 116.538 164.288 117.363 164.289C118.185 164.288 119.009 164.215 119.832 164.042C120.655 163.86 121.48 163.62 122.302 163.136V162.845Z" fill="#373535"/>
<path d="M103.355 172.542H99.9097C98.1968 172.542 98.1968 170.022 99.9097 170.022H109.222C110.975 170.022 110.975 172.542 109.222 172.542H105.954V182.486C105.954 184.198 103.355 184.238 103.355 182.486V172.542Z" fill="#373535"/>
<path d="M91.7681 158.321C89.5636 158.321 87.1617 159.877 87.1617 162.986C87.1617 166.078 89.5636 167.653 91.7681 167.653C94.0337 167.653 96.4557 166.078 96.4557 162.986C96.4557 159.877 94.0337 158.321 91.7681 158.321ZM91.9856 170.075C88.3437 170.233 84.5625 167.811 84.5625 162.986C84.5625 158.144 88.3437 155.761 91.9856 155.761C95.4309 155.939 99.0348 158.321 99.0348 162.986C99.0348 167.653 95.4309 170.075 91.9856 170.075Z" fill="#373535"/>
<path d="M117.339 158.325C115.133 158.325 112.732 159.881 112.732 162.991C112.732 166.082 115.133 167.658 117.339 167.658C119.603 167.658 122.025 166.082 122.025 162.991C122.025 159.881 119.603 158.325 117.339 158.325ZM117.556 170.079C113.913 170.237 110.133 167.815 110.133 162.99C110.133 158.148 113.913 155.765 117.556 155.765C121.001 155.942 124.607 158.324 124.607 162.99C124.607 167.657 121.001 170.079 117.556 170.079Z" fill="#373535"/>
<path d="M145.718 158.061C146.202 158.884 146.442 159.708 146.625 160.531C146.798 161.354 146.87 162.177 146.872 163.001C146.87 163.824 146.798 164.649 146.625 165.471C146.442 166.294 146.202 167.117 145.718 167.941H145.428C144.945 167.117 144.704 166.294 144.521 165.471C144.349 164.649 144.276 163.824 144.273 163.001C144.276 162.177 144.349 161.354 144.521 160.531C144.704 159.708 144.945 158.884 145.428 158.061H145.718Z" fill="#373535"/>
<path d="M171.311 158.061C171.795 158.884 172.035 159.708 172.217 160.531C172.39 161.354 172.463 162.177 172.464 163.001C172.463 163.824 172.39 164.649 172.217 165.471C172.035 166.294 171.795 167.117 171.311 167.941H171.021C170.538 167.117 170.297 166.294 170.113 165.471C169.942 164.649 169.869 163.824 169.867 163.001C169.869 162.177 169.942 161.354 170.113 160.531C170.297 159.708 170.538 158.884 171.021 158.061H171.311Z" fill="#373535"/>
<path d="M157.152 172.55H153.706C151.994 172.55 151.994 170.03 153.706 170.03H163.019C164.773 170.03 164.773 172.55 163.019 172.55H159.751V182.494C159.751 184.206 157.152 184.246 157.152 182.494V172.55Z" fill="#373535"/>
<path d="M145.573 158.332C143.368 158.332 140.966 159.888 140.966 162.998C140.966 166.09 143.368 167.666 145.573 167.666C147.838 167.666 150.26 166.09 150.26 162.998C150.26 159.888 147.838 158.332 145.573 158.332ZM145.79 170.087C142.147 170.245 138.367 167.823 138.367 162.998C138.367 158.155 142.147 155.772 145.79 155.772C149.235 155.95 152.839 158.332 152.839 162.998C152.839 167.666 149.235 170.087 145.79 170.087Z" fill="#373535"/>
<path d="M171.136 158.332C168.931 158.332 166.528 159.888 166.528 162.998C166.528 166.089 168.931 167.665 171.136 167.665C173.401 167.665 175.822 166.089 175.822 162.998C175.822 159.888 173.401 158.332 171.136 158.332ZM171.353 170.086C167.71 170.244 163.93 167.822 163.93 162.998C163.93 158.155 167.71 155.772 171.353 155.772C174.798 155.95 178.401 158.332 178.401 162.998C178.401 167.665 174.798 170.086 171.353 170.086Z" fill="#373535"/>
<path d="M145.529 151.715C143.576 151.715 141.992 150.131 141.992 148.178V140.779C141.992 138.826 143.576 137.243 145.529 137.243C145.529 137.243 156.465 141.148 156.465 143.101V145.856C156.465 147.809 145.529 151.715 145.529 151.715Z" fill="#5B8DC9"/>
<path d="M171.115 151.715C173.068 151.715 174.652 150.131 174.652 148.178V140.779C174.652 138.826 173.068 137.243 171.115 137.243C171.115 137.243 160.18 141.148 160.18 143.101V145.856C160.18 147.809 171.115 151.715 171.115 151.715Z" fill="#5B8DC9"/>
<path d="M158.415 148.055C154.703 148.055 154.703 146.923 154.703 144.511C154.703 142.089 154.928 140.898 158.415 140.898C161.901 140.898 161.94 142.177 161.94 144.511C161.94 146.845 162.126 148.055 158.415 148.055Z" fill="#5B8DC9"/>
<path d="M158.411 141.285C155.214 141.285 155.087 142.216 155.087 144.51C155.087 146.872 155.087 147.667 158.411 147.667C159.864 147.667 160.729 147.478 161.134 147.072C161.556 146.647 161.554 145.886 161.55 144.832L161.549 144.51C161.549 142.229 161.549 141.285 158.411 141.285ZM158.411 148.441C154.487 148.441 154.312 147.165 154.312 144.51C154.312 142.021 154.589 140.511 158.411 140.511C162.141 140.511 162.323 141.956 162.323 144.51L162.324 144.829C162.329 146.023 162.332 146.965 161.682 147.618C161.107 148.194 160.129 148.441 158.411 148.441Z" fill="#C1CFEA"/>
<path d="M154.319 143.852C154.305 143.852 154.292 143.851 154.277 143.849L148.901 143.284C148.689 143.262 148.534 143.071 148.557 142.859C148.579 142.646 148.757 142.49 148.982 142.515L154.359 143.08C154.571 143.102 154.725 143.293 154.703 143.505C154.683 143.704 154.514 143.852 154.319 143.852Z" fill="#C1CFEA"/>
<path d="M148.941 146.445C148.746 146.445 148.577 146.298 148.557 146.099C148.534 145.886 148.688 145.695 148.901 145.674L154.278 145.108C154.496 145.082 154.681 145.239 154.703 145.452C154.726 145.665 154.571 145.855 154.359 145.878L148.983 146.443C148.968 146.445 148.955 146.445 148.941 146.445Z" fill="#C1CFEA"/>
<path d="M162.324 143.852C162.129 143.852 161.96 143.704 161.94 143.505C161.917 143.293 162.071 143.102 162.283 143.08L167.661 142.515C167.877 142.491 168.065 142.646 168.086 142.859C168.11 143.071 167.955 143.262 167.743 143.284L162.365 143.849C162.351 143.851 162.338 143.852 162.324 143.852Z" fill="#C1CFEA"/>
<path d="M167.703 146.445C167.689 146.445 167.675 146.445 167.661 146.443L162.283 145.878C162.071 145.855 161.917 145.665 161.94 145.452C161.961 145.239 162.145 145.081 162.365 145.108L167.743 145.674C167.955 145.695 168.109 145.886 168.087 146.099C168.066 146.298 167.898 146.445 167.703 146.445Z" fill="#C1CFEA"/>
<path d="M38.0601 151.715C36.1071 151.715 34.5234 150.131 34.5234 148.178V140.779C34.5234 138.826 36.1071 137.243 38.0601 137.243C38.0601 137.243 48.9958 141.148 48.9958 143.101V145.856C48.9958 147.809 38.0601 151.715 38.0601 151.715Z" fill="#6DC390"/>
<path d="M63.6388 151.715C65.5918 151.715 67.1755 150.131 67.1755 148.178V140.779C67.1755 138.826 65.5918 137.243 63.6388 137.243C63.6388 137.243 52.7031 141.148 52.7031 143.101V145.856C52.7031 147.809 63.6388 151.715 63.6388 151.715Z" fill="#6DC390"/>
<path d="M50.9452 148.055C47.2344 148.055 47.2344 146.923 47.2344 144.511C47.2344 142.089 47.4596 140.898 50.9452 140.898C54.4315 140.898 54.4694 142.177 54.4694 144.511C54.4694 146.845 54.6567 148.055 50.9452 148.055Z" fill="#6EC290"/>
<path d="M50.9415 141.285C47.7447 141.285 47.6178 142.216 47.6178 144.51C47.6178 146.872 47.6178 147.667 50.9415 147.667C52.3944 147.667 53.2598 147.478 53.6639 147.072C54.0865 146.647 54.0842 145.886 54.0795 144.832L54.0788 144.51C54.0788 142.229 54.0788 141.285 50.9415 141.285ZM50.9415 148.441C47.0179 148.441 46.8438 147.165 46.8438 144.51C46.8438 142.021 47.1193 140.511 50.9415 140.511C54.6709 140.511 54.8528 141.956 54.8528 144.51L54.8536 144.83C54.8582 146.023 54.8621 146.966 54.2119 147.619C53.6376 148.194 52.6599 148.441 50.9415 148.441Z" fill="#CDE8D5"/>
<path d="M46.8424 143.852C46.8285 143.852 46.8153 143.851 46.8014 143.849L41.4241 143.284C41.212 143.262 41.0572 143.071 41.0804 142.859C41.1021 142.646 41.2956 142.491 41.5054 142.515L46.8827 143.08C47.0948 143.102 47.2488 143.293 47.2271 143.505C47.2062 143.704 47.0383 143.852 46.8424 143.852Z" fill="#CDE8D5"/>
<path d="M41.465 146.445C41.2692 146.445 41.1012 146.298 41.0803 146.099C41.0579 145.886 41.2119 145.695 41.4247 145.674L46.802 145.108C47.0072 145.085 47.2053 145.239 47.227 145.452C47.2502 145.665 47.0954 145.855 46.8833 145.878L41.506 146.443C41.4921 146.445 41.4789 146.445 41.465 146.445Z" fill="#CDE8D5"/>
<path d="M54.8477 143.852C54.6518 143.852 54.4839 143.704 54.463 143.505C54.4413 143.293 54.5953 143.102 54.8074 143.08L60.1847 142.515C60.3906 142.49 60.588 142.646 60.6097 142.859C60.6329 143.071 60.4781 143.262 60.266 143.284L54.8887 143.849C54.8748 143.851 54.8616 143.852 54.8477 143.852Z" fill="#CDE8D5"/>
<path d="M60.2252 146.445C60.2113 146.445 60.1981 146.445 60.1842 146.443L54.8069 145.878C54.5948 145.855 54.44 145.665 54.4632 145.452C54.4849 145.239 54.6792 145.086 54.8882 145.108L60.2655 145.674C60.4784 145.695 60.6324 145.886 60.6099 146.099C60.589 146.298 60.4211 146.445 60.2252 146.445Z" fill="#CDE8D5"/>
<path d="M91.7866 204.836C89.8337 204.836 88.25 203.252 88.25 201.299V193.9C88.25 191.947 89.8337 190.364 91.7866 190.364C91.7866 190.364 102.722 194.269 102.722 196.222V198.977C102.722 200.93 91.7866 204.836 91.7866 204.836Z" fill="#F27AA7"/>
<path d="M117.373 204.836C119.326 204.836 120.91 203.252 120.91 201.299V193.9C120.91 191.947 119.326 190.364 117.373 190.364C117.373 190.364 106.438 194.269 106.438 196.222V198.977C106.438 200.93 117.373 204.836 117.373 204.836Z" fill="#F27AA7"/>
<path d="M104.672 201.18C100.961 201.18 100.961 200.047 100.961 197.636C100.961 195.214 101.186 194.023 104.672 194.023C108.159 194.023 108.197 195.302 108.197 197.636C108.197 199.969 108.384 201.18 104.672 201.18Z" fill="#F27AA7"/>
<path d="M104.677 194.413C101.48 194.413 101.352 195.345 101.352 197.64C101.352 200.001 101.352 200.796 104.677 200.796C106.13 200.796 106.994 200.607 107.399 200.202C107.822 199.777 107.819 199.014 107.815 197.961L107.815 197.64C107.815 195.358 107.815 194.413 104.677 194.413ZM104.677 201.57C100.752 201.57 100.578 200.295 100.578 197.64C100.578 195.15 100.854 193.639 104.677 193.639C108.407 193.639 108.589 195.085 108.589 197.64L108.589 197.958C108.594 199.152 108.597 200.095 107.948 200.748C107.373 201.324 106.395 201.57 104.677 201.57Z" fill="#FAD0DD"/>
<path d="M100.585 196.977C100.571 196.977 100.558 196.976 100.544 196.974L95.1671 196.41C94.9542 196.388 94.7994 196.197 94.8226 195.985C94.8443 195.771 95.037 195.615 95.2468 195.64L100.624 196.205C100.837 196.227 100.991 196.417 100.969 196.63C100.948 196.829 100.78 196.977 100.585 196.977Z" fill="#FAD0DD"/>
<path d="M95.2064 199.566C95.0114 199.566 94.8426 199.419 94.8225 199.22C94.8 199.007 94.9541 198.816 95.1669 198.795L100.544 198.23C100.752 198.204 100.947 198.36 100.968 198.575C100.992 198.787 100.837 198.977 100.624 199L95.2474 199.564C95.2335 199.566 95.2203 199.566 95.2064 199.566Z" fill="#FAD0DD"/>
<path d="M108.581 196.977C108.386 196.977 108.218 196.829 108.197 196.63C108.175 196.417 108.329 196.227 108.542 196.205L113.919 195.64C114.126 195.616 114.323 195.771 114.344 195.985C114.367 196.197 114.213 196.388 114 196.41L108.622 196.974C108.609 196.976 108.595 196.977 108.581 196.977Z" fill="#FAD0DD"/>
<path d="M113.96 199.566C113.946 199.566 113.933 199.566 113.919 199.564L108.542 199C108.329 198.977 108.174 198.787 108.198 198.575C108.219 198.36 108.411 198.203 108.623 198.23L114 198.795C114.213 198.816 114.367 199.007 114.344 199.22C114.324 199.419 114.155 199.566 113.96 199.566Z" fill="#FAD0DD"/>
<path d="M108.125 129.338L116.908 137.375C116.998 137.243 117.09 137.111 117.177 136.984C119.481 133.686 123.061 131.015 126.854 128.755C128.441 127.813 129.232 127.183 130.404 128.648C131.389 129.878 131.948 131.736 132.39 133.348L146.007 120.887C145.605 120.519 145.193 120.217 144.779 119.951C144.173 119.56 143.558 119.25 142.931 119.018C142.04 118.689 141.163 118.229 140.346 117.66C140.019 117.431 139.7 117.189 139.395 116.924C137.777 115.513 136.671 113.74 136.066 111.831C135.176 109.026 135.394 105.93 136.772 103.243L105.5 106.902L108.125 129.338Z" fill="white"/>
<path d="M95.0824 117.415L100.258 122.15L98.5687 107.71L56.4219 112.641C56.7779 113.483 57.0992 114.327 57.3786 115.168C57.7687 116.343 58.0892 117.515 58.3523 118.669C58.5273 119.459 58.672 120.242 58.7997 121.018C59.1125 122.926 59.2858 124.79 59.3571 126.617L94.3594 117.238C94.6148 117.169 94.8881 117.237 95.0824 117.415Z" fill="white"/>
</svg>
