<svg width="292" height="243" viewBox="0 0 292 243" fill="none" xmlns="http://www.w3.org/2000/svg">
<path d="M3.30225 65.574L40.7474 99.8398L170.675 65.0253L133.229 30.7605L3.30225 65.574Z" fill="#FDBC4E"/>
<path d="M146.001 176.986C145.646 176.986 145.305 176.812 145.098 176.509L120.212 140.073V240.256L250.457 205.357V149.036L146.284 176.949C146.19 176.974 146.095 176.986 146.001 176.986Z" fill="#FDBC4E"/>
<path d="M119.118 242.773C118.98 242.773 118.844 242.739 118.711 242.686C118.843 242.738 118.978 242.773 119.118 242.773Z" fill="#FFE5BE"/>
<path d="M251.712 99.9787C251.746 99.9831 251.78 99.9908 251.812 99.9995C251.779 99.9908 251.746 99.9831 251.712 99.9787Z" fill="#FFE5BE"/>
<path d="M251.084 102.305L120.891 137.19L146.466 174.637L276.66 139.751L251.084 102.305Z" fill="#FDBC4E"/>
<path d="M251.266 99.9937C251.411 99.9532 251.562 99.9565 251.709 99.9784C251.563 99.9565 251.414 99.9521 251.266 99.9937Z" fill="#FFE5BE"/>
<path d="M92.235 176.985C92.0842 176.985 91.9312 176.955 91.7858 176.888L41.5449 154.225V205.489L118.025 239.987V140.072L93.1377 176.509C92.929 176.815 92.5869 176.985 92.235 176.985Z" fill="#F5813D"/>
<path d="M39.5874 100.392C39.6442 100.318 39.7098 100.251 39.7819 100.194C39.7076 100.253 39.6431 100.319 39.5874 100.392Z" fill="#FFE5BE"/>
<path d="M40.5684 99.97C40.6809 99.9821 40.7935 100.005 40.9017 100.054C40.7946 100.006 40.682 99.9821 40.5684 99.97Z" fill="#FFE5BE"/>
<path d="M39.8593 100.131C39.8516 100.137 39.8451 100.144 39.8374 100.15C39.9303 100.087 40.0319 100.038 40.1369 100.007C40.0407 100.035 39.9467 100.074 39.8593 100.131Z" fill="#FFE5BE"/>
<path d="M120.166 136.231C120.127 136.095 120.056 135.974 119.97 135.864C120.055 135.974 120.127 136.094 120.166 136.231Z" fill="#FFE5BE"/>
<path d="M119.568 135.537C119.699 135.596 119.808 135.687 119.906 135.789C119.809 135.688 119.7 135.597 119.568 135.537Z" fill="#FFE5BE"/>
<path d="M40.8384 102.422L15.2075 139.948L91.8508 174.521L117.481 136.995L40.8384 102.422Z" fill="#FDBC4E"/>
<path d="M40.4736 99.9628C40.5053 99.9639 40.537 99.965 40.5676 99.9683C40.5359 99.9639 40.5053 99.9639 40.4736 99.9628Z" fill="#FFE5BE"/>
<path d="M40.1382 100.005C40.1611 99.9977 40.1863 99.9955 40.2103 99.9901C40.1863 99.9955 40.1622 99.9977 40.1382 100.005Z" fill="#FFE5BE"/>
<path d="M120.167 136.231C120.17 136.242 120.169 136.254 120.172 136.265C120.17 136.255 120.174 136.248 120.17 136.238C120.17 136.236 120.168 136.233 120.167 136.231Z" fill="#FFE5BE"/>
<path d="M119.904 135.791C119.927 135.815 119.949 135.84 119.97 135.865C119.949 135.839 119.927 135.815 119.904 135.791Z" fill="#FFE5BE"/>
<path d="M118.432 135.7C118.551 135.602 118.683 135.519 118.837 135.479C118.681 135.52 118.55 135.602 118.432 135.7Z" fill="#FFE5BE"/>
<path d="M118.114 136.123C118.168 135.993 118.25 135.879 118.345 135.78C118.249 135.88 118.168 135.994 118.114 136.123Z" fill="#FFE5BE"/>
<path d="M118.033 136.49C118.036 136.397 118.053 136.307 118.079 136.221C118.052 136.31 118.036 136.4 118.033 136.49Z" fill="#FFE5BE"/>
<path d="M118.347 135.78C118.374 135.752 118.402 135.724 118.432 135.7C118.402 135.725 118.376 135.751 118.347 135.78Z" fill="#FFE5BE"/>
<path d="M118.094 136.154C118.093 136.158 118.093 136.163 118.091 136.169C118.096 136.151 118.108 136.138 118.116 136.122C118.11 136.134 118.098 136.141 118.094 136.154Z" fill="#FFE5BE"/>
<path d="M43.6934 101.31L119.213 135.376L248.308 100.786L172.791 66.7196L43.6934 101.31Z" fill="#F5813D"/>
<path d="M251.342 99.7554L288.946 65.3463L212.449 30.8389L174.845 65.2491L251.342 99.7554Z" fill="#F5813D"/>
<path d="M251.342 99.7579L201.279 77.1752L174.845 65.2516L212.449 30.8415L288.946 65.3489L251.342 99.7579ZM276.661 139.753L146.466 174.638L120.891 137.192L163.802 125.694L251.084 102.307L252.642 104.589L276.661 139.753ZM250.456 205.358L120.211 240.258V140.074L145.098 176.512C145.305 176.813 145.645 176.987 146 176.987C146.094 176.987 146.189 176.975 146.283 176.95L250.456 149.037V205.358ZM118.025 239.99L41.5448 205.491V154.227L91.7868 176.89C91.9322 176.956 92.0841 176.987 92.2349 176.987C92.5879 176.987 92.9289 176.817 93.1387 176.512L118.025 140.074V239.99ZM15.2069 139.948L40.8377 102.422L68.4631 114.885L117.481 136.995L91.8502 174.521L15.2069 139.948ZM3.30186 65.5751L133.23 30.7606L170.675 65.0265L40.7481 99.8399L3.30186 65.5751ZM248.308 100.787L119.212 135.379L43.6935 101.313L172.791 66.7216L248.308 100.787ZM291.986 64.8625C291.93 64.4997 291.692 64.1904 291.357 64.0385L212.692 28.554C212.294 28.3748 211.826 28.448 211.505 28.7431L172.884 64.0844L134.263 28.7431C133.988 28.4917 133.602 28.3978 133.242 28.4939L0.811139 63.9795C0.425344 64.0822 0.126966 64.3882 0.0318835 64.7762C-0.0631993 65.1631 0.0613977 65.5718 0.355389 65.8418L39.0148 101.217L12.667 139.792C12.4845 140.06 12.4298 140.393 12.5173 140.705C12.6047 141.016 12.8255 141.272 13.1205 141.404L39.359 153.241V206.197C39.359 206.627 39.6115 207.017 40.0027 207.193L118.669 242.677C118.683 242.683 118.699 242.679 118.713 242.686C118.844 242.74 118.98 242.773 119.118 242.773C119.213 242.773 119.307 242.763 119.401 242.736L251.832 207.252C252.311 207.124 252.642 206.691 252.642 206.197V148.451L278.715 141.464C279.057 141.373 279.334 141.121 279.457 140.789C279.581 140.456 279.535 140.085 279.335 139.792L252.987 101.216L291.645 65.8418C291.916 65.5937 292.045 65.2254 291.986 64.8625Z" fill="#FFE5BE"/>
<path d="M82.5966 58.4299C82.636 58.4605 82.6775 58.4878 82.7168 58.5195C82.2185 61.6758 81.6021 64.9906 80.872 68.019C75.4632 65.4922 69.9266 63.3622 63.8882 62.4802C63.7123 59.8354 63.4566 56.9993 63.062 54.4725C70.1572 53.6277 78.1386 54.6517 82.5966 58.4299Z" fill="#5B8DC9"/>
<path d="M43.3027 5.46978C49.0973 -1.17509 59.1859 -1.86034 65.8297 3.93752L68.1248 5.93973C69.4253 7.07416 70.6439 8.29166 71.7893 9.55943C60.9455 11.2917 49.8087 15.0939 40.1311 20.8076C38.5026 15.6677 39.495 9.82938 43.3027 5.46978Z" fill="#5B8DC9"/>
<path d="M83.0352 33.8301C83.8724 38.935 84.0155 43.8258 83.7762 48.5308C77.0712 45.6367 68.658 44.5296 60.8809 45.146C60.2809 43.3198 59.5967 41.5985 58.8164 40.0323C65.1061 38.7733 70.9826 35.4476 77.4373 34.4891C79.304 34.2093 81.1718 33.9962 83.0352 33.8301Z" fill="#5B8DC9"/>
<path d="M46.1748 29.0375C55.2984 22.844 66.4591 18.5805 77.0997 16.833C77.2592 17.1139 77.4275 17.3904 77.5827 17.6712C79.0265 20.2811 80.1511 22.9369 81.0276 25.5697C79.7849 25.6604 78.5445 25.7751 77.3073 25.927C72.6953 26.4954 68.034 27.2298 63.5553 28.5096C59.7247 29.6014 56.2809 31.5774 52.435 32.2725C51.5781 31.7195 50.7104 31.2834 49.8229 30.9555C48.5661 30.4899 47.3278 29.8407 46.1748 29.0375Z" fill="#5B8DC9"/>
<path d="M83.7747 48.5313C83.673 50.4822 83.5091 52.4035 83.3015 54.2921C83.1331 55.7172 82.9321 57.1216 82.7157 58.5205C82.6763 58.4877 82.6359 58.4615 82.5954 58.4309C78.1386 54.6527 70.156 53.6287 63.0608 54.4735C63.0586 54.4527 63.0565 54.4309 63.0543 54.4134C62.5472 51.1609 61.8215 48.0242 60.8794 45.1455C68.6565 44.5302 77.0697 45.6373 83.7747 48.5313Z" fill="#C1CFEA"/>
<path d="M77.308 25.9277C78.5441 25.7747 79.7856 25.661 81.0283 25.5703C81.5791 27.2293 82.0316 28.8851 82.4031 30.5135C82.6501 31.6294 82.8545 32.7354 83.0348 33.8305C81.1714 33.9977 79.3037 34.2097 77.437 34.4895C70.9812 35.4491 65.1057 38.7748 58.816 40.0327C58.592 39.5835 58.3658 39.1354 58.1264 38.7114C56.9439 36.6075 55.5942 34.872 54.1799 33.6042C53.6084 33.0807 53.0226 32.6523 52.4346 32.2731C56.2816 31.578 59.7253 29.6009 63.556 28.5091C68.0347 27.2293 72.696 26.496 77.308 25.9277Z" fill="#C1CFEA"/>
<path d="M44.8327 27.9979C42.5474 26.0055 40.9856 23.5017 40.1299 20.8066C49.8076 15.0917 60.9443 11.2906 71.7892 9.55836C73.8438 11.8382 75.6286 14.2994 77.0996 16.8317C66.4591 18.5792 55.2983 22.8426 46.1747 29.0361C45.7135 28.7126 45.2622 28.3716 44.8327 27.9979Z" fill="#C1CFEA"/>
<path d="M234.577 58.4798C234.616 58.5104 234.657 58.5377 234.697 58.5694C234.198 61.7257 233.583 65.0405 232.852 68.0679C227.444 65.5422 221.907 63.4121 215.868 62.5301C215.693 59.8853 215.437 57.0492 215.042 54.5224C222.137 53.6776 230.12 54.7016 234.577 58.4798Z" fill="#6DC390"/>
<path d="M195.282 5.52153C201.077 -1.12333 211.165 -1.80859 217.809 3.98928L220.104 5.99148C221.404 7.12592 222.623 8.34342 223.768 9.61119C212.926 11.3434 201.788 15.1457 192.111 20.8594C190.482 15.7194 191.474 9.88113 195.282 5.52153Z" fill="#6DC390"/>
<path d="M235.015 33.8809C235.852 38.9858 235.994 43.8766 235.756 48.5815C229.051 45.6875 220.638 44.5804 212.861 45.1968C212.261 43.3706 211.577 41.6492 210.796 40.0831C217.086 38.8241 222.963 35.4984 229.417 34.5399C231.284 34.2601 233.152 34.047 235.015 33.8809Z" fill="#6DC390"/>
<path d="M198.156 29.0873C207.28 22.8938 218.44 18.6303 229.082 16.8828C229.24 17.1637 229.41 17.4402 229.564 17.721C231.009 20.3309 232.133 22.9867 233.01 25.6195C231.767 25.7102 230.525 25.8249 229.288 25.9769C224.677 26.5452 220.016 27.2796 215.536 28.5594C211.706 29.6512 208.262 31.6272 204.416 32.3223C203.559 31.7693 202.691 31.3321 201.805 31.0042C200.547 30.5397 199.31 29.8906 198.156 29.0873Z" fill="#6DC390"/>
<path d="M235.757 48.5831C235.655 50.5339 235.491 52.4542 235.283 54.3438C235.115 55.769 234.914 57.1733 234.698 58.5723C234.658 58.5395 234.617 58.5132 234.577 58.4826C230.12 54.7045 222.138 53.6804 215.043 54.5252C215.041 54.5034 215.038 54.4826 215.036 54.4651C214.529 51.2126 213.802 48.076 212.861 45.1973C220.638 44.582 229.052 45.6891 235.757 48.5831Z" fill="#CDE8D5"/>
<path d="M229.288 25.9765C230.526 25.8235 231.767 25.7098 233.009 25.6191C233.56 27.2781 234.012 28.9339 234.384 30.5623C234.631 31.6782 234.835 32.7842 235.015 33.8793C233.152 34.0454 231.284 34.2585 229.417 34.5383C222.963 35.4979 217.086 38.8236 210.797 40.0815C210.574 39.6324 210.347 39.1843 210.107 38.7602C208.924 36.6564 207.576 34.9197 206.162 33.6531C205.589 33.1296 205.003 32.7011 204.415 32.3219C208.262 31.6268 211.706 29.6498 215.536 28.5579C220.016 27.2781 224.676 26.5448 229.288 25.9765Z" fill="#CDE8D5"/>
<path d="M196.815 28.0491C194.528 26.0568 192.966 23.5529 192.112 20.8578C201.789 15.143 212.926 11.3419 223.77 9.60963C225.826 11.8894 227.61 14.3507 229.082 16.8829C218.44 18.6305 207.28 22.8939 198.157 29.0874C197.695 28.7639 197.244 28.4229 196.815 28.0491Z" fill="#CDE8D5"/>
<path d="M89.9107 141.455C84.7674 141.678 79.4297 138.258 79.4297 131.447C79.4297 124.609 84.7674 121.246 89.9107 121.246C94.7752 121.494 99.8637 124.858 99.8637 131.447C99.8637 138.036 94.7752 141.455 89.9107 141.455Z" fill="#5B8DC9"/>
<path d="M43.3125 131.447C43.3125 124.859 48.4011 121.495 53.2656 121.246C58.4088 121.246 63.7477 124.609 63.7477 131.447C63.7477 138.258 58.4088 141.678 53.2656 141.455C48.4011 141.455 43.3125 138.036 43.3125 131.447Z" fill="#5B8DC9"/>
<path d="M242.013 141.422C236.87 141.645 231.531 138.225 231.531 131.414C231.531 124.576 236.87 121.213 242.013 121.213C246.878 121.462 251.965 124.825 251.965 131.414C251.965 138.003 246.878 141.422 242.013 141.422Z" fill="#6DC390"/>
<path d="M195.416 131.414C195.416 124.826 200.505 121.463 205.369 121.213C210.512 121.213 215.85 124.576 215.85 131.414C215.85 138.225 210.512 141.645 205.369 141.422C200.505 141.422 195.416 138.003 195.416 131.414Z" fill="#6DC390"/>
<path d="M181.996 94.2753C180.653 90.0797 183.126 85.0403 184.627 81.061C186.069 77.2336 187.248 77.379 188.187 73.5659C189.681 67.5101 189.097 58.9832 187.424 53.0673C186.705 50.534 185.902 46.8334 184.119 44.6038C182.464 42.535 181.347 43.4246 179.107 44.7547C173.75 47.9438 168.696 51.7165 165.443 56.3734C162.803 60.1603 159.125 65.8718 159.439 70.2718C153.066 65.4532 140.26 68.627 140.26 68.627C139.794 67.039 138.446 61.7767 136.517 59.2794C131.788 53.1613 119.199 43.0552 116.33 42.3328C113.46 41.6082 107.489 59.7275 107.28 64.0204C107.025 69.3134 108.192 75.9047 113.921 79.3987C112.376 78.6522 110.583 78.3998 108.718 78.5014C111.186 83.9364 114.372 83.014 114.372 89.0534C114.372 91.2797 113.366 93.1813 111.985 94.9956C112.082 96.0283 112.138 97.1049 112.147 98.2284C112.15 98.683 112.144 99.13 112.136 99.5737C112.968 99.2808 113.696 98.9956 114.171 98.7497C113.624 99.4229 112.868 100.24 112.076 101.078C111.905 104.036 111.425 106.717 110.672 109.15C111.816 108.729 113.033 108.046 114.363 106.958C113.636 108.346 112.165 109.401 110.014 111.041C109 113.644 107.65 115.939 106.009 117.968C110.8 117.226 114.359 114.116 115.672 111.671C116.038 114.431 114.32 124.026 114.493 126.258C114.597 127.523 114.812 129.31 116.024 130.256C117.742 128.278 118.24 124.584 120.436 122.578C120.349 125.037 121.582 127.304 122.607 129.623C123.593 131.867 124.277 135.375 126.781 136.825C126.975 133.933 126.861 130.964 126.795 128.063C128.443 129.878 130.484 131.994 131.565 134.149C132.434 135.866 132.465 136.8 134.173 138.064C135.287 138.888 137.854 140.773 139.158 140.931C139.29 138.953 138.392 134.596 142.082 136.818C144.856 138.481 144.915 142.517 147.631 143.882C149.647 141.924 152.121 140.065 153.997 138.028C154.95 136.993 155.957 135.994 157.026 135.15C158.329 137.472 158.252 140.604 159.992 142.613C161.35 141.7 161.227 140.212 161.879 138.91C162.616 137.451 163.685 136.083 164.396 134.656C165.467 132.52 166.733 128.845 168.662 127.221C170.831 129.974 169.911 134.186 171.036 137.271C172.88 132.782 176.678 128.925 177.393 123.939C179.036 126.372 178.699 129.809 178.984 132.6C181.372 126.822 180.359 119.58 182.836 113.792C184.638 114.671 186.358 116.364 188.069 117.049C188.137 116.794 188.163 116.531 188.151 116.265C178.321 110.296 171.456 104.715 171.456 104.715C171.456 104.715 176.598 100.409 181.996 94.2753Z" fill="#FFE6BE"/>
<path d="M242.157 47.1458C237.023 53.03 226.195 67.0836 226.195 67.0836C226.195 67.0836 220.889 69.099 218.615 66.841C212.87 61.1186 207.232 48.6168 205.138 47.8245C202.386 46.7862 197.403 71.2367 189.636 84.0718C187.426 87.7232 184.681 91.2238 181.997 94.273C182.132 94.6959 182.305 95.1112 182.523 95.5145C182.214 95.5167 181.85 95.5888 181.538 95.5866C181.373 98.5834 182.674 100.956 184.35 103.626C185.986 106.237 189.217 108.226 190.709 110.609C188.053 110.546 186.462 108.442 183.398 108.828C184.51 110.756 188.033 113.732 188.151 116.262C200.176 123.564 216.636 131.443 230.408 130.389C249.373 128.937 264.157 101.683 275.824 95.179C260.983 84.1833 246.163 68.9547 242.157 47.1458Z" fill="#CDE8D5"/>
<path d="M102.146 118.027C105.344 114.658 107.982 112.588 110.013 111.04C110.251 110.428 110.47 109.799 110.671 109.151C107.894 110.175 105.55 109.652 103.088 109.558C105.112 107.354 107.61 106.001 109.322 104.033C110.066 103.177 111.095 102.112 112.075 101.077C112.104 100.585 112.122 100.083 112.135 99.5736C110.281 100.224 107.905 100.917 106.619 101.328C108.267 99.0884 110.379 97.1015 111.984 94.9966C110.519 79.5341 99.6919 73.9078 98.7357 68.8608C97.434 61.9624 95.5662 54.747 92.0372 49.8082C83.5705 54.0432 76.8644 67.804 76.8644 67.804C72.8502 66.0356 66.2829 66.0389 63.755 68.51C62.2676 62.4476 59.7266 55.9394 53.2303 49.8082C48.2991 55.217 46.1658 61.9066 41.6095 71.3319C36.7701 81.3374 24.711 93.7375 30.0411 108.597C36.9657 127.909 67.8272 133.541 78.4054 131.514C89.9509 129.298 99.9542 125.449 106.008 117.968C104.794 118.155 103.502 118.193 102.146 118.027Z" fill="#C1CFEA"/>
<path d="M190.709 110.611C189.217 108.227 185.985 106.239 184.35 103.627C182.674 100.958 181.372 98.5853 181.537 95.5886C181.851 95.5908 182.215 95.5175 182.523 95.5153C182.305 95.1121 182.131 94.6968 181.996 94.2749C176.598 100.408 171.457 104.713 171.457 104.713C171.457 104.713 178.32 110.296 188.15 116.264C188.032 113.733 184.51 110.758 183.398 108.83C186.462 108.444 188.053 110.547 190.709 110.611Z" fill="#D0D8AE"/>
<path d="M102.145 118.026C103.501 118.193 104.793 118.154 106.007 117.967C107.649 115.939 108.999 113.643 110.013 111.04C107.981 112.587 105.344 114.657 102.145 118.026Z" fill="#C6C4C5"/>
<path d="M112.135 99.5732C112.145 99.1305 112.149 98.6835 112.147 98.2289C112.137 97.1043 112.081 96.0278 111.984 94.9961C110.381 97.0999 108.267 99.0879 106.62 101.326C107.905 100.916 110.282 100.223 112.135 99.5732Z" fill="#C6C4C5"/>
<path d="M103.086 109.559C105.549 109.653 107.893 110.176 110.67 109.152C111.423 106.718 111.903 104.037 112.073 101.078C111.094 102.114 110.065 103.178 109.32 104.034C107.61 106.002 105.11 107.355 103.086 109.559Z" fill="#C6C4C5"/>
<path d="M53.7822 86.1141C54.4652 87.2748 54.804 88.4387 55.063 89.6016C55.3057 90.7633 55.4095 91.9251 55.4106 93.0879C55.4095 94.2519 55.3057 95.4147 55.063 96.5765C54.804 97.7394 54.4652 98.9011 53.7822 100.064H53.3723C52.6892 98.9011 52.3504 97.7394 52.0925 96.5765C51.8488 95.4147 51.745 94.2519 51.7417 93.0879C51.745 91.9251 51.8488 90.7633 52.0925 89.6016C52.3504 88.4387 52.6892 87.2748 53.3723 86.1141H53.7822Z" fill="#373535"/>
<path d="M89.9234 86.1151C90.6065 87.2758 90.9464 88.4397 91.2032 89.6026C91.448 90.7643 91.5507 91.9261 91.5518 93.0889C91.5507 94.2529 91.448 95.4157 91.2032 96.5775C90.9464 97.7403 90.6065 98.9021 89.9234 100.065H89.5136C88.8305 98.9021 88.4906 97.7403 88.2338 96.5775C87.9911 95.4157 87.8862 94.2529 87.8862 93.0889C87.8862 91.9261 87.9911 90.7643 88.2338 89.6026C88.4906 88.4397 88.8305 87.2758 89.5136 86.1151H89.9234Z" fill="#373535"/>
<path d="M69.9386 106.572H65.074C62.6544 106.572 62.6544 103.014 65.074 103.014H78.2228C80.6971 103.014 80.6971 106.572 78.2228 106.572H73.6086V120.612C73.6086 123.03 69.9386 123.085 69.9386 120.612V106.572Z" fill="#373535"/>
<path d="M53.5753 86.4998C50.4617 86.4998 47.0704 88.6977 47.0704 93.0879C47.0704 97.4529 50.4617 99.6781 53.5753 99.6781C56.7732 99.6781 60.1918 97.4529 60.1918 93.0879C60.1918 88.6977 56.7732 86.4998 53.5753 86.4998ZM53.8814 103.097C48.7403 103.32 43.4004 99.901 43.4004 93.0879C43.4004 86.2495 48.7403 82.8867 53.8814 82.8867C58.747 83.1369 63.8345 86.4998 63.8345 93.0879C63.8345 99.6781 58.747 103.097 53.8814 103.097Z" fill="#373535"/>
<path d="M89.6776 86.4993C86.5628 86.4993 83.1705 88.6972 83.1705 93.0874C83.1705 97.4524 86.5628 99.6776 89.6776 99.6776C92.8733 99.6776 96.293 97.4524 96.293 93.0874C96.293 88.6972 92.8733 86.4993 89.6776 86.4993ZM89.9825 103.096C84.8393 103.319 79.5005 99.9005 79.5005 93.0874C79.5005 86.2491 84.8393 82.8862 89.9825 82.8862C94.8471 83.1365 99.9356 86.4993 99.9356 93.0874C99.9356 99.6776 94.8471 103.096 89.9825 103.096Z" fill="#373535"/>
<path d="M136.549 92.8898C135.389 92.2079 134.225 91.8669 133.061 91.609C131.9 91.3663 130.737 91.2636 129.575 91.2614C128.412 91.2636 127.249 91.3663 126.087 91.609C124.924 91.8669 123.762 92.2079 122.6 92.8898V93.2997C123.762 93.9827 124.924 94.3215 126.087 94.5806C127.249 94.8243 128.412 94.927 129.575 94.9292C130.737 94.927 131.9 94.8243 133.061 94.5806C134.225 94.3215 135.389 93.9827 136.549 93.2997V92.8898Z" fill="#373535"/>
<path d="M172.692 92.8914C171.531 92.2084 170.367 91.8685 169.205 91.6105C168.043 91.3668 166.88 91.2641 165.718 91.263C164.554 91.2641 163.391 91.3668 162.23 91.6105C161.067 91.8685 159.905 92.2084 158.742 92.8914V93.3013C159.905 93.9843 161.067 94.3242 162.23 94.5811C163.391 94.8248 164.554 94.9286 165.718 94.9297C166.88 94.9286 168.043 94.8248 169.205 94.5811C170.367 94.3242 171.531 93.9843 172.692 93.3013V92.8914Z" fill="#373535"/>
<path d="M145.937 106.577H141.072C138.654 106.577 138.654 103.019 141.072 103.019H154.221C156.695 103.019 156.695 106.577 154.221 106.577H149.607V120.618C149.607 123.036 145.937 123.091 145.937 120.618V106.577Z" fill="#373535"/>
<path d="M129.572 86.4984C126.46 86.4984 123.068 88.6951 123.068 93.0853C123.068 97.4504 126.46 99.6755 129.572 99.6755C132.771 99.6755 136.191 97.4504 136.191 93.0853C136.191 88.6951 132.771 86.4984 129.572 86.4984ZM129.879 103.094C124.737 103.318 119.398 99.8974 119.398 93.0853C119.398 86.2481 124.737 82.8841 129.879 82.8841C134.744 83.1355 139.832 86.4984 139.832 93.0853C139.832 99.6755 134.744 103.094 129.879 103.094Z" fill="#373535"/>
<path d="M165.675 86.5082C162.561 86.5082 159.17 88.7061 159.17 93.0963C159.17 97.4613 162.561 99.6865 165.675 99.6865C168.872 99.6865 172.292 97.4613 172.292 93.0963C172.292 88.7061 168.872 86.5082 165.675 86.5082ZM165.981 103.104C160.838 103.327 155.5 99.9084 155.5 93.0952C155.5 86.258 160.838 82.894 165.981 82.894C170.846 83.1443 175.937 86.5071 175.937 93.0952C175.937 99.6854 170.846 103.104 165.981 103.104Z" fill="#373535"/>
<path d="M205.751 86.1322C206.434 87.2928 206.774 88.4568 207.032 89.6196C207.276 90.7814 207.378 91.9432 207.381 93.106C207.378 94.2689 207.276 95.4328 207.032 96.5935C206.774 97.7563 206.434 98.9181 205.751 100.082H205.341C204.659 98.9181 204.32 97.7563 204.062 96.5935C203.818 95.4328 203.715 94.2689 203.712 93.106C203.715 91.9432 203.818 90.7814 204.062 89.6196C204.32 88.4568 204.659 87.2928 205.341 86.1322H205.751Z" fill="#373535"/>
<path d="M241.895 86.1322C242.578 87.2928 242.917 88.4568 243.175 89.6196C243.419 90.7814 243.523 91.9432 243.524 93.106C243.523 94.2689 243.419 95.4328 243.175 96.5935C242.917 97.7563 242.578 98.9181 241.895 100.082H241.486C240.803 98.9181 240.463 97.7563 240.204 96.5935C239.963 95.4328 239.859 94.2689 239.857 93.106C239.859 91.9432 239.963 90.7814 240.204 89.6196C240.463 88.4568 240.803 87.2928 241.486 86.1322H241.895Z" fill="#373535"/>
<path d="M221.908 106.59H217.043C214.625 106.59 214.625 103.031 217.043 103.031H230.192C232.668 103.031 232.668 106.59 230.192 106.59H225.578V120.63C225.578 123.048 221.908 123.104 221.908 120.63V106.59Z" fill="#373535"/>
<path d="M205.547 86.5169C202.434 86.5169 199.042 88.7137 199.042 93.1049C199.042 97.47 202.434 99.6952 205.547 99.6952C208.745 99.6952 212.164 97.47 212.164 93.1049C212.164 88.7137 208.745 86.5169 205.547 86.5169ZM205.853 103.114C200.71 103.337 195.373 99.917 195.373 93.1049C195.373 86.2666 200.71 82.9027 205.853 82.9027C210.717 83.154 215.806 86.5169 215.806 93.1049C215.806 99.6952 210.717 103.114 205.853 103.114Z" fill="#373535"/>
<path d="M241.647 86.5164C238.533 86.5164 235.141 88.7132 235.141 93.1045C235.141 97.4695 238.533 99.6947 241.647 99.6947C244.844 99.6947 248.263 97.4695 248.263 93.1045C248.263 88.7132 244.844 86.5164 241.647 86.5164ZM241.953 103.113C236.809 103.336 231.472 99.9165 231.472 93.1045C231.472 86.2661 236.809 82.9022 241.953 82.9022C246.817 83.1536 251.905 86.5164 251.905 93.1045C251.905 99.6947 246.817 103.113 241.953 103.113Z" fill="#373535"/>
<path d="M205.487 77.1709C202.73 77.1709 200.494 74.9348 200.494 72.1774V61.7303C200.494 58.9729 202.73 56.7368 205.487 56.7368C205.487 56.7368 220.928 62.2516 220.928 65.009V68.8987C220.928 71.6561 205.487 77.1709 205.487 77.1709Z" fill="#5B8DC9"/>
<path d="M241.605 77.1719C244.363 77.1719 246.599 74.9358 246.599 72.1784V61.7313C246.599 58.9739 244.363 56.7378 241.605 56.7378C241.605 56.7378 226.165 62.2526 226.165 65.01V68.8997C226.165 71.6571 241.605 77.1719 241.605 77.1719Z" fill="#5B8DC9"/>
<path d="M223.678 72.0078C218.438 72.0078 218.438 70.41 218.438 67.0045C218.438 63.5848 218.756 61.9028 223.678 61.9028C228.6 61.9028 228.655 63.7094 228.655 67.0045C228.655 70.2996 228.918 72.0078 223.678 72.0078Z" fill="#5B8DC9"/>
<path d="M223.678 62.4497C219.164 62.4497 218.984 63.7644 218.984 67.0038C218.984 70.3383 218.984 71.4618 223.678 71.4618C225.729 71.4618 226.951 71.194 227.522 70.6213C228.118 70.0213 228.115 68.947 228.109 67.4585L228.108 67.0038C228.108 63.783 228.108 62.4497 223.678 62.4497ZM223.678 72.5547C218.137 72.5547 217.891 70.7525 217.891 67.0038C217.891 63.4901 218.281 61.3568 223.678 61.3568C228.944 61.3568 229.201 63.3972 229.201 67.0038L229.202 67.4541C229.209 69.1404 229.213 70.4705 228.296 71.3918C227.484 72.2061 226.104 72.5547 223.678 72.5547Z" fill="#C1CFEA"/>
<path d="M217.901 66.0718C217.881 66.0718 217.863 66.0707 217.842 66.0685L210.251 65.2707C209.951 65.239 209.733 64.9701 209.765 64.6707C209.796 64.3701 210.049 64.1494 210.365 64.1843L217.958 64.9822C218.257 65.0138 218.475 65.2827 218.443 65.5822C218.415 65.863 218.176 66.0718 217.901 66.0718Z" fill="#C1CFEA"/>
<path d="M210.307 69.73C210.032 69.73 209.794 69.5223 209.765 69.2415C209.734 68.9398 209.951 68.671 210.251 68.6404L217.843 67.8414C218.151 67.8054 218.412 68.0261 218.443 68.3278C218.476 68.6283 218.257 68.8972 217.958 68.9289L210.366 69.7267C210.346 69.7289 210.327 69.73 210.307 69.73Z" fill="#C1CFEA"/>
<path d="M229.193 66.0718C228.918 66.0718 228.679 65.863 228.651 65.5822C228.619 65.2827 228.837 65.0138 229.136 64.9822L236.73 64.1843C237.035 64.1504 237.299 64.3701 237.33 64.6707C237.363 64.9701 237.144 65.239 236.845 65.2707L229.252 66.0685C229.231 66.0707 229.213 66.0718 229.193 66.0718Z" fill="#C1CFEA"/>
<path d="M236.788 69.73C236.768 69.73 236.75 69.7289 236.729 69.7267L229.136 68.9289C228.837 68.8972 228.618 68.6283 228.651 68.3278C228.681 68.0261 228.941 67.8043 229.251 67.8414L236.845 68.6404C237.144 68.671 237.362 68.9398 237.33 69.2415C237.302 69.5223 237.063 69.73 236.788 69.73Z" fill="#C1CFEA"/>
<path d="M53.7376 77.1714C50.9802 77.1714 48.7441 74.9353 48.7441 72.1779V61.7308C48.7441 58.9734 50.9802 56.7373 53.7376 56.7373C53.7376 56.7373 69.1782 62.2521 69.1782 65.0095V68.8992C69.1782 71.6566 53.7376 77.1714 53.7376 77.1714Z" fill="#6DC390"/>
<path d="M89.8566 77.1714C92.614 77.1714 94.8501 74.9353 94.8501 72.1779V61.7308C94.8501 58.9734 92.614 56.7373 89.8566 56.7373C89.8566 56.7373 74.416 62.2521 74.416 65.0095V68.8992C74.416 71.6566 89.8566 77.1714 89.8566 77.1714Z" fill="#6DC390"/>
<path d="M71.9274 72.0083C66.688 72.0083 66.688 70.4105 66.688 67.005C66.688 63.5853 67.006 61.9033 71.9274 61.9033C76.8498 61.9033 76.9034 63.7099 76.9034 67.005C76.9034 70.3001 77.1679 72.0083 71.9274 72.0083Z" fill="#6EC290"/>
<path d="M71.9279 62.4492C67.4142 62.4492 67.235 63.764 67.235 67.0033C67.235 70.3378 67.235 71.4613 71.9279 71.4613C73.9793 71.4613 75.2012 71.1935 75.7717 70.6208C76.3684 70.0208 76.3651 68.9465 76.3586 67.458L76.3575 67.0033C76.3575 63.7825 76.3575 62.4492 71.9279 62.4492ZM71.9279 72.5542C66.388 72.5542 66.1421 70.752 66.1421 67.0033C66.1421 63.4896 66.5312 61.3563 71.9279 61.3563C77.1936 61.3563 77.4504 63.3967 77.4504 67.0033L77.4515 67.4547C77.458 69.14 77.4635 70.4711 76.5455 71.3924C75.7345 72.2056 74.3542 72.5542 71.9279 72.5542Z" fill="#CDE8D5"/>
<path d="M66.1496 66.0708C66.1299 66.0708 66.1113 66.0697 66.0917 66.0675L58.4992 65.2697C58.1998 65.238 57.9812 64.9692 58.014 64.6697C58.0446 64.3691 58.3178 64.1495 58.614 64.1834L66.2064 64.9812C66.5059 65.0129 66.7234 65.2817 66.6928 65.5812C66.6633 65.8621 66.4261 66.0708 66.1496 66.0708Z" fill="#CDE8D5"/>
<path d="M58.557 69.7305C58.2805 69.7305 58.0433 69.5228 58.0138 69.2419C57.9821 68.9403 58.1996 68.6714 58.5002 68.6408L66.0926 67.8419C66.3822 67.8102 66.662 68.0277 66.6926 68.3283C66.7254 68.6288 66.5068 68.8977 66.2073 68.9294L58.6149 69.7272C58.5952 69.7294 58.5767 69.7305 58.557 69.7305Z" fill="#CDE8D5"/>
<path d="M77.4445 66.0713C77.168 66.0713 76.9308 65.8625 76.9013 65.5817C76.8707 65.2822 77.0882 65.0134 77.3877 64.9817L84.9801 64.1838C85.2708 64.1489 85.5495 64.3696 85.5801 64.6702C85.6129 64.9696 85.3943 65.2385 85.0948 65.2702L77.5024 66.068C77.4827 66.0702 77.4642 66.0713 77.4445 66.0713Z" fill="#CDE8D5"/>
<path d="M85.0373 69.7305C85.0176 69.7305 84.999 69.7294 84.9794 69.7272L77.3869 68.9294C77.0875 68.8977 76.8689 68.6288 76.9017 68.3283C76.9323 68.0277 77.2066 67.8113 77.5017 67.8419L85.0941 68.6408C85.3947 68.6714 85.6122 68.9403 85.5805 69.2419C85.551 69.5228 85.3138 69.7305 85.0373 69.7305Z" fill="#CDE8D5"/>
<path d="M129.608 152.18C126.851 152.18 124.615 149.944 124.615 147.186V136.739C124.615 133.982 126.851 131.746 129.608 131.746C129.608 131.746 145.049 137.26 145.049 140.018V143.907C145.049 146.665 129.608 152.18 129.608 152.18Z" fill="#F27AA7"/>
<path d="M165.726 152.181C168.484 152.181 170.72 149.945 170.72 147.187V136.74C170.72 133.983 168.484 131.747 165.726 131.747C165.726 131.747 150.286 137.261 150.286 140.019V143.908C150.286 146.666 165.726 152.181 165.726 152.181Z" fill="#F27AA7"/>
<path d="M147.797 147.016C142.557 147.016 142.557 145.417 142.557 142.012C142.557 138.593 142.875 136.911 147.797 136.911C152.72 136.911 152.774 138.717 152.774 142.012C152.774 145.306 153.038 147.016 147.797 147.016Z" fill="#F27AA7"/>
<path d="M147.797 137.458C143.283 137.458 143.103 138.773 143.103 142.014C143.103 145.348 143.103 146.471 147.797 146.471C149.849 146.471 151.069 146.204 151.641 145.631C152.238 145.031 152.234 143.955 152.229 142.467L152.228 142.014C152.228 138.792 152.228 137.458 147.797 137.458ZM147.797 147.563C142.256 147.563 142.01 145.762 142.01 142.014C142.01 138.499 142.4 136.366 147.797 136.366C153.064 136.366 153.321 138.406 153.321 142.014L153.322 142.463C153.328 144.149 153.333 145.48 152.416 146.402C151.604 147.216 150.223 147.563 147.797 147.563Z" fill="#FAD0DD"/>
<path d="M142.019 141.079C142 141.079 141.981 141.078 141.961 141.076L134.37 140.279C134.069 140.247 133.851 139.979 133.884 139.679C133.914 139.376 134.186 139.157 134.483 139.192L142.075 139.989C142.376 140.02 142.593 140.289 142.561 140.589C142.533 140.871 142.295 141.079 142.019 141.079Z" fill="#FAD0DD"/>
<path d="M134.426 144.74C134.151 144.74 133.912 144.532 133.884 144.25C133.852 143.95 134.07 143.681 134.37 143.65L141.963 142.852C142.256 142.816 142.531 143.037 142.562 143.34C142.594 143.639 142.376 143.908 142.075 143.94L134.484 144.736C134.464 144.739 134.446 144.74 134.426 144.74Z" fill="#FAD0DD"/>
<path d="M153.314 141.079C153.039 141.079 152.801 140.871 152.772 140.589C152.74 140.288 152.958 140.02 153.258 139.989L160.851 139.191C161.143 139.157 161.42 139.376 161.451 139.679C161.484 139.978 161.265 140.247 160.965 140.279L153.372 141.075C153.352 141.078 153.334 141.079 153.314 141.079Z" fill="#FAD0DD"/>
<path d="M160.908 144.74C160.889 144.74 160.87 144.739 160.851 144.736L153.258 143.94C152.958 143.908 152.739 143.639 152.772 143.34C152.802 143.037 153.073 142.815 153.372 142.852L160.964 143.65C161.265 143.681 161.482 143.95 161.451 144.25C161.422 144.532 161.184 144.74 160.908 144.74Z" fill="#FAD0DD"/>
</svg>
