<svg width="621" height="416" viewBox="0 0 621 416" fill="none" xmlns="http://www.w3.org/2000/svg">
<mask id="mask0_1012_6391" style="mask-type:alpha" maskUnits="userSpaceOnUse" x="-63" y="-942" width="1400" height="1297">
<rect x="-63" y="-942" width="1400" height="1297" fill="#D5EBEA"/>
</mask>
<g mask="url(#mask0_1012_6391)">
<ellipse cx="310.5" cy="318.162" rx="310.5" ry="317.727" fill="#B7DBDC"/>
</g>
<path d="M409.315 302.497H412.135C413.13 301.591 414.209 300.794 415.353 300.107C412.859 298.905 410.41 297.665 407.996 296.402C408.6 298.389 409.031 300.425 409.315 302.497Z" fill="white"/>
<path d="M444.288 382.667C443.953 382.682 443.613 382.689 443.28 382.689C437.478 382.689 431.956 380.559 427.993 376.764C423.885 372.833 421.713 367.411 421.713 361.086C421.713 346.655 433.06 339.106 444.263 339.106C454.633 339.635 465.734 346.74 465.734 361.086C465.734 375.244 454.951 382.655 444.288 382.667ZM454.086 331.737H454.171C454.171 324.999 448.968 321.56 443.993 321.305C438.745 321.305 433.301 324.731 433.279 331.697C421.829 335.485 412.387 345.252 412.387 361.18C412.387 382.072 428.757 392.563 444.531 391.877C459.456 391.877 475.063 381.39 475.063 361.18C475.063 345.314 465.437 335.575 454.086 331.737Z" fill="#8E70B1"/>
<path d="M444.206 341.32C434.478 341.323 423.949 347.502 423.949 361.068C423.949 366.769 425.882 371.633 429.539 375.132C433.298 378.733 438.626 380.666 444.215 380.414H444.262C453.821 380.414 463.498 373.769 463.498 361.068C463.498 348.179 453.497 341.799 444.206 341.32Z" fill="white"/>
<path d="M444.257 380.415H444.21C438.621 380.668 433.293 378.734 429.531 375.134C425.875 371.632 423.942 366.771 423.942 361.07C423.942 347.502 434.473 341.324 444.201 341.322C453.492 341.8 463.491 348.181 463.491 361.07C463.491 373.768 453.814 380.415 444.257 380.415ZM444.257 339.089C433.051 339.089 421.707 346.639 421.707 361.07C421.707 367.394 423.879 372.816 427.987 376.748C431.95 380.542 437.472 382.672 443.274 382.672C443.607 382.672 443.944 382.666 444.282 382.65C454.942 382.639 465.726 375.228 465.726 361.07C465.726 346.724 454.627 339.619 444.257 339.089Z" fill="#CFC4E1"/>
<path d="M447.014 342.778V350.498H445.653L442.016 345.695L442.081 350.498H440.43V342.897C440.613 342.756 440.87 342.671 441.138 342.671C441.565 342.671 441.853 342.865 442.177 343.292L445.425 347.615L445.362 342.778H447.014Z" fill="#373535"/>
<path d="M446.326 371.934L445.597 373.114C445.137 372.793 444.504 372.556 443.87 372.556C443.282 372.556 442.927 372.815 442.927 373.222C442.927 373.767 443.55 373.984 444.301 374.25C445.32 374.616 446.52 375.077 446.52 376.621C446.52 378.208 445.427 379.12 443.572 379.12C442.553 379.12 441.61 378.829 440.922 378.313L441.469 377.093C441.997 377.499 442.757 377.747 443.657 377.747C444.352 377.747 444.761 377.457 444.761 376.974C444.761 376.362 444.138 376.138 443.421 375.892C442.401 375.537 441.168 375.097 441.168 373.47C441.168 371.988 442.167 371.186 443.841 371.186C444.688 371.186 445.586 371.429 446.326 371.934Z" fill="#373535"/>
<path d="M439.344 356.513L432.156 372.468L448.111 365.28L439.344 356.513Z" fill="#5B8DC9"/>
<path d="M455.291 349.324L439.336 356.512L448.104 365.279L455.291 349.324Z" fill="#F27AA7"/>
<path d="M175.029 168.481C175.109 168.543 175.194 168.599 175.275 168.664C174.256 175.118 172.995 181.432 171.502 187.623C160.442 182.458 149.12 178.102 136.772 176.296C136.412 170.888 135.889 165.555 135.082 160.388C149.591 158.66 165.913 160.754 175.029 168.481Z" fill="#5B8DC9"/>
<path d="M94.6782 60.1843C106.528 46.596 127.158 45.1947 140.744 57.0509L145.438 61.1453C148.097 63.4651 150.589 65.9548 152.931 68.5495C130.756 72.0919 107.983 79.8649 88.1925 91.5513C84.8624 81.0405 86.8917 69.1016 94.6782 60.1843Z" fill="#5B8DC9"/>
<path d="M175.924 118.182C177.636 128.621 177.929 138.622 177.439 148.244C163.728 142.326 146.524 140.062 130.62 141.322C129.393 137.588 127.994 134.068 126.398 130.865C139.26 128.29 151.277 121.49 164.477 119.529C168.294 118.957 172.114 118.522 175.924 118.182Z" fill="#5B8DC9"/>
<path d="M100.559 108.379C119.216 95.714 142.039 86.9934 163.798 83.422C164.124 83.9941 164.468 84.5596 164.786 85.1362C167.738 90.4732 170.038 95.904 171.83 101.288C169.289 101.473 166.752 101.708 164.222 102.019C154.791 103.181 145.259 104.683 136.1 107.3C128.267 109.533 121.225 113.573 113.36 114.995C111.608 113.864 109.833 112.972 108.019 112.302C105.449 111.349 102.916 110.022 100.559 108.379Z" fill="#5B8DC9"/>
<path d="M168.005 200.702C158.79 195.946 149.341 191.726 139.255 190.175C138.593 190.072 137.938 190.019 137.279 189.952C137.25 185.35 137.071 180.8 136.77 176.296C149.117 178.102 160.439 182.458 171.5 187.623C170.438 192.044 169.261 196.395 168.005 200.702Z" fill="#C1CFEA"/>
<path d="M177.444 148.245C177.236 152.234 176.901 156.163 176.476 160.025C176.132 162.939 175.721 165.811 175.279 168.672C175.198 168.605 175.115 168.551 175.033 168.489C165.919 160.763 149.595 158.668 135.086 160.396C135.081 160.354 135.077 160.309 135.072 160.273C134.035 153.622 132.551 147.208 130.625 141.321C146.529 140.063 163.733 142.327 177.444 148.245Z" fill="#C1CFEA"/>
<path d="M164.22 102.019C166.748 101.706 169.286 101.474 171.828 101.288C172.954 104.681 173.879 108.067 174.639 111.397C175.144 113.679 175.562 115.94 175.931 118.18C172.12 118.522 168.301 118.955 164.484 119.527C151.282 121.49 139.267 128.29 126.405 130.863C125.947 129.944 125.484 129.028 124.995 128.161C122.577 123.859 119.817 120.31 116.925 117.717C115.756 116.647 114.558 115.77 113.355 114.995C121.222 113.574 128.265 109.531 136.098 107.298C145.257 104.681 154.789 103.181 164.22 102.019Z" fill="#C1CFEA"/>
<path d="M97.8121 106.255C93.1389 102.181 89.9452 97.0603 88.1953 91.549C107.985 79.8627 130.759 72.0896 152.936 68.5473C157.138 73.2071 160.788 78.2424 163.796 83.4207C142.037 86.992 119.214 95.7127 100.557 108.378C99.6135 107.716 98.6905 107.019 97.8121 106.255Z" fill="#C1CFEA"/>
<path d="M485.822 168.585C485.902 168.648 485.987 168.703 486.068 168.768C485.049 175.223 483.79 181.536 482.295 187.727C471.237 182.562 459.912 178.209 447.565 176.403C447.207 170.992 446.682 165.66 445.875 160.492C460.384 158.765 476.708 160.861 485.822 168.585Z" fill="#ED70A2"/>
<path d="M405.47 60.2876C417.322 46.6993 437.95 45.298 451.536 57.1542L456.23 61.2486C458.889 63.5684 461.381 66.0581 463.723 68.6506C441.551 72.193 418.775 79.9682 398.987 91.6523C395.655 81.1415 397.684 69.2026 405.47 60.2876Z" fill="#ED70A2"/>
<path d="M486.709 118.285C488.421 128.724 488.712 138.725 488.225 148.349C474.513 142.428 457.309 140.164 441.405 141.425C440.178 137.69 438.779 134.17 437.184 130.968C450.046 128.393 462.063 121.594 475.262 119.632C479.079 119.062 482.899 118.624 486.709 118.285Z" fill="#ED70A2"/>
<path d="M411.34 108.483C429.999 95.8178 452.82 87.0972 474.581 83.5258C474.905 84.0979 475.252 84.6634 475.567 85.2378C478.521 90.577 480.821 96.0056 482.613 101.389C480.072 101.575 477.534 101.81 475.004 102.123C465.574 103.282 456.043 104.787 446.882 107.404C439.048 109.636 432.006 113.677 424.141 115.096C422.389 113.968 420.615 113.074 418.802 112.403C416.23 111.453 413.7 110.124 411.34 108.483Z" fill="#ED70A2"/>
<path d="M478.8 200.807C469.585 196.051 460.136 191.832 450.05 190.278C449.388 190.176 448.734 190.122 448.074 190.055C448.045 185.453 447.866 180.903 447.562 176.402C459.913 178.208 471.235 182.561 482.293 187.726C481.234 192.149 480.056 196.498 478.8 200.807Z" fill="#FAD0DD"/>
<path d="M488.233 148.349C488.025 152.336 487.69 156.265 487.266 160.129C486.921 163.043 486.51 165.913 486.068 168.773C485.987 168.706 485.902 168.653 485.822 168.59C476.708 160.866 460.384 158.77 445.875 160.498C445.87 160.455 445.866 160.41 445.862 160.375C444.825 153.724 443.338 147.309 441.414 141.423C457.318 140.164 474.522 142.428 488.233 148.349Z" fill="#FAD0DD"/>
<path d="M475.013 102.126C477.543 101.811 480.082 101.578 482.62 101.393C483.747 104.788 484.672 108.171 485.432 111.501C485.937 113.785 486.355 116.047 486.724 118.284C482.913 118.626 479.094 119.062 475.277 119.632C462.077 121.596 450.06 128.395 437.198 130.967C436.742 130.051 436.28 129.132 435.788 128.265C433.37 123.963 430.612 120.414 427.72 117.824C426.549 116.753 425.351 115.877 424.148 115.099C432.015 113.68 439.058 109.637 446.891 107.405C456.052 104.788 465.581 103.286 475.013 102.126Z" fill="#FAD0DD"/>
<path d="M408.605 106.36C403.93 102.283 400.736 97.1631 398.988 91.6518C418.778 79.9676 441.552 72.1924 463.727 68.65C467.931 73.3121 471.58 78.3451 474.589 83.5256C452.827 87.097 430.007 95.8177 411.35 108.483C410.406 107.821 409.483 107.124 408.605 106.36Z" fill="#FAD0DD"/>
<path d="M147.477 304.733C167.69 314.211 178.793 319.418 199.012 328.899C200.282 329.496 201.013 330.863 200.789 332.251C196.429 359.209 192.401 386.218 188.7 413.271C188.412 415.377 186.173 416.597 184.251 415.694C153.342 401.203 122.435 386.709 91.5286 372.211C89.6401 371.326 89.1172 368.881 90.4805 367.301C108.235 346.707 125.989 326.114 143.743 305.524C144.666 304.453 146.197 304.132 147.477 304.733Z" fill="#6DC390"/>
<path d="M178.725 367.241C182.078 355.429 183.754 349.522 187.106 337.708C172.103 330.673 164.603 327.155 149.598 320.12L132.34 345.229C136.6 357 139.391 363.193 146.299 376.207C160.565 373.228 167.05 371.435 178.725 367.241Z" fill="#FDBC4E"/>
<path d="M125.626 345.173C130.357 358.546 133.586 365.638 141.764 380.627C142.513 382.002 144.236 382.809 145.769 382.507C162.524 379.208 170.04 377.156 183.347 372.24C184.706 371.739 185.24 369.994 184.598 368.371C183.957 366.748 182.388 365.866 181.038 366.368C180.117 366.715 179.655 366.885 178.716 367.22C167.041 371.415 160.555 373.207 146.29 376.186C139.384 363.175 136.592 356.98 132.33 345.211C132.04 344.399 131.895 343.997 131.615 343.192C131.401 342.578 130.94 342.111 130.348 341.834C129.628 341.494 128.71 341.436 127.8 341.735C126.142 342.281 125.143 343.807 125.626 345.173Z" fill="#F27AA7"/>
<path d="M173.083 339.781C170.367 338.507 169.008 337.87 166.291 336.594C163.584 342.517 162.23 345.478 159.523 351.396C162.57 352.826 164.094 353.539 167.14 354.97C169.518 348.893 170.707 345.856 173.083 339.781Z" fill="white"/>
<path d="M158.65 333.012C155.573 338.758 154.033 341.633 150.953 347.381C153.999 348.809 155.526 349.524 158.572 350.952C161.319 345.052 162.695 342.1 165.442 336.199C162.727 334.923 161.368 334.286 158.65 333.012Z" fill="white"/>
<path d="M150.447 348.34C148.8 351.416 147.975 352.953 146.328 356.029C153.225 359.265 156.674 360.881 163.57 364.117C164.842 360.865 165.479 359.238 166.751 355.986C163.682 354.547 162.147 353.827 159.078 352.39C158.694 352.207 158.502 352.117 158.12 351.939C155.051 350.499 153.516 349.782 150.447 348.34Z" fill="white"/>
<path d="M150.438 348.341C153.506 349.783 155.042 350.5 158.11 351.94C158.492 352.118 158.685 352.208 159.069 352.391C162.138 353.828 163.673 354.548 166.742 355.987C165.47 359.239 164.833 360.866 163.561 364.118C156.664 360.881 153.216 359.266 146.319 356.029C147.966 352.954 148.791 351.417 150.438 348.341ZM166.29 336.597C169.008 337.871 170.367 338.51 173.082 339.784C170.704 345.858 169.517 348.896 167.139 354.972C164.091 353.542 162.569 352.829 159.521 351.399C162.229 345.481 163.581 342.519 166.29 336.597ZM158.649 333.014C161.367 334.288 162.725 334.925 165.441 336.199C162.692 342.102 161.317 345.052 158.571 350.954C155.522 349.524 153.998 348.811 150.952 347.38C154.029 341.634 155.569 338.76 158.649 333.014ZM164.185 365.613C165.591 361.943 166.295 360.108 167.7 356.436C167.857 356.029 167.935 355.826 168.091 355.419C170.583 348.916 171.828 345.664 174.322 339.163C171.29 337.741 169.774 337.028 166.742 335.609C166.406 335.448 166.236 335.37 165.899 335.214C162.868 333.79 161.353 333.081 158.32 331.658C154.993 337.77 153.328 340.825 150 346.933C149.792 347.318 149.687 347.51 149.479 347.892C147.599 351.341 146.661 353.064 144.781 356.512C152.543 360.153 156.423 361.974 164.185 365.613Z" fill="#8E70B1"/>
<path d="M189.986 338.262C179.468 338.718 168.551 331.725 168.551 317.797C168.551 303.813 179.468 296.934 189.986 296.934C199.933 297.443 210.339 304.32 210.339 317.797C210.339 331.269 199.933 338.262 189.986 338.262Z" fill="#5B8DC9"/>
<path d="M94.6992 317.797C94.6992 304.322 105.105 297.446 115.053 296.934C125.57 296.934 136.488 303.813 136.488 317.797C136.488 331.725 125.57 338.718 115.053 338.262C105.105 338.262 94.6992 331.269 94.6992 317.797Z" fill="#5B8DC9"/>
<path d="M501.025 338.199C490.507 338.655 479.59 331.662 479.59 317.734C479.59 303.75 490.507 296.873 501.025 296.873C510.972 297.381 521.378 304.26 521.378 317.734C521.378 331.208 510.972 338.199 501.025 338.199Z" fill="#ED70A2"/>
<path d="M405.746 317.731C405.746 304.259 416.152 297.38 426.099 296.871C436.617 296.871 447.532 303.747 447.532 317.731C447.532 331.659 436.617 338.652 426.099 338.196C416.152 338.196 405.746 331.203 405.746 317.731Z" fill="#ED70A2"/>
<path d="M378.293 241.784C375.546 233.204 380.606 222.899 383.675 214.759C386.62 206.935 389.032 207.232 390.954 199.434C394.009 187.051 392.816 169.614 389.394 157.516C387.923 152.336 386.283 144.769 382.636 140.209C379.25 135.976 376.966 137.798 372.386 140.515C361.433 147.039 351.096 154.754 344.445 164.277C339.046 172.021 331.525 183.701 332.164 192.698C319.135 182.845 292.948 189.335 292.948 189.335C291.992 186.085 289.238 175.326 285.294 170.22C275.623 157.709 249.879 137.042 244.013 135.565C238.142 134.083 225.932 171.136 225.505 179.913C224.985 190.738 227.372 204.217 239.087 211.362C235.927 209.836 232.259 209.317 228.447 209.525C233.493 220.642 240.008 218.755 240.008 231.105C240.008 235.658 237.952 239.544 235.127 243.257C235.323 245.369 235.44 247.57 235.458 249.868C235.464 250.797 235.453 251.711 235.433 252.619C237.136 252.018 238.627 251.436 239.594 250.931C238.479 252.31 236.933 253.982 235.312 255.694C234.964 261.742 233.982 267.226 232.443 272.201C234.783 271.341 237.27 269.944 239.99 267.72C238.504 270.556 235.496 272.713 231.095 276.067C229.023 281.389 226.263 286.084 222.906 290.232C232.704 288.717 239.981 282.354 242.667 277.357C243.416 282.998 239.903 302.62 240.256 307.186C240.468 309.772 240.908 313.426 243.387 315.359C246.898 311.314 247.917 303.762 252.407 299.661C252.231 304.69 254.752 309.323 256.848 314.065C258.864 318.654 260.261 325.828 265.383 328.796C265.781 322.88 265.548 316.81 265.412 310.876C268.782 314.588 272.957 318.915 275.167 323.322C276.944 326.833 277.007 328.742 280.5 331.326C282.777 333.011 288.029 336.866 290.693 337.192C290.962 333.147 289.127 324.237 296.674 328.78C302.344 332.182 302.467 340.435 308.021 343.227C312.142 339.219 317.202 335.42 321.039 331.254C322.988 329.138 325.046 327.095 327.23 325.37C329.898 330.119 329.74 336.522 333.298 340.632C336.076 338.763 335.823 335.722 337.157 333.058C338.664 330.074 340.849 327.278 342.302 324.357C344.494 319.992 347.083 312.474 351.027 309.155C355.463 314.785 353.582 323.396 355.881 329.708C359.654 320.527 367.42 312.637 368.88 302.444C372.241 307.419 371.55 314.445 372.136 320.153C377.019 308.337 374.947 293.531 380.012 281.693C383.697 283.492 387.215 286.954 390.712 288.355C390.853 287.832 390.905 287.293 390.88 286.748C370.777 274.543 356.74 263.132 356.74 263.132C356.74 263.132 367.257 254.326 378.293 241.784Z" fill="#FFE6BE"/>
<path d="M501.311 145.409C490.814 157.442 468.67 186.181 468.67 186.181C468.67 186.181 457.819 190.302 453.171 185.685C441.422 173.98 429.892 148.417 425.608 146.797C419.982 144.674 409.793 194.673 393.91 220.918C389.391 228.387 383.775 235.543 378.286 241.781C378.565 242.646 378.918 243.493 379.365 244.32C378.733 244.324 377.988 244.472 377.349 244.467C377.012 250.593 379.674 255.447 383.1 260.907C386.445 266.246 393.054 270.314 396.105 275.184C390.674 275.059 387.42 270.757 381.153 271.545C383.428 275.488 390.629 281.574 390.873 286.745C415.463 301.677 449.123 317.79 477.286 315.636C516.068 312.663 546.3 256.931 570.157 243.634C539.81 221.148 509.504 190.007 501.311 145.409Z" fill="#FAD0DD"/>
<path d="M215.009 290.353C221.551 283.463 226.942 279.23 231.096 276.065C231.583 274.814 232.033 273.527 232.444 272.201C226.765 274.295 221.971 273.227 216.936 273.033C221.075 268.527 226.184 265.76 229.684 261.733C231.206 259.985 233.311 257.808 235.313 255.692C235.374 254.684 235.41 253.656 235.434 252.617C231.646 253.946 226.787 255.363 224.157 256.204C227.527 251.624 231.847 247.559 235.128 243.257C232.133 211.635 209.992 200.132 208.036 189.809C205.375 175.704 201.555 160.949 194.336 150.848C177.025 159.508 163.309 187.65 163.309 187.65C155.102 184.034 141.671 184.041 136.504 189.094C133.462 176.694 128.266 163.386 114.981 150.848C104.897 161.908 100.535 175.588 91.2175 194.864C81.3213 215.323 56.6612 240.682 67.5609 271.068C81.7191 310.561 144.831 322.078 166.463 317.932C190.072 313.402 210.528 305.528 222.907 290.23C220.425 290.615 217.783 290.693 215.009 290.353Z" fill="#C1CFEA"/>
<path d="M396.112 275.185C393.062 270.313 386.453 266.248 383.11 260.907C379.681 255.449 377.02 250.595 377.357 244.469C377.998 244.473 378.743 244.323 379.373 244.319C378.928 243.492 378.573 242.645 378.293 241.782C367.257 254.325 356.742 263.128 356.742 263.128C356.742 263.128 370.777 274.542 390.88 286.747C390.637 281.573 383.436 275.489 381.163 271.547C387.428 270.758 390.682 275.058 396.112 275.185Z" fill="#D0D8AE"/>
<path d="M215.012 290.352C217.785 290.691 220.427 290.613 222.91 290.229C226.267 286.083 229.027 281.385 231.099 276.064C226.944 279.228 221.553 283.461 215.012 290.352Z" fill="#C6C4C5"/>
<path d="M235.426 252.618C235.446 251.713 235.457 250.799 235.45 249.869C235.43 247.569 235.316 245.368 235.12 243.258C231.839 247.558 227.519 251.626 224.148 256.203C226.777 255.365 231.638 253.948 235.426 252.618Z" fill="#C6C4C5"/>
<path d="M216.941 273.033C221.977 273.228 226.771 274.296 232.449 272.202C233.989 267.225 234.97 261.74 235.319 255.693C233.317 257.809 231.211 259.986 229.689 261.734C226.192 265.761 221.08 268.528 216.941 273.033Z" fill="#C6C4C5"/>
<path d="M116.114 225.095C117.511 227.468 118.204 229.849 118.733 232.227C119.229 234.602 119.442 236.978 119.444 239.356C119.442 241.734 119.229 244.112 118.733 246.488C118.204 248.865 117.511 251.241 116.114 253.619H115.276C113.879 251.241 113.186 248.865 112.657 246.488C112.158 244.112 111.946 241.734 111.941 239.356C111.946 236.978 112.158 234.602 112.657 232.227C113.186 229.849 113.879 227.468 115.276 225.095H116.114Z" fill="#373535"/>
<path d="M190.021 225.095C191.418 227.468 192.113 229.849 192.638 232.227C193.139 234.602 193.349 236.978 193.351 239.356C193.349 241.734 193.139 244.112 192.638 246.488C192.113 248.865 191.418 251.241 190.021 253.619H189.183C187.786 251.241 187.091 248.865 186.566 246.488C186.07 244.112 185.855 241.734 185.855 239.356C185.855 236.978 186.07 234.602 186.566 232.227C187.091 229.849 187.786 227.468 189.183 225.095H190.021Z" fill="#373535"/>
<path d="M149.143 266.928H139.195C134.247 266.928 134.247 259.651 139.195 259.651H166.084C171.144 259.651 171.144 266.928 166.084 266.928H156.648V295.637C156.648 300.583 149.143 300.697 149.143 295.637V266.928Z" fill="#373535"/>
<path d="M115.686 225.882C109.319 225.882 102.384 230.377 102.384 239.354C102.384 248.281 109.319 252.831 115.686 252.831C122.225 252.831 129.216 248.281 129.216 239.354C129.216 230.377 122.225 225.882 115.686 225.882ZM116.312 259.822C105.796 260.278 94.8789 253.285 94.8789 239.354C94.8789 225.371 105.796 218.494 116.312 218.494C126.259 219.003 136.665 225.882 136.665 239.354C136.665 252.831 126.259 259.822 116.312 259.822Z" fill="#373535"/>
<path d="M189.505 225.882C183.137 225.882 176.2 230.377 176.2 239.354C176.2 248.281 183.137 252.831 189.505 252.831C196.042 252.831 203.033 248.281 203.033 239.354C203.033 230.377 196.042 225.882 189.505 225.882ZM190.128 259.822C179.611 260.278 168.695 253.285 168.695 239.354C168.695 225.371 179.611 218.494 190.128 218.494C200.076 219.003 210.484 225.882 210.484 239.354C210.484 252.831 200.076 259.822 190.128 259.822Z" fill="#373535"/>
<path d="M426.873 225.131C428.268 227.505 428.965 229.883 429.493 232.263C429.991 234.638 430.199 237.014 430.206 239.392C430.199 241.77 429.991 244.148 429.493 246.524C428.965 248.902 428.268 251.277 426.873 253.655H426.035C424.639 251.277 423.946 248.902 423.418 246.524C422.92 244.148 422.71 241.77 422.703 239.392C422.71 237.014 422.92 234.638 423.418 232.263C423.946 229.883 424.639 227.505 426.035 225.131H426.873Z" fill="#373535"/>
<path d="M500.785 225.131C502.182 227.505 502.875 229.883 503.402 232.263C503.901 234.638 504.113 237.014 504.115 239.392C504.113 241.77 503.901 244.148 503.402 246.524C502.875 248.902 502.182 251.277 500.785 253.655H499.947C498.553 251.277 497.858 248.902 497.328 246.524C496.832 244.148 496.622 241.77 496.617 239.392C496.622 237.014 496.832 234.638 497.328 232.263C497.858 229.883 498.553 227.505 499.947 225.131H500.785Z" fill="#373535"/>
<path d="M459.915 266.964H449.966C445.022 266.964 445.022 259.687 449.966 259.687H476.856C481.918 259.687 481.918 266.964 476.856 266.964H467.42V295.674C467.42 300.62 459.915 300.734 459.915 295.674V266.964Z" fill="#373535"/>
<path d="M426.453 225.919C420.086 225.919 413.151 230.411 413.151 239.391C413.151 248.317 420.086 252.867 426.453 252.867C432.993 252.867 439.983 248.317 439.983 239.391C439.983 230.411 432.993 225.919 426.453 225.919ZM427.079 259.858C416.562 260.314 405.648 253.321 405.648 239.391C405.648 225.407 416.562 218.528 427.079 218.528C437.027 219.04 447.432 225.919 447.432 239.391C447.432 252.867 437.027 259.858 427.079 259.858Z" fill="#373535"/>
<path d="M500.272 225.919C493.905 225.919 486.967 230.411 486.967 239.391C486.967 248.317 493.905 252.867 500.272 252.867C506.809 252.867 513.802 248.317 513.802 239.391C513.802 230.411 506.809 225.919 500.272 225.919ZM500.895 259.858C490.38 260.314 479.465 253.321 479.465 239.391C479.465 225.407 490.38 218.528 500.895 218.528C510.845 219.04 521.249 225.919 521.249 239.391C521.249 252.867 510.845 259.858 500.895 259.858Z" fill="#373535"/>
<path d="M308.732 297.998C300.363 298.016 293.656 291.311 293.615 282.885C293.575 274.596 300.327 267.82 308.641 267.806C317.057 267.791 323.8 274.482 323.811 282.852C323.823 291.24 317.111 297.978 308.732 297.998ZM407.062 293.611H407.046C406.306 291.742 391.062 260.813 386.172 252.184C382.545 245.781 377.264 241.642 370.398 239.361C369.466 239.05 369.053 238.612 368.874 237.615C367.041 227.393 358.251 218.994 348.002 217.59C335.252 215.847 324.048 222.862 320.023 235.101C319.764 235.892 319.67 236.956 319.111 237.363C318.566 237.76 311.405 237.508 308.757 237.506C306.106 237.508 298.946 237.76 298.403 237.363C297.846 236.956 297.75 235.892 297.491 235.101C293.466 222.862 282.262 215.847 269.512 217.59C259.26 218.994 250.473 227.393 248.638 237.615C248.459 238.612 248.048 239.05 247.116 239.361C240.25 241.642 234.969 245.781 231.342 252.184C226.452 260.813 211.207 291.742 210.468 293.611H210.452C208.673 298.206 207.757 303.116 207.786 308.147C207.918 330.782 225.687 348.514 248.24 348.514H248.434C259.133 348.462 269.172 344.241 276.699 336.626C282.115 331.148 285.791 324.379 287.454 316.988H287.46C287.597 316.376 287.722 315.754 287.836 315.126C288.804 309.803 289.454 304.421 290.294 299.073C290.583 297.247 291.014 295.441 291.407 293.492C295.455 299.864 302.119 303.018 308.757 303.015C315.395 303.018 322.059 299.864 326.107 293.492C326.5 295.441 326.931 297.247 327.217 299.073C328.058 304.421 328.708 309.803 329.678 315.126C329.792 315.754 329.917 316.376 330.053 316.988H330.06C331.723 324.379 335.399 331.148 340.812 336.626C348.344 344.241 358.381 348.462 369.08 348.514H369.276C391.826 348.514 409.596 330.782 409.726 308.147C409.757 303.116 408.841 298.206 407.062 293.611Z" fill="#373535"/>
<path d="M308.698 287.981C305.94 287.985 303.623 285.657 303.629 282.89C303.638 280.141 305.882 277.85 308.597 277.817C311.438 277.785 313.774 280.078 313.787 282.905C313.8 285.65 311.467 287.974 308.698 287.981ZM308.631 267.806C300.317 267.82 293.565 274.596 293.606 282.885C293.646 291.309 300.353 298.013 308.723 297.996C317.101 297.978 323.813 291.237 323.802 282.85C323.79 274.48 317.045 267.791 308.631 267.806Z" fill="#C1CFEA"/>
<path d="M308.605 277.817C305.89 277.85 303.646 280.141 303.637 282.89C303.628 285.657 305.948 287.985 308.706 287.981C311.475 287.974 313.808 285.65 313.794 282.903C313.781 280.078 311.446 277.783 308.605 277.817Z" fill="#373535"/>
<path d="M247.655 272.159H247.474C228.14 272.251 212.066 288.582 212.18 308.019C212.299 328.032 228.252 343.94 248.165 343.94H248.339C268.183 343.849 284.06 327.563 283.923 307.44C283.789 287.907 267.582 272.157 247.655 272.159Z" fill="#FDD0B0"/>
<path d="M369.72 272.159H369.899C389.236 272.251 405.307 288.582 405.193 308.019C405.077 328.032 389.122 343.94 369.209 343.94H369.034C349.191 343.849 333.316 327.563 333.45 307.44C333.584 287.907 349.794 272.157 369.72 272.159Z" fill="#FDD0B0"/>
</svg>
