<svg width="71" height="57" viewBox="0 0 71 57" fill="none" xmlns="http://www.w3.org/2000/svg">
<path d="M48.0813 0.364094C44.6517 4.29477 37.4184 13.6824 37.4184 13.6824C37.4184 13.6824 33.8745 15.0281 32.3565 13.5196C28.5194 9.69744 24.7531 1.34666 23.3532 0.817909C21.516 0.123943 18.1882 16.4557 13 25.0285C8.55715 32.3727 0.856445 38.8154 0.856445 38.8154C0.856445 38.8154 23.5176 57.2445 40.2328 55.9658C52.9014 54.9953 62.7755 36.7923 70.5686 32.4476C60.6551 25.103 50.7566 14.932 48.0813 0.364094Z" fill="#D5EBEA"/>
<path d="M23.7652 26.4041C24.2215 27.1801 24.4475 27.9564 24.6206 28.7336C24.7825 29.5087 24.8521 30.2851 24.8537 31.0615C24.8521 31.8387 24.7825 32.6159 24.6206 33.3914C24.4475 34.1678 24.2215 34.9441 23.7652 35.7213H23.4919C23.0356 34.9441 22.8091 34.1678 22.6369 33.3914C22.4745 32.6159 22.405 31.8387 22.4033 31.0615C22.405 30.2851 22.4745 29.5087 22.6369 28.7336C22.8091 27.9564 23.0356 27.1801 23.4919 26.4041H23.7652Z" fill="#373535"/>
<path d="M47.9063 26.404C48.3626 27.1799 48.5887 27.9563 48.7609 28.7335C48.9236 29.5086 48.9932 30.285 48.994 31.0614C48.9932 31.8385 48.9236 32.6157 48.7609 33.3913C48.5887 34.1676 48.3626 34.944 47.9063 35.7212H47.6322C47.1759 34.944 46.9494 34.1676 46.7771 33.3913C46.6157 32.6157 46.5453 31.8385 46.5444 31.0614C46.5453 30.285 46.6157 29.5086 46.7771 28.7335C46.9494 27.9563 47.1759 27.1799 47.6322 26.404H47.9063Z" fill="#373535"/>
<path d="M34.5564 40.0689H31.3068C29.692 40.0689 29.692 37.6921 31.3068 37.6921H40.0903C41.7424 37.6921 41.7424 40.0689 40.0903 40.0689H37.0085V49.4457C37.0085 51.0618 34.5564 51.099 34.5564 49.4457V40.0689Z" fill="#373535"/>
<path d="M23.6271 26.6608C21.5481 26.6608 19.2828 28.1282 19.2828 31.061C19.2828 33.9772 21.5481 35.462 23.6271 35.462C25.7637 35.462 28.0476 33.9772 28.0476 31.061C28.0476 28.1282 25.7637 26.6608 23.6271 26.6608ZM23.8325 37.7456C20.397 37.8946 16.8315 35.6107 16.8315 31.061C16.8315 26.4939 20.397 24.2472 23.8325 24.2472C27.082 24.4145 30.4802 26.6608 30.4802 31.061C30.4802 35.462 27.082 37.7456 23.8325 37.7456Z" fill="#373535"/>
<path d="M47.7417 26.661C45.6619 26.661 43.3966 28.1284 43.3966 31.0612C43.3966 33.9775 45.6619 35.4623 47.7417 35.4623C49.8774 35.4623 52.1614 33.9775 52.1614 31.0612C52.1614 28.1284 49.8774 26.661 47.7417 26.661ZM47.9454 37.7458C44.5108 37.8949 40.9453 35.6109 40.9453 31.0612C40.9453 26.4941 44.5108 24.2474 47.9454 24.2474C51.195 24.4147 54.5948 26.661 54.5948 31.0612C54.5948 35.4623 51.195 37.7458 47.9454 37.7458Z" fill="#373535"/>
</svg>
