<svg width="79" height="68" viewBox="0 0 79 68" fill="none" xmlns="http://www.w3.org/2000/svg">
<path d="M69.2975 1.32489C66.7577 -0.584282 56.4146 6.34528 52.9163 11.0224C49.6903 9.46908 27.3736 7.97551 24.2307 11.1198C19.708 6.59389 12.1538 -1.49152 7.56212 1.54599C4.26619 6.87843 -0.429069 25.6096 0.78323 27.084C2.00299 28.5561 10.1332 18.3563 12.5694 15.4937C13.32 16.4131 14.0742 16.8987 14.7911 17.387C15.0262 22.8039 14.5463 28.9424 13.4258 34.0099C11.7695 41.5267 9.80807 54.812 14.3914 61.8787C19.8003 70.2156 29.1265 65.3388 39.5213 64.857C47.2531 64.4974 57.2519 71.9913 64.3014 62.0383C70.2523 53.6352 68.852 39.4701 66.4503 32.7822C65.3126 29.6029 60.546 20.0257 61.755 16.5306C62.7243 15.809 63.6399 15.0767 64.3741 14.1028C69.241 18.7481 76.8754 29.3915 77.9585 28.1555C79.0421 26.9217 73.6313 4.57137 69.2975 1.32489Z" fill="#FDD0B0"/>
<path d="M31.2587 35.6363C30.3841 35.1222 29.5095 34.8666 28.633 34.6716C27.7603 34.4893 26.8848 34.4118 26.0111 34.41C25.1347 34.4118 24.2601 34.4893 23.3855 34.6716C22.5109 34.8666 21.6363 35.1222 20.7617 35.6363V35.9437C21.6363 36.4581 22.5109 36.7133 23.3855 36.9073C24.2601 37.0902 25.1347 37.1685 26.0111 37.1704C26.8848 37.1685 27.7603 37.0902 28.633 36.9073C29.5095 36.7133 30.3841 36.4581 31.2587 35.9437V35.6363Z" fill="#373535"/>
<path d="M58.4535 35.6357C57.5799 35.1217 56.7044 34.8666 55.8288 34.6725C54.9552 34.4892 54.0797 34.4113 53.206 34.4099C52.3305 34.4113 51.4559 34.4892 50.5813 34.6725C49.7067 34.8666 48.8321 35.1217 47.9575 35.6357V35.9436C48.8321 36.4576 49.7067 36.7128 50.5813 36.9068C51.4559 37.0896 52.3305 37.168 53.206 37.1689C54.0797 37.168 54.9552 37.0896 55.8288 36.9077C56.7044 36.7128 57.5799 36.4576 58.4535 35.9436V35.6357Z" fill="#373535"/>
<path d="M38.3209 45.9354H34.6603C32.8411 45.9354 32.8411 43.2579 34.6603 43.2579H44.555C46.4162 43.2579 46.4162 45.9354 44.555 45.9354H41.0833V56.4985C41.0833 58.3182 38.3209 58.3611 38.3209 56.4985V45.9354Z" fill="#373535"/>
<path d="M26.0089 30.8327C23.6668 30.8327 21.1149 32.4853 21.1149 35.7896C21.1149 39.0748 23.6668 40.7475 26.0089 40.7475C28.4157 40.7475 30.9887 39.0748 30.9887 35.7896C30.9887 32.4853 28.4157 30.8327 26.0089 30.8327ZM26.2402 43.32C22.3701 43.4888 18.3535 40.9149 18.3535 35.7896C18.3535 30.6447 22.3701 28.1137 26.2402 28.1137C29.9009 28.3017 33.7291 30.8327 33.7291 35.7896C33.7291 40.7475 29.9009 43.32 26.2402 43.32Z" fill="#373535"/>
<path d="M53.1739 30.8323C50.8309 30.8323 48.279 32.4849 48.279 35.7892C48.279 39.0744 50.8309 40.7471 53.1739 40.7471C55.5798 40.7471 58.1527 39.0744 58.1527 35.7892C58.1527 32.4849 55.5798 30.8323 53.1739 30.8323ZM53.4034 43.3196C49.5342 43.4884 45.5176 40.9146 45.5176 35.7892C45.5176 30.6443 49.5342 28.1134 53.4034 28.1134C57.064 28.3014 60.894 30.8323 60.894 35.7892C60.894 40.7471 57.064 43.3196 53.4034 43.3196Z" fill="#373535"/>
</svg>
