<svg width="450" height="211" viewBox="0 0 450 211" fill="none" xmlns="http://www.w3.org/2000/svg">
<path d="M342.352 0.737167C338.125 -2.42817 320.911 9.06077 315.089 16.8152C309.72 14.2399 272.579 11.7636 267.348 16.9768C259.821 9.47296 247.249 -3.93234 239.607 1.10374C234.122 9.94471 226.307 41.0003 228.325 43.4448C230.355 45.8855 243.886 28.9746 247.941 24.2285C249.19 25.7528 250.445 26.5579 251.638 27.3676C252.029 36.3485 251.231 46.5259 249.366 54.9276C246.609 67.3902 243.345 89.4168 250.973 101.133C259.975 114.955 275.496 106.87 292.796 106.071C305.664 105.475 322.305 117.899 334.037 101.398C343.941 87.4656 341.611 63.9804 337.614 52.8921C335.72 47.6209 327.787 31.7424 329.799 25.9477C331.412 24.7513 332.936 23.5372 334.158 21.9224C342.258 29.6242 354.964 47.2706 356.766 45.2212C358.57 43.1757 349.565 6.11971 342.352 0.737167Z" fill="#FDD0B0"/>
<path d="M279.04 57.6283C277.585 56.7761 276.129 56.3523 274.67 56.029C273.218 55.7266 271.761 55.5983 270.307 55.5952C268.848 55.5983 267.393 55.7266 265.937 56.029C264.481 56.3523 263.026 56.7761 261.57 57.6283V58.138C263.026 58.991 264.481 59.414 265.937 59.7357C267.393 60.0389 268.848 60.1688 270.307 60.1719C271.761 60.1688 273.218 60.0389 274.67 59.7357C276.129 59.414 277.585 58.991 279.04 58.138V57.6283Z" fill="#373535"/>
<path d="M324.296 57.6299C322.842 56.7776 321.385 56.3546 319.928 56.0329C318.474 55.729 317.017 55.5998 315.563 55.5975C314.106 55.5998 312.65 55.729 311.195 56.0329C309.739 56.3546 308.284 56.7776 306.828 57.6299V58.1403C308.284 58.9925 309.739 59.4155 311.195 59.7373C312.65 60.0404 314.106 60.1703 315.563 60.1719C317.017 60.1703 318.474 60.0404 319.928 59.7388C321.385 59.4155 322.842 58.9925 324.296 58.1403V57.6299Z" fill="#373535"/>
<path d="M290.793 74.7051H284.7C281.673 74.7051 281.673 70.266 284.7 70.266H301.168C304.265 70.266 304.265 74.7051 301.168 74.7051H295.39V92.2184C295.39 95.2353 290.793 95.3064 290.793 92.2184V74.7051Z" fill="#373535"/>
<path d="M270.303 49.6586C266.405 49.6586 262.158 52.3986 262.158 57.877C262.158 63.3238 266.405 66.097 270.303 66.097C274.309 66.097 278.591 63.3238 278.591 57.877C278.591 52.3986 274.309 49.6586 270.303 49.6586ZM270.688 70.3621C264.247 70.642 257.562 66.3747 257.562 57.877C257.562 49.347 264.247 45.1507 270.688 45.1507C276.781 45.4624 283.152 49.6586 283.152 57.877C283.152 66.097 276.781 70.3621 270.688 70.3621Z" fill="#373535"/>
<path d="M315.516 49.6586C311.616 49.6586 307.369 52.3986 307.369 57.877C307.369 63.3238 311.616 66.097 315.516 66.097C319.52 66.097 323.802 63.3238 323.802 57.877C323.802 52.3986 319.52 49.6586 315.516 49.6586ZM315.898 70.3621C309.458 70.642 302.773 66.3747 302.773 57.877C302.773 49.347 309.458 45.1507 315.898 45.1507C321.99 45.4624 328.364 49.6586 328.364 57.877C328.364 66.097 321.99 70.3621 315.898 70.3621Z" fill="#373535"/>
<path d="M188.858 32.5685C181.425 23.5325 181.154 11.7429 180.34 0C164.089 9.50684 154.444 28.0973 150.778 28.3647C140.1 29.1431 128.297 1.26074 127.098 2.02605C120.01 6.54488 83.2772 35.008 97.071 75.7955C110.073 114.237 172.846 125.908 197.283 81.1781C215.165 48.4472 192.042 36.4385 188.858 32.5685Z" fill="#C8E8E8"/>
<path d="M126.961 47.7456C127.858 49.2827 128.303 50.8207 128.643 52.3612C128.962 53.8975 129.099 55.4364 129.102 56.9735C129.099 58.5132 128.962 60.0512 128.643 61.5891C128.303 63.1271 127.858 64.6635 126.961 66.2031H126.423C125.525 64.6635 125.08 63.1271 124.741 61.5891C124.421 60.0512 124.285 58.5132 124.281 56.9735C124.285 55.4364 124.421 53.8975 124.741 52.3612C125.08 50.8207 125.525 49.2827 126.423 47.7456H126.961Z" fill="#373535"/>
<path d="M174.461 47.7456C175.358 49.2827 175.803 50.8207 176.142 52.3612C176.462 53.8975 176.599 55.4364 176.6 56.9735C176.599 58.5132 176.462 60.0512 176.142 61.5891C175.803 63.1271 175.358 64.6635 174.461 66.2031H173.921C173.024 64.6635 172.578 63.1271 172.239 61.5891C171.921 60.0512 171.783 58.5132 171.781 56.9735C171.783 55.4364 171.921 53.8975 172.239 52.3612C172.578 50.8207 173.024 49.2827 173.921 47.7456H174.461Z" fill="#373535"/>
<path d="M148.198 74.8112H141.805C138.628 74.8112 138.628 70.1029 141.805 70.1029H159.085C162.335 70.1029 162.335 74.8112 159.085 74.8112H153.022V93.3885C153.022 96.5867 148.198 96.6638 148.198 93.3885V74.8112Z" fill="#373535"/>
<path d="M126.69 48.2522C122.6 48.2522 118.143 51.1584 118.143 56.9699C118.143 62.7454 122.6 65.6885 126.69 65.6885C130.893 65.6885 135.387 62.7454 135.387 56.9699C135.387 51.1584 130.893 48.2522 126.69 48.2522ZM127.094 70.2131C120.335 70.5075 113.32 65.9838 113.32 56.9699C113.32 47.9216 120.335 43.4709 127.094 43.4709C133.487 43.8014 140.172 48.2522 140.172 56.9699C140.172 65.6885 133.487 70.2131 127.094 70.2131Z" fill="#373535"/>
<path d="M174.129 48.2522C170.037 48.2522 165.58 51.1584 165.58 56.9699C165.58 62.7454 170.037 65.6885 174.129 65.6885C178.331 65.6885 182.824 62.7454 182.824 56.9699C182.824 51.1584 178.331 48.2522 174.129 48.2522ZM174.53 70.2131C167.772 70.5075 160.758 65.9838 160.758 56.9699C160.758 47.9216 167.772 43.4709 174.53 43.4709C180.923 43.8014 187.612 48.2522 187.612 56.9699C187.612 65.6885 180.923 70.2131 174.53 70.2131Z" fill="#373535"/>
<path d="M95.3586 144.324C95.8785 143.122 96.3928 141.916 96.9013 140.708C95.8176 141.709 94.6714 142.616 93.5004 143.507C93.1266 141.793 92.882 140.058 92.6253 138.33C92.4148 140.2 92.144 142.068 91.7131 143.884C90.9969 143.31 90.2149 142.857 89.3997 142.531C86.6219 141.42 83.5152 141.811 81.2483 143.567C60.1522 159.828 37.6031 173.955 13.7937 185.814C11.2276 187.086 9.50432 189.719 9.26237 192.722C9.1753 193.802 9.27897 194.92 9.59315 196.021C7.57236 195.241 5.60879 194.259 3.67769 193.24C4.63261 194.462 5.59319 195.68 6.57508 196.88C5.21879 197.599 3.27324 198.442 3.27324 198.442C4.71155 198.894 6.22396 199.307 7.70734 199.267C7.44821 201.364 7.43235 203.021 7.43235 203.021C8.49022 201.494 9.59602 200.012 10.7414 198.557C11.4527 199.663 12.3679 200.579 13.4089 201.265C16.0134 202.982 19.2656 203.169 21.8899 201.87C46.6155 189.552 70.0385 174.885 91.9442 157.994C94.2632 156.199 95.5364 153.175 95.1631 150.062C95.0496 149.116 94.7849 148.177 94.3717 147.284C96.0557 146.643 97.7459 146.018 99.4341 145.388C98.0768 145.028 96.7205 144.658 95.3586 144.324Z" fill="#ED70A2"/>
<path d="M165.359 144.324C165.879 143.122 166.393 141.916 166.901 140.708C165.818 141.709 164.671 142.616 163.5 143.507C163.127 141.793 162.882 140.058 162.625 138.33C162.415 140.2 162.144 142.068 161.713 143.884C160.997 143.31 160.215 142.857 159.4 142.531C156.622 141.42 153.515 141.811 151.248 143.567C130.152 159.828 107.603 173.955 83.7937 185.814C81.2276 187.086 79.5043 189.719 79.2624 192.722C79.1753 193.802 79.279 194.92 79.5932 196.021C77.5724 195.241 75.6088 194.259 73.6777 193.24C74.6326 194.462 75.5932 195.68 76.5751 196.88C75.2188 197.599 73.2732 198.442 73.2732 198.442C74.7115 198.894 76.224 199.307 77.7073 199.267C77.4482 201.364 77.4323 203.021 77.4323 203.021C78.4902 201.494 79.596 200.012 80.7414 198.557C81.4527 199.663 82.3679 200.579 83.4089 201.265C86.0134 202.982 89.2656 203.169 91.8899 201.87C116.615 189.552 140.039 174.885 161.944 157.994C164.263 156.199 165.536 153.175 165.163 150.062C165.05 149.116 164.785 148.177 164.372 147.284C166.056 146.643 167.746 146.018 169.434 145.388C168.077 145.028 166.721 144.658 165.359 144.324Z" fill="#ED70A2"/>
<path d="M234.359 144.324C234.879 143.122 235.393 141.916 235.901 140.708C234.818 141.709 233.671 142.616 232.5 143.507C232.127 141.793 231.882 140.058 231.625 138.33C231.415 140.2 231.144 142.068 230.713 143.884C229.997 143.31 229.215 142.857 228.4 142.531C225.622 141.42 222.515 141.811 220.248 143.567C199.152 159.828 176.603 173.955 152.794 185.814C150.228 187.086 148.504 189.719 148.262 192.722C148.175 193.802 148.279 194.92 148.593 196.021C146.572 195.241 144.609 194.259 142.678 193.24C143.633 194.462 144.593 195.68 145.575 196.88C144.219 197.599 142.273 198.442 142.273 198.442C143.712 198.894 145.224 199.307 146.707 199.267C146.448 201.364 146.432 203.021 146.432 203.021C147.49 201.494 148.596 200.012 149.741 198.557C150.453 199.663 151.368 200.579 152.409 201.265C155.013 202.982 158.266 203.169 160.89 201.87C185.615 189.552 209.039 174.885 230.944 157.994C233.263 156.199 234.536 153.175 234.163 150.062C234.05 149.116 233.785 148.177 233.372 147.284C235.056 146.643 236.746 146.018 238.434 145.388C237.077 145.028 235.721 144.658 234.359 144.324Z" fill="#ED70A2"/>
<path d="M303.359 144.324C303.879 143.122 304.393 141.916 304.901 140.708C303.818 141.709 302.671 142.616 301.5 143.507C301.127 141.793 300.882 140.058 300.625 138.33C300.415 140.2 300.144 142.068 299.713 143.884C298.997 143.31 298.215 142.857 297.4 142.531C294.622 141.42 291.515 141.811 289.248 143.567C268.152 159.828 245.603 173.955 221.794 185.814C219.228 187.086 217.504 189.719 217.262 192.722C217.175 193.802 217.279 194.92 217.593 196.021C215.572 195.241 213.609 194.259 211.678 193.24C212.633 194.462 213.593 195.68 214.575 196.88C213.219 197.599 211.273 198.442 211.273 198.442C212.712 198.894 214.224 199.307 215.707 199.267C215.448 201.364 215.432 203.021 215.432 203.021C216.49 201.494 217.596 200.012 218.741 198.557C219.453 199.663 220.368 200.579 221.409 201.265C224.013 202.982 227.266 203.169 229.89 201.87C254.615 189.552 278.039 174.885 299.944 157.994C302.263 156.199 303.536 153.175 303.163 150.062C303.05 149.116 302.785 148.177 302.372 147.284C304.056 146.643 305.746 146.018 307.434 145.388C306.077 145.028 304.721 144.658 303.359 144.324Z" fill="#ED70A2"/>
<path d="M372.359 144.179C372.879 142.977 373.393 141.771 373.901 140.563C372.818 141.564 371.671 142.471 370.5 143.362C370.127 141.648 369.882 139.913 369.625 138.185C369.415 140.055 369.144 141.923 368.713 143.739C367.997 143.165 367.215 142.712 366.4 142.386C363.622 141.275 360.515 141.666 358.248 143.422C337.152 159.683 314.603 173.81 290.794 185.669C288.228 186.941 286.504 189.574 286.262 192.576C286.175 193.657 286.279 194.775 286.593 195.875C284.572 195.096 282.609 194.114 280.678 193.095C281.633 194.317 282.593 195.535 283.575 196.735C282.219 197.454 280.273 198.297 280.273 198.297C281.712 198.749 283.224 199.162 284.707 199.122C284.448 201.219 284.432 202.876 284.432 202.876C285.49 201.349 286.596 199.867 287.741 198.412C288.453 199.518 289.368 200.434 290.409 201.12C293.013 202.837 296.266 203.024 298.89 201.725C323.615 189.407 347.039 174.74 368.944 157.849C371.263 156.054 372.536 153.03 372.163 149.917C372.05 148.971 371.785 148.032 371.372 147.139C373.056 146.498 374.746 145.873 376.434 145.243C375.077 144.883 373.721 144.513 372.359 144.179Z" fill="#ED70A2"/>
<path d="M441.038 144.324C441.558 143.122 442.072 141.916 442.581 140.708C441.497 141.709 440.351 142.616 439.18 143.507C438.806 141.793 438.562 140.058 438.305 138.33C438.094 140.2 437.824 142.068 437.393 143.884C436.677 143.31 435.895 142.857 435.079 142.531C432.302 141.42 429.195 141.811 426.928 143.567C405.832 159.828 383.283 173.955 359.473 185.814C356.907 187.086 355.184 189.719 354.942 192.722C354.855 193.802 354.959 194.92 355.273 196.021C353.252 195.241 351.288 194.259 349.357 193.24C350.312 194.462 351.273 195.68 352.255 196.88C350.898 197.599 348.953 198.442 348.953 198.442C350.391 198.894 351.904 199.307 353.387 199.267C353.128 201.364 353.112 203.021 353.112 203.021C354.17 201.494 355.276 200.012 356.421 198.557C357.132 199.663 358.048 200.579 359.089 201.265C361.693 202.982 364.945 203.169 367.57 201.87C392.295 189.552 415.718 174.885 437.624 157.994C439.943 156.199 441.216 153.175 440.843 150.062C440.729 149.116 440.465 148.177 440.051 147.284C441.735 146.643 443.426 146.018 445.114 145.388C443.756 145.028 442.4 144.658 441.038 144.324Z" fill="#ED70A2"/>
</svg>
