<svg width="71" height="68" viewBox="0 0 71 68" fill="none" xmlns="http://www.w3.org/2000/svg">
<path d="M56.273 54.111C56.6183 55.679 54.3436 57.5123 51.193 58.2057C48.0423 58.9017 45.2076 58.195 44.8623 56.6283C44.517 55.0603 46.433 51.7683 49.5836 51.0737C52.7356 50.3777 55.9263 52.543 56.273 54.111Z" fill="#FBC4E0"/>
<path d="M58.0892 52.7349C56.5225 53.0802 54.6892 50.8069 53.9945 47.6549C53.2985 44.5042 54.0052 41.6695 55.5719 41.3242C57.1399 40.9789 60.4319 42.8949 61.1265 46.0469C61.8225 49.1989 59.6572 52.3882 58.0892 52.7349Z" fill="#FBC4E0"/>
<path d="M59.4653 54.5526C59.12 52.9846 61.3947 51.1513 64.5453 50.4566C67.696 49.7606 70.5307 50.4686 70.876 52.0353C71.2213 53.602 69.304 56.894 66.1533 57.5886C63.0013 58.2846 59.812 56.1193 59.4653 54.5526Z" fill="#FBC4E0"/>
<path d="M57.6485 55.9286C59.2165 55.5832 61.0499 57.8566 61.7445 61.0072C62.4405 64.1579 61.7339 66.9926 60.1659 67.3379C58.5992 67.6832 55.3072 65.7672 54.6125 62.6166C53.9165 59.4646 56.0819 56.2752 57.6485 55.9286Z" fill="#FBC4E0"/>
<path d="M58.8566 54.1136C58.9766 54.659 58.6326 55.1976 58.0873 55.319C57.5433 55.439 57.0033 55.0936 56.8833 54.5483C56.7633 54.0056 57.1073 53.4656 57.6526 53.3443C58.1966 53.2243 58.7353 53.5696 58.8566 54.1136Z" fill="#F250A7"/>
<path d="M15.5984 47.5983C17.0424 49.821 14.9078 53.7703 10.8331 56.4183C6.75844 59.0663 2.28511 59.4103 0.839777 57.1877C-0.605556 54.965 -0.481556 47.9237 3.59178 45.277C7.66911 42.6263 14.1531 45.3757 15.5984 47.5983Z" fill="#FDE3B0"/>
<path d="M19.2935 45.9928C17.0695 47.4368 13.1215 45.3022 10.4735 41.2288C7.82416 37.1528 7.48016 32.6782 9.70283 31.2342C11.9255 29.7888 18.9682 29.9115 21.6148 33.9875C24.2655 38.0635 21.5162 44.5475 19.2935 45.9928Z" fill="#FDE3B0"/>
<path d="M20.8994 49.6881C19.4541 47.4654 21.5888 43.5174 25.6634 40.8694C29.7381 38.2201 34.2128 37.8761 35.6568 40.0988C37.1021 42.3214 36.9808 49.3628 32.9034 52.0121C28.8288 54.6601 22.3434 51.9108 20.8994 49.6881Z" fill="#FDE3B0"/>
<path d="M17.2035 51.2934C19.4262 49.8494 23.3742 51.9841 26.0222 56.0588C28.6715 60.1334 29.0155 64.6068 26.7928 66.0508C24.5702 67.4948 17.5275 67.3748 14.8795 63.2988C12.2315 59.2228 14.9808 52.7388 17.2035 51.2934Z" fill="#FDE3B0"/>
<path d="M19.3001 47.9603C19.6774 48.5403 19.5107 49.3177 18.9321 49.695C18.3494 50.0723 17.5734 49.907 17.1961 49.3257C16.8201 48.747 16.9841 47.9697 17.5641 47.5923C18.1454 47.2137 18.9227 47.379 19.3001 47.9603Z" fill="#F36B21"/>
<path d="M48.5496 17.4743C49.5776 19.9183 46.7763 23.4249 42.2949 25.3076C37.8149 27.1903 33.3509 26.7356 32.3229 24.2916C31.2963 21.8476 32.6683 14.9409 37.1469 13.0569C41.6296 11.1743 47.5216 15.0303 48.5496 17.4743Z" fill="#FDE3B0"/>
<path d="M52.471 16.5496C50.027 17.5763 46.5204 14.7763 44.6377 10.2963C42.755 5.81497 43.2097 1.35097 45.6537 0.322968C48.0977 -0.703699 55.0057 0.668301 56.8884 5.1483C58.771 9.62963 54.915 15.5216 52.471 16.5496Z" fill="#FDE3B0"/>
<path d="M53.3961 20.4719C52.3681 18.0279 55.1694 14.5212 59.6494 12.6385C64.1308 10.7559 68.5948 11.2105 69.6228 13.6545C70.6494 16.0985 69.2788 23.0065 64.7974 24.8892C60.3161 26.7732 54.4241 22.9159 53.3961 20.4719Z" fill="#FDE3B0"/>
<path d="M49.4735 21.3961C51.9175 20.3694 55.4241 23.1694 57.3068 27.6508C59.1895 32.1308 58.7348 36.5948 56.2908 37.6228C53.8468 38.6481 46.9388 37.2788 45.0561 32.7988C43.1721 28.3161 47.0295 22.4241 49.4735 21.3961Z" fill="#FDE3B0"/>
<path d="M52.1296 18.4875C52.3976 19.1262 52.0976 19.8609 51.4589 20.1289C50.8203 20.3982 50.0856 20.0969 49.8176 19.4595C49.5483 18.8209 49.8483 18.0849 50.4883 17.8169C51.1256 17.5489 51.8616 17.8489 52.1296 18.4875Z" fill="#F36B21"/>
</svg>
