<svg width="194" height="185" viewBox="0 0 194 185" fill="none" xmlns="http://www.w3.org/2000/svg">
<path d="M179.876 1.25435H21.7318C14.6558 1.25435 8.89844 7.00319 8.89844 14.0694V119.549C8.89844 126.615 14.6558 132.364 21.7318 132.364H179.876C186.953 132.364 192.71 126.615 192.71 119.549V14.0694C192.71 7.00319 186.953 1.25435 179.876 1.25435Z" fill="#66C87F"/>
<path d="M192.748 119.55C192.748 126.616 186.991 132.365 179.914 132.365H21.7701C14.6935 132.365 8.93619 126.616 8.93619 119.55V14.0701C8.93619 7.0045 14.6935 1.25566 21.7701 1.25566H179.914C186.991 1.25566 192.748 7.0045 192.748 14.0701V119.55ZM179.914 0.00100708H21.7701C13.988 0.00100708 7.67969 6.30001 7.67969 14.0701V119.55C7.67969 127.321 13.988 133.62 21.7701 133.62H179.914C187.696 133.62 194.004 127.321 194.004 119.55V14.0701C194.004 6.30001 187.696 0.00100708 179.914 0.00100708Z" fill="#231F20"/>
<path d="M3.14392 117.181C-0.675854 113.854 -1.06977 108.064 2.26311 104.25L3.41407 102.933C4.0662 102.186 4.76607 101.487 5.49485 100.83C6.49063 107.053 8.67632 113.446 11.9608 119.001C9.00615 119.936 5.65003 119.366 3.14392 117.181Z" fill="#5EC9C0"/>
<path d="M19.4453 94.3765C22.3799 93.8959 25.1913 93.8144 27.8959 93.9511C26.2323 97.7998 25.5959 102.629 25.9502 107.093C24.9004 107.437 23.9109 107.83 23.0106 108.278C22.2869 104.668 20.3751 101.295 19.8241 97.5896C19.6633 96.5182 19.5408 95.4461 19.4453 94.3765Z" fill="#5EC9C0"/>
<path d="M16.6876 115.533C13.1273 110.295 10.6765 103.89 9.67188 97.7814C9.83334 97.6905 9.99228 97.5932 10.1537 97.5048C11.654 96.6754 13.1807 96.0299 14.6941 95.5268C14.7463 96.2401 14.8122 96.9527 14.8996 97.6629C15.2263 100.31 15.6484 102.985 16.3841 105.557C17.0118 107.755 18.1476 109.732 18.5472 111.94C18.2293 112.431 17.9786 112.93 17.7902 113.438C17.5225 114.16 17.1493 114.87 16.6876 115.533Z" fill="#5EC9C0"/>
<path d="M27.8924 93.9504C29.0139 94.0087 30.1183 94.1028 31.204 94.222C32.0232 94.3186 32.8305 94.434 33.6347 94.5582C33.6158 94.5808 33.6008 94.6047 33.5832 94.6273C31.4113 97.1855 30.8226 101.768 31.3083 105.84C31.2963 105.841 31.2838 105.843 31.2737 105.844C29.404 106.135 27.6009 106.552 25.9461 107.092C25.5924 102.628 26.2288 97.799 27.8924 93.9504Z" fill="#C9EDE7"/>
<path d="M14.9008 97.6633C14.8128 96.9531 14.7475 96.2405 14.6953 95.5279C15.649 95.2117 16.6008 94.952 17.5369 94.7387C18.1783 94.5969 18.8141 94.4796 19.4436 94.3761C19.5398 95.4457 19.6617 96.5178 19.8225 97.5893C20.3741 101.294 22.2859 104.667 23.009 108.278C22.7508 108.406 22.4932 108.536 22.2494 108.674C21.04 109.352 20.0424 110.126 19.3136 110.938C19.0127 111.267 18.7664 111.603 18.5484 111.941C18.1488 109.732 17.0123 107.756 16.3847 105.557C15.649 102.986 15.2274 100.311 14.9008 97.6633Z" fill="#C9EDE7"/>
<path d="M16.0921 116.305C14.9468 117.617 13.5074 118.514 11.9582 119.005C8.67303 113.45 6.48797 107.057 5.49219 100.833C6.80272 99.6527 8.21755 98.6282 9.67321 97.7838C10.6778 103.892 13.1286 110.298 16.6889 115.535C16.503 115.799 16.3069 116.059 16.0921 116.305Z" fill="#C9EDE7"/>
<path d="M180.084 62.6847C185.13 63.1614 188.833 67.6349 188.354 72.6736L188.188 74.4139C188.095 75.4013 187.934 76.3761 187.727 77.3353C183.282 72.8593 177.772 68.9398 171.859 66.3414C173.713 63.8609 176.772 62.3691 180.084 62.6847Z" fill="#5986CD"/>
<path d="M180.165 90.7049C178.062 92.8052 175.826 94.509 173.55 95.9719C172.653 91.8773 170.348 87.5839 167.453 84.165C168.105 83.2742 168.678 82.3783 169.148 81.49C171.845 84.0006 175.367 85.6273 177.98 88.3154C178.737 89.092 179.463 89.8925 180.165 90.7049Z" fill="#5986CD"/>
<path d="M170.047 71.913C175.998 74.0929 181.731 77.8682 186.115 82.2444C186.037 82.4126 185.965 82.5838 185.886 82.7501C185.151 84.2971 184.288 85.7111 183.353 87.0009C182.893 86.4519 182.424 85.9118 181.938 85.3867C180.127 83.4263 178.221 81.4992 176.121 79.8393C174.327 78.419 172.25 77.4749 170.636 75.9141C170.606 75.33 170.519 74.7799 170.374 74.256C170.17 73.5139 170.058 72.7197 170.047 71.913Z" fill="#5986CD"/>
<path d="M173.548 95.972C172.603 96.5787 171.651 97.1445 170.7 97.6809C169.977 98.0792 169.255 98.4563 168.529 98.8232C168.531 98.7944 168.53 98.7662 168.531 98.7367C168.8 95.3936 166.601 91.3298 163.828 88.3048C163.837 88.2973 163.846 88.2891 163.854 88.281C165.202 86.9561 166.423 85.5671 167.452 84.1651C170.347 87.584 172.651 91.8775 173.548 95.972Z" fill="#C4CFED"/>
<path d="M181.943 85.3864C182.429 85.9115 182.899 86.4516 183.357 87.0005C182.767 87.8135 182.146 88.5783 181.511 89.2965C181.072 89.7852 180.624 90.2513 180.173 90.7024C179.471 89.89 178.745 89.0889 177.989 88.3129C175.376 85.6248 171.853 83.9981 169.156 81.4876C169.291 81.2329 169.425 80.9775 169.543 80.7241C170.128 79.4676 170.486 78.2574 170.603 77.174C170.656 76.7318 170.66 76.3158 170.64 75.9137C172.254 77.4745 174.332 78.4187 176.126 79.8389C178.226 81.4988 180.131 83.426 181.943 85.3864Z" fill="#C4CFED"/>
<path d="M170.082 70.941C170.246 69.2077 170.892 67.6419 171.863 66.3408C177.777 68.9392 183.286 72.8587 187.731 77.3341C187.356 79.0555 186.805 80.7116 186.116 82.2461C181.732 77.8692 175.999 74.0939 170.048 71.9146C170.044 71.5915 170.052 71.2659 170.082 70.941Z" fill="#C4CFED"/>
<path d="M174.301 140.04H27.6797V133.617H174.301V140.04Z" fill="#FDE3B0"/>
<path d="M159.569 116.981H42.4122L27.6797 133.62H174.301L159.569 116.981Z" fill="#FAB22C"/>
<path d="M34.1172 140.04V185.001H46.9819V172.155H155.009V185.001H167.874V140.04H34.1172Z" fill="#FAB22C"/>
<path d="M85.2048 160.553C84.5112 160.553 83.9483 159.991 83.9483 159.298V155.306C83.516 155.106 82.0761 154.658 77.8599 154.658C73.6436 154.658 72.2031 155.106 71.7708 155.306V159.298C71.7708 159.991 71.2079 160.553 70.5143 160.553C69.8201 160.553 69.2578 159.991 69.2578 159.298V154.96C69.2578 152.963 71.7495 152.149 77.8599 152.149C83.969 152.149 86.4613 152.963 86.4613 154.96V159.298C86.4613 159.991 85.8983 160.553 85.2048 160.553Z" fill="#5EC9C0"/>
<path d="M96.6212 183.863C96.6212 184.492 96.111 185.001 95.4822 185.001H60.2334C59.6039 185.001 59.0938 184.492 59.0938 183.863V158.437C59.0938 157.808 59.6039 157.298 60.2334 157.298H95.4822C96.111 157.298 96.6212 157.808 96.6212 158.437V183.863Z" fill="#5EC9C0"/>
<path d="M96.9391 168.044C96.9391 168.2 96.875 168.342 96.7732 168.444C96.6702 168.546 92.3579 171.536 77.8641 171.536C63.3703 171.536 59.058 168.546 58.9549 168.444C58.8525 168.342 58.7891 168.2 58.7891 168.044V163.469V157.863C58.7891 157.707 58.8525 157.566 58.9549 157.463C59.058 157.361 59.1993 157.297 59.3557 157.297H77.8641H96.3718C96.5289 157.297 96.6702 157.361 96.7732 157.463C96.875 157.566 96.9391 157.707 96.9391 157.863V163.469V168.044Z" fill="#C9EDE7"/>
<path d="M80.383 174.477C80.383 174.721 80.1788 174.918 79.9269 174.918H75.7999C75.5479 174.918 75.3438 174.721 75.3438 174.477V169.954C75.3438 169.709 75.5479 169.512 75.7999 169.512H79.9269C80.1788 169.512 80.383 169.709 80.383 169.954V174.477Z" fill="#F250A7"/>
<path d="M118.549 90.4657C118.616 90.4789 118.683 90.4858 118.75 90.4858C120.364 90.4858 121.804 86.905 119.18 85.3944C122.441 84.9007 122.173 79.0245 118.514 79.0233C118.284 79.0233 118.039 79.0471 117.779 79.0973C119.18 76.2624 116.248 72.9087 112.92 72.9087C111.416 72.9087 109.832 73.5931 108.529 75.3189C108.914 72.8328 107.632 71.5141 106.179 71.5141C105.006 71.5141 103.722 72.3717 103.11 74.1659C103.811 71.3761 100.919 69.772 98.1012 69.772C95.4612 69.772 92.8867 71.1798 93.3924 74.3377C92.4972 73.5567 90.8599 72.9407 89.1655 72.9407C86.8454 72.9407 84.4197 74.0956 83.6507 77.5591C83.2926 77.4769 82.9515 77.438 82.6323 77.438C78.5166 77.438 77.5686 83.7301 80.4925 85.2903C77.4461 86.5506 78.5644 90.5893 80.914 91.3083C80.4196 91.9807 79.9252 93.0836 79.4169 94.3163C80.9631 97.5928 81.3224 102.324 77.583 109.11C75.6204 112.673 73.0904 115.408 70.2344 117.401C70.6195 117.609 71.0498 117.722 71.4877 117.722C72.1631 117.722 72.8554 117.453 73.4322 116.847C73.9637 117.279 74.5078 117.46 75.0185 117.46C76.7958 117.46 78.1554 115.252 77.0773 113.671C77.1634 113.677 77.2469 113.68 77.328 113.68C80.4422 113.68 79.9277 109.616 78.4042 108.611C78.6668 108.766 78.9269 108.835 79.1763 108.835C80.877 108.835 82.0713 105.545 80.4674 103.377C81.5492 100.497 83.074 96.6368 83.3956 96.0684C83.9567 97.399 81.313 108.597 81.6177 109.223C83.2367 112.545 88.2684 116.164 90.9328 118.669C93.2705 120.867 97.057 122.367 101.065 122.367C104.313 122.367 107.707 121.379 110.59 118.984C114.415 115.809 116.782 113.671 120.092 108.279C120.592 107.466 117.204 96.3601 117.36 95.2328C117.411 95.4053 118.85 98.3532 120.054 100.698C120.361 99.0206 120.953 97.4097 121.683 95.8633C120.376 93.6369 119.151 91.3158 118.549 90.4657Z" fill="#FBC4E0"/>
<path d="M32.5785 96.1768C31.2441 98.8053 30.9162 102.493 31.3151 105.84C31.9949 105.734 32.6866 105.649 33.3846 105.574C32.4177 102.229 32.2267 99.0845 32.5785 96.1768Z" fill="#5EC9C0"/>
<path d="M73.905 88.0207C70.6538 84.0999 70.535 78.9865 70.1788 73.8913C63.0695 78.0166 58.8508 86.081 57.2469 86.1964C52.5752 86.5351 47.4116 74.4396 46.887 74.7702C44.4525 76.3103 34.0204 84.2611 32.5779 96.1747C32.2261 99.0824 32.417 102.227 33.3839 105.572C33.4995 105.97 33.6132 106.369 33.7508 106.774C38.3942 120.388 57.5478 126.259 70.2416 117.4C69.168 116.821 68.4455 115.513 68.8853 113.892C68.7238 113.948 68.5674 113.971 68.4185 113.971C66.9904 113.971 66.256 111.667 68.2539 110.953C66.9251 109.627 69.1686 105.447 71.7551 105.447C72.0322 105.447 72.3117 105.496 72.5932 105.599C71.8387 102.524 73.6399 100.808 75.507 100.808C75.7219 100.808 75.9361 100.831 76.1485 100.876C77.3635 99.704 78.4209 96.7537 79.4242 94.3153C77.7354 90.737 74.6325 88.8964 73.905 88.0207Z" fill="#C9EDE7"/>
<path d="M163.824 88.3033C163.572 88.5517 163.3 88.7907 163.039 89.0347C164.912 91.3364 167.068 94.4404 167.64 99.2445C167.934 99.1015 168.231 98.9697 168.525 98.8217C168.527 98.7928 168.526 98.7646 168.527 98.7351C168.796 95.3921 166.597 91.3276 163.824 88.3033Z" fill="#5986CD"/>
<path d="M167.643 99.2461C167.071 94.442 164.915 91.338 163.042 89.0363C161.595 87.2579 160.319 85.9549 160.083 84.7153C159.335 80.7556 158.259 76.6133 156.231 73.7791C151.365 76.2087 147.509 84.1087 147.509 84.1087C145.201 83.0943 141.425 83.0961 139.974 84.5133C139.119 81.0335 137.657 77.299 133.923 73.7791C131.088 76.8837 129.862 80.7236 127.242 86.1356C125.841 89.0275 123.387 92.2696 121.688 95.8648C123.023 98.1376 124.443 100.313 125.375 100.722C128.108 101.038 130.323 103.976 129.865 107.558C131.983 108.613 134.111 112.163 132.113 113.108C133.606 115.077 132.61 116.884 131.077 117.626C137.472 120.558 144.882 121.353 148.395 120.681C159.347 118.582 167.885 113.933 167.791 101.574C167.785 100.754 167.73 99.9826 167.643 99.2461Z" fill="#C4CFED"/>
<path d="M46.8279 94.6079C47.2206 95.2735 47.4166 95.941 47.5655 96.6091C47.705 97.2759 47.7634 97.9434 47.7653 98.6109C47.7634 99.2784 47.705 99.9452 47.5655 100.612C47.4166 101.28 47.2206 101.947 46.8279 102.615H46.5936C46.2003 101.947 46.0056 101.28 45.8573 100.612C45.7172 99.9452 45.6575 99.2784 45.6562 98.6109C45.6575 97.9434 45.7172 97.2759 45.8573 96.6091C46.0056 95.941 46.2003 95.2735 46.5936 94.6079H46.8279Z" fill="#231F20"/>
<path d="M67.6014 94.6079C67.994 95.2735 68.1888 95.941 68.3371 96.6091C68.4765 97.2759 68.5362 97.9434 68.5368 98.6109C68.5362 99.2784 68.4765 99.9452 68.3371 100.612C68.1888 101.28 67.994 101.947 67.6014 102.615H67.3652C66.9731 101.947 66.7777 101.28 66.6295 100.612C66.49 99.9452 66.4297 99.2784 66.4297 98.6109C66.4297 97.9434 66.49 97.2759 66.6295 96.6091C66.7777 95.941 66.9731 95.2735 67.3652 94.6079H67.6014Z" fill="#231F20"/>
<path d="M56.1132 106.348H53.3162C51.9259 106.348 51.9259 104.304 53.3162 104.304H60.8753C62.2983 104.304 62.2983 106.348 60.8753 106.348H58.2228V114.407C58.2228 115.793 56.1132 115.826 56.1132 114.407V106.348Z" fill="#231F20"/>
<path d="M46.7019 94.8255C44.9113 94.8255 42.9612 96.0871 42.9612 98.6071C42.9612 101.112 44.9113 102.39 46.7019 102.39C48.5401 102.39 50.5053 101.112 50.5053 98.6071C50.5053 96.0871 48.5401 94.8255 46.7019 94.8255ZM46.8771 104.352C43.9206 104.48 40.8516 102.517 40.8516 98.6071C40.8516 94.6825 43.9206 92.751 46.8771 92.751C49.6741 92.8952 52.5986 94.8255 52.5986 98.6071C52.5986 102.39 49.6741 104.352 46.8771 104.352Z" fill="#231F20"/>
<path d="M67.4603 94.8255C65.6698 94.8255 63.7197 96.0871 63.7197 98.6071C63.7197 101.112 65.6698 102.39 67.4603 102.39C69.2979 102.39 71.2631 101.112 71.2631 98.6071C71.2631 96.0871 69.2979 94.8255 67.4603 94.8255ZM67.6349 104.352C64.679 104.48 61.6094 102.517 61.6094 98.6071C61.6094 94.6825 64.679 92.751 67.6349 92.751C70.4319 92.8952 73.3571 94.8255 73.3571 98.6071C73.3571 102.39 70.4319 104.352 67.6349 104.352Z" fill="#231F20"/>
<path d="M94.4168 98.4744C93.7496 98.0823 93.0805 97.8872 92.4127 97.7385C91.7442 97.5999 91.0764 97.5403 90.4079 97.5403C89.7395 97.5403 89.0717 97.5999 88.4032 97.7385C87.7354 97.8872 87.0669 98.0823 86.3984 98.4744V98.7096C87.0669 99.1011 87.7354 99.2956 88.4032 99.4436C89.0717 99.5841 89.7395 99.6431 90.4079 99.6462C91.0764 99.6431 91.7442 99.5841 92.4127 99.4436C93.0805 99.2956 93.7496 99.1011 94.4168 98.7096V98.4744Z" fill="#231F20"/>
<path d="M115.207 98.4724C114.539 98.0803 113.871 97.8864 113.202 97.7384C112.534 97.5979 111.865 97.5395 111.198 97.5383C110.529 97.5395 109.86 97.5979 109.192 97.7384C108.524 97.8864 107.856 98.0803 107.188 98.4724V98.7089C107.856 99.0997 108.524 99.2954 109.192 99.4428C109.86 99.5821 110.529 99.6411 111.198 99.6423C111.865 99.6411 112.534 99.5821 113.202 99.4428C113.871 99.2954 114.539 99.0997 115.207 98.7089V98.4724Z" fill="#231F20"/>
<path d="M99.8238 106.332H97.0262C95.6371 106.332 95.6371 104.29 97.0262 104.29H104.586C106.009 104.29 106.009 106.332 104.586 106.332H101.933V114.39C101.933 115.778 99.8238 115.811 99.8238 114.39V106.332Z" fill="#231F20"/>
<path d="M90.4122 94.8098C88.6223 94.8098 86.6722 96.0701 86.6722 98.592C86.6722 101.096 88.6223 102.375 90.4122 102.375C92.2498 102.375 94.2156 101.096 94.2156 98.592C94.2156 96.0701 92.2498 94.8098 90.4122 94.8098ZM90.5887 104.336C87.6321 104.466 84.5625 102.501 84.5625 98.592C84.5625 94.6655 87.6321 92.7358 90.5887 92.7358C93.3844 92.8789 96.3096 94.8098 96.3096 98.592C96.3096 102.375 93.3844 104.336 90.5887 104.336Z" fill="#231F20"/>
<path d="M111.169 94.8098C109.379 94.8098 107.431 96.0701 107.431 98.592C107.431 101.096 109.379 102.375 111.169 102.375C113.008 102.375 114.975 101.096 114.975 98.592C114.975 96.0701 113.008 94.8098 111.169 94.8098ZM111.346 104.336C108.389 104.466 105.32 102.501 105.32 98.592C105.32 94.6655 108.389 92.7358 111.346 92.7358C114.142 92.8789 117.069 94.8098 117.069 98.592C117.069 102.375 114.142 104.336 111.346 104.336Z" fill="#231F20"/>
<path d="M122.776 111.433C122.37 113.53 123.919 116.091 125.993 116.091C126.275 116.091 126.567 116.043 126.864 115.941C127.36 117.39 128.451 117.983 129.569 117.983C130.086 117.983 130.61 117.855 131.083 117.625C127.84 116.138 124.858 114.104 122.776 111.433Z" fill="#FBC4E0"/>
<path d="M77.5919 109.11C81.3313 102.324 80.9719 97.5934 79.4258 94.3163C78.4225 96.7547 77.3651 99.705 76.1501 100.877C75.9378 100.832 75.7229 100.809 75.5087 100.809C73.6409 100.809 71.8403 102.525 72.5942 105.6C72.3134 105.497 72.0338 105.448 71.7567 105.448C69.1702 105.448 66.9267 109.628 68.2555 110.954C66.2576 111.668 66.9914 113.972 68.4195 113.972C68.569 113.972 68.7254 113.949 68.8869 113.893C68.4471 115.514 69.1696 116.822 70.2433 117.401C73.0987 115.408 75.6287 112.674 77.5919 109.11Z" fill="#C9CBD5"/>
<path d="M121.486 103.328C121.201 102.874 120.662 101.861 120.067 100.7C119.67 102.866 119.746 105.14 120.602 107.525C121.115 108.957 121.862 110.257 122.779 111.434C122.883 110.895 123.116 110.385 123.503 109.957C120.973 109.534 120.263 105.346 121.486 103.328Z" fill="#BCC6E9"/>
<path d="M132.11 113.106C134.108 112.16 131.98 108.61 129.862 107.555C130.32 103.973 128.105 101.036 125.371 100.72C124.44 100.311 123.019 98.1357 121.684 95.8629C120.954 97.4099 120.363 99.0202 120.055 100.698C120.65 101.859 121.188 102.873 121.473 103.326C120.249 105.344 120.96 109.532 123.489 109.955C123.102 110.383 122.869 110.892 122.766 111.431C124.848 114.103 127.831 116.137 131.074 117.624C132.607 116.882 133.603 115.075 132.11 113.106Z" fill="#C4AEDA"/>
<path d="M134.234 94.6196C134.626 95.2858 134.821 95.9539 134.971 96.6202C135.111 97.2883 135.17 97.9551 135.171 98.622C135.17 99.2895 135.111 99.9569 134.971 100.624C134.821 101.291 134.626 101.958 134.234 102.626H133.999C133.607 101.958 133.411 101.291 133.264 100.624C133.122 99.9569 133.063 99.2895 133.062 98.622C133.063 97.9551 133.122 97.2883 133.264 96.6202C133.411 95.9539 133.607 95.2858 133.999 94.6196H134.234Z" fill="#231F20"/>
<path d="M155.017 94.6196C155.409 95.2858 155.605 95.9539 155.753 96.6202C155.893 97.2883 155.952 97.9551 155.953 98.622C155.952 99.2895 155.893 99.9569 155.753 100.624C155.605 101.291 155.409 101.958 155.017 102.626H154.781C154.388 101.958 154.194 101.291 154.045 100.624C153.906 99.9569 153.847 99.2895 153.844 98.622C153.847 97.9551 153.906 97.2883 154.045 96.6202C154.194 95.9539 154.388 95.2858 154.781 94.6196H155.017Z" fill="#231F20"/>
<path d="M143.535 106.362H140.737C139.348 106.362 139.348 104.32 140.737 104.32H148.297C149.721 104.32 149.721 106.362 148.297 106.362H145.644V114.421C145.644 115.809 143.535 115.842 143.535 114.421V106.362Z" fill="#231F20"/>
<path d="M134.122 94.8411C132.333 94.8411 130.384 96.1014 130.384 98.6226C130.384 101.128 132.333 102.405 134.122 102.405C135.961 102.405 137.927 101.128 137.927 98.6226C137.927 96.1014 135.961 94.8411 134.122 94.8411ZM134.298 104.368C131.342 104.496 128.273 102.533 128.273 98.6226C128.273 94.6981 131.342 92.7665 134.298 92.7665C137.095 92.9102 140.02 94.8411 140.02 98.6226C140.02 102.405 137.095 104.368 134.298 104.368Z" fill="#231F20"/>
<path d="M154.881 94.8411C153.09 94.8411 151.142 96.1014 151.142 98.6226C151.142 101.128 153.09 102.405 154.881 102.405C156.721 102.405 158.686 101.128 158.686 98.6226C158.686 96.1014 156.721 94.8411 154.881 94.8411ZM155.057 104.368C152.102 104.496 149.031 102.533 149.031 98.6226C149.031 94.6981 152.102 92.7665 155.057 92.7665C157.854 92.9102 160.78 94.8411 160.78 98.6226C160.78 102.405 157.854 104.368 155.057 104.368Z" fill="#231F20"/>
<path d="M114.569 153.175C114.991 152.637 115.453 152.154 115.839 151.619C116.025 151.41 116.007 151.159 115.791 150.981C115.598 150.814 115.341 150.776 115.107 151.032L113.192 153.331L113.053 151.506C113.005 150.874 112.057 150.968 112.103 151.578C112.209 152.965 112.31 154.3 112.415 155.679C112.462 156.282 113.41 156.203 113.365 155.607L113.289 154.601L113.915 153.795L115.674 155.706C115.996 156.143 116.884 155.643 116.407 155.079L114.569 153.175Z" fill="#231F20"/>
<path d="M126.328 153.802H122.917C122.288 153.802 122.288 154.724 122.917 154.724H124.179V158.361C124.179 159.002 125.131 158.988 125.131 158.361V154.724H126.328C126.969 154.724 126.969 153.802 126.328 153.802Z" fill="#231F20"/>
<path d="M120.032 152.93C120.17 152.665 120.255 152.4 120.314 152.135C120.377 151.834 120.405 151.533 120.405 151.233C120.405 150.931 120.377 150.63 120.314 150.329C120.255 150.064 120.17 149.799 120.032 149.535C120.831 149.578 121.645 150.141 121.645 151.233C121.645 152.316 120.831 152.884 120.032 152.93ZM118.241 151.233C118.241 150.142 119.048 149.58 119.827 149.535C119.688 149.799 119.602 150.064 119.544 150.329C119.48 150.63 119.453 150.931 119.453 151.233C119.453 151.533 119.48 151.834 119.544 152.135C119.602 152.4 119.688 152.665 119.827 152.93C119.048 152.884 118.241 152.316 118.241 151.233ZM120.009 148.59C118.674 148.59 117.289 149.461 117.289 151.233C117.289 152.997 118.674 153.883 120.009 153.825C121.271 153.825 122.59 152.94 122.59 151.233C122.59 149.525 121.271 148.654 120.009 148.59Z" fill="#231F20"/>
<path d="M129.411 152.93C129.548 152.665 129.633 152.4 129.691 152.135C129.755 151.834 129.782 151.533 129.782 151.233C129.782 150.931 129.755 150.63 129.691 150.329C129.633 150.064 129.548 149.799 129.411 149.535C130.205 149.585 131.013 150.146 131.013 151.233C131.013 152.311 130.205 152.879 129.411 152.93ZM127.608 151.233C127.608 150.137 128.423 149.574 129.204 149.533C129.066 149.798 128.98 150.064 128.922 150.329C128.859 150.63 128.831 150.931 128.831 151.233C128.831 151.533 128.859 151.834 128.922 152.135C128.98 152.4 129.066 152.666 129.204 152.931C128.423 152.89 127.608 152.321 127.608 151.233ZM129.375 148.59C128.041 148.59 126.656 149.461 126.656 151.233C126.656 152.997 128.041 153.883 129.375 153.825C130.637 153.825 131.958 152.94 131.958 151.233C131.958 149.525 130.637 148.654 129.375 148.59Z" fill="#231F20"/>
<path d="M142.001 153.509L139.815 153.742L139.7 152.668L141.508 152.475C142.145 152.408 142.045 151.469 141.407 151.537L139.6 151.73L139.485 150.655L141.55 150.435C142.196 150.366 142.111 149.435 141.451 149.505L138.875 149.778C138.625 149.805 138.452 150.012 138.479 150.27L138.914 154.337C138.939 154.588 139.154 154.761 139.405 154.734L142.101 154.448C142.804 154.374 142.655 153.439 142.001 153.509Z" fill="#231F20"/>
<path d="M147.038 152.028L143.655 151.593C143.032 151.514 142.915 152.428 143.537 152.508L144.789 152.669L144.324 156.276C144.242 156.912 145.188 157.019 145.269 156.398L145.733 152.79L146.921 152.942C147.557 153.024 147.676 152.11 147.038 152.028Z" fill="#231F20"/>
<path d="M150.693 154.774C151.11 154.232 151.569 153.745 151.949 153.207C152.133 152.996 152.113 152.745 151.894 152.568C151.699 152.404 151.442 152.367 151.211 152.626L149.318 154.943L149.162 153.119C149.108 152.488 148.16 152.59 148.213 153.2C148.332 154.586 148.446 155.92 148.564 157.297C148.615 157.901 149.564 157.812 149.513 157.217L149.427 156.212L150.045 155.4L151.822 157.294C152.148 157.729 153.032 157.22 152.549 156.661L150.693 154.774Z" fill="#231F20"/>
<path d="M157.584 151.115C157.329 151.065 157.261 151.118 157.033 151.264L154.117 153.734L154.653 150.991C154.699 150.759 154.544 150.463 154.302 150.417C154.048 150.367 153.751 150.572 153.705 150.806L152.927 154.786C152.865 155.097 153.034 155.254 153.207 155.346C153.455 155.395 153.586 155.362 153.828 155.211L156.752 152.699L156.219 155.428C156.158 155.738 156.314 155.954 156.57 156.003C156.824 156.051 157.085 155.919 157.146 155.608L157.91 151.7C157.961 151.444 157.952 151.187 157.584 151.115Z" fill="#231F20"/>
<path d="M136.092 155.314L133.938 155.234L134.055 152.074L136.209 152.154L136.092 155.314ZM137.336 155.36L137.043 155.35L137.178 151.714C137.187 151.452 136.983 151.231 136.72 151.222L133.615 151.106C133.353 151.098 133.131 151.302 133.121 151.563L132.987 155.199L132.694 155.189C132.677 155.188 132.66 155.188 132.645 155.189C132.627 155.187 132.611 155.185 132.594 155.185C132.331 155.176 132.111 155.38 132.1 155.642L132.078 156.242C132.068 156.504 132.274 156.724 132.536 156.734C132.799 156.744 133.02 156.539 133.03 156.277L133.034 156.152L136.826 156.292L136.821 156.417C136.811 156.679 137.016 156.899 137.279 156.909C137.541 156.919 137.762 156.714 137.772 156.452L137.793 155.853C137.804 155.589 137.598 155.37 137.336 155.36Z" fill="#231F20"/>
<path d="M131.079 117.627C130.605 117.857 130.081 117.984 129.564 117.984C129.336 117.984 129.11 117.953 128.889 117.901C128.503 118.672 128.273 119.581 128.273 120.642C128.273 124.552 131.342 126.515 134.298 126.386C137.096 126.386 140.02 124.424 140.02 120.642C140.02 120.547 140.01 120.459 140.007 120.366C137.131 119.856 134 118.967 131.079 117.627Z" fill="#5986CD"/>
<path d="M160.413 118.508C160.191 117.897 159.877 117.363 159.492 116.903C159.406 116.953 159.321 117.002 159.235 117.049C156.323 118.69 152.835 119.785 149.035 120.555C149.035 120.584 149.031 120.612 149.031 120.642C149.031 124.552 152.102 126.515 155.056 126.386C157.854 126.386 160.779 124.424 160.779 120.642C160.779 119.848 160.643 119.14 160.413 118.508Z" fill="#5986CD"/>
<path d="M41.8913 117.178C41.657 117.505 41.4578 117.868 41.297 118.262C41.0168 118.949 40.8516 119.733 40.8516 120.626C40.8516 124.536 43.9206 126.498 46.8778 126.371C49.5007 126.371 52.2368 124.644 52.566 121.309C48.7889 120.74 45.1695 119.361 42.0767 117.299C42.0151 117.257 41.9523 117.219 41.8913 117.178Z" fill="#5EC9C0"/>
<path d="M71.492 117.723C71.0541 117.723 70.6244 117.609 70.2393 117.402C67.5893 119.252 64.656 120.451 61.6328 121.08C61.8634 124.684 64.7973 126.493 67.6351 126.371C70.4321 126.371 73.3573 124.408 73.3573 120.626C73.3573 119.385 73.0381 118.349 72.5167 117.505C72.1824 117.652 71.835 117.723 71.492 117.723Z" fill="#5EC9C0"/>
<path d="M87.379 115.574C85.76 116.486 84.5625 118.158 84.5625 120.61C84.5625 124.52 87.6328 126.484 90.5887 126.355C93.1231 126.355 95.7548 124.738 96.2266 121.62C94.139 120.972 92.29 119.945 90.9361 118.673C89.9699 117.764 88.692 116.708 87.379 115.574Z" fill="#F250A7"/>
<path d="M114.373 115.665C113.234 116.776 112.017 117.81 110.599 118.987C108.994 120.32 107.23 121.203 105.422 121.736C105.953 124.893 108.692 126.471 111.348 126.355C114.145 126.355 117.071 124.393 117.071 120.61C117.071 118.24 115.92 116.597 114.373 115.665Z" fill="#F250A7"/>
<path d="M93.1775 121.317C93.1775 121.317 72.6745 121.326 72.6745 121.335L67.6484 128.933C67.6484 128.942 67.6566 128.951 67.6673 128.951H100.803C100.814 128.951 100.822 128.942 100.822 128.931C100.812 124.724 97.3937 121.317 93.1775 121.317Z" fill="white"/>
<path d="M128.95 121.317H108.466C104.249 121.317 100.831 124.724 100.82 128.931C100.82 128.942 100.829 128.951 100.84 128.951H133.976C133.986 128.951 133.994 128.942 133.994 128.933C133.994 128.933 128.96 121.317 128.95 121.317Z" fill="white"/>
<path d="M134.737 131.209H66.9769C66.3757 131.209 65.8222 130.778 65.7701 130.181C65.7116 129.512 66.2387 128.951 66.8965 128.951H134.657C135.257 128.951 135.811 129.382 135.864 129.979C135.922 130.648 135.395 131.209 134.737 131.209Z" fill="#8659B2"/>
<path d="M108.736 22.4976C108.037 24.6255 106.372 27.0188 105.208 27.0527C104.175 27.0853 104.808 25.224 105.373 22.9631C105.906 20.7687 106.639 18.3422 107.105 16.6133C107.09 16.5317 107.049 16.4558 106.996 16.3837H110.602C110.025 18.361 109.367 20.5454 108.736 22.4976ZM105.059 29.9334C106.604 29.3794 107.95 28.1881 109.203 26.1882C108.812 27.8945 109.247 29.2935 110.188 29.9334H105.059ZM95.692 29.9334C96.9202 29.466 98.1083 28.5695 99.2272 27.2798C99.2737 28.4039 99.6877 29.4121 100.805 29.9334H95.692ZM86.8475 29.9334C86.9643 29.8637 87.046 29.7897 87.0604 29.7119C87.2602 28.6812 87.4933 27.6173 87.6925 26.5872C87.8256 25.7892 88.3251 24.958 89.1249 24.2265C89.5414 26.7246 90.0867 29.0526 91.93 29.9334H86.8475ZM74.2786 29.9334C75.4566 29.604 76.5523 29.0607 77.5034 28.2822C79.0251 28.4535 80.8093 28.466 82.5094 27.2685C82.3598 27.9372 82.2028 28.6335 82.0332 29.3794C81.9835 29.6084 82.069 29.7878 82.2329 29.9334H74.2786ZM57.0632 29.9334C58.1306 29.6222 59.134 29.0658 59.9557 28.2822C61.718 28.5338 63.9169 28.2496 65.7482 26.3595C66.0535 28.2778 67.2271 29.4026 68.8593 29.9334H57.0632ZM51.5987 29.2464C52.0699 29.5457 52.575 29.7728 53.099 29.9334H51.4165C51.4774 29.7031 51.5378 29.4717 51.5987 29.2464ZM45.0812 29.9334C45.5825 29.498 46.0613 29.0005 46.5318 28.429C46.3949 28.9378 46.2636 29.4334 46.1304 29.9334H45.0812ZM35.0681 29.9334C36.3089 29.5287 37.5993 28.6687 38.7792 27.0188C38.4475 28.0639 38.1151 29.03 37.769 29.9334H35.0681ZM40.8273 16.3837C40.3058 18.3403 39.6443 20.536 38.979 22.4976C38.313 24.426 36.8486 26.8199 35.6166 27.0527C34.6509 27.2515 34.884 25.9881 35.2503 24.5252C35.9156 21.8327 36.5483 19.2725 37.348 16.58C37.3242 16.5117 37.2839 16.4458 37.2324 16.3837H40.8273ZM49.9363 16.3837C49.2421 18.7242 48.5862 21.0077 47.9624 23.2322C45.9884 26.7083 44.7564 28.4554 42.408 29.4459C43.7072 24.7253 44.3725 22.2988 45.9708 16.6465C45.9369 16.5531 45.8646 16.4665 45.7754 16.3837H49.9363ZM57.1958 16.3837C56.1711 16.8441 55.2708 17.5273 54.4623 18.2092C54.5955 17.8767 54.9617 16.9458 55.0616 16.6465C55.0139 16.5505 54.9435 16.4646 54.8625 16.3837H57.1958ZM55.5611 26.8858C54.762 27.4184 53.2303 27.1857 52.3312 26.3212C52.9306 24.293 53.3302 22.6645 53.9295 20.7355C55.0949 19.7386 56.2936 19.3064 56.9263 19.4394C57.9912 19.6721 57.9912 21.5999 56.7931 24.3928C55.8941 24.1601 54.7952 25.7892 55.5611 26.8858ZM71.4339 16.3837C68.8568 17.3755 66.7729 19.5366 65.9838 22.8966C65.953 23.0258 65.9361 23.1444 65.9097 23.2699C64.9711 25.2246 63.3577 26.6192 61.2537 26.5539C63.4771 23.5653 64.258 18.1195 61.7004 16.3837H71.4339ZM73.4751 26.7196C73.1415 27.0527 72.7093 27.2515 72.2758 27.2515C70.3451 27.2515 70.9778 24.7585 71.5105 22.7975C72.1426 20.5027 73.0755 18.8742 74.2736 18.8409C75.9385 18.8077 75.7054 21.5673 74.807 24.293C73.6749 24.3263 72.9423 25.7227 73.4751 26.7196ZM85.2385 16.3837C84.4406 18.8485 83.8871 21.1426 83.2042 24.1688C82.0533 25.9078 80.5034 26.6907 79.1677 26.5201C81.6116 22.5252 81.4514 18.016 78.0337 16.3837H85.2385ZM92.9585 16.3837C91.6467 17.5003 90.4511 18.8779 89.5571 20.0379C90.3676 17.0913 89.7739 18.7876 90.6308 16.3837H92.9585ZM101.99 16.3837C101.332 18.6853 100.516 21.1495 99.8843 23.5083C98.3181 26.2704 96.7575 27.3155 95.3509 27.2515C93.7859 27.1857 93.2531 24.426 93.2531 21.7003C94.585 20.0711 96.5489 18.6082 97.3814 17.9432C97.7671 17.6377 97.6496 16.9991 97.2959 16.3837H101.99ZM36.2819 35.1308C35.8496 36.1947 35.1837 36.6263 34.6509 36.6935C33.3523 36.8265 33.5528 35.3635 34.3846 34.5323C34.9167 34.0003 35.7498 33.5349 36.8153 33.2356C36.6482 33.9006 36.4823 34.5656 36.2819 35.1308ZM180.191 16.07H115.068C113.745 15.4094 111.163 15.4496 110.701 16.0487C110.698 16.0556 110.697 16.0631 110.694 16.07H106.608C105.432 15.437 102.575 15.4088 102.09 16.07H97.093C96.5213 15.2752 95.6059 14.6309 94.9507 14.9841C94.4028 15.2758 93.8606 15.6497 93.3335 16.07H90.7426C90.8507 15.767 90.977 15.4101 91.1271 14.9866C91.4934 13.9565 86.2324 13.5576 85.8994 14.4553C85.699 15.0092 85.5137 15.5443 85.3403 16.07H77.2126C76.5661 15.8743 75.8367 15.7576 75.0061 15.7488C74.1222 15.7419 73.2539 15.8536 72.4215 16.07H61.0979C60.8045 15.9571 60.4816 15.8787 60.1222 15.8486C59.3777 15.7858 58.6948 15.8837 58.054 16.07H54.412C53.0418 15.3812 50.226 15.5569 50.0343 16.0487C50.0325 16.0556 50.0306 16.0631 50.0281 16.07H45.2785C44.0571 15.5155 41.6403 15.3869 40.9253 16.07H36.8146C35.6279 15.454 32.9226 15.3994 32.3534 16.0487C32.3515 16.0556 32.3497 16.0631 32.3471 16.07H21.4922V16.3837H32.2504C31.3865 19.1521 30.5271 22.1426 29.7895 24.8909C29.2304 26.9674 29.231 29.1454 31.215 29.9334H21.4922V30.247H37.6439C37.5786 30.4126 37.5145 30.5808 37.4479 30.7426C33.7852 31.4408 30.1558 32.2056 29.6237 35.9287C29.2907 38.3553 31.2219 39.8514 33.9517 39.8514C38.8458 39.8514 39.9446 37.4908 41.7427 31.9057C42.8679 31.4703 43.8247 30.9396 44.7017 30.247H46.0462C45.227 33.3285 44.4787 36.2418 43.8084 38.9205C43.875 39.9844 48.5027 40.0177 49.1026 39.1532C49.9847 35.7148 50.6595 32.8241 51.3329 30.247H70.3992C70.7585 30.2859 71.1279 30.3104 71.5105 30.3104C71.8844 30.3104 72.2525 30.2847 72.6182 30.247H82.9027C83.725 30.4578 84.9514 30.4195 85.8642 30.247H92.971C93.2261 30.2865 93.4925 30.3129 93.7859 30.3104C94.0253 30.3079 94.2634 30.2822 94.5008 30.247H101.918C102.182 30.2847 102.463 30.3104 102.777 30.3104C103.11 30.3104 103.435 30.2891 103.752 30.247H110.915C111.069 30.2828 111.23 30.3073 111.4 30.3104C111.674 30.3154 111.942 30.2884 112.207 30.247H180.191V29.9334H113.351C115.902 28.9133 117.926 26.0251 119.024 23.9938C119.224 23.6613 117.859 22.7304 117.593 23.2291C116.461 25.5226 114.596 27.2515 113.697 27.2848C112.299 27.3513 114.896 20.1044 115.728 16.6133C115.678 16.5311 115.611 16.4558 115.534 16.3837H180.191V16.07Z" fill="white"/>
<path d="M86.3248 44.1092C86.2261 44.16 86.1526 44.2152 86.1281 44.2767C85.4018 46.7195 84.7183 49.0996 84.0681 51.417C84.0668 51.4195 84.0637 51.4214 84.0624 51.4245C83.0296 53.5518 81.0656 55.1477 79.4674 54.7155C82.0646 50.7928 81.7316 44.9084 77.1705 44.6757C75.7054 44.6086 73.8081 45.207 72.2764 46.6374C72.4762 45.6832 72.7683 44.8463 73.1729 44.1092H86.3248ZM164.241 44.5427C163.367 46.9128 162.53 49.2646 161.857 51.6252C161.167 53.1697 159.536 54.8453 157.75 54.782C159.347 51.0255 157.816 47.6009 154.886 47.4679C153.422 47.4021 152.09 48.1662 151.39 48.8644C151.823 47.5344 152.256 45.9718 152.622 44.7416C152.703 44.4624 152.147 44.2384 151.382 44.1092H165.148C164.662 44.2077 164.31 44.3507 164.241 44.5427ZM154.984 57.6589C155.541 57.3684 156.066 57.0077 156.551 56.5441C158.041 56.6502 159.599 56.4657 161.052 55.2876C161 56.2738 161.22 57.0981 161.808 57.6589H154.984ZM142.425 57.6589C143.745 56.9425 144.821 55.8378 145.695 54.6559C145.888 55.9544 146.396 56.987 147.351 57.6589H142.425ZM132.721 44.1092H138.523C136.909 44.4342 135.381 45.3595 134.308 46.4046C134.333 45.1681 133.754 44.3972 132.721 44.1092ZM132.101 57.6589C132.703 55.0536 133.628 51.0544 134.274 48.8311C135.007 48.1662 135.739 47.6348 136.471 47.6009C137.337 47.5677 137.437 48.1662 137.237 48.9974C136.905 50.427 136.206 53.1534 135.972 54.1835C135.633 55.6709 135.754 56.9011 136.538 57.6589H132.101ZM111.746 57.6589C112.405 57.3546 113.028 56.9764 113.597 56.5103C115.157 56.6859 116.991 56.6941 118.728 55.4055C118.537 56.1301 118.345 56.8572 118.16 57.5742C118.161 57.605 118.178 57.63 118.185 57.6589H111.746ZM94.4154 57.6589C95.0066 57.3572 95.5613 56.9764 96.0495 56.5103C97.8117 56.7618 100.011 56.4783 101.842 54.5888C102.072 56.0354 102.798 57.0291 103.84 57.6589H94.4154ZM90.556 46.4372C90.6892 46.1047 91.0555 45.1744 91.1554 44.8746C90.9789 44.522 90.5554 44.2748 90.0289 44.1092H95.0751C93.2613 44.3263 91.8019 45.3871 90.556 46.4372ZM92.8869 52.6208C91.9878 52.3887 90.889 54.0173 91.6549 55.1138C90.8557 55.6464 89.324 55.4137 88.425 54.5492C89.0244 52.5217 89.4239 50.8925 90.0233 48.9641C91.1887 47.9667 92.3874 47.5344 93.02 47.6674C94.0856 47.9002 94.0856 49.8286 92.8869 52.6208ZM102.078 51.1246C102.047 51.2545 102.03 51.3724 102.003 51.4979C101.065 53.4527 99.4521 54.8472 97.3481 54.782C99.8956 51.358 100.549 44.7064 96.456 44.1092H109.406C105.996 44.6581 103.051 46.9792 102.078 51.1246ZM110.9 52.5217C109.768 52.5543 109.035 53.9508 109.569 54.9482C109.236 55.2807 108.803 55.4796 108.37 55.4796C106.44 55.4796 107.072 52.9866 107.604 51.0255C108.237 48.7314 109.169 47.1022 110.368 47.069C112.032 47.0363 111.8 49.7953 110.9 52.5217ZM121.922 44.2428C121.149 46.6712 120.429 49.1498 119.747 51.6234C118.577 53.9031 116.781 54.9426 115.262 54.7481C118.05 50.1887 117.442 44.9643 112.473 44.1092H122.14C122.057 44.1494 121.983 44.1939 121.922 44.2428ZM126.384 46.4705C126.484 46.1386 126.783 45.1744 126.916 44.8413C126.752 44.5233 126.334 44.2792 125.807 44.1092H130.748C129.163 44.4793 127.432 45.6173 126.384 46.4705ZM128.847 48.7314C128.085 51.7407 127.357 54.5862 126.694 57.6589H123.562C124.245 54.6791 124.871 52.0932 125.785 49.0306C126.65 48.1994 127.516 47.7339 128.181 47.6674C128.881 47.6009 129.014 48.0997 128.847 48.7314ZM147.562 44.6757C146.748 47.1129 146.091 49.4221 145.793 51.4264C144.528 54.0511 142.797 55.4137 141.965 55.4137C140.234 55.4137 142.131 50.826 142.764 48.3989C143.354 46.1825 142.847 44.5621 140.915 44.1092H148.549C148.035 44.2165 147.654 44.3997 147.562 44.6757ZM154.054 52.5217C152.556 52.8874 152.389 53.984 152.722 54.9482C152.256 55.3472 151.99 55.5128 151.157 55.4796C150.258 55.4469 149.759 54.4162 150.158 52.6873C150.791 50.9916 152.022 50.2269 153.055 50.2941C153.887 50.3599 154.32 51.3241 154.054 52.5217ZM87.6441 57.6589C87.6598 57.5981 87.6761 57.5347 87.6925 57.4745C87.798 57.5416 87.9073 57.5993 88.0154 57.6589H87.6441ZM75.7393 57.6589C76.475 57.3609 77.1554 56.9732 77.7692 56.5103C79.2513 56.6652 81.1869 56.6941 82.9737 55.3773C82.7644 56.1483 82.559 56.908 82.358 57.6589H75.7393ZM58.1382 57.6589C58.7972 57.3546 59.4198 56.9764 59.9896 56.5103C61.9529 56.7317 64.3516 56.6916 66.4437 54.1208C66.7283 55.7361 67.4508 56.9563 68.7783 57.6589H58.1382ZM46.0914 57.6589C46.8447 56.9124 47.559 56.0034 48.2985 54.8761C48.5762 56.164 49.2622 57.073 50.2316 57.6589H46.0914ZM36.9761 57.6589C37.9757 57.0378 38.7007 56.1307 39.2787 55.181C38.9953 56.0304 38.7101 56.839 38.4173 57.6589H36.9761ZM35.7165 51.2576C36.6482 48.9974 38.3796 47.2352 40.4101 47.1361C42.1089 47.0363 44.2726 47.5012 45.6378 48.6316C46.2705 48.7979 47.8015 46.803 47.5352 46.1719C46.1681 44.9743 44.3681 44.3564 42.6222 44.1092H55.7986C52.3884 44.6581 49.4432 46.9792 48.47 51.1246C48.4361 51.267 48.4166 51.3969 48.3883 51.5343C46.5092 54.9438 45.1522 56.7047 42.9081 57.6589H42.8785C43.6079 55.0731 43.9755 53.0135 45.0052 49.7288C44.7388 48.9309 41.2099 48.0332 40.4101 48.8311C39.9446 50.0281 39.3113 51.4904 38.8791 52.3548C37.6471 54.8485 36.182 55.6797 35.4834 55.2142C34.9167 54.8152 34.8174 53.4188 35.7165 51.2576ZM57.2926 52.5217C56.1604 52.5543 55.4279 53.9508 55.9607 54.9482C55.6277 55.2807 55.1948 55.4796 54.762 55.4796C52.8313 55.4796 53.464 52.9866 53.9961 51.0255C54.6288 48.7314 55.5611 47.1022 56.7598 47.069C58.424 47.0363 58.191 49.7953 57.2926 52.5217ZM66.4167 50.3273C66.3777 50.6742 66.3507 51.0098 66.33 51.3392C66.2973 51.3599 66.2678 51.3862 66.2483 51.4245C65.0829 53.851 63.2182 54.9482 61.6539 54.7481C64.4427 50.1887 63.8346 44.9643 58.8651 44.1092H68.2147C67.2479 45.9322 66.668 48.0369 66.4167 50.3273ZM73.7408 54.8811C73.4085 55.2142 72.975 55.4137 72.5428 55.3798C70.7114 55.3139 71.111 52.1886 71.6104 50.5927C72.2764 48.4654 73.641 47.7339 74.6738 47.7678C76.1383 47.8337 76.2382 49.3963 75.1733 52.5217C74.1071 52.3216 73.2414 53.8843 73.7408 54.8811ZM36.7481 63.3588C35.8164 65.6862 33.6853 65.1875 34.3513 63.4918C34.6509 62.7271 35.6832 61.8959 37.2808 61.4643C37.1143 62.1286 36.9485 62.7942 36.7481 63.3588ZM75.5056 41.7166C77.5368 40.5535 79.9002 40.7191 80.9658 38.8246C81.9647 37.0292 80.2332 34.602 79.7338 35.1008C77.1366 37.5612 74.807 37.9601 72.2764 39.6226C70.6096 40.711 69.3343 42.1306 68.3925 43.7956H21.4922V44.1092H38.886C38.8835 44.1092 38.881 44.1098 38.8791 44.1098C36.6149 44.443 33.8185 45.872 31.9872 48.2659C29.488 51.3793 28.9847 55.8453 31.2929 57.6589H21.4922V57.9726H31.7717C32.3804 58.3051 33.135 58.4895 34.051 58.4719C34.9556 58.4606 35.7221 58.2749 36.3843 57.9726H38.3055C38.188 58.3013 38.0686 58.6325 37.9474 58.9706C34.2847 59.6689 30.622 60.4336 30.0898 64.1574C29.7562 66.5839 31.6881 68.0795 34.4172 68.0795C39.8108 68.0795 40.8097 64.456 42.2088 60.1337C43.5985 59.5961 44.7275 58.9223 45.7647 57.9726H50.8523C51.7551 58.3603 52.8282 58.5384 53.9961 58.5384C55.1735 58.5384 56.3112 58.3477 57.3698 57.9726H69.5184C70.1347 58.1821 70.8477 58.3094 71.677 58.3389C72.7884 58.386 73.837 58.2505 74.8095 57.9726H82.2744C81.4024 61.241 80.6089 64.3255 79.9021 67.1485C79.9687 68.2125 84.5971 68.2457 85.1964 67.3813C86.1369 63.7164 86.8418 60.6764 87.5605 57.9726H88.6625C90.2582 58.6231 92.0909 58.5942 93.7174 57.9726H104.46C105.363 58.3603 106.436 58.5384 107.604 58.5384C108.781 58.5384 109.919 58.3477 110.977 57.9726H118.371C119.246 58.7768 122.638 58.6501 123.402 57.9726H126.886C127.821 58.8006 131.333 58.6181 131.977 57.9726H136.956C137.564 58.3433 138.426 58.5296 139.601 58.4719C140.385 58.4311 141.105 58.2498 141.771 57.9726H147.893C148.617 58.3276 149.536 58.5271 150.691 58.5384C152.026 58.5572 153.219 58.3866 154.29 57.9726H162.226C162.84 58.3396 163.71 58.5171 164.907 58.4387C165.549 58.3941 166.163 58.2273 166.749 57.9726H180.191V57.6589H167.374C169.527 56.4494 171.217 54.0844 172.199 52.2218C172.365 51.89 171 50.9584 170.767 51.4245C169.701 53.718 167.904 55.3798 167.071 55.4137C166.239 55.4469 166.339 54.4162 166.805 52.9533C167.538 50.5927 168.77 47.1022 169.635 44.7754C169.757 44.4618 169.33 44.2416 168.673 44.1092H180.191V43.7956H73.3482C73.8722 42.953 74.5708 42.2598 75.5056 41.7166Z" fill="white"/>
<path d="M111.411 106.028L111.384 106.028C109.242 106.118 107.189 105.385 105.746 104.005C104.345 102.666 103.604 100.801 103.604 98.614C103.604 93.4122 107.651 91.0422 111.379 91.0415C114.951 91.2235 118.794 93.6713 118.794 98.614C118.794 103.481 115.08 106.028 111.411 106.028ZM90.6576 106.028L90.6299 106.028C88.4876 106.118 86.4363 105.385 84.9926 104.005C83.591 102.665 82.8503 100.801 82.8503 98.614C82.8503 93.4122 86.8975 91.0422 90.6261 91.0415C94.1959 91.2235 98.0383 93.6713 98.0383 98.614C98.0383 103.481 94.3253 106.028 90.6576 106.028ZM111.411 89.7875C107.231 89.7875 103.009 92.4029 102.423 97.4108C101.97 97.094 101.421 96.9052 100.827 96.9052C100.228 96.9052 99.6768 97.0978 99.2213 97.4184C98.6483 92.4593 94.5332 89.9851 90.6576 89.7875C86.153 89.7875 81.5938 92.8194 81.5938 98.614C81.5938 101.152 82.4683 103.329 84.1237 104.912C85.7189 106.436 87.9385 107.291 90.2687 107.291C90.4025 107.291 90.5369 107.289 90.672 107.282C94.6784 107.276 98.725 104.675 99.2382 99.6949H99.2898C99.2898 98.8487 99.9789 98.1599 100.827 98.1599C101.675 98.1599 102.364 98.8487 102.364 99.6949H102.408C102.624 101.77 103.463 103.559 104.878 104.912C106.473 106.436 108.693 107.291 111.022 107.291C111.156 107.291 111.291 107.289 111.425 107.282C115.714 107.276 120.051 104.298 120.051 98.614C120.051 92.852 115.589 90.0002 111.411 89.7875Z" fill="#F250A7"/>
<path d="M94.6696 173.318H129.083C126.134 173.318 126.134 183.815 129.083 183.815H94.6696C91.7206 183.815 90.5859 181.465 90.5859 178.566C90.5859 175.668 91.7206 173.318 94.6696 173.318Z" fill="white"/>
<path d="M126.556 178.566C126.556 180.095 126.797 181.626 127.304 182.694H94.6666C92.7015 182.694 91.7051 181.306 91.7051 178.566C91.7051 175.826 92.7015 174.437 94.6666 174.437H127.304C126.797 175.506 126.556 177.037 126.556 178.566ZM129.08 182.694H128.007C127.465 181.754 127.179 180.13 127.179 178.566C127.179 177.001 127.465 175.378 128.007 174.437H129.08C129.699 174.437 130.202 173.936 130.202 173.317C130.202 172.698 129.699 172.197 129.08 172.197H94.6666C91.4066 172.197 89.4609 174.578 89.4609 178.566C89.4609 182.554 91.4066 184.935 94.6666 184.935H129.08C129.699 184.935 130.202 184.434 130.202 183.815C130.202 183.196 129.699 182.694 129.08 182.694Z" fill="#5986CD"/>
<path d="M91.3805 164.239H125.794C122.845 164.239 122.845 171.065 125.794 171.065H91.3805C88.4315 171.065 87.2969 169.536 87.2969 167.651C87.2969 165.767 88.4315 164.239 91.3805 164.239Z" fill="white"/>
<path d="M123.765 169.937H91.3942C88.4414 169.937 88.4414 168.218 88.4414 167.653C88.4414 167.089 88.4414 165.37 91.3942 165.37H123.765C123.441 166.039 123.281 166.858 123.281 167.653C123.281 168.449 123.441 169.268 123.765 169.937ZM125.807 169.937H124.486C124.106 169.342 123.909 168.496 123.909 167.653C123.909 166.811 124.106 165.966 124.486 165.37H125.807C126.432 165.37 126.938 164.865 126.938 164.241C126.938 163.618 126.432 163.112 125.807 163.112H91.3942C87.5499 163.112 86.1797 165.458 86.1797 167.653C86.1797 169.849 87.5499 172.196 91.3942 172.196H125.807C126.432 172.196 126.938 171.69 126.938 171.066C126.938 170.443 126.432 169.937 125.807 169.937Z" fill="#8659B2"/>
<path d="M59.0316 172.69C59.0837 172.69 59.1353 172.693 59.1874 172.693C62.3086 172.693 65.3298 172.067 68.167 170.831L68.1482 170.789L69.2539 170.308L67.4037 166.063C67.2479 166.143 67.0971 166.236 66.94 166.312C66.5273 166.509 66.1089 166.692 65.6854 166.856C65.5227 166.92 65.3556 166.97 65.1916 167.029L66.08 169.067C63.8798 169.872 61.5672 170.283 59.1874 170.283C48.1163 170.283 39.1097 161.289 39.1097 150.234C39.1097 142.659 43.3812 135.778 50.0828 132.371L50.973 134.412C51.1319 134.33 51.2852 134.234 51.4461 134.157C51.8588 133.96 52.2772 133.778 52.7013 133.613C52.8603 133.551 53.0236 133.501 53.1838 133.444L51.311 129.149L49.0977 130.11L49.1196 130.16C41.5373 133.953 36.6953 141.7 36.6953 150.234C36.6953 161.75 45.4217 171.264 56.6172 172.543V180.924H43.0382V185.001H57.8354H72.6308V180.924H59.0316V172.69Z" fill="#5986CD"/>
<path d="M71.3825 137.19C66.1969 132.362 58.9003 131.207 52.7077 133.614C52.2836 133.779 51.8652 133.961 51.4524 134.158C49.5055 135.093 47.6967 136.398 46.1349 138.07C39.4069 145.276 39.8008 156.562 47.0169 163.282C52.2019 168.109 59.4984 169.264 65.6918 166.857C66.1152 166.693 66.5336 166.51 66.9464 166.313C68.8933 165.378 70.7021 164.074 72.2639 162.401C78.9925 155.196 78.598 143.909 71.3825 137.19Z" fill="#C4CFED"/>
</svg>
