<svg width="691" height="749" viewBox="0 0 691 749" fill="none" xmlns="http://www.w3.org/2000/svg">
<path d="M48.1149 679.515C48.173 679.486 48.2323 679.462 48.2904 679.434C51.7661 677.739 54.7963 675.413 57.2962 672.519L57.2524 672.483L58.2269 671.356L53.9012 667.716C53.7702 667.888 53.6522 668.072 53.5178 668.241C53.1633 668.68 52.7948 669.107 52.411 669.517C52.2639 669.676 52.1046 669.821 51.9535 669.975L54.0302 671.722C52.0098 673.798 49.6538 675.503 47.0037 676.796C34.6752 682.809 19.8458 677.859 13.9457 665.762C9.90243 657.473 10.9865 647.623 16.6308 640.255L18.7116 642.005C18.8448 641.829 18.9646 641.641 19.1025 641.469C19.4567 641.029 19.8255 640.602 20.2097 640.192C20.3536 640.037 20.509 639.894 20.6569 639.745L16.2789 636.062L14.3275 638.316L14.3784 638.359C7.95948 646.628 6.7019 657.734 11.2571 667.074C17.4033 679.675 32.1986 685.347 45.348 680.665L49.8211 689.836L34.6998 697.212L36.8757 701.673L53.3536 693.636L69.8293 685.6L67.6534 681.139L52.5097 688.525L48.1149 679.515Z" fill="#5986CD"/>
<path d="M42.9063 633.963C34.555 631.496 25.8134 634.195 20.2017 640.192C19.8175 640.603 19.4487 641.029 19.0945 641.47C17.4253 643.55 16.1075 645.96 15.2609 648.639C11.6145 660.178 18.0768 672.314 29.6987 675.748C38.049 678.214 46.7909 675.515 52.403 669.518C52.7868 669.108 53.1553 668.681 53.5098 668.241C55.1787 666.16 56.4968 663.751 57.343 661.071C60.9905 649.533 54.5271 637.396 42.9063 633.963Z" fill="#C4CFED"/>
<path d="M613.828 417.912C612.732 417.424 612.239 416.137 612.728 415.039L615.545 408.711C615.003 408.09 613.043 406.368 606.38 403.401C599.716 400.434 597.124 400.129 596.299 400.142L593.482 406.47C592.993 407.568 591.707 408.063 590.611 407.575C589.514 407.086 589.022 405.8 589.51 404.702L592.572 397.826C593.981 394.661 598.493 395.124 608.151 399.424C617.806 403.722 621.17 406.767 619.761 409.932L616.7 416.807C616.211 417.905 614.924 418.4 613.828 417.912Z" fill="#5EC9C0"/>
<path d="M615.418 462.893C614.974 463.889 613.808 464.338 612.815 463.895L557.106 439.092C556.111 438.649 555.664 437.483 556.108 436.486L574.051 396.185C574.495 395.189 575.661 394.739 576.656 395.182L632.364 419.985C633.358 420.428 633.805 421.595 633.361 422.592L615.418 462.893Z" fill="#5EC9C0"/>
<path d="M627.079 438.042C626.969 438.29 626.768 438.469 626.535 438.56C626.3 438.649 617.374 440.355 594.467 430.156C571.561 419.957 566.856 412.183 566.765 411.948C566.675 411.714 566.675 411.445 566.785 411.197L570.013 403.947L573.97 395.061C574.08 394.814 574.28 394.635 574.514 394.544C574.749 394.454 575.017 394.453 575.264 394.563L604.516 407.587L633.766 420.61C634.014 420.72 634.193 420.92 634.284 421.155C634.372 421.39 634.374 421.658 634.264 421.906L630.307 430.791L627.079 438.042Z" fill="#C9EDE7"/>
<path d="M596.37 436.584C596.197 436.971 595.735 437.14 595.337 436.963L588.815 434.059C588.416 433.882 588.233 433.425 588.405 433.038L591.597 425.869C591.77 425.482 592.232 425.313 592.63 425.49L599.152 428.394C599.55 428.571 599.734 429.028 599.562 429.415L596.37 436.584Z" fill="#F250A7"/>
<path d="M576.688 39.6595L635.805 19.3038C630.739 21.0482 637.004 39.2423 642.07 37.498L582.953 57.8537C577.887 59.598 574.535 56.1952 572.805 51.1721C571.075 46.1479 571.622 41.4039 576.688 39.6595Z" fill="white"/>
<path d="M634.604 29.8933C635.516 32.5429 636.844 35.0531 638.353 36.6059L582.286 55.9114C578.91 57.0738 576.369 55.256 574.734 50.508C573.099 45.7599 573.982 42.7623 577.358 41.5999L633.425 22.2944C633.192 24.4469 633.691 27.2426 634.604 29.8933ZM641.403 35.5557L639.56 36.1901C638.068 34.881 636.608 32.2352 635.674 29.5246C634.741 26.813 634.263 23.8301 634.633 21.8785L636.475 21.2442C637.539 20.8778 638.103 19.7117 637.734 18.6397C637.365 17.5666 636.202 16.9952 635.138 17.3616L576.021 37.7173C570.421 39.6456 568.499 44.9237 570.879 51.8354C573.259 58.7471 578.022 61.7223 583.622 59.794L642.74 39.4383C643.804 39.0719 644.368 37.907 643.999 36.8339C643.63 35.7618 642.467 35.1893 641.403 35.5557Z" fill="#5986CD"/>
<path d="M565.629 25.8709L624.747 5.51519C619.681 7.25956 623.754 19.0889 628.82 17.3445L569.703 37.7002C564.637 39.4446 561.776 37.4672 560.651 34.2C559.526 30.9349 560.563 27.6152 565.629 25.8709Z" fill="white"/>
<path d="M624.641 16.5973L569.032 35.7449C563.959 37.4915 562.934 34.5124 562.596 33.5328C562.259 32.5543 561.234 29.5763 566.307 27.8297L621.915 8.68212C621.757 10.0329 621.972 11.5472 622.446 12.9248C622.921 14.3045 623.684 15.629 624.641 16.5973ZM628.149 15.3892L625.878 16.1711C624.871 15.3638 624.028 14.0134 623.526 12.5532C623.023 11.0941 622.856 9.51214 623.153 8.25588L625.424 7.474C626.497 7.10461 627.065 5.92876 626.693 4.84802C626.32 3.76729 625.149 3.19048 624.076 3.55987L564.959 23.9156C558.355 26.1895 557.401 31.0652 558.711 34.8706C560.021 38.676 563.776 41.933 570.38 39.659L629.497 19.3033C630.57 18.934 631.138 17.7581 630.766 16.6774C630.394 15.5966 629.222 15.0198 628.149 15.3892Z" fill="#8659B2"/>
<path d="M615 584C626.554 592.769 638.043 601.257 648.277 611.618C657.784 621.243 665.547 638.212 662.675 651.988C661.245 658.849 654.53 669.129 646.417 668.551C641.183 668.178 652.08 660.038 652.684 659.72C659.263 656.255 665.396 656.631 669.626 663.096C675.332 671.815 677.872 681.354 679.693 691.605C684.152 716.697 680.556 723.979 668.156 744.455" stroke="#58BFC3" stroke-width="3" stroke-linecap="round" stroke-dasharray="6 6"/>
</svg>
