<svg width="1400" height="277" viewBox="0 0 1400 277" fill="none" xmlns="http://www.w3.org/2000/svg">
<path d="M756.739 202.82H388.799C386.39 202.82 384.438 200.868 384.438 198.461C384.438 196.053 386.39 194.101 388.799 194.101H756.739C759.148 194.101 761.101 196.053 761.101 198.461C761.101 200.868 759.148 202.82 756.739 202.82Z" fill="#5885CC"/>
<path d="M394.836 62.7016L397.62 106.823L403.677 202.845C403.677 221.802 419.051 237.169 438.015 237.169H706.391C725.356 237.169 740.731 221.802 740.731 202.845L746.788 106.823L749.531 62.7016" fill="white"/>
<path d="M706.392 241.526H438.016C416.724 241.526 399.393 224.25 399.317 202.984L390.484 62.9733L399.189 62.4248L408.039 202.706V202.842C408.039 219.366 421.486 232.808 438.016 232.808H706.392C722.922 232.808 736.37 219.366 736.37 202.842L736.379 202.568L742.436 106.546L745.179 62.4284L753.885 62.9697L751.141 107.091L745.092 202.984C745.016 224.25 727.685 241.526 706.392 241.526Z" fill="#5885CC"/>
<path d="M479.562 276.96C459.46 277.831 438.602 264.474 438.602 237.862C438.602 211.147 459.46 198.007 479.562 198.007C498.579 198.982 518.459 212.122 518.459 237.862C518.459 263.603 498.579 276.96 479.562 276.96Z" fill="#5EC8BF"/>
<path d="M478.308 211.761C466.142 211.761 452.883 220.345 452.883 237.501C452.883 254.552 466.142 263.242 478.308 263.242C490.805 263.242 504.173 254.552 504.173 237.501C504.173 220.345 490.805 211.761 478.308 211.761Z" fill="#C9EBE6"/>
<path d="M492.86 237.503C492.86 245.417 486.443 251.833 478.524 251.833C470.606 251.833 464.188 245.417 464.188 237.503C464.188 229.589 470.606 223.172 478.524 223.172C486.443 223.172 492.86 229.589 492.86 237.503Z" fill="#66C67E"/>
<path d="M666.906 276.96C646.804 277.831 625.945 264.474 625.945 237.862C625.945 211.147 646.804 198.007 666.906 198.007C685.924 198.982 705.803 212.122 705.803 237.862C705.803 263.603 685.924 276.96 666.906 276.96Z" fill="#66C67E"/>
<path d="M665.652 211.761C653.486 211.761 640.227 220.345 640.227 237.501C640.227 254.552 653.486 263.242 665.652 263.242C678.149 263.242 691.517 254.552 691.517 237.501C691.517 220.345 678.149 211.761 665.652 211.761Z" fill="#D5EBEA"/>
<path d="M680.212 237.503C680.212 245.417 673.793 251.833 665.876 251.833C657.958 251.833 651.539 245.417 651.539 237.503C651.539 229.589 657.958 223.172 665.876 223.172C673.793 223.172 680.212 229.589 680.212 237.503Z" fill="#5EC8BF"/>
<path d="M393.161 211.89H384.438V184.315H393.161V211.89Z" fill="#5885CC"/>
<path d="M761.106 211.89H752.383V184.315H761.106V211.89Z" fill="#5885CC"/>
<path d="M714.334 175.113C714.334 179.804 710.529 183.608 705.837 183.608H650.608C645.914 183.608 642.109 179.804 642.109 175.113V119.906C642.109 115.216 645.914 111.412 650.608 111.412H705.837C710.529 111.412 714.334 115.216 714.334 119.906V175.113Z" fill="white"/>
<path d="M650.602 115.773C648.32 115.773 646.464 117.628 646.464 119.908V175.115C646.464 177.394 648.32 179.25 650.602 179.25H705.83C708.111 179.25 709.967 177.394 709.967 175.115V119.908C709.967 117.628 708.111 115.773 705.83 115.773H650.602ZM705.83 187.969H650.602C643.511 187.969 637.742 182.202 637.742 175.115V119.908C637.742 112.82 643.511 107.054 650.602 107.054H705.83C712.921 107.054 718.689 112.82 718.689 119.908V175.115C718.689 182.202 712.921 187.969 705.83 187.969Z" fill="#5885CC"/>
<path d="M608.882 175.113C608.882 179.804 605.078 183.608 600.384 183.608H545.155C540.461 183.608 536.656 179.804 536.656 175.113V119.906C536.656 115.216 540.461 111.412 545.155 111.412H600.384C605.078 111.412 608.882 115.216 608.882 119.906V175.113Z" fill="white"/>
<path d="M545.156 115.773C542.875 115.773 541.019 117.628 541.019 119.908V175.115C541.019 177.394 542.875 179.25 545.156 179.25H600.385C602.667 179.25 604.523 177.394 604.523 175.115V119.908C604.523 117.628 602.667 115.773 600.385 115.773H545.156ZM600.385 187.969H545.156C538.065 187.969 532.297 182.202 532.297 175.115V119.908C532.297 112.82 538.065 107.054 545.156 107.054H600.385C607.476 107.054 613.245 112.82 613.245 119.908V175.115C613.245 182.202 607.476 187.969 600.385 187.969Z" fill="#5885CC"/>
<path d="M503.422 175.113C503.422 179.804 499.618 183.608 494.924 183.608H439.695C435.001 183.608 431.195 179.804 431.195 175.113V119.906C431.195 115.216 435.001 111.412 439.695 111.412H494.924C499.618 111.412 503.422 115.216 503.422 119.906V175.113Z" fill="white"/>
<path d="M439.697 115.773C437.415 115.773 435.559 117.628 435.559 119.908V175.115C435.559 177.394 437.415 179.25 439.697 179.25H494.926C497.206 179.25 499.062 177.394 499.062 175.115V119.908C499.062 117.628 497.206 115.773 494.926 115.773H439.697ZM494.926 187.969H439.697C432.605 187.969 426.836 182.202 426.836 175.115V119.908C426.836 112.82 432.605 107.054 439.697 107.054H494.926C502.016 107.054 507.784 112.82 507.784 119.908V175.115C507.784 182.202 502.016 187.969 494.926 187.969Z" fill="#5885CC"/>
<path d="M543.894 200.55C544.228 201.118 544.393 201.685 544.52 202.253C544.639 202.82 544.69 203.388 544.691 203.955C544.69 204.522 544.639 205.09 544.52 205.658C544.393 206.226 544.228 206.794 543.894 207.361H543.695C543.361 206.794 543.196 206.226 543.069 205.658C542.95 205.09 542.9 204.522 542.898 203.955C542.9 203.388 542.95 202.82 543.069 202.253C543.196 201.685 543.361 201.118 543.695 200.55H543.894Z" fill="#090909"/>
<path d="M561.558 200.55C561.892 201.118 562.058 201.685 562.184 202.253C562.303 202.82 562.354 203.388 562.354 203.955C562.354 204.522 562.303 205.09 562.184 205.658C562.058 206.226 561.892 206.794 561.558 207.361H561.358C561.024 206.794 560.858 206.226 560.733 205.658C560.614 205.09 560.562 204.522 560.562 203.955C560.562 203.388 560.614 202.82 560.733 202.253C560.858 201.685 561.024 201.118 561.358 200.55H561.558Z" fill="#090909"/>
<path d="M532.461 208.786L531.281 210.305L531.425 212.201C531.511 213.323 529.726 213.474 529.638 212.337C529.44 209.736 529.248 207.22 529.05 204.607C528.963 203.456 530.746 203.28 530.838 204.47L531.099 207.91L534.706 203.578C535.147 203.094 535.629 203.167 535.994 203.479C536.401 203.817 536.436 204.289 536.085 204.684C535.359 205.692 534.487 206.602 533.693 207.616L537.153 211.206C538.052 212.268 536.379 213.212 535.772 212.388L532.461 208.786Z" fill="#090909"/>
<path d="M551.787 210.54H549.41C548.228 210.54 548.228 208.803 549.41 208.803H555.835C557.044 208.803 557.044 210.54 555.835 210.54H553.581V217.397C553.581 218.577 551.787 218.605 551.787 217.397V210.54Z" fill="#090909"/>
<path d="M543.792 200.738C542.27 200.738 540.614 201.811 540.614 203.955C540.614 206.087 542.27 207.172 543.792 207.172C545.355 207.172 547.025 206.087 547.025 203.955C547.025 201.811 545.355 200.738 543.792 200.738ZM543.942 208.843C541.429 208.951 538.82 207.282 538.82 203.955C538.82 200.616 541.429 198.973 543.942 198.973C546.319 199.095 548.804 200.738 548.804 203.955C548.804 207.173 546.319 208.843 543.942 208.843Z" fill="#090909"/>
<path d="M561.44 200.738C559.919 200.738 558.261 201.811 558.261 203.955C558.261 206.087 559.919 207.172 561.44 207.172C563.002 207.172 564.672 206.087 564.672 203.955C564.672 201.811 563.002 200.738 561.44 200.738ZM561.589 208.843C559.076 208.951 556.469 207.282 556.469 203.955C556.469 200.616 559.076 198.973 561.589 198.973C563.966 199.095 566.453 200.738 566.453 203.955C566.453 207.173 563.966 208.843 561.589 208.843Z" fill="#090909"/>
<path d="M580.476 210.557C580.002 210.607 579.599 210.282 579.549 209.809L578.732 202.141C578.679 201.655 579.008 201.265 579.479 201.215L584.329 200.7C585.571 200.567 585.731 202.324 584.516 202.453L580.626 202.869L580.842 204.892L584.245 204.531C585.448 204.402 585.636 206.171 584.434 206.298L581.03 206.661L581.247 208.686L585.365 208.247C586.595 208.116 586.877 209.875 585.553 210.016L580.476 210.557Z" fill="#090909"/>
<path d="M590.61 206.665L588.252 206.361C587.081 206.211 587.302 204.487 588.475 204.637L594.847 205.456C596.047 205.611 595.824 207.334 594.624 207.181L592.388 206.893L591.513 213.693C591.363 214.863 589.579 214.662 589.734 213.464L590.61 206.665Z" fill="#090909"/>
<path d="M600.516 211.812L599.354 213.342L599.515 215.237C599.611 216.359 597.826 216.527 597.729 215.389C597.506 212.792 597.29 210.277 597.066 207.666C596.968 206.515 598.751 206.322 598.854 207.513L599.148 210.949L602.714 206.583C603.148 206.096 603.632 206.164 603.999 206.473C604.41 206.805 604.45 207.28 604.103 207.677C603.385 208.692 602.523 209.61 601.737 210.632L605.232 214.189C606.141 215.242 604.478 216.201 603.862 215.382L600.516 211.812Z" fill="#090909"/>
<path d="M613.869 212.205C613.753 212.792 613.261 213.042 612.783 212.948C612.302 212.854 612.007 212.45 612.122 211.865L613.127 206.721L607.62 211.455C607.165 211.741 606.916 211.802 606.449 211.711C606.124 211.538 605.808 211.241 605.922 210.654L607.389 203.152C607.475 202.713 608.035 202.325 608.515 202.418C608.968 202.506 609.261 203.062 609.175 203.501L608.164 208.672L613.655 204.016C614.084 203.741 614.213 203.642 614.693 203.735C615.387 203.871 615.402 204.357 615.307 204.837L613.869 212.205Z" fill="#090909"/>
<path d="M570.395 205.546L574.45 205.696L574.229 211.654L570.174 211.504L570.395 205.546ZM576.572 211.741L576.02 211.72L576.274 204.868C576.292 204.374 575.906 203.958 575.412 203.94L569.566 203.723C569.072 203.705 568.655 204.093 568.637 204.585L568.384 211.438L567.832 211.418C567.8 211.417 567.768 211.417 567.738 211.419C567.707 211.414 567.675 211.412 567.643 211.41C567.148 211.393 566.733 211.779 566.714 212.272L566.673 213.403C566.654 213.897 567.041 214.312 567.535 214.33C568.03 214.349 568.445 213.963 568.464 213.47L568.472 213.234L575.61 213.498L575.602 213.733C575.583 214.227 575.969 214.642 576.463 214.661C576.958 214.679 577.374 214.293 577.392 213.8L577.433 212.669C577.453 212.174 577.065 211.759 576.572 211.741Z" fill="#090909"/>
<path d="M807.443 42.2619C812.31 39.1367 817.163 35.9877 822 32.8164C815.432 33.9718 808.848 34.6493 802.207 35.2158C804.835 28.2821 808.016 21.556 811.132 14.8306C805.873 21.0233 800.386 27.0734 794.405 32.5807C793.002 28.9423 791.057 25.5901 788.682 22.6148C780.591 12.4758 767.657 6.95483 754.724 8.16427C634.558 19.1292 513.853 19.2582 393.667 8.50951C380.73 7.32603 367.812 12.8701 359.739 23.0249C356.835 26.6784 354.576 30.8927 353.175 35.5106C347.22 28.2367 341.967 20.371 336.928 12.4441C337.713 18.9216 338.528 25.3976 339.47 31.8549C332.521 31.3965 323 30.0696 323 30.0696C327.483 34.8799 332.344 39.7177 338.17 42.8768C332.185 49.7672 328.183 55.6357 328.183 55.6357C335.9 52.5515 343.698 49.7312 351.581 47.0997C351.699 52.6236 353.059 57.9212 355.45 62.6818C361.432 74.5909 373.551 82.4976 386.781 83.7085C511.595 94.8666 636.962 94.7563 761.754 83.3489C774.981 82.1178 787.089 74.1815 793.047 62.263C794.858 58.6412 796.067 54.708 796.594 50.6069C804.623 52.0737 812.641 53.6075 820.661 55.1203C816.273 50.8174 811.91 46.4842 807.443 42.2619Z" fill="#F151A5"/>
<path d="M495.986 144.533C496.498 144.021 497.007 143.507 497.514 142.991C496.743 143.304 495.958 143.558 495.163 143.8C495.301 142.877 495.513 141.965 495.717 141.055C495.238 141.955 494.727 142.843 494.142 143.677C493.875 143.265 493.55 142.902 493.182 142.596C491.929 141.556 490.207 141.21 488.661 141.695C474.29 146.161 459.569 149.305 444.627 151.095C443.018 151.284 441.587 152.303 440.869 153.764C440.61 154.29 440.445 154.868 440.395 155.474C439.478 154.731 438.631 153.898 437.809 153.051C438.074 153.829 438.343 154.606 438.628 155.378C437.768 155.502 436.572 155.585 436.572 155.585C437.245 156.062 437.965 156.532 438.758 156.771C438.209 157.776 437.874 158.603 437.874 158.603C438.735 158.023 439.612 157.473 440.505 156.944C440.664 157.622 440.969 158.24 441.385 158.765C442.427 160.079 444.113 160.739 445.758 160.546C461.276 158.687 476.566 155.424 491.49 150.783C493.071 150.288 494.34 148.996 494.754 147.372C494.88 146.879 494.925 146.362 494.881 145.843C495.899 145.816 496.918 145.797 497.936 145.776C497.287 145.359 496.642 144.938 495.986 144.533Z" fill="#E95737"/>
<path d="M600.97 143.533C601.482 143.022 601.992 142.508 602.499 141.991C601.728 142.304 600.942 142.558 600.147 142.8C600.286 141.877 600.497 140.965 600.701 140.055C600.222 140.955 599.711 141.843 599.126 142.677C598.86 142.265 598.534 141.902 598.167 141.597C596.914 140.556 595.191 140.211 593.646 140.695C579.275 145.162 564.554 148.306 549.611 150.096C548.002 150.285 546.571 151.303 545.853 152.765C545.594 153.29 545.429 153.869 545.38 154.474C544.463 153.732 543.615 152.898 542.793 152.051C543.058 152.83 543.328 153.607 543.612 154.379C542.752 154.502 541.556 154.586 541.556 154.586C542.229 155.062 542.949 155.533 543.742 155.771C543.193 156.776 542.859 157.604 542.859 157.604C543.719 157.023 544.596 156.473 545.489 155.945C545.648 156.623 545.953 157.241 546.37 157.766C547.412 159.079 549.097 159.74 550.743 159.546C566.261 157.687 581.551 154.424 596.474 149.784C598.056 149.289 599.324 147.997 599.739 146.373C599.865 145.879 599.909 145.363 599.866 144.843C600.884 144.816 601.902 144.797 602.92 144.776C602.272 144.359 601.626 143.938 600.97 143.533Z" fill="#58BFC3"/>
<path d="M707.963 141.534C708.474 141.023 708.984 140.509 709.491 139.992C708.72 140.305 707.934 140.559 707.139 140.801C707.278 139.878 707.49 138.966 707.693 138.056C707.214 138.956 706.704 139.844 706.118 140.678C705.852 140.266 705.527 139.903 705.159 139.598C703.906 138.557 702.184 138.212 700.638 138.696C686.267 143.163 671.546 146.307 656.603 148.097C654.994 148.286 653.564 149.304 652.845 150.766C652.587 151.291 652.422 151.87 652.372 152.475C651.455 151.733 650.608 150.899 649.785 150.052C650.051 150.831 650.32 151.608 650.604 152.38C649.745 152.503 648.548 152.586 648.548 152.586C649.221 153.063 649.941 153.534 650.735 153.772C650.185 154.777 649.851 155.605 649.851 155.605C650.711 155.024 651.589 154.474 652.481 153.946C652.641 154.624 652.945 155.242 653.362 155.767C654.404 157.08 656.089 157.741 657.735 157.547C673.253 155.688 688.543 152.425 703.467 147.785C705.048 147.29 706.317 145.998 706.731 144.374C706.857 143.88 706.901 143.364 706.858 142.844C707.876 142.817 708.894 142.798 709.912 142.777C709.264 142.36 708.618 141.939 707.963 141.534Z" fill="#8659B2"/>
<path d="M391.929 45.157L399.729 45.9283L401.989 37.9948L394.198 37.2243L391.929 45.157ZM380.266 47.7085L381.201 44.0954L387.685 44.7368L389.955 36.8049L383.614 36.1771L384.549 32.5639L390.986 33.2011L393.731 23.6071L397.974 24.0265L395.229 33.6205L403.015 34.3903L405.746 24.7949L409.989 25.2143L407.257 34.8098L413.599 35.4376L412.663 39.0508L406.232 38.4143L403.974 46.3485L410.315 46.9748L409.379 50.5887L402.948 49.9523L400.356 59.0562L396.113 58.6367L398.705 49.5328L390.898 48.7608L388.293 57.8633L384.051 57.4438L386.655 48.3406L380.266 47.7085Z" fill="white"/>
<path d="M421.913 46.3318L426.544 46.7138C427.913 46.8255 428.989 46.6085 429.771 46.0586C430.553 45.5101 430.987 44.7151 431.073 43.6743C431.164 42.5759 430.858 41.7103 430.158 41.076C429.457 40.4424 428.391 40.0662 426.958 39.9473L422.469 39.5783L421.913 46.3318ZM421.074 56.5038C421.02 57.1525 421.303 57.5021 421.924 57.5533L426.031 57.8913C427.703 58.029 428.988 57.789 429.888 57.1705C430.788 56.5529 431.289 55.6346 431.39 54.4173C431.49 53.1992 431.129 52.2182 430.31 51.4751C429.49 50.7306 428.276 50.2916 426.669 50.159L421.631 49.7438L421.074 56.5038ZM414.586 39.5768L414.92 35.5197L428.189 36.6131C430.73 36.8235 432.685 37.5363 434.056 38.7544C435.426 39.9725 436.028 41.6 435.86 43.6368C435.75 44.9702 435.351 46.0601 434.666 46.9062C433.979 47.7531 433.091 48.355 432.002 48.7125L431.995 48.8076C433.425 49.2609 434.499 50.0653 435.217 51.2192C435.935 52.3732 436.236 53.6482 436.121 55.045C435.935 57.2967 434.967 58.9696 433.216 60.063C431.466 61.1564 429.219 61.5895 426.475 61.3639L418.697 60.7232C417.728 60.6432 417.049 60.3715 416.656 59.9058C416.263 59.441 416.106 58.7404 416.183 57.8012L417.666 39.8305L414.586 39.5768Z" fill="white"/>
<path d="M443.751 55.4731C443.678 56.5499 444.028 57.5121 444.803 58.3597C445.577 59.2088 446.69 59.6816 448.139 59.7811C449.446 59.8705 450.648 59.5454 451.748 58.8066C452.847 58.0679 453.695 57.1244 454.294 55.9769C454.893 54.8288 455.235 53.6273 455.321 52.3724L455.385 51.4433L454.118 51.3569C447.426 50.8999 443.971 52.2715 443.751 55.4731ZM438.966 55.5783C439.045 54.4316 439.326 53.4146 439.812 52.5274C440.295 51.6408 440.877 50.9244 441.555 50.3781C442.232 49.8332 443.064 49.3741 444.05 49.0007C445.036 48.6281 445.962 48.3636 446.83 48.2064C447.697 48.05 448.673 47.9448 449.756 47.8907C450.841 47.8367 451.714 47.8201 452.378 47.8417C453.04 47.8626 453.762 47.9001 454.543 47.9534L455.618 48.0269L455.641 47.6932C455.785 45.5994 455.456 44.0786 454.656 43.1323C453.857 42.1852 452.492 41.6453 450.565 41.5134C450.199 41.4882 449.814 41.4861 449.413 41.507C449.011 41.5264 448.571 41.5841 448.092 41.6778C447.613 41.7729 447.214 41.9445 446.893 42.1917C446.572 42.4403 446.398 42.7539 446.373 43.133L446.277 44.5327L441.831 44.2293L442.001 41.7441C442.052 40.9967 442.322 40.3466 442.813 39.7959C443.303 39.2452 443.878 38.8329 444.54 38.5583C445.202 38.283 445.95 38.074 446.785 37.9313C447.621 37.7878 448.352 37.7064 448.98 37.6848C449.609 37.6639 450.192 37.6718 450.729 37.7085C452.322 37.8174 453.713 38.0769 454.902 38.4855C456.09 38.8949 457.049 39.4038 457.776 40.0143C458.502 40.624 459.076 41.3628 459.496 42.232C459.917 43.1006 460.191 44.008 460.319 44.9522C460.446 45.8971 460.47 46.9516 460.391 48.1142L459.672 58.6243C459.624 59.3407 459.924 59.722 460.574 59.766L462.395 59.8907L462.117 63.9521L457.771 63.6544C455.825 63.5225 454.916 62.5085 455.046 60.6129L455.193 59.1591L455.098 59.1526C455.113 59.1533 455.071 59.2427 454.971 59.42C454.871 59.5973 454.712 59.8215 454.493 60.0946C454.274 60.3678 454.01 60.6662 453.699 60.9884C453.389 61.312 453.003 61.6335 452.541 61.9535C452.079 62.2742 451.575 62.5596 451.03 62.8104C450.485 63.0613 449.843 63.253 449.105 63.387C448.368 63.5204 447.601 63.5601 446.804 63.506C444.526 63.3503 442.611 62.5553 441.06 61.121C439.509 59.6874 438.811 57.8401 438.966 55.5783Z" fill="white"/>
<path d="M465.133 43.3437L465.358 39.2794L482.006 40.1998C483.155 40.2639 483.968 40.5378 484.444 41.0214C484.92 41.5051 485.127 42.3066 485.066 43.4259L484.858 47.1926L480.6 46.9569L480.691 45.2927C480.732 44.5698 480.393 44.1877 479.675 44.1488L472.977 43.7776L471.832 64.4829L467.072 64.2198L468.218 43.5146L465.133 43.3437Z" fill="white"/>
<path d="M491.205 53.0254C491.099 55.5913 491.846 57.763 493.446 59.5389C495.045 61.3156 497.027 62.2526 499.392 62.3499C501.789 62.4493 503.846 61.6832 505.562 60.0507C507.277 58.4188 508.189 56.3121 508.295 53.7296C508.401 51.1795 507.664 49.0288 506.089 47.2773C504.513 45.5259 502.525 44.6012 500.128 44.5017C497.748 44.4037 495.692 45.1619 493.96 46.7771C492.228 48.3931 491.31 50.4753 491.205 53.0254ZM486.443 52.8286C486.543 50.3881 487.228 48.1999 488.498 46.2632C489.767 44.3266 491.441 42.8454 493.52 41.8212C495.599 40.7963 497.857 40.3343 500.296 40.4344C502.139 40.5108 503.869 40.9101 505.485 41.6309C507.101 42.3531 508.491 43.3052 509.654 44.4873C510.818 45.67 511.719 47.0806 512.358 48.721C512.996 50.3608 513.278 52.0978 513.202 53.9321C513.101 56.3877 512.407 58.5933 511.121 60.5451C509.835 62.4969 508.142 63.9889 506.042 65.021C503.942 66.0531 501.669 66.518 499.224 66.4178C496.779 66.3162 494.564 65.6661 492.58 64.466C490.595 63.2659 489.051 61.6407 487.946 59.5894C486.842 57.5388 486.341 55.285 486.443 52.8286Z" fill="white"/>
<path d="M515.695 45.7308L515.796 41.6614L520.513 41.7781C521.615 41.8055 522.407 42.0708 522.89 42.5731C523.373 43.0755 523.601 43.872 523.574 44.9625L523.402 51.9098L535.951 52.2205L536.2 42.1666L540.966 42.2841L540.479 61.9378C540.461 62.6557 540.817 63.024 541.546 63.0413L543.542 63.091L543.441 67.1611L538.742 67.0444C537.634 67.0177 536.836 66.7496 536.351 66.2429C535.865 65.7362 535.636 64.9318 535.663 63.8305L535.85 56.2899L523.301 55.9793L523.037 66.6559L518.271 66.5377L518.758 46.8847C518.775 46.1661 518.425 45.7985 517.707 45.7805L515.695 45.7308Z" fill="white"/>
<path d="M545.195 46.4403L545.234 42.3694L549.689 42.4112C550.823 42.422 551.619 42.6966 552.077 43.2358C552.535 43.7756 552.76 44.5555 552.75 45.5768L552.71 49.8394C552.704 50.5097 552.762 51.1007 552.885 51.6132C553.007 52.1249 553.23 52.6143 553.552 53.0799C553.874 53.5455 554.357 53.9059 555 54.1589C555.643 54.4126 556.435 54.5438 557.375 54.5524C559.35 54.5712 561.196 53.9982 562.912 52.832L563.009 42.5359L567.775 42.5813L567.543 67.3877L562.776 67.3423L562.86 58.3422L562.922 56.7817H562.874C560.903 58.0258 558.579 58.6348 555.902 58.6096C553.294 58.5851 551.309 57.9277 549.944 56.6376C548.579 55.3489 547.909 53.5066 547.93 51.1108L547.964 47.5437C547.968 47.1603 547.886 46.8843 547.719 46.7149C547.552 46.5462 547.278 46.4597 546.895 46.4561L545.195 46.4403Z" fill="white"/>
<path d="M571.385 46.6858L571.359 42.6157L575.72 42.5883C576.821 42.5818 577.621 42.8168 578.119 43.2918C578.617 43.7682 578.87 44.5567 578.877 45.658L578.949 57.4633C578.959 59.124 578.903 60.2736 578.781 60.9122L578.876 60.9114C579.207 60.2397 579.976 59.0851 581.182 57.4497L591.794 42.4896L596.441 42.4614L596.561 62.1202C596.566 62.8388 596.926 63.1955 597.64 63.1912L599.683 63.1783L599.707 67.2491L595.295 67.2765C594.186 67.283 593.381 67.0408 592.88 66.5485C592.379 66.0577 592.125 65.2605 592.118 64.1592L592.045 52.3777C592.038 51.0853 592.094 49.9278 592.213 48.905H592.119C591.835 49.5458 591.074 50.7084 589.837 52.3914L579.226 67.3752L574.554 67.4033L574.433 47.7446C574.43 47.026 574.078 46.6692 573.38 46.6736L571.385 46.6858Z" fill="white"/>
<path d="M601.291 46.4721L601.203 42.4019L605.921 42.3003C607.022 42.2765 607.826 42.5072 608.332 42.9908C608.837 43.4751 609.102 44.268 609.126 45.3693L609.269 51.9765L611.328 51.9318C612.542 51.9059 613.396 51.5123 613.891 50.7512L619.644 42.0048L624.985 41.8895L618.396 51.8756C618.086 52.3455 617.78 52.7391 617.475 53.0569C617.17 53.3748 616.948 53.5759 616.806 53.658L616.568 53.7835L616.571 53.8793C616.634 53.9096 616.728 53.9557 616.848 54.0163C616.97 54.0783 617.201 54.2642 617.544 54.5763C617.886 54.8884 618.197 55.2653 618.478 55.7057L622.227 61.7089C622.475 62.1025 622.744 62.3605 623.033 62.4816C623.324 62.6034 623.781 62.6574 624.403 62.6438L625.888 62.6113L625.976 66.6814L622.527 66.7557C621.362 66.7809 620.508 66.6519 619.967 66.3679C619.425 66.0847 618.889 65.4771 618.358 64.5466L613.784 56.9325C613.52 56.5397 613.204 56.2831 612.833 56.1627C612.463 56.043 611.975 55.9897 611.369 56.0034L609.356 56.0467L609.594 67.0346L604.828 67.1377L604.403 47.4833C604.388 46.764 604.021 46.413 603.303 46.4288L601.291 46.4721Z" fill="white"/>
<path d="M635.174 62.2967L646.241 61.8909L645.67 46.3066C645.644 45.5938 645.27 45.2493 644.55 45.2759L638.353 45.503L638.392 46.5733C638.656 53.7593 637.583 58.9999 635.174 62.2967ZM627.106 65.6828C627.067 64.6147 627.27 63.824 627.714 63.3122C628.159 62.8012 628.916 62.5252 629.985 62.4862L630.392 62.4718C631.278 61.359 631.998 60.0818 632.552 58.6403C633.106 57.198 633.475 55.6873 633.656 54.1081C633.839 52.5297 633.943 51.2272 633.97 50.2023C633.997 49.1767 633.987 48.0379 633.941 46.7838L633.9 45.6652L630.812 45.779L630.663 41.7103L647.106 41.1085C648.208 41.0681 649.016 41.2851 649.529 41.7594C650.043 42.2336 650.32 43.0185 650.36 44.1141L651.005 61.7165L651.79 61.6884C652.852 61.6495 653.622 61.8693 654.1 62.3464C654.579 62.8243 654.837 63.5977 654.876 64.6665L655.125 71.4381L650.767 71.5974L650.594 66.8656C650.569 66.1599 650.212 65.8198 649.526 65.845L632.529 66.4663C631.843 66.4915 631.512 66.8576 631.538 67.5633L631.712 72.2951L627.355 72.4551L627.106 65.6828Z" fill="white"/>
<path d="M659.968 52.9166C660.102 55.4811 661.047 57.5742 662.805 59.1937C664.563 60.814 666.624 61.5621 668.989 61.4396C671.384 61.3142 673.36 60.3606 674.916 58.5753C676.473 56.7914 677.184 54.6082 677.049 52.0279C676.917 49.48 675.984 47.4064 674.251 45.8092C672.519 44.2113 670.455 43.4754 668.059 43.6001C665.68 43.724 663.702 44.6704 662.129 46.4392C660.556 48.2093 659.835 50.368 659.968 52.9166ZM655.207 53.1645C655.081 50.7248 655.559 48.4825 656.642 46.4355C657.726 44.39 659.255 42.7597 661.229 41.5459C663.203 40.3321 665.41 39.6611 667.848 39.535C669.689 39.4391 671.449 39.6748 673.125 40.2435C674.802 40.8122 676.273 41.6302 677.542 42.6991C678.811 43.768 679.839 45.0891 680.628 46.6626C681.417 48.236 681.859 49.9399 681.954 51.7728C682.082 54.2277 681.597 56.4872 680.497 58.5501C679.399 60.6143 677.853 62.2569 675.858 63.4801C673.863 64.7017 671.644 65.3771 669.2 65.504C666.755 65.6315 664.49 65.1897 662.402 64.1799C660.314 63.1694 658.625 61.6948 657.335 59.7552C656.044 57.8163 655.335 55.6194 655.207 53.1645Z" fill="white"/>
<path d="M690.454 52.529C690.614 54.8866 691.406 56.7043 692.829 57.9844C694.252 59.2645 695.969 59.8353 697.976 59.6991C699.952 59.565 701.559 58.7722 702.798 57.3199C704.034 55.8675 704.575 53.9871 704.419 51.677C704.259 49.3367 703.478 47.542 702.072 46.2929C700.667 45.0446 698.992 44.486 697.048 44.6179C694.976 44.7577 693.322 45.5743 692.088 47.0663C690.852 48.5583 690.308 50.3789 690.454 52.529ZM685.224 49.4045C685.079 47.2861 685.082 45.4381 685.231 43.8597C685.379 42.2812 685.72 40.7986 686.249 39.4104C686.779 38.023 687.564 36.7977 688.605 35.7346C689.645 34.6722 690.961 33.7186 692.553 32.8746L697.839 30.1155C698.954 29.5439 699.686 29.0747 700.037 28.7064C700.387 28.3388 700.545 27.8761 700.507 27.3182L700.427 26.1477L704.873 25.8465L705.019 27.9957C705.054 28.5219 705.044 28.9947 704.987 29.4149C704.93 29.8344 704.804 30.2186 704.61 30.5681C704.416 30.9177 704.211 31.219 703.995 31.4741C703.779 31.7285 703.462 31.9945 703.046 32.2706C702.629 32.5466 702.244 32.7809 701.892 32.9726C701.539 33.165 701.054 33.4101 700.437 33.7078L694.716 36.616C691.026 38.4979 689.269 41.546 689.442 45.7574L689.502 45.7538C690.498 43.9548 691.698 42.6567 693.103 41.8588C694.507 41.0617 696.105 40.6018 697.895 40.4807C701.035 40.2667 703.662 41.1381 705.78 43.0913C707.897 45.0453 709.075 47.7647 709.312 51.2496C709.551 54.7698 708.627 57.6766 706.542 59.9694C704.457 62.2635 701.661 63.5292 698.156 63.767C696.436 63.8838 694.872 63.7217 693.465 63.2813C692.059 62.8409 690.878 62.1936 689.924 61.3381C688.969 60.4826 688.153 59.4259 687.475 58.1675C686.798 56.9097 686.281 55.5612 685.927 54.1204C685.573 52.6803 685.339 51.1083 685.224 49.4045Z" fill="white"/>
<path d="M719.729 45.2053C719.437 46.4119 719.355 47.7691 719.481 49.2762C719.608 50.7833 719.979 52.17 720.598 53.4364C721.217 54.7028 722.112 55.7227 723.282 56.4953C724.452 57.268 725.778 57.5923 727.258 57.4683C729.263 57.3011 730.876 56.3677 732.096 54.6682C733.316 52.9686 733.813 50.7616 733.585 48.0487C733.363 45.3841 732.539 43.2996 731.116 41.7976C729.691 40.294 727.945 39.6295 725.876 39.8025C724.921 39.8825 724.044 40.1276 723.245 40.5384C722.446 40.9485 721.733 41.5273 721.107 42.2747C720.48 43.0221 720.021 43.9988 719.729 45.2053ZM711.09 41.4956L710.75 37.4384L715.19 37.0672C717.211 36.8978 718.292 37.6518 718.432 39.3268L718.495 40.6595L718.591 40.6516C718.646 40.5341 718.72 40.3697 718.814 40.16C718.909 39.9503 719.166 39.569 719.584 39.0154C720.002 38.4619 720.482 37.9682 721.023 37.5343C721.563 37.1004 722.317 36.6816 723.285 36.2766C724.253 35.8715 725.31 35.6207 726.456 35.5248C729.796 35.2459 732.554 36.216 734.727 38.436C736.901 40.6552 738.151 43.7112 738.477 47.6026C738.802 51.4896 738.009 54.7042 736.096 57.2435C734.184 59.7841 731.574 61.1925 728.265 61.4693C727.247 61.5543 726.277 61.4995 725.355 61.3042C724.434 61.1089 723.682 60.8401 723.1 60.4955C722.519 60.1517 722.012 59.8014 721.581 59.4454C721.151 59.0886 720.845 58.7823 720.663 58.5242L720.367 58.1408L720.272 58.1487C720.384 58.7326 720.476 59.4454 720.546 60.2887L721.467 71.2889L716.716 71.686L714.259 42.3122C714.199 41.5958 713.811 41.2678 713.095 41.3276L711.09 41.4956Z" fill="white"/>
<path d="M746.378 52.0194C746.484 53.0934 746.989 53.9842 747.893 54.692C748.798 55.3998 749.974 55.6823 751.42 55.5389C752.723 55.4106 753.855 54.8902 754.816 53.9799C755.777 53.0689 756.458 51.9978 756.858 50.7668C757.257 49.5357 757.395 48.2938 757.272 47.0419L757.18 46.115L755.917 46.2397C749.242 46.8999 746.062 48.8257 746.378 52.0194ZM741.676 52.9168C741.563 51.7729 741.672 50.7242 742.003 49.7685C742.333 48.8135 742.788 48.0106 743.365 47.3597C743.942 46.7096 744.687 46.1186 745.598 45.5874C746.508 45.0562 747.377 44.6417 748.206 44.3433C749.035 44.0449 749.98 43.779 751.04 43.5455C752.1 43.3127 752.959 43.1519 753.617 43.0625C754.273 42.9732 754.992 42.8903 755.77 42.8139L756.843 42.7079L756.81 42.3749C756.604 40.2862 756.028 38.8411 755.081 38.0396C754.136 37.2388 752.702 36.9332 750.778 37.1228C750.412 37.1588 750.034 37.2201 749.641 37.3073C749.248 37.3938 748.824 37.5228 748.367 37.6958C747.911 37.8688 747.544 38.103 747.27 38.4007C746.994 38.6991 746.875 39.0378 746.913 39.4155L747.051 40.8116L742.616 41.2498L742.371 38.7719C742.298 38.0252 742.457 37.3397 742.848 36.7155C743.24 36.0914 743.739 35.589 744.346 35.2077C744.953 34.8271 745.657 34.4971 746.456 34.2174C747.256 33.9377 747.963 33.7352 748.58 33.6098C749.196 33.4858 749.772 33.3964 750.308 33.3438C751.897 33.1867 753.312 33.2112 754.552 33.4173C755.793 33.6242 756.822 33.9673 757.639 34.448C758.457 34.9288 759.146 35.5623 759.705 36.3494C760.264 37.1365 760.685 37.9855 760.968 38.8958C761.251 39.8069 761.449 40.8419 761.563 42.0016L762.6 52.485C762.672 53.2 763.031 53.5258 763.68 53.4609L765.496 53.2822L765.896 57.3329L761.562 57.7617C759.62 57.9527 758.556 57.1044 758.369 55.2131L758.273 53.755L758.177 53.7644C758.192 53.7629 758.167 53.8581 758.097 54.0491C758.027 54.2408 757.908 54.4888 757.737 54.7951C757.567 55.1 757.356 55.438 757.104 55.8077C756.851 56.1775 756.523 56.5588 756.122 56.9516C755.719 57.3444 755.269 57.7099 754.774 58.0472C754.277 58.3852 753.676 58.6807 752.972 58.9351C752.266 59.1888 751.517 59.3554 750.722 59.4346C748.449 59.6588 746.429 59.1932 744.662 58.0356C742.894 56.8795 741.899 55.1728 741.676 52.9168Z" fill="white"/>
<path d="M750 122.536C759.65 121.659 768.072 115.995 776.394 111.59C794.507 102.001 811.671 92.0399 828.94 80.9385C878.609 49.0085 924.245 24.4105 984.752 24.0151C1016.62 23.8068 1044.12 25.5442 1071.84 42.8679C1096.56 58.3168 1122.15 79.839 1136.06 105.995C1144.72 122.276 1155.28 162.64 1128.77 170.216C1123.17 171.815 1119.53 171.362 1120.13 165.107C1121.41 151.708 1133.47 142.435 1144.09 135.794C1170.92 119.028 1210.04 121.837 1240.42 125.212C1259.04 127.281 1277.54 136.539 1295.28 142.241C1320.5 150.348 1347.85 155.975 1374.22 158.539C1411.98 162.21 1453.99 161.897 1490.99 154.161C1543.87 143.102 1583.42 117.598 1617 76.5598" stroke="#58BFC3" stroke-width="3" stroke-linecap="round" stroke-dasharray="6 6"/>
<path d="M-183 139.918C-177.672 115.322 -146.735 93.1345 -128.265 77.9084C-110.843 63.5465 -87.1084 46.3319 -64.2862 42.7532C-37.4489 38.545 -13.685 40.9331 6.50421 60.8191C21.6684 75.7556 26.7336 90.838 31.5606 111.355C34.7752 125.018 38.3067 157.384 24.5059 167.505C12.5815 176.25 13.2429 165.104 20.6136 157.496C34.0773 143.598 44.5454 135.524 64.4015 135.524C80.1435 135.524 94.0289 139.069 107.703 146.998C142.272 167.043 187.406 187.853 228.606 175.074C254.231 167.125 278.652 122.341 237.364 122.341C225.925 122.341 219.849 124.922 219.849 137.721C219.849 153.908 226.497 154.686 241.742 159.693C288.284 174.979 351.253 168.462 395 146.51" stroke="#58BFC3" stroke-width="3" stroke-linecap="round" stroke-dasharray="6 6"/>
<path d="M1282.23 107.611C1279.16 108.153 1276.44 110.316 1277.68 113.88C1276.48 113.157 1274.44 112.779 1272.46 113.127C1269.76 113.604 1267.17 115.441 1266.98 119.62C1266.54 119.599 1266.14 119.626 1265.77 119.691C1260.97 120.537 1261.15 128.038 1264.88 129.246C1261.59 131.334 1263.72 135.795 1266.6 136.145C1265.3 138.775 1264.77 145.811 1263 148.236C1262.74 148.227 1262.49 148.245 1262.24 148.289C1260.06 148.672 1258.31 151.035 1259.82 154.451C1259.47 154.388 1259.13 154.39 1258.81 154.447C1255.8 154.979 1254.04 160.29 1255.86 161.559C1253.67 162.796 1255 165.322 1256.67 165.029C1256.84 164.998 1257.02 164.937 1257.19 164.84C1256.95 167.52 1259.08 169.091 1261.02 168.749C1261.81 168.61 1262.56 168.157 1263.11 167.335C1263.82 167.724 1264.49 167.824 1265.08 167.719C1267.16 167.353 1268.29 164.512 1266.71 162.898C1266.81 162.887 1266.91 162.873 1267 162.857C1270.63 162.216 1269.2 157.603 1267.22 156.749C1267.56 156.874 1267.88 156.903 1268.17 156.852C1270.15 156.502 1270.87 152.437 1268.55 150.25C1269.23 146.683 1270.21 141.887 1270.47 141.163C1271.4 142.592 1270.61 156.136 1271.09 156.799C1273.66 160.323 1280.27 163.491 1283.89 165.851C1287.06 167.921 1291.78 168.884 1296.45 168.06C1300.24 167.392 1304 165.551 1306.87 162.174C1310.68 157.704 1313 154.736 1315.76 147.794C1316.17 146.747 1309.95 134.55 1309.9 133.211C1310.04 133.493 1315.07 140.346 1316.35 141.76C1315.34 144.356 1317.02 149.071 1320.06 149.043C1318.28 151.853 1321.18 156.188 1324.22 155.652C1324.55 155.594 1324.88 155.479 1325.21 155.299C1326.08 156.878 1327.47 157.341 1328.78 157.112C1331.34 156.659 1333.56 153.518 1330.75 150.928C1332.89 149.42 1329.68 145.734 1327 144.946C1326.8 140.693 1323.61 137.737 1320.36 137.933C1318.05 137.371 1312.08 129.174 1310.31 127.433C1310.39 127.434 1310.47 127.428 1310.55 127.414C1312.43 127.082 1313.38 122.629 1310.01 121.413C1313.71 120.17 1312.19 113.403 1307.93 114.155C1307.66 114.202 1307.38 114.279 1307.09 114.39C1308.14 110.813 1304.03 107.521 1300.15 108.205C1298.4 108.514 1296.69 109.635 1295.53 111.906C1295.47 108.941 1293.7 107.674 1292.01 107.973C1290.64 108.214 1289.32 109.473 1288.97 111.681C1289.22 108.299 1285.52 107.032 1282.23 107.611Z" fill="#FAD0DD"/>
<path d="M1283.81 141.688C1282.95 141.37 1282.13 141.281 1281.32 141.245C1280.52 141.221 1279.73 141.29 1278.95 141.426C1278.17 141.565 1277.4 141.771 1276.65 142.07C1275.9 142.38 1275.16 142.743 1274.46 143.336L1274.51 143.608C1275.37 143.926 1276.19 144.015 1277 144.05C1277.81 144.074 1278.6 144.006 1279.38 143.87C1280.16 143.732 1280.92 143.525 1281.67 143.226C1282.42 142.916 1283.16 142.552 1283.86 141.959L1283.81 141.688Z" fill="#373535"/>
<path d="M1308.08 137.688C1307.38 138.28 1306.64 138.643 1305.89 138.952C1305.14 139.252 1304.38 139.459 1303.6 139.597C1302.82 139.734 1302.03 139.802 1301.22 139.777C1300.41 139.742 1299.59 139.654 1298.73 139.336L1298.68 139.063C1299.38 138.47 1300.12 138.107 1300.87 137.797C1301.62 137.499 1302.39 137.291 1303.17 137.154C1303.94 137.017 1304.74 136.949 1305.54 136.973C1306.35 137.008 1307.17 137.096 1308.03 137.414L1308.08 137.688Z" fill="#373535"/>
<path d="M1291.71 149.7L1288.45 150.275C1286.83 150.561 1286.41 148.189 1288.03 147.904L1296.85 146.35C1298.51 146.057 1298.92 148.429 1297.27 148.721L1294.17 149.266L1295.82 158.622C1296.11 160.233 1293.65 160.705 1293.36 159.056L1291.71 149.7Z" fill="#373535"/>
<path d="M1278.4 138.257C1276.31 138.625 1274.3 140.489 1274.81 143.416C1275.33 146.325 1277.86 147.406 1279.95 147.038C1282.09 146.66 1284.12 144.775 1283.61 141.865C1283.09 138.938 1280.54 137.879 1278.4 138.257ZM1280.56 149.281C1277.13 150.037 1273.15 148.39 1272.35 143.849C1271.55 139.293 1274.73 136.42 1278.18 135.813C1281.47 135.404 1285.28 137.044 1286.05 141.435C1286.82 145.826 1283.82 148.706 1280.56 149.281Z" fill="#373535"/>
<path d="M1302.59 133.991C1300.5 134.359 1298.49 136.224 1299 139.15C1299.51 142.06 1302.05 143.14 1304.14 142.772C1306.28 142.394 1308.31 140.509 1307.8 137.599C1307.28 134.673 1304.73 133.613 1302.59 133.991ZM1304.74 145.016C1301.32 145.772 1297.34 144.124 1296.54 139.584C1295.74 135.027 1298.92 132.155 1302.37 131.547C1305.66 131.139 1309.46 132.779 1310.24 137.169C1311.01 141.56 1308 144.441 1304.74 145.016Z" fill="#373535"/>
<path d="M1089.31 53.6053C1093.85 51.8973 1097.83 50.8067 1101.66 50.4791C1099.42 48.1488 1096.33 47.4845 1094.62 44.3093C1096.9 42.4526 1101.05 42.5069 1103.67 40.9045C1087.45 30.8718 1088.58 23.8455 1089.51 10.7887C1082.59 13.7106 1075.33 21.5729 1070.9 25.6233C1068.53 18.5108 1064.93 11.253 1059.89 5.38671C1057.93 14.0664 1048.2 24.7939 1034.59 28.1146C1036.51 29.6263 1039.53 30.4589 1040.56 32.5052C1036.44 33.3441 1031.61 34.8536 1031.61 34.8536C1031.61 34.8536 1034.37 38.4733 1037.75 39.6676C1034.54 40.369 1029.87 39.7181 1026.24 39.9266C1028.83 41.7942 1032.88 42.3179 1035.78 44.1976C1039.8 46.8096 1043.24 50.939 1046.37 54.5711C1051.96 61.0677 1055.68 68.4889 1065.2 69.0679C1072.57 69.5152 1077.66 62.5306 1084.89 61.731C1090.45 61.1154 1096.77 60.9791 1102.07 58.5857C1097.34 56.0824 1094.56 56.5885 1089.31 53.6053Z" fill="#D0C5E1"/>
<path d="M1055.5 32.8775C1055.84 33.823 1055.92 34.7211 1055.95 35.608C1055.96 36.4906 1055.87 37.3543 1055.71 38.2036C1055.54 39.0531 1055.3 39.8871 1054.96 40.7014C1054.6 41.5134 1054.19 42.314 1053.52 43.0654L1053.22 43.007C1052.88 42.0606 1052.8 41.1633 1052.78 40.2776C1052.76 39.394 1052.85 38.5302 1053.01 37.68C1053.18 36.8314 1053.42 35.9974 1053.77 35.1841C1054.12 34.3711 1054.53 33.5696 1055.2 32.8191L1055.5 32.8775Z" fill="#373535"/>
<path d="M1082.05 38.0367C1082.38 38.9822 1082.47 39.8803 1082.49 40.767C1082.51 41.6497 1082.42 42.5135 1082.25 43.3626C1082.09 44.2123 1081.85 45.0463 1081.5 45.8605C1081.15 46.6726 1080.73 47.4732 1080.07 48.2246L1079.77 48.166C1079.43 47.2196 1079.35 46.3223 1079.32 45.4366C1079.31 44.5531 1079.4 43.6892 1079.56 42.8392C1079.73 41.9905 1079.97 41.1566 1080.31 40.3431C1080.67 39.5301 1081.08 38.7286 1081.75 37.9781L1082.05 38.0367Z" fill="#373535"/>
<path d="M1064.45 50.1239L1060.88 49.4297C1059.11 49.0845 1059.61 46.4866 1061.39 46.8318L1071.04 48.7085C1072.86 49.0615 1072.35 51.6594 1070.54 51.3064L1067.15 50.6479L1065.16 60.9019C1064.81 62.6681 1062.11 62.1858 1062.46 60.3779L1064.45 50.1239Z" fill="#373535"/>
<path d="M1055.3 33.131C1053.01 32.6868 1050.21 33.8073 1049.59 37.0146C1048.97 40.2025 1051.14 42.311 1053.43 42.7552C1055.77 43.2118 1058.6 42.0753 1059.22 38.8875C1059.84 35.6801 1057.65 33.5875 1055.3 33.131ZM1053.17 45.2961C1049.36 44.725 1045.92 41.4657 1046.89 36.4908C1047.86 31.4965 1052.26 29.8017 1056.04 30.5358C1059.57 31.4126 1062.83 34.5954 1061.89 39.4072C1060.96 44.2196 1056.74 45.9904 1053.17 45.2961Z" fill="#373535"/>
<path d="M1081.81 38.2855C1079.52 37.8411 1076.72 38.9616 1076.09 42.1689C1075.47 45.3568 1077.65 47.4653 1079.93 47.9097C1082.28 48.3661 1085.11 47.2296 1085.73 44.0418C1086.35 40.8344 1084.15 38.7418 1081.81 38.2855ZM1079.67 50.4502C1075.87 49.8793 1072.43 46.62 1073.4 41.6451C1074.37 36.6508 1078.77 34.956 1082.54 35.6899C1086.08 36.5667 1089.34 39.7498 1088.4 44.5617C1087.47 49.3741 1083.25 51.1445 1079.67 50.4502Z" fill="#373535"/>
<path d="M892.924 35.1252C891.923 31.5778 890.341 26.1564 887.748 21.4289C886.09 18.4047 883.085 14.9544 881.166 13.8669C880.518 13.4994 880.137 13.5526 879.684 14.1456C877.739 16.6902 876.234 19.4805 875.041 22.4355C874.041 24.9152 871.447 32.9598 871.095 35.6056C871.053 35.9266 870.935 36.11 870.6 36.2058C867.742 37.0228 865.65 36.8088 863.306 38.6343C863.042 38.8404 861.793 39.6888 861.492 39.5438C857.61 37.6735 849.602 33.4659 845.304 32.9999C843.78 32.8347 842.239 32.8067 840.704 32.77C839.804 32.7489 839.571 33.0402 839.51 33.9389C839.269 37.526 840.708 42.3551 842.041 45.6595C843.425 49.0919 847.654 54.1719 850.437 57.2565C850.896 63.3747 842.284 76.3178 844.766 76.2915C851.762 76.2168 866.281 77.5902 871.734 79.0601C879.413 81.1309 885.063 81.9071 887.716 80.2563C888.157 79.9826 889.666 79.5703 890.824 78.6727C895.63 74.9507 897.138 68.6252 899.3 63.4063C899.305 63.3943 899.312 63.3791 899.317 63.3671L899.323 63.3943C901.485 58.1758 910.14 43.379 912.885 41.5831C915.027 40.1827 897.596 37.3496 892.924 35.1252Z" fill="#F3A995"/>
<path d="M892.407 46.5391C892.853 46.9284 893.254 47.4262 893.577 48.0584C894.997 50.8458 893.517 53.3889 891.456 54.4392C889.448 55.462 886.539 55.1552 885.119 52.3678C884.95 52.0364 884.824 51.7096 884.733 51.3881C883.278 53.0293 882.742 54.846 883.652 56.8191C885.375 60.5491 890.306 60.4028 881.942 64.553C873.715 68.6345 875.457 64.2881 874.351 62.052C873.41 60.1493 871.857 59.3402 869.939 59.3013C870.07 59.4921 870.195 59.6926 870.308 59.9143C871.728 62.7017 870.249 65.2448 868.187 66.2953C866.18 67.3177 863.271 67.0111 861.85 64.2237C861.508 63.5515 861.336 62.8964 861.294 62.2736C852.698 67.2292 843.56 76.6086 844.791 76.2776C857.216 72.9411 863.25 72.2128 869.303 73.0239C875.19 73.812 880.633 79.4377 885.23 70.8922C895.344 71.2837 892.636 65.3353 896.01 58.885C898.451 54.2194 904.47 49.4842 912.886 41.5812C913.673 40.8425 901.411 42.7071 892.407 46.5391Z" fill="white"/>
<path d="M861.028 61.6964C861.893 61.2469 862.746 61.0448 863.595 60.8994C864.442 60.7664 865.284 60.7323 866.122 60.7712C866.96 60.8131 867.794 60.9283 868.622 61.1428C869.449 61.3692 870.273 61.6527 871.084 62.1833L871.067 62.4765C870.202 62.926 869.35 63.1285 868.502 63.2731C867.654 63.4068 866.812 63.4408 865.973 63.4025C865.136 63.36 864.302 63.2447 863.475 63.0295C862.646 62.8039 861.821 62.5202 861.012 61.99L861.028 61.6964Z" fill="#1D1D1B"/>
<path d="M892.235 46.0892C892.188 47.0555 891.932 47.8899 891.628 48.6926C891.316 49.4881 890.919 50.2309 890.46 50.9329C889.999 51.6345 889.477 52.2957 888.87 52.903C888.255 53.5041 887.591 54.074 886.718 54.5101L886.47 54.3506C886.518 53.3836 886.772 52.5501 887.076 51.748C887.389 50.9522 887.785 50.2093 888.245 49.507C888.705 48.8058 889.229 48.1446 889.834 47.5377C890.45 46.9357 891.115 46.365 891.987 45.9294L892.235 46.0892Z" fill="#1D1D1B"/>
<path d="M880.983 65.3203L877.847 66.918C876.289 67.7119 875.131 65.44 876.69 64.646L885.165 60.3274C886.759 59.5152 887.917 61.7871 886.323 62.5994L883.349 64.1147L887.917 73.0802C888.704 74.6245 886.356 75.8665 885.551 74.2858L880.983 65.3203Z" fill="#1D1D1B"/>
<path d="M863.904 57.8775C861.898 58.8997 860.427 61.4165 861.856 64.2209C863.276 67.0083 866.185 67.3149 868.192 66.2927C870.253 65.2423 871.733 62.6989 870.313 59.9115C868.884 57.1071 865.966 56.827 863.904 57.8775ZM869.502 68.375C866.26 70.2067 861.707 69.776 859.49 65.4261C857.265 61.0591 859.611 57.158 862.926 55.4689C866.143 54.0308 870.517 54.508 872.661 58.7155C874.805 62.9233 872.638 66.7773 869.502 68.375Z" fill="#1D1D1B"/>
<path d="M887.178 46.0231C885.171 47.0457 883.7 49.5625 885.129 52.3669C886.549 55.1543 889.459 55.4609 891.466 54.4383C893.527 53.3883 895.007 50.8449 893.587 48.0575C892.158 45.2531 889.239 44.973 887.178 46.0231ZM892.775 56.5214C889.533 58.3527 884.98 57.922 882.764 53.5721C880.539 49.2051 882.885 45.304 886.199 43.6153C889.416 42.1772 893.791 42.6536 895.935 46.8611C898.079 51.0689 895.911 54.9237 892.775 56.5214Z" fill="#1D1D1B"/>
</svg>
