<svg width="725" height="200" viewBox="0 0 725 200" fill="none" xmlns="http://www.w3.org/2000/svg">
<path d="M1 94.8837C43.6661 58.265 120.918 1.87922 178.844 1.07501C203.182 0.7371 227.025 0.70299 244.819 20.4053C262.845 40.3651 276.606 68.7839 282.129 94.8837C285.16 109.207 288.578 122.387 269.958 123.765C265.746 124.077 245.785 126.69 244.477 120.809C241.875 109.104 272.214 99.8171 279.171 97.499C297.855 91.2735 326.169 86.0791 344.691 95.6796C360.164 103.7 372.674 125.901 381.547 140.253C393.613 159.771 406.529 180.944 429.094 189.375C472.653 205.648 581.428 208.775 572.647 137.297C569.972 115.525 552.601 100.863 531.128 99.432C520.596 98.7301 514.634 106.548 514.634 116.716C514.634 135.9 552.628 134.401 563.547 135.022C638.556 139.29 715.172 135.499 789 121.832" stroke="#58BFC3" stroke-width="2" stroke-linecap="round" stroke-dasharray="6 6"/>
</svg>
