<svg width="609" height="321" viewBox="0 0 609 321" fill="none" xmlns="http://www.w3.org/2000/svg">
<g clip-path="url(#clip0_1001_6393)">
<path d="M-79.0586 320.838C-66.1372 295.257 -56.1357 268.832 -32.1171 252.019C-18.1913 242.271 -3.13607 237.918 13.4481 235.43C28.0944 233.233 42.2562 232.17 57.0574 232.17C78.7763 232.17 95.1886 247.537 113.199 257.959C137.876 272.239 167.37 283.633 195.491 288.24C218.824 292.061 249.186 297.098 272.061 288.747C285.453 283.857 294.126 273.405 293.648 258.829C292.989 238.705 274.933 225.985 256.052 224.637C243.536 223.743 231.057 229.058 228.959 242.602C226.785 256.635 243.863 253.033 253.516 253.033C298.2 253.033 340.014 250.744 383.258 237.893C427.725 224.679 471.038 200.452 493.802 158.426C506.763 134.498 505.927 110.333 484.24 92.2152C476.098 85.4132 466.87 81.299 456.567 79.1034C452.681 78.2751 440.858 77.0026 444.832 77.0026C472.379 77.0026 496.835 64.6926 521.04 52.5901C563.617 31.3015 605.787 8.0732 644.623 -19.4883" stroke="#C1CFEA" stroke-width="2" stroke-linecap="round" stroke-dasharray="6 6"/>
<path d="M463.257 237.567C462.562 235.123 460.256 232.584 459.493 229.906C458.709 227.167 458.176 224.78 459.072 222.219C459.345 222.301 459.677 222.329 459.946 222.404C458.991 217.977 462.873 213.77 465.408 210.383C467.622 207.423 468.609 207.846 470.384 204.772C473.204 199.891 474.841 192.342 474.876 186.785C474.89 184.403 475.124 180.99 474.136 178.606C473.219 176.393 472.026 176.885 469.747 177.476C464.296 178.898 458.958 180.901 454.964 184.127C451.718 186.751 447.089 190.783 446.255 194.683C441.934 188.897 430.018 188.432 430.018 188.432C430.012 186.935 430.166 182.029 429.12 179.375C426.552 172.874 418.165 160.934 415.856 159.586C413.547 158.235 403.807 172.463 402.545 176.138C400.993 180.669 400.35 186.686 404.444 191.159C403.289 190.122 401.797 189.451 400.152 189.071C400.927 194.412 403.924 194.41 402.405 199.655C401.196 203.828 396.303 205.512 392.59 208.36C394.358 208.311 398.268 208.327 399.793 208.02C398.355 209.024 395.812 210.385 394.255 211.389C392.275 212.667 389.767 213.213 387.454 214.617C390.439 215.608 393.005 217.283 397.895 215.196C395.991 217.183 391.969 217.365 384.506 221.734C390.124 224.136 395.648 221.862 397.847 219.617C397.472 222.105 393.566 230.003 393.155 231.984C392.927 233.107 392.664 234.713 393.478 235.84C395.467 234.554 396.828 231.474 399.239 230.286C398.545 232.397 399.046 234.675 399.353 236.946C399.644 239.141 399.355 242.359 401.164 244.248C402.061 241.786 402.709 239.18 403.38 236.645C404.356 238.635 405.596 240.986 405.992 243.129C406.314 244.837 406.106 245.656 407.271 247.183C408.031 248.179 409.786 250.46 410.877 250.926C411.489 249.242 411.806 245.232 414.451 248.09C416.44 250.232 415.477 253.751 417.491 255.618C419.736 254.425 422.349 253.434 424.491 252.138C425.578 251.478 426.704 250.865 427.843 250.401C428.391 252.745 427.537 255.443 428.543 257.625C429.951 257.174 430.217 255.852 431.112 254.885C432.118 253.803 433.389 252.886 434.366 251.825C435.833 250.241 437.857 247.367 439.941 246.443C441.131 249.38 439.273 252.803 439.473 255.765C442.203 252.333 446.471 249.938 448.345 245.789C449.159 248.315 448.003 251.213 447.549 253.709C451.074 249.293 452.016 242.753 455.621 238.349C456.965 239.566 458.033 241.468 459.345 242.493C460.657 240.357 457.888 236.343 457.358 234.183C460.115 234.619 460.967 236.845 463.257 237.567Z" fill="#C1CFEA"/>
<path d="M420.697 208.564C419.861 207.679 418.936 207.091 417.991 206.574C417.044 206.072 416.06 205.69 415.052 205.395C414.042 205.105 413.007 204.902 411.937 204.82C410.862 204.753 409.768 204.755 408.587 205.056L408.484 205.411C409.322 206.296 410.245 206.884 411.19 207.399C412.137 207.903 413.12 208.286 414.13 208.581C415.138 208.871 416.175 209.073 417.244 209.153C418.319 209.223 419.414 209.22 420.594 208.919L420.697 208.564Z" fill="#373535"/>
<path d="M452.072 217.654C451.236 216.769 450.311 216.181 449.366 215.665C448.419 215.161 447.435 214.779 446.427 214.485C445.416 214.195 444.381 213.992 443.311 213.911C442.237 213.843 441.143 213.845 439.962 214.146L439.859 214.502C440.696 215.387 441.62 215.974 442.564 216.49C443.512 216.993 444.495 217.376 445.505 217.67C446.513 217.961 447.549 218.163 448.618 218.245C449.693 218.313 450.789 218.311 451.969 218.01L452.072 217.654Z" fill="#373535"/>
<path d="M425.403 222.808L421.18 221.584C419.081 220.976 419.975 217.888 422.074 218.496L433.49 221.803C435.638 222.425 434.743 225.513 432.596 224.891L428.59 223.731L425.06 235.919C424.451 238.019 421.25 237.145 421.872 234.996L425.403 222.808Z" fill="#373535"/>
<path d="M416.243 201.267C413.541 200.485 410.044 201.538 408.94 205.351C407.842 209.142 410.227 211.924 412.929 212.707C415.706 213.512 419.234 212.442 420.332 208.651C421.436 204.838 419.02 202.072 416.243 201.267ZM412.336 215.752C407.815 214.653 404.041 210.342 405.754 204.428C407.474 198.491 412.954 196.914 417.419 198.207C421.579 199.648 425.15 203.848 423.494 209.567C421.836 215.287 416.56 216.976 412.336 215.752Z" fill="#373535"/>
<path d="M447.588 210.347C444.885 209.564 441.388 210.617 440.284 214.43C439.185 218.221 441.571 221.004 444.274 221.787C447.05 222.591 450.577 221.521 451.676 217.73C452.78 213.918 450.364 211.151 447.588 210.347ZM443.679 224.831C439.159 223.732 435.385 219.421 437.098 213.507C438.817 207.57 444.297 205.993 448.762 207.286C452.922 208.727 456.495 212.927 454.838 218.646C453.181 224.367 447.903 226.055 443.679 224.831Z" fill="#373535"/>
</g>
<defs>
<clipPath id="clip0_1001_6393">
<rect width="609" height="321" rx="18" fill="white"/>
</clipPath>
</defs>
</svg>
