<svg width="1400" height="247" viewBox="0 0 1400 247" fill="none" xmlns="http://www.w3.org/2000/svg">
<path d="M-54 105.895C-54 99.9766 -47.8793 95.0398 -44.2265 90.9231C-32.9017 78.1603 -19.6564 68.2745 -5.34044 59.1073C12.7033 47.5529 31.6273 40.5755 53.0926 40.3921C67.0328 40.2729 83.0472 38.8174 95.3058 46.8384C119.237 62.4968 124.068 86.4083 123.795 112.965C123.67 125.085 115.019 150.753 97.5932 146.653C72.2756 140.696 115.988 81.7554 132.736 115.253C142.652 135.084 156.654 144.858 178.485 150.812C232.618 165.575 294.595 169.809 350.145 161.729C386.661 156.418 451.655 140.26 459.525 96.5377C461.599 85.0127 460.821 73.7653 450.375 66.8013C446.766 64.3954 436.439 58.5819 431.868 61.3947C426.131 64.9251 428.831 78.5137 432.076 82.6053C441.687 94.7243 456.811 101.457 470.962 106.623C517.81 123.726 575.993 119.413 624.115 112.446C702.923 101.034 755.178 147.43 827 112.446C874 90.2971 1019.4 57.7 1225 104.5C1430.6 151.3 1491.33 116 1496 92.5L1484.5 245.5" stroke="#75D8DB" stroke-width="2" stroke-linecap="round" stroke-dasharray="10 10"/>
<path d="M821.552 101.61C816.486 97.5997 814.989 91.28 813.203 85.0481C805.476 92.043 802.373 103.17 800.416 103.736C794.712 105.387 785.117 91.7276 784.555 92.2782C781.228 95.5295 764.562 115.098 776.714 135.479C788.168 154.688 823.555 153.738 831.688 126.825C837.64 107.131 823.722 103.328 821.552 101.61Z" fill="#C8E8E8"/>
<path d="M789.714 116.921C790.377 117.646 790.794 118.423 791.155 119.213C791.504 120.004 791.754 120.817 791.932 121.645C792.107 122.475 792.209 123.319 792.212 124.184C792.203 125.052 792.138 125.931 791.827 126.864L791.536 126.926C790.872 126.2 790.455 125.424 790.095 124.634C789.746 123.843 789.495 123.03 789.317 122.201C789.143 121.373 789.041 120.528 789.038 119.663C789.046 118.794 789.111 117.915 789.422 116.983L789.714 116.921Z" fill="#373535"/>
<path d="M815.478 111.445C816.141 112.17 816.558 112.947 816.918 113.738C817.268 114.529 817.518 115.342 817.695 116.17C817.87 116.999 817.972 117.844 817.975 118.709C817.967 119.577 817.902 120.455 817.591 121.388L817.298 121.451C816.635 120.725 816.218 119.948 815.858 119.159C815.509 118.367 815.258 117.555 815.081 116.725C814.906 115.897 814.805 115.052 814.801 114.188C814.809 113.319 814.874 112.439 815.185 111.508L815.478 111.445Z" fill="#373535"/>
<path d="M804.33 129.055L800.862 129.792C799.139 130.158 798.6 127.622 800.323 127.256L809.696 125.263C811.459 124.888 811.998 127.425 810.235 127.8L806.946 128.499L809.074 138.506C809.44 140.229 806.832 140.827 806.457 139.062L804.33 129.055Z" fill="#373535"/>
<path d="M789.626 117.228C787.408 117.699 785.323 119.779 785.989 122.909C786.65 126.02 789.404 127.092 791.623 126.62C793.903 126.136 796.003 124.032 795.342 120.921C794.677 117.79 791.906 116.743 789.626 117.228ZM792.36 129.011C788.728 129.949 784.405 128.321 783.373 123.465C782.337 118.591 785.632 115.385 789.298 114.605C792.804 114.046 796.94 115.673 797.938 120.369C798.936 125.066 795.828 128.274 792.36 129.011Z" fill="#373535"/>
<path d="M815.36 111.758C813.14 112.229 811.056 114.309 811.721 117.439C812.382 120.551 815.137 121.622 817.356 121.15C819.635 120.666 821.736 118.563 821.074 115.451C820.409 112.321 817.639 111.273 815.36 111.758ZM818.092 123.542C814.46 124.479 810.137 122.851 809.105 117.995C808.069 113.121 811.364 109.915 815.03 109.136C818.535 108.577 822.673 110.203 823.671 114.899C824.67 119.596 821.56 122.804 818.092 123.542Z" fill="#373535"/>
<path d="M78.6583 8.0137C75.7197 7.38864 72.5199 8.3488 72.3315 11.9904C71.5213 10.9082 69.844 9.8338 67.9568 9.43266C65.3735 8.88358 62.3992 9.59511 60.7211 13.2751C60.3421 13.0995 59.9728 12.9775 59.6172 12.9019C55.0354 11.9272 52.4866 18.7205 55.374 21.1499C51.6816 21.8328 51.9703 26.6031 54.417 27.9605C52.3014 29.8471 49.29 35.9664 46.8339 37.5018C46.6083 37.4004 46.3743 37.3245 46.1354 37.2737C44.0563 36.831 41.6443 38.3194 41.7545 41.9278C41.4669 41.7452 41.166 41.6252 40.8577 41.5597C37.9776 40.9475 34.4894 45.0755 35.6551 46.8711C33.261 47.1925 33.5322 49.9376 35.1223 50.2756C35.2881 50.3109 35.4678 50.32 35.6614 50.2973C34.4735 52.6116 35.8085 54.7912 37.6593 55.1845C38.4096 55.344 39.2456 55.2099 40.031 54.6701C40.5209 55.2748 41.0844 55.6069 41.6526 55.7277C43.6319 56.1484 45.6692 54.0097 44.8435 51.9915C44.9375 52.0177 45.0293 52.0405 45.1182 52.0594C48.5871 52.7967 48.9795 48.143 47.5199 46.6607C47.7769 46.8953 48.049 47.0357 48.326 47.0946C50.2207 47.4973 52.3307 44.1112 51.0589 41.3142C52.946 38.3577 55.5591 34.4136 56.0513 33.8575C56.3595 35.4729 50.7625 47.3346 50.9528 48.1042C51.9688 52.1921 56.7126 57.4192 59.0867 60.8431C61.1683 63.8457 65.0297 66.4146 69.4914 67.363C73.1087 68.1319 77.1201 67.837 80.9011 65.8457C85.9111 63.2116 89.0521 61.3883 94.0173 56.1575C94.7663 55.369 93.6271 42.1825 94.0674 40.9639C94.0933 41.2692 96.0973 49.2302 96.7272 50.9612C94.8864 52.9232 94.6859 57.7612 97.4016 58.8324C94.7965 60.7081 95.8222 65.6463 98.7237 66.263C99.0383 66.3299 99.3745 66.3462 99.7306 66.302C99.9381 68.0341 101.013 68.9528 102.256 69.217C104.708 69.7382 107.817 67.7201 106.254 64.3852C108.701 63.8039 107.176 59.3402 105.066 57.6636C106.426 53.7771 104.655 49.9758 101.687 48.9779C99.8258 47.6379 97.4682 38.1308 96.5209 35.9304C96.5928 35.9606 96.6659 35.9836 96.7401 35.9994C98.5369 36.3813 100.99 32.7292 98.4262 30.4221C102.175 30.6445 103.268 24.027 99.1952 23.1613C98.9373 23.1065 98.6588 23.0742 98.3589 23.0685C100.59 20.2403 98.1214 15.8058 94.4152 15.018C92.741 14.6621 90.8142 15.0501 88.9544 16.6663C89.9722 13.9853 88.8577 12.2122 87.2387 11.8681C85.9336 11.5906 84.2999 12.2425 83.1927 14.0974C84.6344 11.1528 81.7947 8.68036 78.6583 8.0137Z" fill="#FAD0DD"/>
<path d="M67.7552 39.146C67.105 38.5508 66.4064 38.175 65.6968 37.8508C64.9866 37.5377 64.2558 37.3135 63.5129 37.1539C62.7677 36.9972 62.0097 36.9049 61.2327 36.902C60.4534 36.9097 59.6632 36.969 58.8262 37.2481L58.7707 37.5092C59.4218 38.1046 60.1195 38.4806 60.8285 38.8039C61.5394 39.1176 62.2693 39.3424 63.0137 39.5023C63.7573 39.6587 64.5163 39.7503 65.2926 39.7527C66.0725 39.746 66.8636 39.6864 67.6997 39.4071L67.7552 39.146Z" fill="#373535"/>
<path d="M90.8352 44.3257C89.999 44.605 89.2081 44.6634 88.4282 44.6701C87.6518 44.6681 86.8929 44.5764 86.1495 44.4193C85.4048 44.2602 84.675 44.0353 83.9641 43.7212C83.2552 43.398 82.5572 43.0232 81.9061 42.4278L81.962 42.1651C82.7989 41.886 83.5891 41.8271 84.3682 41.8201C85.1451 41.8235 85.9035 41.9142 86.6483 42.0725C87.3915 42.2305 88.122 42.4563 88.8323 42.769C89.542 43.0924 90.2407 43.4678 90.891 44.063L90.8352 44.3257Z" fill="#373535"/>
<path d="M71.9014 49.1846L68.7873 48.5227C67.2397 48.1937 67.7238 45.916 69.2714 46.245L77.6889 48.0342C79.2722 48.3707 78.7881 50.6484 77.2048 50.3119L74.2513 49.6841L72.3411 58.671C72.0122 60.2182 69.6546 59.7552 69.9912 58.1716L71.9014 49.1846Z" fill="#373535"/>
<path d="M64.1588 34.1095C62.1664 33.686 59.6966 34.6305 59.0991 37.4415C58.5051 40.2362 60.3736 42.1206 62.366 42.5441C64.4135 42.9793 66.9048 42.0216 67.4988 39.2269C68.0963 36.4159 66.2063 34.5447 64.1588 34.1095ZM62.0974 44.7755C58.7748 44.2182 55.823 41.3035 56.75 36.9421C57.6803 32.5653 61.5549 31.1385 64.8472 31.8383C67.9274 32.6602 70.7264 35.5055 69.8301 39.7224C68.9336 43.9401 65.2115 45.4375 62.0974 44.7755Z" fill="#373535"/>
<path d="M87.268 39.0228C85.2748 38.5991 82.805 39.5435 82.2075 42.3545C81.6135 45.1493 83.482 47.0337 85.4752 47.4573C87.5219 47.8924 90.0132 46.9347 90.6072 44.1399C91.2047 41.3289 89.3147 39.4578 87.268 39.0228ZM85.205 49.6884C81.8832 49.1313 78.9314 46.2166 79.8584 41.8552C80.7887 37.4784 84.6633 36.0516 87.9549 36.7513C91.035 37.5731 93.8356 40.4187 92.9392 44.6356C92.0427 48.8533 88.3191 50.3504 85.205 49.6884Z" fill="#373535"/>
</svg>
