<svg width="1400" height="232" viewBox="0 0 1400 232" fill="none" xmlns="http://www.w3.org/2000/svg">
<path d="M-125 162.289C-119.598 161.749 -114.343 157.234 -109.484 155.075C-81.9379 142.832 -49.8843 141.261 -20.242 139.954C20.1418 138.174 60.7594 137.632 100.329 146.872C125.176 152.674 183.435 169.47 180.379 205.378C179.793 212.264 165.349 221.125 162.986 211.308C159.049 194.956 200.026 186.816 209.83 185.415C234.05 181.955 257.538 185.812 280.888 192.629C312.972 201.997 344.374 211.836 377.048 219.214C422.079 229.382 466.69 235.419 512.64 225.935C562.88 215.564 596.762 185.727 619.671 140.448C626.277 127.393 641.782 96.6243 630.048 81.8429C621.764 71.4062 601.074 65.0748 588.936 72.7507C576.885 80.371 597.664 91.4368 602.475 93.9987C622.017 104.404 643.474 108.738 665.429 110.701C714.815 115.116 765.089 111.225 813.375 100.126C846.053 92.6149 877.665 81.0147 909.535 70.7741C969.579 51.4801 1030.04 33.7479 1092.17 22.3482C1174.59 7.22364 1258.47 1.12582 1342.21 1.00131C1424.82 0.878457 1505.96 9.43768 1588.09 16.4185" stroke="#9CE0DD" stroke-width="2" stroke-linecap="round" stroke-dasharray="8 8"/>
</svg>
