<svg width="1400" height="264" viewBox="0 0 1400 264" fill="none" xmlns="http://www.w3.org/2000/svg">
<path d="M-351 103.755C-340.397 97.9232 -331.185 89.5856 -321.098 82.9108C-295.046 65.6703 -268.736 49.4057 -240.996 35.0023C-209.721 18.7634 -180.601 7.56479 -145.288 3.79085C-101.353 -0.904531 -54.379 -0.386763 -11.4937 10.8844C39.494 24.285 105.546 54.3221 115.426 112.704C121.156 146.566 123.312 189.202 94.0359 213.431C86.1364 219.969 68.208 228.668 58.0227 221.616C49.7852 215.913 54.89 207.249 61.5149 203.937C109.002 180.193 140.202 226.029 181.777 241.26C224.938 257.071 270.266 262.868 316.117 262.868C354.161 262.868 391.002 261.131 427.867 250.754C469.745 238.966 507.458 217.364 542.564 192.042C589.385 158.269 637.086 108.561 642.855 47.9889C645.516 20.0519 640.013 4.33701 609.57 7.71957C597.59 9.05069 578.141 19.599 578.141 33.4745C578.141 60.1404 618.142 66.1038 637.508 71.8885C748.246 104.966 864.911 108.342 979.742 110.084C1085.91 111.696 1192.03 112.341 1298.19 115.104C1378.35 117.191 1459 114.541 1538.71 123.398" stroke="#9CE0DD" stroke-width="2" stroke-linecap="round" stroke-dasharray="10 10"/>
<path d="M588.456 164.874C588.603 158.266 588.285 151.253 585.986 146.012C577.322 148.246 568.422 159.599 568.422 159.599C565.053 157.181 558.974 155.892 556.152 157.671C555.962 151.794 554.885 145.302 550.072 138.378C544.45 142.388 541.166 148.129 535.105 155.913C528.668 164.174 515.08 173.221 517.103 187.953C519.732 207.1 547.191 218.358 557.377 218.571C575.724 218.95 591.054 214.415 595.118 194.557C598.503 178.008 588.348 170.034 588.456 164.874Z" fill="#C1CFEA"/>
<path d="M543.477 171.921C543.882 173.125 543.967 174.262 543.979 175.385C543.976 176.502 543.845 177.593 543.62 178.663C543.39 179.735 543.066 180.785 542.614 181.808C542.147 182.827 541.606 183.831 540.746 184.767L540.368 184.686C539.963 183.482 539.877 182.345 539.865 181.224C539.868 180.105 539.999 179.015 540.225 177.942C540.454 176.873 540.779 175.822 541.231 174.8C541.697 173.78 542.238 172.776 543.098 171.84L543.477 171.921Z" fill="#373535"/>
<path d="M576.922 179.03C577.327 180.235 577.413 181.372 577.423 182.494C577.422 183.611 577.29 184.703 577.064 185.773C576.835 186.845 576.511 187.895 576.058 188.917C575.592 189.937 575.051 190.941 574.192 191.877L573.812 191.796C573.407 190.591 573.321 189.454 573.31 188.333C573.313 187.215 573.443 186.124 573.67 185.051C573.899 183.982 574.224 182.931 574.675 181.91C575.141 180.889 575.683 179.885 576.542 178.949L576.922 179.03Z" fill="#373535"/>
<path d="M554.424 193.937L549.922 192.98C547.684 192.505 548.381 189.228 550.618 189.704L562.788 192.291C565.077 192.777 564.381 196.054 562.092 195.567L557.822 194.66L555.074 207.587C554.6 209.815 551.192 209.144 551.676 206.865L554.424 193.937Z" fill="#373535"/>
<path d="M543.209 172.236C540.328 171.623 536.76 172.979 535.9 177.023C535.046 181.043 537.749 183.757 540.63 184.37C543.59 184.999 547.19 183.624 548.044 179.604C548.904 175.56 546.169 172.865 543.209 172.236ZM540.245 187.578C535.441 186.773 531.171 182.573 532.504 176.301C533.842 170.004 539.441 167.956 544.201 168.968C548.654 170.156 552.704 174.254 551.415 180.32C550.125 186.388 544.747 188.535 540.245 187.578Z" fill="#373535"/>
<path d="M576.624 179.337C573.742 178.725 570.174 180.08 569.314 184.124C568.46 188.145 571.163 190.859 574.045 191.471C577.004 192.1 580.604 190.726 581.458 186.705C582.318 182.662 579.583 179.966 576.624 179.337ZM573.658 194.68C568.855 193.875 564.585 189.675 565.918 183.402C567.256 177.105 572.855 175.058 577.614 176.069C582.067 177.257 586.119 181.356 584.83 187.422C583.54 193.49 578.16 195.637 573.658 194.68Z" fill="#373535"/>
<path d="M147.77 122.271C152.132 118.113 156.147 114.936 160.361 112.705C156.676 111.124 152.826 111.862 149.324 109.062C151.032 105.831 155.801 103.879 158.014 100.776C134.614 97.169 132.491 88.5851 127.211 73.2013C120.721 79.9016 116.246 92.4154 113.149 99.1984C106.986 92.2141 99.3445 85.6611 90.7448 81.3936C92.7112 92.2758 86.7927 109.271 72.8539 119.672C75.7789 120.471 79.6342 119.958 81.8124 121.795C77.5051 124.757 72.7168 128.828 72.7168 128.828C72.7168 128.828 77.6279 131.629 82.0778 131.352C78.7401 133.716 73.0966 135.233 69.0451 137.235C72.9065 138.117 77.7905 136.75 82.0169 137.493C87.8873 138.526 93.8244 141.579 99.1599 144.217C108.702 148.935 116.56 155.617 127.719 151.66C136.357 148.596 138.79 138.133 146.655 133.714C152.713 130.311 159.877 127.085 164.774 121.774C158.148 121.209 155.222 123.134 147.77 122.271Z" fill="#D0C5E1"/>
<path d="M99.0694 114.972C99.9132 115.89 100.444 116.877 100.903 117.879C101.347 118.883 101.665 119.914 101.891 120.964C102.112 122.017 102.241 123.088 102.244 124.186C102.232 125.287 102.148 126.404 101.751 127.587L101.379 127.666C100.535 126.747 100.003 125.761 99.5458 124.76C99.1016 123.755 98.7836 122.724 98.5577 121.673C98.3365 120.621 98.2077 119.55 98.2053 118.453C98.2159 117.351 98.3003 116.233 98.6977 115.051L99.0694 114.972Z" fill="#373535"/>
<path d="M131.909 107.993C132.753 108.911 133.284 109.898 133.742 110.9C134.187 111.903 134.505 112.934 134.729 113.985C134.952 115.038 135.081 116.109 135.083 117.207C135.072 118.308 134.988 119.425 134.591 120.608L134.218 120.687C133.374 119.768 132.842 118.782 132.385 117.781C131.941 116.776 131.622 115.745 131.398 114.693C131.175 113.642 131.048 112.571 131.044 111.474C131.055 110.372 131.139 109.254 131.536 108.072L131.909 107.993Z" fill="#373535"/>
<path d="M117.676 130.352L113.256 131.291C111.059 131.758 110.376 128.542 112.573 128.075L124.519 125.535C126.766 125.058 127.449 128.275 125.202 128.752L121.011 129.643L123.709 142.34C124.174 144.527 120.85 145.287 120.374 143.049L117.676 130.352Z" fill="#373535"/>
<path d="M98.9569 115.361C96.1292 115.962 93.4704 118.604 94.3145 122.575C95.1535 126.522 98.6622 127.879 101.49 127.278C104.396 126.66 107.075 123.988 106.236 120.041C105.392 116.07 101.863 114.743 98.9569 115.361ZM102.426 130.31C97.7966 131.505 92.2899 129.443 90.9806 123.284C89.6661 117.1 93.869 113.027 98.5417 112.034C103.009 111.32 108.278 113.38 109.544 119.338C110.811 125.296 106.846 129.37 102.426 130.31Z" fill="#373535"/>
<path d="M131.759 108.389C128.93 108.99 126.271 111.632 127.115 115.603C127.954 119.551 131.463 120.907 134.292 120.306C137.197 119.688 139.876 117.017 139.037 113.07C138.192 109.098 134.664 107.772 131.759 108.389ZM135.226 123.339C130.597 124.533 125.091 122.472 123.781 116.312C122.467 110.128 126.67 106.056 131.341 105.063C135.809 104.349 141.08 106.408 142.346 112.366C143.613 118.325 139.646 122.399 135.226 123.339Z" fill="#373535"/>
</svg>
