<svg width="1400" height="283" viewBox="0 0 1400 283" fill="none" xmlns="http://www.w3.org/2000/svg">
<path d="M-205 158.646C-205 141.007 -187.883 122.653 -177.703 109.511C-169.611 99.0646 -158.754 91.0134 -148.99 82.2131C-136.887 71.3061 -125.854 60.3439 -112.189 51.2759C-76.8295 27.8134 -34.0563 17.6145 7.51588 11.644C50.1577 5.51995 102.591 1.52344 140.667 26.0005C171.333 45.7147 197.07 78.2734 220.638 105.77C235.329 122.909 246.318 143.555 246.318 166.33C246.318 174.25 246.092 199.807 233.579 200.502C226.678 200.886 224.151 195.904 227.311 189.583C233.646 176.914 258.165 174.049 269.976 172.396C281.607 170.767 294.664 170.416 306.373 171.587C319.832 172.933 332.5 171.587 356 184.5C394.948 205.902 428.5 213.5 463 208.409C572.855 192.197 683.596 256.376 794.31 253.5C840.581 252.298 884.992 244.002 929.585 232.066C955.39 225.159 982.085 217.821 1006.42 206.589C1015.83 202.248 1028.77 196.142 1030.08 184.346C1031.78 169.002 1011.15 160.399 999.648 156.847C993.738 155.022 966.86 148.548 972.452 163.924C975.157 171.365 988.47 170.574 994.492 171.203C1017.04 173.559 1039.87 174.492 1062.53 173.832C1090.74 173.01 1111.08 171.659 1139.27 165.845C1153.67 162.875 1365.27 99.2727 1379.18 94.5099C1456.56 68.0184 1455.21 57.3044 1455.21 57.3044" stroke="#75D8DB" stroke-width="2" stroke-linecap="round" stroke-dasharray="10 10"/>
<path d="M1254.34 142.246C1256.34 138.494 1259.34 132.718 1260.97 126.714C1262.01 122.874 1262.28 117.607 1261.56 115.173C1261.32 114.35 1260.97 114.091 1260.12 114.224C1256.5 114.794 1253.04 115.92 1249.72 117.432C1246.92 118.7 1238.4 123.336 1236 125.259C1235.71 125.492 1235.47 125.552 1235.12 125.364C1232.12 123.769 1230.57 121.924 1227.19 121.578C1226.81 121.539 1225.11 121.25 1224.97 120.89C1223.27 116.24 1220.02 106.356 1216.86 102.544C1215.74 101.193 1214.49 99.9422 1213.26 98.689C1212.53 97.9544 1212.11 98.0114 1211.35 98.7115C1208.3 101.507 1205.64 106.677 1204.11 110.491C1202.52 114.453 1201.97 122.053 1201.8 126.839C1197.32 132.301 1179.95 136.223 1182.01 138.179C1187.83 143.688 1198.68 156.398 1202 161.965C1206.67 169.808 1210.7 174.954 1214.19 175.693C1214.77 175.816 1216.34 176.674 1218.01 176.849C1224.92 177.577 1231.19 173.509 1237.11 170.883C1237.12 170.877 1237.14 170.87 1237.16 170.864L1237.14 170.892C1243.07 168.267 1261.94 162.835 1265.63 163.526C1268.5 164.066 1256.42 147.821 1254.34 142.246Z" fill="#F3A995"/>
<path d="M1244.84 151.346C1244.89 152.026 1244.83 152.76 1244.59 153.543C1243.54 156.996 1240.31 157.936 1237.78 157.169C1235.31 156.422 1233.16 153.849 1234.21 150.396C1234.33 149.985 1234.49 149.613 1234.67 149.272C1232.17 149.481 1230.29 150.567 1229.47 152.935C1227.92 157.415 1232.09 161.22 1221.91 158.016C1211.9 154.863 1216.79 152.629 1217.66 149.886C1218.39 147.551 1217.76 145.64 1216.21 144.08C1216.17 144.343 1216.11 144.61 1216.03 144.885C1214.98 148.338 1211.74 149.278 1209.21 148.51C1206.75 147.764 1204.6 145.191 1205.65 141.737C1205.9 140.905 1206.28 140.222 1206.74 139.67C1195.73 136.95 1180.76 137.485 1182.04 138.189C1194.91 145.307 1200.45 149.507 1204.79 155.005C1209 160.35 1209.01 169.372 1219.58 165.915C1227.59 174.298 1230.09 167.186 1237.99 164.5C1243.71 162.558 1252.42 163.408 1265.62 163.528C1266.86 163.54 1255.29 155.326 1244.84 151.346Z" fill="white"/>
<path d="M1206.99 138.977C1208.06 139.291 1208.92 139.802 1209.73 140.358C1210.54 140.922 1211.26 141.564 1211.91 142.264C1212.57 142.967 1213.17 143.727 1213.68 144.565C1214.18 145.412 1214.63 146.305 1214.87 147.392L1214.63 147.623C1213.56 147.308 1212.7 146.799 1211.88 146.243C1211.08 145.68 1210.36 145.037 1209.7 144.337C1209.05 143.635 1208.45 142.875 1207.94 142.036C1207.44 141.188 1206.99 140.295 1206.74 139.209L1206.99 138.977Z" fill="#1D1D1B"/>
<path d="M1245.06 150.823C1244.25 151.591 1243.38 152.082 1242.49 152.509C1241.6 152.922 1240.68 153.225 1239.75 153.444C1238.81 153.662 1237.86 153.796 1236.87 153.819C1235.89 153.83 1234.89 153.775 1233.83 153.443L1233.75 153.113C1234.56 152.345 1235.43 151.854 1236.32 151.428C1237.21 151.014 1238.12 150.711 1239.06 150.492C1239.99 150.274 1240.95 150.141 1241.93 150.118C1242.92 150.107 1243.92 150.161 1244.98 150.492L1245.06 150.823Z" fill="#1D1D1B"/>
<path d="M1220.52 157.89L1216.67 156.723C1214.76 156.144 1215.61 153.329 1217.52 153.909L1227.93 157.063C1229.89 157.656 1229.03 160.47 1227.08 159.877L1223.42 158.771L1220.06 169.878C1219.48 171.791 1216.56 170.956 1217.15 168.997L1220.52 157.89Z" fill="#1D1D1B"/>
<path d="M1212.39 138.087C1209.93 137.34 1206.72 138.265 1205.67 141.739C1204.62 145.193 1206.77 147.766 1209.23 148.512C1211.76 149.279 1215 148.34 1216.05 144.886C1217.1 141.412 1214.92 138.854 1212.39 138.087ZM1208.65 151.291C1204.53 150.234 1201.13 146.248 1202.76 140.859C1204.4 135.449 1209.43 134.068 1213.5 135.302C1217.29 136.666 1220.51 140.548 1218.93 145.76C1217.35 150.973 1212.5 152.458 1208.65 151.291Z" fill="#1D1D1B"/>
<path d="M1240.95 146.747C1238.49 146 1235.28 146.925 1234.23 150.399C1233.18 153.853 1235.33 156.426 1237.79 157.173C1240.32 157.939 1243.56 157 1244.61 153.547C1245.66 150.072 1243.48 147.514 1240.95 146.747ZM1237.22 159.951C1233.09 158.894 1229.69 154.908 1231.32 149.519C1232.96 144.109 1237.99 142.728 1242.06 143.962C1245.85 145.326 1249.07 149.208 1247.49 154.42C1245.91 159.633 1241.06 161.117 1237.22 159.951Z" fill="#1D1D1B"/>
<path d="M137.83 35.8639C137.83 35.8639 125.665 29.5704 132.502 20.095C135.055 16.5578 148.199 24.9904 148.199 24.9904C148.199 24.9904 154.244 21.0639 159.968 19.5475C165.692 18.0327 173.813 19.3861 173.813 19.3861C173.813 19.3861 177.478 6.11195 182.576 7.72234C192.691 10.9178 186.716 22.9497 186.716 22.9497C186.716 22.9497 200.908 33.302 217.498 33.5435C200.219 45.3276 194.995 62.1586 186.226 72.1125C180.654 78.4384 172.879 81.4607 161.9 77.5281C154.35 74.8247 139.759 67.3635 117.885 59.7808C131.151 50.991 137.83 35.8639 137.83 35.8639Z" fill="#C1BDBB"/>
<path d="M168.714 57.8339L164.695 58.8268C162.699 59.3202 161.973 56.3822 163.969 55.8889L174.831 53.2052C176.874 52.7004 177.6 55.6383 175.557 56.1431L171.746 57.0847L174.611 68.6808C175.105 70.6781 172.084 71.4744 171.579 69.43L168.714 57.8339Z" fill="#373535"/>
<path d="M151.1 44.5939C148.529 45.2291 146.176 47.7363 147.073 51.3634C147.963 54.9685 151.218 56.1134 153.789 55.4782C156.431 54.8254 158.802 52.2905 157.911 48.6854C157.015 45.0583 153.742 43.9411 151.1 44.5939ZM154.741 58.2392C150.538 59.4732 145.432 57.7383 144.041 52.1123C142.646 46.4643 146.368 42.5968 150.617 41.5471C154.686 40.7601 159.574 42.5 160.919 47.9422C162.264 53.3843 158.759 57.2463 154.741 58.2392Z" fill="#373535"/>
<path d="M180.921 37.2264C178.349 37.8619 175.997 40.3691 176.893 43.9962C177.784 47.6013 181.039 48.7462 183.611 48.1108C186.252 47.4582 188.622 44.9233 187.731 41.3182C186.835 37.6911 183.562 36.5739 180.921 37.2264ZM184.56 50.8723C180.359 52.106 175.252 50.3711 173.862 44.7451C172.466 39.0971 176.189 35.2296 180.436 34.1802C184.505 33.3931 189.396 35.1325 190.74 40.5747C192.085 46.0169 188.578 49.8794 184.56 50.8723Z" fill="#373535"/>
<path d="M158.847 35.3422C151.709 29.0291 135.74 48.5916 117.882 59.7814C117.882 59.7814 134.623 55.325 143.783 50.5147C143.387 45.742 146.779 42.4962 150.612 41.5491C154.681 40.7622 159.57 42.5021 160.914 47.9443C161.426 50.0148 161.233 51.8543 160.58 53.3965C161.559 52.5162 162.718 51.0566 163.095 48.9609C164.182 42.9199 159.949 36.3176 158.847 35.3422Z" fill="white"/>
<path d="M217.504 33.5408C198.306 35.4554 173.5 23.3726 169.041 32.1882C167.909 34.4264 168.863 43.197 172.352 46.8089C173.804 48.3134 175.569 49.1323 176.728 49.4592C175.416 48.3953 174.381 46.8403 173.863 44.7437C172.468 39.0957 176.19 35.2281 180.437 34.1787C184.131 33.465 188.492 34.8419 190.273 39.1706C204.007 39.3122 217.504 33.5408 217.504 33.5408Z" fill="white"/>
<path d="M149.052 47.9059C147.767 48.2234 146.59 49.4763 147.039 51.2904C147.484 53.0927 149.112 53.6656 150.397 53.348C151.719 53.0214 152.904 51.7534 152.459 49.9511C152.01 48.1371 150.374 47.5792 149.052 47.9059Z" fill="#373535"/>
<path d="M178.873 40.5387C177.587 40.8562 176.411 42.1091 176.859 43.9232C177.304 45.7255 178.932 46.2984 180.217 45.9809C181.539 45.6542 182.724 44.3862 182.279 42.5839C181.831 40.7699 180.195 40.212 178.873 40.5387Z" fill="#373535"/>
<path d="M450.776 170.5C444.891 173.465 431.955 181.002 431.955 181.002C431.955 181.002 427.167 180.888 426.11 178.4C423.442 172.1 423.014 160.534 421.628 159.249C419.809 157.561 408.134 175.085 397.979 182.643C389.281 189.119 377.202 192.988 377.202 192.988C377.202 192.988 394.935 225.347 415.102 231.816C430.387 236.716 450.612 220.123 461.801 218.752C453.701 205.436 446.966 188.819 450.776 170.5Z" fill="#CDE8D5"/>
<path d="M409.915 189.384C410.08 190.509 409.974 191.525 409.806 192.517C409.627 193.501 409.338 194.443 408.97 195.352C408.598 196.261 408.146 197.137 407.587 197.967C407.015 198.793 406.38 199.594 405.476 200.285L405.156 200.155C404.993 199.029 405.098 198.012 405.266 197.022C405.446 196.037 405.735 195.095 406.103 194.184C406.475 193.277 406.926 192.402 407.485 191.572C408.057 190.745 408.692 189.944 409.596 189.254L409.915 189.384Z" fill="#373535"/>
<path d="M438.165 200.888C438.33 202.013 438.224 203.029 438.055 204.021C437.877 205.005 437.588 205.947 437.219 206.856C436.848 207.764 436.396 208.641 435.836 209.47C435.265 210.297 434.63 211.097 433.726 211.789L433.405 211.659C433.242 210.532 433.347 209.516 433.515 208.525C433.696 207.541 433.984 206.598 434.353 205.688C434.724 204.78 435.176 203.906 435.734 203.076C436.306 202.248 436.941 201.448 437.845 200.757L438.165 200.888Z" fill="#373535"/>
<path d="M416.029 210.513L412.227 208.964C410.337 208.195 411.47 205.414 413.359 206.183L423.636 210.368C425.569 211.156 424.437 213.936 422.504 213.149L418.898 211.681L414.43 222.652C413.66 224.543 410.773 223.418 411.561 221.484L416.029 210.513Z" fill="#373535"/>
<path d="M409.634 189.62C407.202 188.629 403.852 189.267 402.455 192.698C401.065 196.11 403.008 198.927 405.441 199.917C407.941 200.935 411.32 200.286 412.71 196.874C414.107 193.443 412.134 190.638 409.634 189.62ZM404.593 202.687C400.502 201.224 397.419 196.853 399.587 191.53C401.763 186.186 407.005 185.257 411.024 186.893C414.747 188.637 417.652 192.885 415.556 198.033C413.459 203.182 408.395 204.235 404.593 202.687Z" fill="#373535"/>
<path d="M437.854 201.108C435.42 200.117 432.071 200.755 430.673 204.186C429.284 207.598 431.227 210.415 433.66 211.406C436.159 212.423 439.539 211.774 440.928 208.362C442.326 204.931 440.353 202.126 437.854 201.108ZM432.811 214.175C428.721 212.713 425.638 208.342 427.805 203.018C429.981 197.675 435.224 196.745 439.242 198.381C442.965 200.125 445.872 204.373 443.776 209.522C441.679 214.671 436.613 215.723 432.811 214.175Z" fill="#373535"/>
<path d="M915.364 235.763C918.925 231.351 922.283 227.899 925.94 225.309C922.313 224.268 918.813 225.418 915.209 223.216C916.409 219.988 920.617 217.593 922.303 214.425C900.052 213.838 897.031 206.058 890.241 192.29C885.005 199.334 882.353 211.578 880.29 218.295C873.696 212.494 865.778 207.271 857.243 204.303C860.397 214.252 856.944 230.863 845.213 242.258C848.037 242.657 851.568 241.717 853.822 243.177C850.166 246.462 846.197 250.843 846.197 250.843C846.197 250.843 851.115 252.879 855.229 252.089C852.405 254.699 847.329 256.792 843.795 259.149C847.502 259.513 851.888 257.652 855.918 257.844C861.516 258.111 867.421 260.261 872.715 262.093C882.183 265.372 890.319 270.688 900.241 265.656C907.921 261.758 908.919 251.677 915.714 246.604C920.948 242.697 927.234 238.824 931.155 233.271C924.909 233.531 922.415 235.682 915.364 235.763Z" fill="#D0C5E1"/>
<path d="M869.085 234.734C869.983 235.492 870.598 236.352 871.148 237.236C871.683 238.122 872.105 239.049 872.443 240.005C872.777 240.964 873.027 241.951 873.163 242.978C873.286 244.01 873.343 245.065 873.116 246.22L872.779 246.338C871.881 245.578 871.266 244.719 870.718 243.836C870.182 242.95 869.76 242.023 869.422 241.065C869.088 240.107 868.838 239.12 868.702 238.094C868.578 237.061 868.521 236.005 868.748 234.852L869.085 234.734Z" fill="#373535"/>
<path d="M898.851 224.288C899.749 225.047 900.364 225.907 900.912 226.791C901.449 227.676 901.87 228.603 902.207 229.56C902.542 230.519 902.793 231.506 902.928 232.533C903.051 233.565 903.109 234.62 902.882 235.774L902.544 235.893C901.646 235.133 901.031 234.274 900.482 233.391C899.947 232.504 899.525 231.578 899.187 230.62C898.853 229.662 898.603 228.675 898.467 227.649C898.343 226.616 898.286 225.56 898.513 224.407L898.851 224.288Z" fill="#373535"/>
<path d="M888.302 246.909L884.297 248.315C882.305 249.013 881.277 246.084 883.269 245.386L894.096 241.586C896.133 240.871 897.161 243.8 895.124 244.515L891.325 245.848L895.382 257.408C896.081 259.4 893.074 260.508 892.359 258.469L888.302 246.909Z" fill="#373535"/>
<path d="M869.032 235.109C866.469 236.008 864.311 238.797 865.58 242.413C866.841 246.007 870.277 246.859 872.84 245.959C875.473 245.035 877.646 242.215 876.385 238.621C875.116 235.005 871.665 234.184 869.032 235.109ZM874.081 248.685C869.91 250.355 864.527 249.082 862.558 243.474C860.582 237.843 864.005 233.531 868.24 232.044C872.319 230.844 877.48 232.144 879.384 237.569C881.288 242.994 878.087 247.279 874.081 248.685Z" fill="#373535"/>
<path d="M898.759 224.679C896.195 225.578 894.037 228.368 895.306 231.984C896.568 235.578 900.003 236.429 902.567 235.529C905.2 234.605 907.373 231.785 906.111 228.191C904.842 224.575 901.392 223.755 898.759 224.679ZM903.806 238.256C899.637 239.926 894.253 238.653 892.285 233.044C890.309 227.413 893.732 223.101 897.966 221.615C902.044 220.415 907.207 221.714 909.111 227.139C911.015 232.564 907.812 236.85 903.806 238.256Z" fill="#373535"/>
</svg>
