<svg width="1400" height="389" viewBox="0 0 1400 389" fill="none" xmlns="http://www.w3.org/2000/svg">
<path d="M-167.436 1C-168.191 15.3905 -174.255 30.5165 -177.995 44.3086C-186.75 76.5966 -192.11 112.783 -187.029 146.107C-181.289 183.752 -156.629 218.263 -131.299 245.435C-102.295 276.549 -62.9324 292.861 -20.7787 293.333C15.8228 293.743 50.6557 293.021 85.5182 280.152C103.263 273.602 128.536 265.861 136.437 246.612C144.597 226.735 135.328 203.421 117.665 192.594C108.33 186.871 77.9174 174.038 67.2153 182.473C56.7249 190.74 71.4623 210.741 76.9533 216.249C113.503 252.911 164.699 270.038 213.168 284.389C273.053 302.12 392.986 316.129 455.621 307.456C489.493 302.765 535.184 286.726 556.638 257.674C565.838 245.216 555.092 247.569 544.201 248.024C524.311 248.855 499.778 260.069 503.959 284.389C512.31 332.978 583.961 356.554 622.692 368.299C670.025 382.653 683.959 388 733.076 388C834.42 387.165 1057.33 392.208 1114.94 346.098C1186.95 288.46 1534.62 247.495 1667 368.299" stroke="#75D8DB" stroke-width="2" stroke-linecap="round" stroke-dasharray="10 10"/>
</svg>
