<svg width="1400" height="199" viewBox="0 0 1400 199" fill="none" xmlns="http://www.w3.org/2000/svg">
<path d="M-81.0859 136.383C-79.5165 122.258 -54.1133 105.931 -43.2726 99.9968C-15.8275 84.9743 12.5908 73.7523 43.056 67.4155C65.8599 62.6723 88.2891 60.9682 111.548 59.8053C134.883 58.6385 159.338 56.4294 182.656 57.6649C204.58 58.8264 254.412 63.6788 264.466 89.5327C268.516 99.9464 262.411 102.982 257.094 109.629C253.06 114.671 252.865 101.85 257.094 97.8564C261.816 93.3966 284.158 93.0954 289.2 97.8564C294.043 102.43 302.023 108.859 308.463 110.699C325.903 115.682 340.455 120.41 359 122.471C388.212 125.717 423.914 127.058 453.057 123.065C468.907 120.894 511.245 89.2949 474.342 89.2949C467.435 89.2949 460.002 89.4021 462.689 98.8077C463.695 102.33 474.042 104.516 476.72 105.467C494.334 111.717 512.781 114.982 531.062 118.785C568.653 126.603 607.813 130.436 646.167 129.962C659.356 129.799 680.915 122.5 682.91 106.537C684.164 96.5032 683.368 85.5592 693.85 79.6632C705.865 72.9047 722.256 71.2161 735.468 75.6203C749.002 80.1315 764.457 95.2908 756.753 110.699C754.717 114.771 744.629 121.781 745.1 112.839C745.889 97.8537 767.29 102.137 777.325 102.137C814.687 102.137 853.035 108.817 890.408 105.942C906.413 104.711 941.196 102.006 942.015 79.0687C942.312 70.7554 931.215 60.3349 924.06 69.0802C902.462 95.4769 995.531 98.951 1001.95 99.5212C1039.1 102.824 1078.73 99.6079 1113.96 87.1545C1118.27 85.6308 1130.03 82.5801 1130.37 76.4526C1130.52 73.64 1131.2 68.8566 1127.16 71.1017C1114.33 78.2296 1120.5 102.957 1134.65 110.699C1201.1 147.057 1354.9 196.247 1438.5 102.137" stroke="#58BFC3" stroke-width="2" stroke-linecap="round" stroke-dasharray="6 6"/>
<path d="M143.65 3.84688C140.036 2.45103 130.203 14.0196 127.653 20.6702C123.352 19.92 96.6708 25.5855 94.0283 30.3195C87.2174 26.5125 75.6664 19.5366 71.2885 24.6269C69.1938 31.9791 69.9109 55.5174 71.8234 56.8445C73.7439 58.1663 79.8928 43.4962 81.7998 39.3276C82.986 40.1569 84.0324 40.4759 85.0359 40.8106C87.1123 47.0882 88.5895 54.4501 88.9594 60.7683C89.5145 70.1385 91.6291 86.3785 99.3558 93.1465C108.473 101.13 117.795 92.3085 129.831 88.2879C138.784 85.2959 153.006 90.7652 157.969 76.7438C162.158 64.9063 155.807 48.7515 150.766 41.7027C148.374 38.3506 139.598 28.6979 139.855 24.1952C140.752 23.0263 141.583 21.8627 142.121 20.4759C149.376 24.3087 161.871 34.2592 162.731 32.4489C163.592 30.6411 149.814 6.21551 143.65 3.84688Z" fill="#FDD0B0"/>
<path d="M110.416 56.7479C109.219 56.4355 108.108 56.4263 107.014 56.4889C105.93 56.565 104.877 56.7651 103.851 57.0533C102.823 57.3469 101.823 57.7284 100.857 58.2331C99.896 58.7526 98.9547 59.3432 98.0994 60.2371L98.2016 60.5977C99.3988 60.9107 100.51 60.9193 101.6 60.8563C102.687 60.7801 103.74 60.5814 104.769 60.2922C105.793 59.9996 106.794 59.6167 107.758 59.112C108.721 58.593 109.663 58.003 110.518 57.1086L110.416 56.7479Z" fill="#373535"/>
<path d="M142.329 47.7064C141.133 47.3936 140.021 47.3853 138.929 47.4486C137.843 47.5239 136.79 47.7236 135.764 48.0123C134.738 48.305 133.737 48.6871 132.772 49.1929C131.81 49.7113 130.869 50.3014 130.014 51.1952L130.116 51.5564C131.313 51.8688 132.424 51.8775 133.515 51.8144C134.602 51.7383 135.654 51.5395 136.682 51.2496C137.706 50.9581 138.708 50.5751 139.672 50.0713C140.635 49.5515 141.577 48.9611 142.431 48.0676L142.329 47.7064Z" fill="#373535"/>
<path d="M122.129 66.4854L117.834 67.7022C115.699 68.3069 114.809 65.1654 116.944 64.5608L128.554 61.2718C130.737 60.6531 131.627 63.7946 129.444 64.4132L125.37 65.5672L128.881 77.9613C129.486 80.0962 126.259 81.0648 125.64 78.8794L122.129 66.4854Z" fill="#373535"/>
<path d="M102.665 52.8552C99.9168 53.6337 97.4719 56.421 98.5703 60.298C99.6623 64.1526 103.212 65.2669 105.96 64.4885C108.784 63.6884 111.247 60.8706 110.155 57.016C109.057 53.139 105.489 52.0552 102.665 52.8552ZM107.087 67.4299C102.602 68.9144 97.0339 67.2295 95.3303 61.2159C93.6201 55.1792 97.4916 50.8745 102.032 49.5881C106.39 48.5919 111.723 50.289 113.371 56.1051C115.019 61.9223 111.382 66.2131 107.087 67.4299Z" fill="#373535"/>
<path d="M134.533 43.8236C131.784 44.6024 129.339 47.3897 130.437 51.2668C131.529 55.1214 135.08 56.2357 137.829 55.4569C140.652 54.6572 143.115 51.8394 142.023 47.9848C140.924 44.1077 137.356 43.0239 134.533 43.8236ZM138.953 58.3989C134.469 59.8832 128.901 58.1983 127.197 52.1846C125.487 46.148 129.359 41.8433 133.899 40.5572C138.256 39.5609 143.591 41.2575 145.239 47.0736C146.887 52.8907 143.248 57.1821 138.953 58.3989Z" fill="#373535"/>
<path d="M393.528 82.7838C386.861 86.3703 372.237 95.4255 372.237 95.4255C372.237 95.4255 366.736 95.4423 365.444 92.6175C362.186 85.4644 361.337 72.196 359.706 70.7623C357.565 68.8807 344.698 89.3647 333.269 98.3582C323.481 106.064 309.727 110.88 309.727 110.88C309.727 110.88 331.091 147.495 354.45 154.301C372.155 159.457 394.871 139.777 407.677 137.858C397.965 122.815 389.717 103.94 393.528 82.7838Z" fill="#CDE8D5"/>
<path d="M347.182 105.729C347.405 107.016 347.316 108.186 347.153 109.33C346.977 110.466 346.675 111.556 346.28 112.611C345.881 113.666 345.389 114.686 344.773 115.657C344.141 116.623 343.437 117.562 342.42 118.385L342.049 118.245C341.826 116.956 341.915 115.786 342.078 114.643C342.254 113.507 342.557 112.416 342.952 111.359C343.351 110.305 343.842 109.286 344.459 108.316C345.09 107.349 345.794 106.41 346.811 105.589L347.182 105.729Z" fill="#373535"/>
<path d="M379.987 118.068C380.21 119.356 380.12 120.526 379.957 121.67C379.782 122.806 379.48 123.896 379.084 124.951C378.686 126.006 378.194 127.026 377.577 127.997C376.946 128.963 376.242 129.902 375.225 130.725L374.853 130.585C374.63 129.296 374.719 128.125 374.882 126.983C375.059 125.847 375.36 124.755 375.757 123.699C376.154 122.645 376.647 121.626 377.262 120.656C377.894 119.688 378.598 118.749 379.614 117.928L379.987 118.068Z" fill="#373535"/>
<path d="M354.861 129.808L350.447 128.147C348.253 127.322 349.468 124.093 351.662 124.919L363.593 129.408C365.837 130.252 364.622 133.481 362.378 132.636L358.192 131.061L353.4 143.798C352.574 145.994 349.224 144.791 350.069 142.545L354.861 129.808Z" fill="#373535"/>
<path d="M346.868 106.009C344.044 104.947 340.217 105.782 338.718 109.766C337.228 113.727 339.546 116.902 342.37 117.965C345.273 119.057 349.134 118.207 350.624 114.246C352.123 110.262 349.771 107.101 346.868 106.009ZM341.482 121.172C336.739 119.618 333.063 114.694 335.389 108.513C337.723 102.31 343.714 101.08 348.381 102.836C352.71 104.724 356.178 109.512 353.929 115.489C351.679 121.467 345.896 122.832 341.482 121.172Z" fill="#373535"/>
<path d="M379.62 118.334C376.794 117.271 372.967 118.107 371.468 122.09C369.978 126.052 372.296 129.226 375.121 130.289C378.023 131.381 381.884 130.531 383.374 126.57C384.873 122.586 382.521 119.425 379.62 118.334ZM374.231 133.495C369.489 131.943 365.813 127.018 368.139 120.838C370.473 114.634 376.464 113.404 381.13 115.159C385.458 117.047 388.929 121.836 386.68 127.814C384.431 133.792 378.645 135.156 374.231 133.495Z" fill="#373535"/>
<path d="M621.566 119.645C626.29 115.402 630.617 112.184 635.123 109.972C631.298 108.175 627.224 108.822 623.632 105.745C625.534 102.39 630.613 100.492 633.043 97.2905C608.546 92.6745 606.593 83.5338 601.54 67.1013C594.495 73.9556 589.38 87.0206 585.901 94.0791C579.646 86.489 571.822 79.3035 562.915 74.4994C564.629 86.0626 557.849 103.811 542.848 114.319C545.899 115.264 549.971 114.854 552.202 116.87C547.575 119.851 542.405 123.986 542.405 123.986C542.405 123.986 547.48 127.114 552.169 126.974C548.582 129.357 542.596 130.766 538.269 132.741C542.302 133.805 547.484 132.529 551.905 133.459C558.046 134.753 564.192 138.183 569.718 141.153C579.602 146.465 587.65 153.794 599.516 149.999C608.702 147.059 611.603 136.091 620.02 131.694C626.503 128.307 634.144 125.146 639.469 119.705C632.517 118.879 629.376 120.813 621.566 119.645Z" fill="#D0C5E1"/>
<path d="M570.568 110.257C571.425 111.256 571.952 112.317 572.402 113.391C572.836 114.466 573.137 115.566 573.34 116.684C573.538 117.803 573.639 118.939 573.607 120.099C573.558 121.262 573.433 122.439 572.977 123.675L572.583 123.745C571.725 122.745 571.199 121.686 570.75 120.612C570.315 119.536 570.014 118.436 569.811 117.317C569.613 116.199 569.512 115.063 569.545 113.904C569.592 112.74 569.718 111.562 570.174 110.328L570.568 110.257Z" fill="#373535"/>
<path d="M605.341 104.015C606.199 105.014 606.725 106.074 607.174 107.149C607.609 108.224 607.91 109.324 608.112 110.442C608.312 111.561 608.412 112.697 608.379 113.857C608.331 115.02 608.207 116.197 607.75 117.433L607.356 117.503C606.498 116.503 605.971 115.444 605.522 114.37C605.089 113.294 604.787 112.194 604.584 111.075C604.385 109.957 604.286 108.821 604.318 107.662C604.365 106.498 604.49 105.32 604.946 104.086L605.341 104.015Z" fill="#373535"/>
<path d="M589.651 127.142L584.972 127.983C582.646 128.4 582.031 124.979 584.357 124.561L597.006 122.29C599.385 121.863 600 125.284 597.62 125.712L593.182 126.508L595.607 140.013C596.024 142.34 592.503 143.028 592.076 140.647L589.651 127.142Z" fill="#373535"/>
<path d="M570.442 110.663C567.448 111.201 564.565 113.9 565.323 118.124C566.077 122.322 569.724 123.876 572.718 123.339C575.795 122.786 578.7 120.056 577.946 115.858C577.187 111.633 573.519 110.111 570.442 110.663ZM573.604 126.574C568.695 127.677 562.97 125.31 561.793 118.758C560.612 112.18 565.166 108.022 570.114 107.134C574.836 106.534 580.311 108.891 581.449 115.229C582.587 121.567 578.284 125.734 573.604 126.574Z" fill="#373535"/>
<path d="M605.17 104.429C602.174 104.966 599.292 107.665 600.05 111.889C600.804 116.088 604.45 117.642 607.445 117.104C610.521 116.552 613.426 113.822 612.672 109.623C611.914 105.399 608.245 103.876 605.17 104.429ZM608.329 120.34C603.421 121.443 597.696 119.075 596.52 112.523C595.339 105.945 599.893 101.788 604.839 100.9C609.562 100.3 615.039 102.657 616.177 108.994C617.315 115.332 613.009 119.5 608.329 120.34Z" fill="#373535"/>
<path d="M847.966 55.6962C844.123 54.4864 839.729 55.3593 839.012 60.1964C838.069 58.6483 835.967 56.9998 833.499 56.2232C830.121 55.1603 826.06 55.7301 823.349 60.4281C822.866 60.1453 822.389 59.9352 821.924 59.7889C815.932 57.9024 811.662 66.6451 815.206 70.2569C810.189 70.6968 809.965 77.1015 813.058 79.2261C809.993 81.4742 805.191 89.258 801.717 90.9939C801.428 90.8296 801.126 90.6985 800.813 90.6002C798.095 89.7435 794.685 91.4223 794.371 96.2531C794.01 95.9726 793.624 95.774 793.221 95.6472C789.454 94.4621 784.271 99.5268 785.597 102.073C782.36 102.196 782.372 105.895 784.451 106.549C784.668 106.618 784.907 106.653 785.168 106.647C783.287 109.585 784.79 112.665 787.211 113.426C788.192 113.735 789.325 113.663 790.442 113.042C791.019 113.912 791.729 114.428 792.472 114.661C795.06 115.476 798.053 112.881 797.209 110.082C797.331 110.129 797.45 110.171 797.567 110.207C802.103 111.635 803.221 105.473 801.462 103.308C801.775 103.654 802.121 103.876 802.483 103.99C804.961 104.769 808.21 100.519 806.869 96.6228C809.766 92.9171 813.758 87.9861 814.486 87.3067C814.691 89.5024 805.705 104.621 805.86 105.673C806.694 111.26 812.359 118.843 815.091 123.717C817.486 127.991 822.312 131.914 828.147 133.75C832.877 135.238 838.27 135.357 843.571 133.182C850.596 130.306 855.022 128.273 862.318 121.925C863.418 120.968 863.582 103.22 864.326 101.649C864.321 102.06 865.979 112.943 866.599 115.335C863.891 117.718 863.005 124.151 866.494 125.928C862.777 128.099 863.515 134.822 867.309 136.016C867.721 136.145 868.167 136.21 868.648 136.196C868.704 138.535 870.022 139.899 871.648 140.41C874.854 141.419 879.261 139.122 877.601 134.471C880.942 134.008 879.477 127.854 876.874 125.347C879.186 120.332 877.308 115.032 873.473 113.321C871.16 111.294 869.227 98.3021 868.244 95.2437C868.336 95.2933 868.431 95.3333 868.528 95.3638C870.877 96.1032 874.618 91.5415 871.491 88.1341C876.467 88.91 878.771 80.216 873.445 78.5401C873.108 78.434 872.74 78.3554 872.34 78.3095C875.681 74.8192 872.951 68.5841 868.104 67.0591C865.915 66.3702 863.294 66.642 860.604 68.5618C862.306 65.1129 861.044 62.6037 858.927 61.9375C857.22 61.4004 854.956 62.0619 853.241 64.3966C855.542 60.6499 852.067 56.9868 847.966 55.6962Z" fill="#FAD0DD"/>
<path d="M829.433 95.862C828.641 94.9843 827.756 94.3935 826.85 93.8701C825.942 93.3613 824.995 92.9687 824.024 92.6608C823.049 92.3564 822.049 92.1364 821.012 92.0331C819.971 91.9439 818.909 91.9221 817.756 92.1878L817.648 92.5293C818.441 93.4073 819.325 93.9983 820.23 94.5203C821.139 95.0299 822.084 95.4232 823.058 95.7318C824.03 96.0355 825.032 96.2548 826.068 96.3573C827.11 96.4479 828.173 96.4695 829.325 96.2034L829.433 95.862Z" fill="#373535"/>
<path d="M859.574 105.725C858.423 105.991 857.359 105.968 856.317 105.877C855.281 105.775 854.28 105.556 853.308 105.251C852.334 104.944 851.388 104.55 850.48 104.04C849.575 103.518 848.691 102.929 847.898 102.051L848.006 101.707C849.159 101.442 850.221 101.464 851.262 101.554C852.299 101.658 853.299 101.876 854.273 102.182C855.245 102.488 856.191 102.883 857.1 103.391C858.006 103.914 858.891 104.504 859.683 105.382L859.574 105.725Z" fill="#373535"/>
<path d="M833.686 109.795L829.613 108.514C827.589 107.877 828.527 104.899 830.55 105.535L841.558 108.999C843.629 109.651 842.691 112.629 840.621 111.978L836.759 110.762L833.061 122.515C832.424 124.538 829.336 123.619 829.988 121.548L833.686 109.795Z" fill="#373535"/>
<path d="M825.274 88.68C822.668 87.8602 819.251 88.8054 818.094 92.4814C816.944 96.1362 819.198 98.8904 821.803 99.7102C824.481 100.553 827.929 99.5926 829.079 95.9378C830.235 92.2618 827.951 89.5226 825.274 88.68ZM821.159 102.655C816.795 101.486 813.227 97.2182 815.022 91.5148C816.823 85.7911 822.177 84.3815 826.483 85.7362C830.49 87.2268 833.862 91.3825 832.127 96.8971C830.392 102.413 825.232 103.936 821.159 102.655Z" fill="#373535"/>
<path d="M855.494 98.1921C852.887 97.3719 849.469 98.3171 848.313 101.993C847.163 105.648 849.416 108.402 852.023 109.222C854.699 110.064 858.147 109.104 859.297 105.45C860.454 101.773 858.17 99.0343 855.494 98.1921ZM851.377 112.166C847.014 110.998 843.446 106.73 845.241 101.027C847.042 95.3028 852.396 93.8932 856.701 95.2476C860.707 96.7382 864.082 100.895 862.347 106.409C860.611 111.925 855.45 113.447 851.377 112.166Z" fill="#373535"/>
<path d="M1049.62 67.5544C1042.61 62.5562 1040.2 54.2484 1037.41 46.0769C1027.6 55.8968 1024.21 70.9054 1021.64 71.7896C1014.16 74.3651 1000.49 56.8326 999.779 57.6024C995.57 62.1493 974.701 89.2908 992.224 115.596C1008.74 140.388 1055.75 136.768 1064.78 100.423C1071.39 73.8278 1052.62 69.695 1049.62 67.5544Z" fill="#BDE1DF"/>
<path d="M1008.28 90.0422C1009.21 90.9619 1009.81 91.9681 1010.35 92.9958C1010.86 94.0248 1011.25 95.0899 1011.54 96.1791C1011.83 97.2714 1012.02 98.3878 1012.08 99.5386C1012.13 100.694 1012.1 101.867 1011.75 103.129L1011.36 103.231C1010.43 102.309 1009.83 101.304 1009.3 100.278C1008.78 99.2482 1008.39 98.1837 1008.1 97.0927C1007.81 96.0022 1007.62 94.8852 1007.56 93.7354C1007.51 92.5789 1007.54 91.404 1007.89 90.1441L1008.28 90.0422Z" fill="#373535"/>
<path d="M1042.2 81.0422C1043.13 81.9619 1043.73 82.9681 1044.27 83.9961C1044.78 85.0248 1045.17 86.0899 1045.46 87.1794C1045.75 88.2714 1045.94 89.3878 1046 90.5389C1046.05 91.6936 1046.02 92.8672 1045.67 94.1289L1045.29 94.2311C1044.35 93.3096 1043.75 92.3047 1043.22 91.2785C1042.7 90.2482 1042.31 89.184 1042.02 88.0927C1041.73 87.0025 1041.54 85.8852 1041.48 84.7357C1041.43 83.5793 1041.46 82.4044 1041.81 81.1444L1042.2 81.0422Z" fill="#373535"/>
<path d="M1028.53 105.21L1023.97 106.421C1021.7 107.023 1020.81 103.685 1023.08 103.083L1035.42 99.8083C1037.74 99.1924 1038.62 102.531 1036.3 103.147L1031.98 104.296L1035.47 117.467C1036.07 119.735 1032.64 120.704 1032.03 118.381L1028.53 105.21Z" fill="#373535"/>
<path d="M1008.18 90.4566C1005.26 91.2316 1002.63 94.1367 1003.72 98.2572C1004.81 102.352 1008.54 103.594 1011.46 102.819C1014.47 102.023 1017.12 99.0845 1016.03 94.9896C1014.94 90.8691 1011.18 89.66 1008.18 90.4566ZM1012.6 105.951C1007.83 107.44 1001.97 105.562 1000.28 99.171C998.576 92.7556 1002.75 88.2707 1007.57 86.99C1012.2 86.0129 1017.81 87.9017 1019.45 94.0827C1021.09 100.264 1017.17 104.739 1012.6 105.951Z" fill="#373535"/>
<path d="M1042.05 81.4641C1039.13 82.2394 1036.5 85.1445 1037.59 89.265C1038.68 93.3599 1042.41 94.6021 1045.33 93.8267C1048.33 93.0305 1050.99 90.0923 1049.9 85.9974C1048.81 81.8769 1045.05 80.6679 1042.05 81.4641ZM1046.47 96.9588C1041.7 98.448 1035.84 96.5698 1034.15 90.1788C1032.44 83.7634 1036.61 79.2785 1041.44 77.9981C1046.06 77.021 1051.68 78.9092 1053.32 85.0902C1054.96 91.2719 1051.03 95.7473 1046.47 96.9588Z" fill="#373535"/>
<path d="M1283.89 147.906C1286.58 144.186 1290.66 138.451 1293.29 132.266C1294.97 128.31 1296.04 122.712 1295.64 120.001C1295.5 119.084 1295.16 118.754 1294.24 118.771C1290.28 118.843 1286.41 119.535 1282.62 120.657C1279.44 121.6 1269.63 125.294 1266.78 126.997C1266.44 127.204 1266.17 127.232 1265.82 126.978C1262.85 124.825 1261.46 122.62 1257.9 121.747C1257.49 121.649 1255.71 121.087 1255.63 120.682C1254.49 115.451 1252.49 104.389 1249.67 99.8388C1248.67 98.2258 1247.52 96.7016 1246.39 95.1768C1245.72 94.2831 1245.26 94.2812 1244.34 94.9169C1240.66 97.4563 1237.05 102.595 1234.84 106.45C1232.55 110.454 1230.83 118.506 1229.94 123.605C1224.33 128.785 1205.16 130.4 1207.07 132.8C1212.48 139.562 1222.2 154.779 1224.93 161.231C1228.76 170.32 1232.31 176.427 1235.94 177.738C1236.54 177.955 1238.09 179.107 1239.85 179.543C1247.14 181.348 1254.45 177.926 1261.19 175.996C1261.2 175.992 1261.22 175.987 1261.24 175.983L1261.22 176.01C1267.95 174.081 1288.96 171.073 1292.8 172.361C1295.8 173.365 1285.28 154.181 1283.89 147.906Z" fill="#F3A995"/>
<path d="M1272.37 156.228C1272.33 156.964 1272.15 157.74 1271.78 158.543C1270.14 162.084 1266.54 162.608 1263.94 161.411C1261.42 160.245 1259.5 157.172 1261.13 153.631C1261.33 153.21 1261.55 152.835 1261.79 152.497C1259.08 152.349 1256.91 153.231 1255.68 155.645C1253.35 160.209 1257.26 164.903 1246.84 159.96C1236.59 155.097 1242.15 153.432 1243.49 150.625C1244.63 148.236 1244.23 146.095 1242.81 144.196C1242.72 144.471 1242.62 144.748 1242.49 145.03C1240.86 148.571 1237.25 149.095 1234.66 147.898C1232.13 146.732 1230.21 143.659 1231.85 140.118C1232.24 139.264 1232.75 138.59 1233.32 138.068C1221.94 133.52 1205.84 131.867 1207.1 132.811C1219.82 142.343 1225.13 147.662 1228.95 154.191C1232.67 160.539 1231.34 170.197 1243.17 168.068C1250.49 178.231 1254.22 170.99 1263.08 169.29C1269.49 168.061 1278.69 170.265 1292.8 172.357C1294.12 172.553 1282.96 162.042 1272.37 156.228Z" fill="white"/>
<path d="M1233.68 137.362C1234.78 137.857 1235.63 138.532 1236.41 139.247C1237.19 139.97 1237.87 140.765 1238.47 141.612C1239.06 142.462 1239.59 143.363 1240.01 144.336C1240.42 145.318 1240.77 146.341 1240.87 147.541L1240.57 147.752C1239.47 147.256 1238.63 146.582 1237.84 145.867C1237.06 145.144 1236.39 144.349 1235.79 143.502C1235.19 142.653 1234.67 141.751 1234.25 140.778C1233.84 139.796 1233.48 138.772 1233.38 137.573L1233.68 137.362Z" fill="#1D1D1B"/>
<path d="M1272.67 155.707C1271.69 156.408 1270.68 156.805 1269.67 157.129C1268.66 157.44 1267.63 157.627 1266.6 157.723C1265.56 157.816 1264.52 157.818 1263.47 157.697C1262.41 157.562 1261.35 157.355 1260.26 156.842L1260.23 156.477C1261.21 155.775 1262.21 155.379 1263.22 155.055C1264.24 154.744 1265.26 154.556 1266.3 154.461C1267.33 154.367 1268.38 154.366 1269.43 154.487C1270.48 154.622 1271.55 154.828 1272.64 155.341L1272.67 155.707Z" fill="#1D1D1B"/>
<path d="M1245.35 159.615L1241.4 157.794C1239.44 156.889 1240.78 154.003 1242.74 154.908L1253.4 159.83C1255.41 160.756 1254.08 163.642 1252.07 162.716L1248.33 160.989L1243.07 172.377C1242.17 174.339 1239.17 173.011 1240.1 171.003L1245.35 159.615Z" fill="#1D1D1B"/>
<path d="M1239.6 137.216C1237.08 136.051 1233.5 136.564 1231.86 140.126C1230.23 143.667 1232.14 146.74 1234.67 147.905C1237.26 149.103 1240.87 148.578 1242.5 145.038C1244.15 141.476 1242.2 138.414 1239.6 137.216ZM1233.64 150.794C1229.38 149.049 1226.33 144.278 1228.88 138.752C1231.44 133.205 1237.03 132.475 1241.2 134.4C1245.06 136.424 1247.92 141.057 1245.46 146.401C1242.99 151.746 1237.59 152.615 1233.64 150.794Z" fill="#1D1D1B"/>
<path d="M1268.88 150.728C1266.36 149.563 1262.78 150.075 1261.14 153.638C1259.51 157.178 1261.43 160.252 1263.95 161.418C1266.55 162.614 1270.15 162.09 1271.79 158.549C1273.43 154.987 1271.48 151.925 1268.88 150.728ZM1262.92 164.305C1258.66 162.561 1255.61 157.789 1258.16 152.264C1260.72 146.717 1266.31 145.987 1270.48 147.911C1274.34 149.935 1277.21 154.569 1274.74 159.913C1272.27 165.258 1266.87 166.126 1262.92 164.305Z" fill="#1D1D1B"/>
</svg>
