<svg width="1400" height="155" viewBox="0 0 1400 155" fill="none" xmlns="http://www.w3.org/2000/svg">
<path d="M-79.4395 76.6536C-79.4395 48.1357 -56.8035 31.49 -32.7227 19.781C15.1585 -3.50071 77.9607 1.50049 129.77 1.50049C153.586 1.50049 177.508 0.180748 200.861 5.67566C222.091 10.671 239.947 20.9654 259.765 29.4854C278.89 37.7074 313.284 52.8847 318.217 76.6536C320.419 87.2612 329.1 113.359 320.249 122.919C313.74 129.948 298.03 131.069 298.357 119.308C298.786 103.882 322.961 86.4265 336.949 83.1984C348.612 80.5071 359.213 82.6679 367.417 90.8717C371.86 95.3149 378.004 96.3924 384.005 97.9808C406.667 103.98 429.219 107.297 452.5 110.055C516.425 117.628 581.858 153.506 646.11 153.506C702.668 153.506 757.263 149.816 813.23 141.77C888.862 130.897 967.271 120.44 1038.69 92.1194C1064.12 82.0329 1092.9 58.2884 1068.7 30.0561C1060.49 20.4753 1019.96 -0.16254 1020.86 25.091C1021.19 34.4433 1033.59 37.0029 1040.38 39.9862C1059.3 48.2911 1077.84 55.521 1097.59 61.6519C1130.38 71.8286 1166.61 68.1968 1200.5 68.1968C1249.88 68.1968 1298.52 73.8337 1347.54 79.481C1439.44 90.0683 1530.78 99.9882 1622.08 114.914" stroke="#75D8DB" stroke-width="2" stroke-linecap="round" stroke-dasharray="10 10"/>
</svg>
