<svg width="1400" height="124" viewBox="0 0 1400 124" fill="none" xmlns="http://www.w3.org/2000/svg">
<path d="M-54 24.0878C-17.7672 6.87065 28.0896 0.0687554 67.4484 7.43001C80.1674 9.80883 93.8627 14.3158 96.2427 28.1636C98.5619 41.6571 95.8872 54.6443 84.3187 62.9854C76.7554 68.4387 60.6308 72.6185 54.2878 63.074C46.3066 51.0644 57.1303 38.1152 67.8017 33.7457C89.4699 24.8736 119.367 27.2495 141.642 32.328C178.874 40.8166 213.9 60.631 248.252 76.6306C268.252 85.9458 273.405 97.3968 294.525 103.667C325.596 126.084 351.5 121.642 396.018 121.642C446.47 124.198 508.974 111.271 539.637 66.5297C548.478 53.6284 558.286 20.5622 541.58 9.46802C531.678 2.89296 512.914 -0.856702 501.656 4.68334C490.685 10.0826 490.774 27.2341 496.003 36.5812C502.877 48.8668 517.953 56.7914 529.921 62.9855C550.056 73.4074 571.903 78.8546 594.222 82.1242C675.47 94.0265 817.213 95.8579 899.039 95.8579C988.366 95.8579 1283.59 127.047 1372.05 95.8579C1381.04 95.6105 1414.83 84.4896 1478 41.986" stroke="#58BFC3" stroke-width="3" stroke-linecap="round" stroke-dasharray="6 6"/>
</svg>
