<svg width="1400" height="281" viewBox="0 0 1400 281" fill="none" xmlns="http://www.w3.org/2000/svg">
<path d="M-205 152.646C-205 135.007 -187.883 116.653 -177.703 103.511C-169.611 93.0646 -158.754 85.0134 -148.99 76.2131C-136.887 65.3061 -125.854 54.3439 -112.189 45.2759C-76.8295 21.8134 -34.0563 11.6145 7.51588 5.64404C50.1577 -0.480045 102.591 -4.47656 140.667 20.0005C171.333 39.7147 197.07 72.2734 220.638 99.7698C235.329 116.909 246.318 137.555 246.318 160.33C246.318 168.25 246.092 193.807 233.579 194.502C226.678 194.886 224.151 189.904 227.311 183.583C233.646 170.914 258.165 168.049 269.976 166.396C281.607 164.767 294.664 164.416 306.373 165.587C319.832 166.933 332.5 165.587 356 178.5C394.948 199.902 428.5 207.5 463 202.409C572.855 186.197 683.596 250.376 794.31 247.5C840.581 246.298 884.992 238.002 929.585 226.066C955.39 219.159 982.085 211.821 1006.42 200.589C1015.83 196.248 1028.77 190.142 1030.08 178.346C1031.78 163.002 1011.15 154.399 999.648 150.847C993.738 149.022 966.86 142.548 972.452 157.924C975.157 165.365 988.47 164.574 994.492 165.203C1017.04 167.559 1039.87 168.492 1062.53 167.832C1090.74 167.01 1111.08 165.659 1139.27 159.845C1153.67 156.875 1365.27 93.2727 1379.18 88.5099C1456.56 62.0184 1455.21 51.3044 1455.21 51.3044" stroke="#75D8DB" stroke-width="2" stroke-linecap="round" stroke-dasharray="10 10"/>
<path d="M1323.56 51.2432C1319.63 58.2879 1311.68 74.8042 1311.68 74.8042C1311.68 74.8042 1306.74 77.9793 1303.96 76.1887C1296.92 71.6486 1288.53 60.2421 1286.24 59.894C1283.23 59.4371 1283.43 85.1894 1278.32 99.8155C1273.95 112.345 1264.35 124.562 1264.35 124.562C1264.35 124.562 1304.61 145.112 1329.53 137.796C1348.41 132.249 1357.53 101.56 1367.94 92.4842C1350.56 84.5783 1332.3 72.3963 1323.56 51.2432Z" fill="#CDE8D5"/>
<path d="M1295.07 98.4276C1296.02 99.4532 1296.61 100.554 1297.12 101.672C1297.61 102.792 1297.97 103.942 1298.22 105.115C1298.47 106.29 1298.61 107.487 1298.62 108.711C1298.6 109.94 1298.51 111.186 1298.07 112.508L1297.65 112.596C1296.71 111.568 1296.12 110.468 1295.61 109.35C1295.11 108.23 1294.76 107.078 1294.51 105.904C1294.26 104.731 1294.12 103.535 1294.11 102.311C1294.12 101.081 1294.22 99.8352 1294.66 98.5156L1295.07 98.4276Z" fill="#373535"/>
<path d="M1331.66 90.6511C1332.61 91.6768 1333.2 92.7772 1333.71 93.8962C1334.2 95.0151 1334.56 96.1659 1334.81 97.3389C1335.06 98.5136 1335.2 99.7105 1335.2 100.935C1335.19 102.164 1335.1 103.41 1334.66 104.731L1334.24 104.819C1333.3 103.792 1332.71 102.692 1332.2 101.574C1331.7 100.454 1331.35 99.3021 1331.1 98.1279C1330.85 96.9544 1330.71 95.7585 1330.7 94.5351C1330.71 93.3052 1330.81 92.059 1331.25 90.7394L1331.66 90.6511Z" fill="#373535"/>
<path d="M1315.82 115.6L1310.89 116.647C1308.45 117.167 1307.68 113.575 1310.13 113.055L1323.44 110.226C1325.94 109.694 1326.71 113.286 1324.2 113.818L1319.53 114.81L1322.55 128.981C1323.07 131.423 1319.36 132.269 1318.83 129.77L1315.82 115.6Z" fill="#373535"/>
<path d="M1294.95 98.86C1291.8 99.5296 1288.84 102.477 1289.78 106.909C1290.72 111.316 1294.63 112.83 1297.78 112.16C1301.02 111.472 1304 108.493 1303.07 104.086C1302.12 99.6537 1298.19 98.1718 1294.95 98.86ZM1298.83 115.545C1293.67 116.877 1287.53 114.574 1286.07 107.698C1284.6 100.797 1289.28 96.253 1294.49 95.1465C1299.47 94.3526 1305.34 96.6526 1306.75 103.302C1308.17 109.953 1303.75 114.498 1298.83 115.545Z" fill="#373535"/>
<path d="M1331.5 91.0922C1328.35 91.7622 1325.39 94.7094 1326.33 99.1414C1327.27 103.548 1331.18 105.063 1334.33 104.393C1337.57 103.705 1340.55 100.725 1339.61 96.3182C1338.67 91.8862 1334.74 90.4043 1331.5 91.0922ZM1335.37 107.778C1330.21 109.109 1324.08 106.806 1322.62 99.9309C1321.15 93.0292 1325.83 88.4856 1331.04 87.3793C1336.01 86.5854 1341.89 88.8848 1343.3 95.5344C1344.71 102.185 1340.3 106.731 1335.37 107.778Z" fill="#373535"/>
<path d="M893.716 184.592C889.484 183.692 884.879 185.066 884.612 190.29C883.444 188.736 881.028 187.193 878.31 186.615C874.59 185.825 870.309 186.842 867.897 192.119C867.351 191.867 866.819 191.691 866.307 191.583C859.709 190.179 856.048 199.922 860.207 203.41C854.892 204.386 855.313 211.229 858.837 213.179C855.794 215.883 851.465 224.658 847.931 226.858C847.606 226.712 847.269 226.603 846.925 226.53C843.931 225.893 840.46 228.025 840.623 233.202C840.208 232.939 839.775 232.767 839.331 232.673C835.184 231.791 830.166 237.709 831.847 240.286C828.4 240.745 828.794 244.683 831.084 245.17C831.322 245.221 831.581 245.234 831.86 245.201C830.152 248.52 832.077 251.648 834.742 252.215C835.822 252.445 837.026 252.253 838.156 251.48C838.862 252.348 839.674 252.825 840.492 252.999C843.342 253.605 846.273 250.539 845.082 247.643C845.217 247.68 845.349 247.713 845.477 247.74C850.472 248.802 851.032 242.126 848.929 239.998C849.299 240.335 849.691 240.537 850.09 240.622C852.818 241.202 855.852 236.346 854.018 232.332C856.732 228.093 860.489 222.438 861.197 221.641C861.643 223.959 853.598 240.969 853.873 242.073C855.341 247.939 862.177 255.443 865.599 260.357C868.599 264.667 874.161 268.357 880.586 269.723C885.795 270.83 891.57 270.411 897.012 267.559C904.222 263.786 908.742 261.174 915.885 253.676C916.962 252.545 915.307 233.627 915.939 231.879C915.977 232.317 918.871 243.74 919.78 246.224C917.132 249.037 916.849 255.977 920.76 257.517C917.012 260.205 918.494 267.29 922.672 268.178C923.125 268.275 923.61 268.298 924.122 268.235C924.423 270.72 925.972 272.04 927.762 272.42C931.293 273.171 935.766 270.279 933.512 265.493C937.035 264.662 934.834 258.257 931.794 255.849C933.747 250.275 931.193 244.82 926.919 243.385C924.238 241.46 920.832 227.819 919.466 224.661C919.57 224.705 919.675 224.738 919.782 224.76C922.369 225.31 925.897 220.074 922.203 216.761C927.6 217.085 929.167 207.593 923.302 206.346C922.93 206.267 922.529 206.221 922.097 206.212C925.307 202.157 921.747 195.793 916.41 194.658C913.999 194.146 911.226 194.7 908.55 197.017C910.012 193.172 908.405 190.627 906.074 190.131C904.195 189.732 901.843 190.665 900.251 193.325C902.324 189.102 898.232 185.552 893.716 184.592Z" fill="#FAD0DD"/>
<path d="M878.053 229.242C877.116 228.387 876.109 227.847 875.087 227.382C874.064 226.932 873.012 226.609 871.942 226.379C870.869 226.154 869.778 226.02 868.659 226.015C867.537 226.025 866.399 226.11 865.195 226.509L865.115 226.884C866.053 227.738 867.058 228.279 868.079 228.743C869.103 229.194 870.154 229.517 871.226 229.748C872.297 229.973 873.39 230.105 874.508 230.11C875.63 230.101 876.769 230.016 877.973 229.617L878.053 229.242Z" fill="#373535"/>
<path d="M911.285 236.699C910.081 237.099 908.943 237.182 907.82 237.19C906.702 237.187 905.609 237.054 904.539 236.828C903.467 236.599 902.415 236.275 901.392 235.824C900.371 235.36 899.365 234.821 898.427 233.966L898.507 233.589C899.712 233.19 900.85 233.106 901.971 233.097C903.09 233.103 904.182 233.234 905.254 233.462C906.325 233.689 907.377 234.014 908.4 234.464C909.422 234.928 910.428 235.468 911.365 236.322L911.285 236.699Z" fill="#373535"/>
<path d="M884.035 243.648L879.55 242.695C877.322 242.221 878.016 238.954 880.245 239.428L892.366 242.004C894.646 242.489 893.952 245.756 891.672 245.271L887.419 244.367L884.679 257.257C884.207 259.477 880.812 258.81 881.295 256.538L884.035 243.648Z" fill="#373535"/>
<path d="M872.869 222.013C870 221.403 866.445 222.756 865.588 226.787C864.736 230.796 867.428 233.501 870.297 234.111C873.246 234.738 876.832 233.367 877.684 229.358C878.541 225.327 875.817 222.64 872.869 222.013ZM869.913 237.312C865.129 236.509 860.876 232.324 862.205 226.068C863.54 219.791 869.117 217.748 873.858 218.756C878.293 219.939 882.326 224.024 881.041 230.072C879.755 236.122 874.398 238.265 869.913 237.312Z" fill="#373535"/>
<path d="M906.147 229.087C903.277 228.477 899.722 229.829 898.865 233.861C898.013 237.869 900.706 240.575 903.576 241.185C906.523 241.811 910.109 240.44 910.961 236.432C911.818 232.4 909.095 229.713 906.147 229.087ZM903.19 244.385C898.406 243.582 894.153 239.397 895.483 233.142C896.817 226.864 902.394 224.821 907.134 225.829C911.569 227.011 915.605 231.097 914.319 237.145C913.033 243.195 907.674 245.338 903.19 244.385Z" fill="#373535"/>
<path d="M483.255 177.025C475.478 172.08 472.426 163.335 468.975 154.757C459.043 165.815 456.276 182.056 453.582 183.148C445.734 186.328 430.114 168.361 429.397 169.225C425.155 174.326 404.389 204.536 424.625 231.663C443.698 257.23 493.758 250.68 501.34 211.305C506.889 182.492 486.586 179.143 483.255 177.025Z" fill="#C8E8E8"/>
<path d="M440.342 203.426C441.389 204.356 442.095 205.397 442.723 206.466C443.334 207.536 443.809 208.653 444.183 209.801C444.553 210.953 444.821 212.135 444.953 213.362C445.069 214.595 445.105 215.851 444.801 217.22L444.397 217.351C443.349 216.419 442.643 215.379 442.016 214.312C441.404 213.24 440.93 212.124 440.555 210.974C440.186 209.824 439.917 208.641 439.786 207.415C439.669 206.181 439.633 204.924 439.937 203.556L440.342 203.426Z" fill="#373535"/>
<path d="M476.084 191.869C477.131 192.8 477.837 193.841 478.464 194.91C479.077 195.98 479.551 197.097 479.924 198.245C480.295 199.397 480.563 200.579 480.694 201.807C480.811 203.039 480.847 204.295 480.544 205.664L480.138 205.795C479.09 204.863 478.384 203.823 477.757 202.756C477.146 201.684 476.67 200.568 476.297 199.418C475.927 198.269 475.659 197.085 475.527 195.859C475.41 194.626 475.374 193.368 475.678 192.001L476.084 191.869Z" fill="#373535"/>
<path d="M462.857 218.49L458.046 220.046C455.655 220.819 454.517 217.3 456.908 216.527L469.913 212.323C472.359 211.532 473.496 215.051 471.05 215.841L466.488 217.317L470.976 231.201C471.749 233.591 468.137 234.822 467.346 232.374L462.857 218.49Z" fill="#373535"/>
<path d="M440.26 203.872C437.181 204.867 434.53 208.124 435.934 212.467C437.329 216.784 441.394 217.899 444.473 216.904C447.636 215.881 450.306 212.588 448.911 208.272C447.507 203.928 443.423 202.85 440.26 203.872ZM445.87 220.187C440.855 222.051 434.483 220.377 432.305 213.64C430.118 206.878 434.322 201.845 439.408 200.2C444.299 198.892 450.406 200.592 452.512 207.107C454.619 213.623 450.681 218.631 445.87 220.187Z" fill="#373535"/>
<path d="M475.964 192.33C472.885 193.325 470.233 196.581 471.637 200.925C473.033 205.241 477.098 206.357 480.177 205.361C483.339 204.339 486.009 201.046 484.614 196.729C483.21 192.386 479.126 191.307 475.964 192.33ZM481.572 208.645C476.558 210.509 470.186 208.835 468.008 202.098C465.822 195.336 470.025 190.303 475.11 188.659C480.001 187.35 486.11 189.049 488.217 195.565C490.323 202.081 486.383 207.09 481.572 208.645Z" fill="#373535"/>
<path d="M144.264 130.246C143.275 127.533 140.451 124.844 139.366 121.87C138.251 118.829 137.449 116.166 138.255 113.189C138.571 113.26 138.95 113.264 139.261 113.326C137.813 108.386 141.869 103.296 144.464 99.2471C146.73 95.7083 147.884 96.1066 149.643 92.475C152.439 86.7076 153.673 78.0135 153.255 71.7104C153.074 69.0085 153.059 65.1195 151.743 62.4974C150.52 60.0638 149.208 60.7194 146.673 61.5773C140.609 63.6395 134.722 66.35 130.459 70.337C126.995 73.5788 122.078 78.532 121.453 83.0226C116.078 76.8189 102.529 77.2724 102.529 77.2724C102.398 75.5764 102.169 70.0003 100.765 67.0774C97.3172 59.918 86.8235 47.0704 84.095 45.7318C81.3657 44.3904 71.4932 61.3251 70.3651 65.5968C68.9791 70.8614 68.7451 77.7372 73.7559 82.4711C72.3614 81.3913 70.6144 80.753 68.7171 80.4578C70.036 86.4491 73.4347 86.2006 72.1441 92.2721C71.1172 97.1032 65.7079 99.4158 61.7324 102.951C63.7332 102.75 68.1679 102.446 69.8711 101.973C68.3233 103.229 65.5524 104.982 63.8701 106.248C61.73 107.861 58.9308 108.687 56.4239 110.469C59.8904 111.347 62.9374 113.035 68.311 110.266C66.3153 112.676 61.7703 113.213 53.6679 118.781C60.2359 121.042 66.3116 118.009 68.6207 115.282C68.4001 118.134 64.6219 127.41 64.3194 129.691C64.1528 130.983 63.9872 132.826 65.003 134.036C67.1527 132.415 68.4419 128.81 71.0777 127.264C70.4648 129.715 71.2204 132.257 71.755 134.806C72.2657 137.271 72.204 140.944 74.4106 142.937C75.2242 140.071 75.7444 137.063 76.2969 134.133C77.567 136.31 79.1666 138.873 79.7927 141.27C80.2985 143.18 80.1294 144.126 81.5764 145.761C82.5199 146.828 84.6981 149.27 85.9736 149.709C86.5289 147.749 86.5574 143.176 89.7927 146.199C92.2235 148.463 91.4224 152.532 93.8593 154.483C96.3064 152.946 99.1879 151.607 101.509 149.961C102.688 149.123 103.914 148.335 105.167 147.716C105.982 150.328 105.236 153.457 106.556 155.849C108.115 155.221 108.308 153.701 109.243 152.531C110.295 151.221 111.661 150.077 112.681 148.792C114.213 146.876 116.272 143.451 118.558 142.231C120.15 145.463 118.325 149.497 118.795 152.839C121.608 148.723 126.25 145.656 128.034 140.797C129.165 143.594 128.092 146.976 127.783 149.843C131.417 144.546 131.945 137.053 135.671 131.762C137.295 133.031 138.662 135.099 140.234 136.154C141.545 133.624 138.076 129.301 137.297 126.896C140.459 127.162 141.609 129.617 144.264 130.246Z" fill="#FFE6BE"/>
<path d="M93.6156 100.868C92.5946 99.9332 91.4977 99.3432 90.3836 98.8341C89.2684 98.3425 88.121 97.9905 86.9545 97.7399C85.7845 97.4939 84.5944 97.349 83.3744 97.3443C82.1508 97.3564 80.91 97.4495 79.5959 97.8878L79.5086 98.2984C80.5309 99.2333 81.6264 99.8237 82.7397 100.33C83.8558 100.824 85.0017 101.177 86.1707 101.428C87.3382 101.673 88.5299 101.817 89.749 101.82C90.9733 101.81 92.2155 101.717 93.5284 101.278L93.6156 100.868Z" fill="#373535"/>
<path d="M129.943 108.589C128.922 107.654 127.826 107.064 126.711 106.557C125.596 106.064 124.449 105.712 123.282 105.461C122.112 105.215 120.922 105.07 119.702 105.067C118.479 105.078 117.238 105.171 115.924 105.609L115.836 106.021C116.858 106.956 117.954 107.545 119.067 108.052C120.184 108.545 121.33 108.898 122.499 109.148C123.666 109.395 124.858 109.539 126.076 109.544C127.301 109.532 128.543 109.44 129.856 109.001L129.943 108.589Z" fill="#373535"/>
<path d="M100.127 116.629L95.2372 115.59C92.8073 115.074 93.5672 111.499 95.9971 112.015L109.214 114.824C111.7 115.353 110.94 118.928 108.454 118.399L103.817 117.414L100.817 131.524C100.301 133.955 96.5988 133.228 97.1276 130.74L100.127 116.629Z" fill="#373535"/>
<path d="M87.9684 92.9609C84.8401 92.296 80.9622 93.7789 80.0241 98.1925C79.0912 102.581 82.025 105.54 85.1533 106.205C88.3682 106.888 92.2798 105.385 93.2127 100.996C94.1508 96.5822 91.1833 93.6442 87.9684 92.9609ZM84.732 109.707C79.5149 108.832 74.8803 104.255 76.3356 97.4085C77.7965 90.5357 83.8801 88.2954 89.0495 89.3942C93.8857 90.6853 98.2804 95.1528 96.8731 101.774C95.4653 108.397 89.6216 110.746 84.732 109.707Z" fill="#373535"/>
<path d="M124.255 100.674C121.125 100.008 117.247 101.491 116.309 105.905C115.376 110.294 118.31 113.252 121.44 113.918C124.653 114.601 128.565 113.097 129.498 108.708C130.436 104.295 127.468 101.357 124.255 100.674ZM121.016 117.419C115.8 116.545 111.165 111.968 112.621 105.121C114.082 98.2481 120.165 96.0078 125.333 97.1064C130.17 98.3974 134.567 102.865 133.159 109.487C131.752 116.11 125.906 118.458 121.016 117.419Z" fill="#373535"/>
</svg>
