<svg width="1400" height="348" viewBox="0 0 1400 348" fill="none" xmlns="http://www.w3.org/2000/svg">
<path d="M-114 37.7684C-101.078 36.4762 -87.7972 27.6886 -75.8889 22.8795C-57.0183 15.2587 -35.106 10.5249 -14.7778 9.87951C31.4047 8.4134 75.454 11.1261 115.778 35.7684C131.424 45.3301 145.343 59.1415 143.889 78.7684C142.344 99.6309 121.24 123.016 100.111 125.657C89.5293 126.98 88 116.99 88 108.657C88 91.6692 135.526 95.2249 146 95.8795C158.071 96.6339 167.895 104.777 177.111 111.768C189.779 121.378 204.04 130.398 218.111 137.768C260.65 160.051 302.855 184.087 351.111 190.768C392.479 196.496 433.572 201.262 470 177.324C478.746 171.576 501.54 144.213 478 143.768C470.407 143.625 458.257 141.288 452.444 147.324C447.908 152.035 449.362 163.076 452.444 168.213C461.076 182.6 479.059 189.552 494.444 193.768C518.505 200.363 543.456 203.716 568.111 207.102C627.873 215.308 688.13 222.49 748.444 224.88C876.544 229.955 1086.15 230.339 1126.67 72.6573C1130.99 55.8155 1139.46 23.0646 1122 10.6573C1110.22 2.28808 1080.61 -3.82545 1068 6.21285C1057.28 14.7492 1054.62 26.6369 1056.44 39.7684C1059.72 63.344 1087.64 73.5323 1107.78 77.7684C1172.7 91.4225 1239.86 84.3461 1305.33 79.7684C1374.84 74.9092 1444.38 75.7684 1514 75.7684" stroke="#75D8DB" stroke-width="2" stroke-linecap="round" stroke-dasharray="10 10"/>
<path d="M753.509 280.109H755.184C755.774 279.572 756.415 279.098 757.094 278.69C755.614 277.976 754.16 277.239 752.727 276.489C753.085 277.669 753.341 278.879 753.509 280.109Z" fill="white"/>
<path d="M774.267 327.726C774.068 327.735 773.866 327.739 773.669 327.739C770.224 327.739 766.946 326.474 764.593 324.22C762.155 321.885 760.865 318.664 760.865 314.907C760.865 306.336 767.601 301.852 774.252 301.852C780.409 302.166 786.999 306.386 786.999 314.907C786.999 323.317 780.597 327.719 774.267 327.726ZM780.084 297.475H780.134C780.134 293.472 777.045 291.429 774.092 291.278C770.977 291.278 767.744 293.313 767.731 297.451C760.934 299.701 755.328 305.502 755.328 314.963C755.328 327.372 765.047 333.604 774.412 333.196C783.272 333.196 792.537 326.968 792.537 314.963C792.537 305.539 786.823 299.754 780.084 297.475Z" fill="#8E70B1"/>
<path d="M774.222 303.177C768.446 303.178 762.195 306.849 762.195 314.906C762.195 318.293 763.343 321.181 765.514 323.26C767.745 325.399 770.908 326.547 774.227 326.397H774.255C779.929 326.397 785.675 322.45 785.675 314.906C785.675 307.251 779.737 303.461 774.222 303.177Z" fill="white"/>
<path d="M774.247 326.398H774.219C770.901 326.548 767.738 325.399 765.505 323.261C763.334 321.18 762.186 318.293 762.186 314.907C762.186 306.848 768.438 303.178 774.214 303.177C779.729 303.461 785.665 307.251 785.665 314.907C785.665 322.45 779.92 326.398 774.247 326.398ZM774.247 301.851C767.594 301.851 760.859 306.335 760.859 314.907C760.859 318.664 762.149 321.884 764.588 324.219C766.94 326.473 770.219 327.738 773.663 327.738C773.861 327.738 774.061 327.734 774.261 327.725C780.59 327.718 786.992 323.316 786.992 314.907C786.992 306.386 780.403 302.166 774.247 301.851Z" fill="#CFC4E1"/>
<path d="M775.885 304.032V308.617H775.077L772.919 305.764L772.957 308.617H771.977V304.102C772.085 304.019 772.238 303.968 772.397 303.968C772.651 303.968 772.822 304.084 773.014 304.337L774.942 306.905L774.905 304.032H775.885Z" fill="#373535"/>
<path d="M775.489 321.353L775.057 322.054C774.784 321.863 774.408 321.722 774.031 321.722C773.682 321.722 773.471 321.876 773.471 322.118C773.471 322.442 773.842 322.571 774.287 322.728C774.892 322.946 775.605 323.22 775.605 324.137C775.605 325.079 774.956 325.621 773.855 325.621C773.25 325.621 772.69 325.449 772.281 325.142L772.606 324.417C772.919 324.659 773.371 324.806 773.905 324.806C774.318 324.806 774.561 324.633 774.561 324.347C774.561 323.983 774.191 323.85 773.765 323.704C773.16 323.493 772.427 323.232 772.427 322.265C772.427 321.385 773.02 320.909 774.014 320.909C774.517 320.909 775.05 321.053 775.489 321.353Z" fill="#373535"/>
<path d="M771.337 312.191L767.07 321.668L776.542 317.399L771.337 312.191Z" fill="#5B8DC9"/>
<path d="M780.8 307.922L771.328 312.191L776.533 317.398L780.8 307.922Z" fill="#F27AA7"/>
<path d="M614.419 200.505C614.466 200.542 614.517 200.575 614.564 200.614C613.959 204.448 613.211 208.198 612.325 211.875C605.758 208.807 599.037 206.22 591.706 205.147C591.493 201.935 591.182 198.767 590.703 195.698C599.317 194.672 609.006 195.916 614.419 200.505Z" fill="#5B8DC9"/>
<path d="M566.718 136.173C573.753 128.102 586 127.27 594.066 134.312L596.852 136.744C598.431 138.122 599.911 139.601 601.301 141.142C588.137 143.246 574.616 147.863 562.867 154.805C560.89 148.562 562.095 141.47 566.718 136.173Z" fill="#5B8DC9"/>
<path d="M614.949 170.624C615.965 176.825 616.139 182.766 615.849 188.48C607.709 184.965 597.495 183.621 588.053 184.369C587.325 182.151 586.494 180.06 585.547 178.158C593.183 176.629 600.317 172.589 608.153 171.425C610.419 171.085 612.687 170.826 614.949 170.624Z" fill="#5B8DC9"/>
<path d="M570.203 164.805C581.279 157.282 594.829 152.102 607.747 149.981C607.94 150.321 608.145 150.657 608.333 150.999C610.086 154.169 611.451 157.395 612.515 160.593C611.007 160.703 609.501 160.842 607.999 161.027C602.399 161.717 596.741 162.609 591.303 164.164C586.653 165.49 582.472 167.89 577.803 168.734C576.763 168.063 575.709 167.533 574.632 167.135C573.106 166.569 571.603 165.781 570.203 164.805Z" fill="#5B8DC9"/>
<path d="M610.254 219.641C604.784 216.816 599.174 214.309 593.186 213.388C592.794 213.327 592.405 213.295 592.013 213.255C591.996 210.522 591.89 207.819 591.711 205.144C599.042 206.217 605.763 208.804 612.33 211.872C611.699 214.498 611 217.083 610.254 219.641Z" fill="#C1CFEA"/>
<path d="M615.858 188.48C615.734 190.85 615.535 193.183 615.283 195.477C615.079 197.208 614.835 198.914 614.572 200.613C614.524 200.573 614.475 200.542 614.426 200.504C609.015 195.915 599.324 194.671 590.711 195.698C590.708 195.672 590.706 195.646 590.703 195.625C590.087 191.674 589.206 187.864 588.062 184.367C597.504 183.62 607.718 184.965 615.858 188.48Z" fill="#C1CFEA"/>
<path d="M608.002 161.024C609.502 160.838 611.009 160.7 612.518 160.59C613.187 162.605 613.736 164.616 614.187 166.594C614.487 167.949 614.735 169.293 614.954 170.623C612.692 170.826 610.424 171.083 608.158 171.423C600.321 172.589 593.188 176.628 585.552 178.156C585.28 177.611 585.005 177.066 584.715 176.551C583.279 173.996 581.64 171.888 579.924 170.348C579.23 169.712 578.519 169.192 577.805 168.731C582.475 167.887 586.656 165.485 591.306 164.159C596.744 162.605 602.402 161.714 608.002 161.024Z" fill="#C1CFEA"/>
<path d="M568.584 163.544C565.81 161.124 563.914 158.082 562.875 154.809C574.624 147.867 588.144 143.25 601.31 141.146C603.804 143.914 605.971 146.905 607.757 149.981C594.839 152.102 581.29 157.282 570.214 164.805C569.654 164.412 569.106 163.998 568.584 163.544Z" fill="#C1CFEA"/>
<path d="M798.926 200.564C798.974 200.601 799.025 200.634 799.072 200.673C798.467 204.506 797.72 208.256 796.833 211.934C790.268 208.866 783.545 206.28 776.214 205.207C776.002 201.993 775.69 198.826 775.211 195.757C783.825 194.731 793.516 195.976 798.926 200.564Z" fill="#6DC390"/>
<path d="M751.217 136.237C758.253 128.166 770.5 127.334 778.566 134.376L781.352 136.808C782.931 138.186 784.41 139.665 785.801 141.205C772.637 143.309 759.116 147.927 747.368 154.867C745.39 148.624 746.595 141.533 751.217 136.237Z" fill="#6DC390"/>
<path d="M799.457 170.686C800.473 176.886 800.646 182.827 800.356 188.543C792.216 185.026 782.003 183.682 772.561 184.43C771.833 182.212 771.002 180.121 770.055 178.219C777.69 176.69 784.825 172.652 792.661 171.486C794.927 171.148 797.195 170.887 799.457 170.686Z" fill="#6DC390"/>
<path d="M754.703 164.865C765.781 157.342 779.329 152.162 792.248 150.041C792.44 150.381 792.646 150.717 792.833 151.058C794.587 154.229 795.952 157.454 797.016 160.651C795.508 160.762 794.001 160.901 792.499 161.087C786.901 161.776 781.242 162.669 775.803 164.224C771.153 165.55 766.972 167.95 762.303 168.793C761.263 168.123 760.209 167.592 759.133 167.193C757.606 166.629 756.104 165.839 754.703 164.865Z" fill="#6DC390"/>
<path d="M794.756 219.703C789.285 216.878 783.676 214.372 777.688 213.449C777.295 213.388 776.906 213.356 776.515 213.317C776.498 210.583 776.391 207.881 776.211 205.207C783.543 206.28 790.265 208.866 796.83 211.933C796.201 214.56 795.501 217.144 794.756 219.703Z" fill="#CDE8D5"/>
<path d="M800.366 188.544C800.242 190.912 800.043 193.246 799.791 195.541C799.587 197.272 799.343 198.977 799.08 200.676C799.032 200.636 798.982 200.604 798.934 200.567C793.523 195.979 783.832 194.734 775.219 195.76C775.216 195.735 775.213 195.708 775.211 195.687C774.595 191.736 773.713 187.927 772.57 184.43C782.012 183.683 792.226 185.027 800.366 188.544Z" fill="#CDE8D5"/>
<path d="M792.509 161.088C794.011 160.9 795.519 160.762 797.026 160.652C797.695 162.669 798.244 164.678 798.695 166.656C798.995 168.013 799.243 169.356 799.462 170.685C797.2 170.888 794.932 171.147 792.666 171.486C784.83 172.653 777.696 176.691 770.06 178.219C769.789 177.674 769.514 177.129 769.223 176.614C767.787 174.058 766.15 171.95 764.433 170.412C763.737 169.776 763.026 169.256 762.312 168.794C766.983 167.951 771.164 165.549 775.814 164.223C781.253 162.669 786.91 161.776 792.509 161.088Z" fill="#CDE8D5"/>
<path d="M753.084 163.606C750.309 161.185 748.413 158.143 747.375 154.87C759.124 147.93 772.644 143.311 785.809 141.207C788.304 143.977 790.471 146.966 792.257 150.043C779.338 152.164 765.79 157.344 754.714 164.867C754.154 164.474 753.606 164.06 753.084 163.606Z" fill="#CDE8D5"/>
<path d="M598.058 281.444C610.057 287.074 616.649 290.167 628.653 295.798C629.406 296.153 629.84 296.965 629.708 297.789C627.119 313.802 624.728 329.844 622.531 345.913C622.36 347.164 621.03 347.889 619.889 347.352C601.539 338.745 583.191 330.136 564.842 321.525C563.721 320.999 563.411 319.547 564.22 318.608C574.76 306.376 585.301 294.144 595.841 281.914C596.389 281.278 597.298 281.087 598.058 281.444Z" fill="#6DC390"/>
<path d="M616.608 318.565C618.598 311.549 619.594 308.04 621.584 301.023C612.677 296.844 608.224 294.755 599.316 290.576L589.07 305.49C591.599 312.482 593.256 316.161 597.358 323.891C605.827 322.121 609.677 321.056 616.608 318.565Z" fill="#FDBC4E"/>
<path d="M585.096 305.467C587.905 313.41 589.822 317.622 594.677 326.526C595.121 327.342 596.144 327.821 597.054 327.642C607.001 325.683 611.463 324.464 619.363 321.544C620.17 321.246 620.487 320.21 620.106 319.246C619.725 318.282 618.794 317.758 617.993 318.056C617.446 318.262 617.171 318.363 616.614 318.562C609.683 321.054 605.832 322.119 597.363 323.888C593.264 316.159 591.606 312.48 589.076 305.489C588.904 305.007 588.817 304.768 588.652 304.29C588.524 303.925 588.251 303.648 587.899 303.483C587.472 303.282 586.927 303.247 586.387 303.425C585.402 303.749 584.809 304.655 585.096 305.467Z" fill="#F27AA7"/>
<path d="M613.261 302.256C611.649 301.499 610.842 301.121 609.229 300.363C607.622 303.881 606.818 305.64 605.211 309.155C607.019 310.004 607.924 310.428 609.733 311.277C611.144 307.668 611.85 305.864 613.261 302.256Z" fill="white"/>
<path d="M604.695 298.235C602.868 301.648 601.953 303.355 600.125 306.769C601.933 307.618 602.84 308.042 604.648 308.891C606.279 305.386 607.096 303.632 608.727 300.128C607.115 299.37 606.308 298.992 604.695 298.235Z" fill="white"/>
<path d="M599.82 307.336C598.842 309.163 598.353 310.076 597.375 311.903C601.47 313.825 603.517 314.785 607.611 316.707C608.366 314.776 608.744 313.809 609.499 311.878C607.678 311.023 606.766 310.595 604.944 309.742C604.716 309.633 604.602 309.58 604.375 309.474C602.554 308.619 601.642 308.193 599.82 307.336Z" fill="white"/>
<path d="M599.819 307.339C601.641 308.195 602.552 308.621 604.374 309.476C604.601 309.582 604.715 309.635 604.943 309.744C606.765 310.598 607.676 311.025 609.498 311.88C608.743 313.812 608.365 314.778 607.61 316.71C603.516 314.787 601.468 313.828 597.374 311.905C598.352 310.079 598.841 309.165 599.819 307.339ZM609.23 300.363C610.844 301.12 611.65 301.499 613.262 302.256C611.851 305.864 611.146 307.668 609.734 311.277C607.925 310.428 607.021 310.004 605.211 309.155C606.819 305.64 607.622 303.881 609.23 300.363ZM604.694 298.235C606.307 298.992 607.114 299.37 608.726 300.127C607.094 303.632 606.278 305.385 604.647 308.891C602.838 308.041 601.933 307.618 600.124 306.768C601.951 303.355 602.865 301.648 604.694 298.235ZM607.98 317.598C608.815 315.418 609.233 314.328 610.067 312.147C610.16 311.905 610.207 311.785 610.3 311.543C611.779 307.68 612.518 305.749 613.999 301.887C612.198 301.043 611.299 300.619 609.498 299.776C609.299 299.681 609.198 299.634 608.998 299.541C607.199 298.696 606.299 298.275 604.499 297.429C602.523 301.06 601.535 302.874 599.559 306.503C599.436 306.731 599.373 306.845 599.25 307.072C598.134 309.12 597.577 310.144 596.461 312.192C601.069 314.355 603.372 315.437 607.98 317.598Z" fill="#8E70B1"/>
<path d="M623.304 301.351C617.06 301.622 610.578 297.468 610.578 289.195C610.578 280.889 617.06 276.803 623.304 276.803C629.209 277.106 635.387 281.19 635.387 289.195C635.387 297.197 629.209 301.351 623.304 301.351Z" fill="#5B8DC9"/>
<path d="M566.727 289.195C566.727 281.192 572.904 277.107 578.81 276.803C585.054 276.803 591.535 280.889 591.535 289.195C591.535 297.468 585.054 301.622 578.81 301.351C572.904 301.351 566.727 297.197 566.727 289.195Z" fill="#5B8DC9"/>
<path d="M807.952 301.316C801.708 301.586 795.227 297.433 795.227 289.16C795.227 280.854 801.708 276.769 807.952 276.769C813.858 277.07 820.035 281.156 820.035 289.16C820.035 297.163 813.858 301.316 807.952 301.316Z" fill="#6DC390"/>
<path d="M751.383 289.156C751.383 281.154 757.56 277.068 763.466 276.765C769.71 276.765 776.19 280.85 776.19 289.156C776.19 297.429 769.71 301.583 763.466 301.312C757.56 301.312 751.383 297.158 751.383 289.156Z" fill="#6DC390"/>
<path d="M735.093 244.046C733.462 238.95 736.466 232.829 738.288 227.994C740.037 223.347 741.468 223.523 742.609 218.892C744.423 211.536 743.714 201.179 741.683 193.993C740.81 190.916 739.836 186.421 737.671 183.713C735.661 181.199 734.305 182.281 731.586 183.895C725.083 187.77 718.947 192.352 714.998 198.009C711.793 202.609 707.328 209.546 707.708 214.891C699.972 209.038 684.426 212.893 684.426 212.893C683.858 210.963 682.223 204.572 679.882 201.539C674.141 194.107 658.857 181.832 655.374 180.955C651.889 180.075 644.64 202.083 644.387 207.296C644.078 213.726 645.495 221.732 652.45 225.976C650.574 225.07 648.396 224.762 646.133 224.885C649.129 231.488 652.997 230.368 652.997 237.703C652.997 240.408 651.776 242.716 650.099 244.921C650.216 246.175 650.285 247.483 650.295 248.848C650.299 249.4 650.292 249.943 650.281 250.482C651.292 250.125 652.177 249.78 652.751 249.48C652.089 250.299 651.171 251.292 650.209 252.308C650.002 255.901 649.419 259.158 648.505 262.113C649.894 261.602 651.371 260.772 652.986 259.452C652.104 261.136 650.318 262.417 647.705 264.41C646.475 267.571 644.837 270.36 642.844 272.823C648.66 271.923 652.981 268.144 654.575 265.176C655.02 268.526 652.934 280.182 653.144 282.894C653.27 284.43 653.531 286.6 655.003 287.748C657.087 285.346 657.692 280.86 660.358 278.424C660.253 281.411 661.749 284.163 662.994 286.98C664.191 289.705 665.02 293.966 668.061 295.729C668.297 292.215 668.159 288.61 668.078 285.085C670.079 287.29 672.558 289.86 673.87 292.478C674.925 294.564 674.962 295.697 677.036 297.232C678.388 298.233 681.506 300.523 683.087 300.717C683.246 298.314 682.157 293.021 686.638 295.72C690.004 297.74 690.077 302.643 693.374 304.301C695.821 301.921 698.825 299.664 701.103 297.189C702.26 295.932 703.482 294.719 704.778 293.694C706.362 296.515 706.268 300.318 708.38 302.76C710.029 301.65 709.88 299.843 710.672 298.261C711.566 296.489 712.864 294.828 713.726 293.093C715.028 290.5 716.564 286.035 718.906 284.063C721.54 287.407 720.422 292.522 721.788 296.271C724.027 290.817 728.638 286.131 729.504 280.077C731.5 283.032 731.09 287.205 731.438 290.596C734.337 283.577 733.107 274.783 736.113 267.751C738.301 268.82 740.39 270.876 742.466 271.708C742.55 271.398 742.58 271.078 742.565 270.754C730.631 263.504 722.297 256.726 722.297 256.726C722.297 256.726 728.541 251.496 735.093 244.046Z" fill="#FFE6BE"/>
<path d="M808.133 186.805C801.901 193.952 788.755 211.022 788.755 211.022C788.755 211.022 782.314 213.47 779.554 210.728C772.579 203.775 765.734 188.592 763.19 187.629C759.851 186.368 753.802 216.067 744.372 231.655C741.689 236.092 738.355 240.342 735.097 244.047C735.262 244.561 735.472 245.064 735.737 245.555C735.362 245.558 734.92 245.646 734.541 245.643C734.34 249.282 735.92 252.165 737.954 255.408C739.941 258.579 743.864 260.995 745.675 263.888C742.451 263.814 740.519 261.258 736.799 261.727C738.15 264.069 742.424 267.683 742.569 270.755C757.168 279.624 777.151 289.195 793.87 287.916C816.894 286.15 834.842 253.046 849.006 245.148C830.989 231.792 812.998 213.295 808.133 186.805Z" fill="#CDE8D5"/>
<path d="M638.154 272.896C642.038 268.803 645.238 266.289 647.704 264.409C647.994 263.666 648.26 262.901 648.504 262.114C645.133 263.358 642.287 262.723 639.298 262.608C641.755 259.931 644.788 258.288 646.866 255.896C647.769 254.858 649.019 253.565 650.208 252.308C650.244 251.709 650.265 251.098 650.28 250.481C648.031 251.271 645.146 252.113 643.585 252.612C645.586 249.892 648.15 247.477 650.098 244.922C648.32 226.139 635.175 219.306 634.014 213.175C632.434 204.797 630.167 196.033 625.881 190.033C615.604 195.177 607.461 211.892 607.461 211.892C602.589 209.744 594.615 209.748 591.547 212.75C589.741 205.385 586.657 197.48 578.77 190.033C572.783 196.602 570.194 204.728 564.662 216.177C558.787 228.329 544.147 243.392 550.618 261.441C559.023 284.899 596.491 291.739 609.333 289.277C623.35 286.586 635.494 281.909 642.843 272.823C641.369 273.051 639.801 273.097 638.154 272.896Z" fill="#C1CFEA"/>
<path d="M745.67 263.883C743.859 260.989 739.935 258.574 737.951 255.402C735.915 252.16 734.335 249.277 734.535 245.638C734.916 245.641 735.358 245.552 735.732 245.549C735.468 245.058 735.257 244.555 735.091 244.042C728.54 251.492 722.297 256.721 722.297 256.721C722.297 256.721 730.629 263.501 742.564 270.75C742.419 267.677 738.144 264.063 736.795 261.722C740.514 261.253 742.446 263.807 745.67 263.883Z" fill="#D0D8AE"/>
<path d="M638.156 272.896C639.803 273.097 641.371 273.051 642.845 272.823C644.838 270.36 646.477 267.57 647.707 264.409C645.24 266.289 642.04 268.803 638.156 272.896Z" fill="#C6C4C5"/>
<path d="M650.281 250.48C650.293 249.942 650.3 249.4 650.296 248.847C650.284 247.481 650.216 246.174 650.099 244.921C648.151 247.475 645.587 249.891 643.586 252.609C645.146 252.112 648.032 251.27 650.281 250.48Z" fill="#C6C4C5"/>
<path d="M639.297 262.607C642.286 262.722 645.132 263.357 648.504 262.113C649.418 259.157 650 255.899 650.207 252.307C649.018 253.564 647.769 254.857 646.865 255.895C644.789 258.287 641.754 259.931 639.297 262.607Z" fill="#C6C4C5"/>
<path d="M579.446 234.132C580.275 235.541 580.686 236.955 581.001 238.368C581.295 239.779 581.422 241.19 581.423 242.602C581.422 244.015 581.295 245.427 581.001 246.838C580.686 248.251 580.275 249.662 579.446 251.074H578.948C578.119 249.662 577.708 248.251 577.393 246.838C577.097 245.427 576.971 244.015 576.969 242.602C576.971 241.19 577.097 239.779 577.393 238.368C577.708 236.955 578.119 235.541 578.948 234.132H579.446Z" fill="#373535"/>
<path d="M623.317 234.132C624.146 235.541 624.559 236.955 624.871 238.368C625.168 239.779 625.293 241.19 625.294 242.602C625.293 244.015 625.168 245.427 624.871 246.838C624.559 248.251 624.146 249.662 623.317 251.074H622.819C621.99 249.662 621.577 248.251 621.266 246.838C620.971 245.427 620.844 244.015 620.844 242.602C620.844 241.19 620.971 239.779 621.266 238.368C621.577 236.955 621.99 235.541 622.819 234.132H623.317Z" fill="#373535"/>
<path d="M599.046 258.98H593.141C590.203 258.98 590.203 254.658 593.141 254.658H609.104C612.107 254.658 612.107 258.98 609.104 258.98H603.502V276.033C603.502 278.971 599.046 279.038 599.046 276.033V258.98Z" fill="#373535"/>
<path d="M579.189 234.602C575.408 234.602 571.291 237.271 571.291 242.604C571.291 247.906 575.408 250.609 579.189 250.609C583.071 250.609 587.221 247.906 587.221 242.604C587.221 237.271 583.071 234.602 579.189 234.602ZM579.56 254.761C573.317 255.032 566.836 250.878 566.836 242.604C566.836 234.298 573.317 230.213 579.56 230.213C585.466 230.516 591.643 234.602 591.643 242.604C591.643 250.609 585.466 254.761 579.56 254.761Z" fill="#373535"/>
<path d="M623.018 234.602C619.238 234.602 615.119 237.271 615.119 242.604C615.119 247.906 619.238 250.609 623.018 250.609C626.899 250.609 631.049 247.906 631.049 242.604C631.049 237.271 626.899 234.602 623.018 234.602ZM623.388 254.761C617.144 255.032 610.664 250.878 610.664 242.604C610.664 234.298 617.144 230.213 623.388 230.213C629.294 230.516 635.473 234.602 635.473 242.604C635.473 250.609 629.294 254.761 623.388 254.761Z" fill="#373535"/>
<path d="M763.937 234.155C764.765 235.565 765.179 236.977 765.492 238.391C765.788 239.802 765.911 241.213 765.915 242.626C765.911 244.038 765.788 245.451 765.492 246.862C765.179 248.274 764.765 249.685 763.937 251.098H763.439C762.61 249.685 762.199 248.274 761.886 246.862C761.59 245.451 761.465 244.038 761.461 242.626C761.465 241.213 761.59 239.802 761.886 238.391C762.199 236.977 762.61 235.565 763.439 234.155H763.937Z" fill="#373535"/>
<path d="M807.803 234.155C808.632 235.565 809.043 236.977 809.356 238.391C809.652 239.802 809.778 241.213 809.78 242.626C809.778 244.038 809.652 245.451 809.356 246.862C809.043 248.274 808.632 249.685 807.803 251.098H807.305C806.477 249.685 806.065 248.274 805.75 246.862C805.455 245.451 805.331 244.038 805.328 242.626C805.331 241.213 805.455 239.802 805.75 238.391C806.065 236.977 806.477 235.565 807.305 234.155H807.803Z" fill="#373535"/>
<path d="M783.546 259.004H777.639C774.704 259.004 774.704 254.681 777.639 254.681H793.603C796.608 254.681 796.608 259.004 793.603 259.004H788.001V276.056C788.001 278.994 783.546 279.062 783.546 276.056V259.004Z" fill="#373535"/>
<path d="M763.679 234.621C759.899 234.621 755.782 237.29 755.782 242.623C755.782 247.925 759.899 250.628 763.679 250.628C767.562 250.628 771.712 247.925 771.712 242.623C771.712 237.29 767.562 234.621 763.679 234.621ZM764.051 254.781C757.807 255.051 751.328 250.898 751.328 242.623C751.328 234.317 757.807 230.231 764.051 230.231C769.957 230.535 776.134 234.621 776.134 242.623C776.134 250.628 769.957 254.781 764.051 254.781Z" fill="#373535"/>
<path d="M807.509 234.621C803.729 234.621 799.61 237.29 799.61 242.623C799.61 247.925 803.729 250.628 807.509 250.628C811.39 250.628 815.541 247.925 815.541 242.623C815.541 237.29 811.39 234.621 807.509 234.621ZM807.879 254.781C801.636 255.051 795.156 250.898 795.156 242.623C795.156 234.317 801.636 230.231 807.879 230.231C813.786 230.535 819.962 234.621 819.962 242.623C819.962 250.628 813.786 254.781 807.879 254.781Z" fill="#373535"/>
<path d="M693.789 277.436C688.82 277.447 684.838 273.464 684.815 268.46C684.791 263.536 688.799 259.511 693.735 259.503C698.732 259.494 702.734 263.468 702.741 268.44C702.748 273.422 698.763 277.424 693.789 277.436ZM752.165 274.83H752.156C751.716 273.721 742.666 255.349 739.763 250.224C737.61 246.421 734.474 243.962 730.398 242.607C729.845 242.422 729.6 242.162 729.494 241.57C728.406 235.498 723.187 230.51 717.103 229.676C709.533 228.64 702.882 232.807 700.492 240.077C700.338 240.547 700.283 241.179 699.951 241.42C699.627 241.656 695.376 241.506 693.804 241.505C692.23 241.506 687.979 241.656 687.657 241.42C687.326 241.179 687.269 240.547 687.115 240.077C684.726 232.807 678.074 228.64 670.505 229.676C664.419 230.51 659.202 235.498 658.113 241.57C658.006 242.162 657.762 242.422 657.209 242.607C653.133 243.962 649.998 246.421 647.844 250.224C644.941 255.349 635.891 273.721 635.452 274.83H635.443C634.387 277.56 633.843 280.476 633.86 283.464C633.938 296.909 644.488 307.441 657.876 307.441H657.992C664.343 307.411 670.303 304.903 674.772 300.381C677.987 297.127 680.169 293.106 681.157 288.716H681.161C681.241 288.352 681.316 287.983 681.383 287.61C681.958 284.448 682.344 281.251 682.843 278.075C683.014 276.99 683.27 275.918 683.504 274.76C685.907 278.545 689.863 280.418 693.804 280.416C697.744 280.418 701.701 278.545 704.104 274.76C704.337 275.918 704.593 276.99 704.763 278.075C705.262 281.251 705.648 284.448 706.224 287.61C706.292 287.983 706.366 288.352 706.447 288.716H706.451C707.438 293.106 709.621 297.127 712.834 300.381C717.306 304.903 723.264 307.411 729.616 307.441H729.732C743.12 307.441 753.669 296.909 753.746 283.464C753.765 280.476 753.221 277.56 752.165 274.83Z" fill="#373535"/>
<path d="M693.773 271.485C692.135 271.488 690.759 270.105 690.763 268.461C690.769 266.828 692.101 265.468 693.713 265.448C695.399 265.429 696.786 266.791 696.794 268.47C696.802 270.101 695.416 271.481 693.773 271.485ZM693.733 259.502C688.797 259.51 684.789 263.535 684.813 268.458C684.836 273.462 688.818 277.444 693.787 277.434C698.761 277.423 702.746 273.419 702.739 268.437C702.733 263.466 698.728 259.493 693.733 259.502Z" fill="#C1CFEA"/>
<path d="M693.723 265.447C692.111 265.467 690.779 266.828 690.773 268.46C690.768 270.104 692.145 271.487 693.783 271.484C695.427 271.48 696.812 270.1 696.804 268.468C696.796 266.79 695.409 265.427 693.723 265.447Z" fill="#373535"/>
<path d="M657.537 262.09H657.43C645.952 262.145 636.409 271.845 636.477 283.39C636.547 295.278 646.018 304.727 657.84 304.727H657.943C669.724 304.672 679.15 294.999 679.069 283.046C678.989 271.444 669.367 262.089 657.537 262.09Z" fill="#FDD0B0"/>
<path d="M729.994 262.09H730.1C741.58 262.145 751.121 271.845 751.053 283.39C750.984 295.278 741.512 304.727 729.69 304.727H729.587C717.806 304.672 708.382 294.999 708.461 283.046C708.541 271.444 718.164 262.089 729.994 262.09Z" fill="#FDD0B0"/>
</svg>
