<svg width="1400" height="233" viewBox="0 0 1400 233" fill="none" xmlns="http://www.w3.org/2000/svg">
<path d="M-114 159.448C-100.325 159.448 -85.6699 150.747 -73.2625 145.824C-34.0237 130.253 4.18551 112.855 44.0453 98.6825C106.76 76.3839 176.501 60.1295 242.964 55.4926C290.316 52.189 338.302 53.7635 385.75 53.9939C458.962 54.3493 533.882 69.9334 604.016 90.2353C650.186 103.6 783.725 97.1219 824.98 123.479C856.642 143.707 891.219 195.935 844.6 218.579C835.285 223.103 816.903 224.96 813.263 213.129C808.224 196.751 827.785 195.663 839.559 194.191C881.33 188.969 919.259 219.089 960 224.574C1045.59 236.096 1050.18 232.131 1135.38 224.574C1199.91 218.849 1265.65 204.648 1306.91 149.638C1330.73 117.878 1341.99 80.0099 1323.26 42.5492C1320.12 36.2715 1295.78 10.0478 1288.79 25.791C1282.56 39.7946 1291.88 48.6985 1306.09 51.5414C1344.99 59.3204 1479.1 12.836 1514.61 1" stroke="#75D8DB" stroke-width="2" stroke-linecap="round" stroke-dasharray="10 10"/>
</svg>
