<svg width="1400" height="281" viewBox="0 0 1400 281" fill="none" xmlns="http://www.w3.org/2000/svg">
<path d="M-205 152.646C-205 135.007 -187.883 116.653 -177.703 103.511C-169.611 93.0646 -158.754 85.0134 -148.99 76.2131C-136.887 65.3061 -125.854 54.3439 -112.189 45.2759C-76.8295 21.8134 -34.0563 11.6145 7.51588 5.64404C50.1577 -0.480045 102.591 -4.47656 140.667 20.0005C171.333 39.7147 197.07 72.2734 220.638 99.7698C235.329 116.909 246.318 137.555 246.318 160.33C246.318 168.25 246.092 193.807 233.579 194.502C226.678 194.886 224.151 189.904 227.311 183.583C233.646 170.914 258.165 168.049 269.976 166.396C281.607 164.767 294.664 164.416 306.373 165.587C319.832 166.933 332.5 165.587 356 178.5C394.948 199.902 428.5 207.5 463 202.409C572.855 186.197 683.596 250.376 794.31 247.5C840.581 246.298 884.992 238.002 929.585 226.066C955.39 219.159 982.085 211.821 1006.42 200.589C1015.83 196.248 1028.77 190.142 1030.08 178.346C1031.78 163.002 1011.15 154.399 999.648 150.847C993.738 149.022 966.86 142.548 972.452 157.924C975.157 165.365 988.47 164.574 994.492 165.203C1017.04 167.559 1039.87 168.492 1062.53 167.832C1090.74 167.01 1111.08 165.659 1139.27 159.845C1153.67 156.875 1365.27 93.2727 1379.18 88.5099C1456.56 62.0184 1455.21 51.3044 1455.21 51.3044" stroke="#75D8DB" stroke-width="2" stroke-linecap="round" stroke-dasharray="10 10"/>
<path d="M1202.52 113.962C1202.52 113.962 1188.24 106.17 1196.6 95.0957C1199.73 90.9618 1215.12 101.32 1215.12 101.32C1215.12 101.32 1222.4 96.8154 1229.24 95.1643C1236.07 93.5152 1245.68 95.335 1245.68 95.335C1245.68 95.335 1250.38 79.6666 1256.39 81.7125C1268.32 85.7721 1260.91 99.9047 1260.91 99.9047C1260.91 99.9047 1277.5 112.57 1297.19 113.291C1276.36 126.834 1269.72 146.686 1259.04 158.277C1252.26 165.644 1242.95 169.03 1230.01 164.072C1221.12 160.664 1203.98 151.421 1178.21 141.844C1194.19 131.752 1202.52 113.962 1202.52 113.962Z" fill="#C1BDBB"/>
<path d="M1238.62 140.862L1233.82 141.936C1231.43 142.47 1230.65 138.962 1233.03 138.428L1246 135.525C1248.44 134.979 1249.23 138.488 1246.79 139.034L1242.24 140.052L1245.34 153.898C1245.87 156.283 1242.26 157.15 1241.72 154.709L1238.62 140.862Z" fill="#373535"/>
<path d="M1218.05 124.679C1214.98 125.366 1212.12 128.282 1213.09 132.613C1214.05 136.918 1217.89 138.363 1220.96 137.676C1224.11 136.97 1226.99 134.021 1226.03 129.717C1225.06 125.386 1221.2 123.973 1218.05 124.679ZM1222.01 140.98C1216.99 142.335 1210.97 140.141 1209.47 133.423C1207.96 126.679 1212.48 122.184 1217.55 121.048C1222.41 120.22 1228.17 122.414 1229.62 128.913C1231.08 135.411 1226.81 139.906 1222.01 140.98Z" fill="#373535"/>
<path d="M1253.65 116.71C1250.58 117.397 1247.72 120.313 1248.69 124.644C1249.65 128.949 1253.49 130.394 1256.56 129.706C1259.71 129 1262.59 126.052 1261.63 121.747C1260.66 117.416 1256.8 116.004 1253.65 116.71ZM1257.61 133.011C1252.59 134.366 1246.57 132.172 1245.07 125.454C1243.56 118.71 1248.08 114.214 1253.15 113.079C1258.01 112.251 1263.77 114.445 1265.22 120.943C1266.68 127.441 1262.41 131.937 1257.61 133.011Z" fill="#373535"/>
<path d="M1227.49 113.892C1219.18 106.208 1199.71 129.023 1178.2 141.844C1178.2 141.844 1198.2 136.99 1209.21 131.517C1208.86 125.839 1212.98 122.073 1217.55 121.048C1222.41 120.22 1228.17 122.414 1229.62 128.913C1230.17 131.385 1229.9 133.564 1229.08 135.379C1230.27 134.359 1231.68 132.656 1232.18 130.177C1233.63 123.031 1228.78 115.08 1227.49 113.892Z" fill="white"/>
<path d="M1297.19 113.291C1274.34 115.063 1245.2 100.064 1239.67 110.417C1238.27 113.045 1239.18 123.486 1243.22 127.867C1244.91 129.691 1246.98 130.71 1248.35 131.129C1246.82 129.831 1245.63 127.957 1245.07 125.454C1243.56 118.71 1248.09 114.214 1253.16 113.079C1257.56 112.328 1262.7 114.077 1264.71 119.265C1281.01 119.792 1297.19 113.291 1297.19 113.291Z" fill="white"/>
<path d="M1215.53 128.559C1214 128.902 1212.57 130.36 1213.05 132.526C1213.53 134.678 1215.45 135.401 1216.98 135.057C1218.56 134.704 1220 133.229 1219.52 131.077C1219.04 128.911 1217.11 128.206 1215.53 128.559Z" fill="#373535"/>
<path d="M1251.14 120.589C1249.6 120.933 1248.17 122.39 1248.66 124.556C1249.14 126.708 1251.06 127.431 1252.59 127.088C1254.17 126.734 1255.61 125.259 1255.13 123.107C1254.64 120.941 1252.71 120.236 1251.14 120.589Z" fill="#373535"/>
<path d="M113.024 94.5528C117.883 90.5623 122.304 87.5675 126.858 85.5756C123.152 83.6309 119.093 84.0933 115.674 80.8917C117.702 77.6555 122.81 76.0001 125.354 72.9386C101.32 67.3026 99.7872 58.1743 95.5056 41.6968C88.2367 48.1704 82.6061 60.8724 78.8562 67.7037C72.9989 59.9216 65.5724 52.4714 56.9706 47.3298C58.161 58.8443 50.6788 76.1074 35.3791 85.8482C38.356 86.9156 42.4024 86.6885 44.5218 88.7803C39.8139 91.5266 34.5191 95.3923 34.5191 95.3923C34.5191 95.3923 39.4029 98.7084 44.0486 98.7749C40.3951 100.975 34.4116 102.108 30.0447 103.873C33.9882 105.102 39.1705 104.066 43.5041 105.179C49.5232 106.727 55.4534 110.389 60.791 113.568C70.3371 119.255 77.9789 126.857 89.8843 123.62C99.1007 121.113 102.449 110.389 110.968 106.406C117.53 103.339 125.227 100.545 130.733 95.394C123.891 94.2739 120.7 96.0495 113.024 94.5528Z" fill="#D0C5E1"/>
<path d="M62.994 83.04C63.7989 84.0657 64.2735 85.1381 64.672 86.2208C65.0541 87.3032 65.3037 88.4047 65.4559 89.5192C65.6035 90.6356 65.6534 91.7639 65.5707 92.91C65.4719 94.0582 65.297 95.2167 64.7916 96.4196L64.3991 96.4724C63.5941 95.4455 63.1191 94.3744 62.7219 93.2927C62.3391 92.2092 62.0894 91.1077 61.9371 89.992C61.7897 88.8768 61.7398 87.7485 61.8232 86.6035C61.9207 85.4542 62.096 84.2945 62.6016 83.0928L62.994 83.04Z" fill="#373535"/>
<path d="M97.662 78.3826C98.4668 79.4082 98.9414 80.4806 99.3387 81.5635C99.722 82.6458 99.9717 83.7472 100.123 84.8619C100.271 85.9781 100.321 87.1064 100.237 88.2527C100.14 89.4008 99.965 90.5593 99.4595 91.7622L99.0659 91.815C98.2609 90.7882 97.7859 89.717 97.3887 88.6354C97.007 87.5517 96.7562 86.4504 96.605 85.3345C96.4565 84.2195 96.4078 83.091 96.49 81.9462C96.5874 80.7969 96.7627 79.6372 97.2684 78.4354L97.662 78.3826Z" fill="#373535"/>
<path d="M81.1293 100.58L76.4635 101.207C74.144 101.518 73.6856 98.1066 76.0051 97.795L88.6177 96.1005C90.9901 95.7817 91.4485 99.1935 89.076 99.5123L84.6505 100.107L86.4597 113.573C86.7713 115.893 83.2575 116.421 82.9385 114.046L81.1293 100.58Z" fill="#373535"/>
<path d="M62.849 83.4366C59.8635 83.8377 56.8936 86.382 57.4595 90.5941C58.022 94.7807 61.5616 96.477 64.5471 96.0759C67.6152 95.6637 70.6084 93.0897 70.0459 88.9031C69.48 84.691 65.9171 83.0244 62.849 83.4366ZM65.2826 99.3155C60.378 100.192 54.8173 97.6004 53.9395 91.067C53.0583 84.508 57.7449 80.5939 62.6783 79.9311C67.3769 79.5438 72.6902 82.1144 73.5392 88.4338C74.3883 94.7538 69.949 98.6886 65.2826 99.3155Z" fill="#373535"/>
<path d="M97.4752 78.7842C94.4885 79.1855 91.5186 81.7298 92.0845 85.9419C92.647 90.1284 96.1866 91.8248 99.1733 91.4235C102.24 91.0115 105.233 88.4374 104.671 84.2509C104.105 80.0388 100.542 78.3722 97.4752 78.7842ZM99.9064 94.6634C95.003 95.5401 89.4423 92.9482 88.5645 86.4148C87.6833 79.8558 92.3699 75.9416 97.3021 75.279C102.001 74.8917 107.316 77.462 108.165 83.7814C109.014 90.1014 104.573 94.0365 99.9064 94.6634Z" fill="#373535"/>
<path d="M909.981 178.185C906.289 176.709 896.061 188.462 893.364 195.255C888.959 194.434 861.513 199.927 858.745 204.753C851.802 200.764 840.033 193.468 835.479 198.638C833.241 206.157 833.695 230.319 835.641 231.704C837.596 233.083 844.082 218.104 846.089 213.849C847.296 214.714 848.366 215.054 849.391 215.41C851.447 221.876 852.874 229.448 853.178 235.936C853.635 245.558 855.609 262.247 863.457 269.285C872.716 277.587 882.387 268.646 894.786 264.665C904.009 261.703 918.537 267.486 923.798 253.158C928.239 241.061 921.916 224.408 916.828 217.115C914.414 213.646 905.524 203.636 905.842 199.019C906.777 197.83 907.643 196.646 908.212 195.23C915.61 199.25 928.312 209.61 929.216 207.763C930.122 205.918 916.277 180.689 909.981 178.185Z" fill="#FDD0B0"/>
<path d="M875.252 232.069C874.028 231.734 872.888 231.711 871.765 231.762C870.652 231.827 869.569 232.02 868.513 232.303C867.455 232.592 866.423 232.972 865.427 233.478C864.434 233.999 863.461 234.594 862.573 235.501L862.673 235.872C863.898 236.208 865.038 236.23 866.158 236.179C867.274 236.113 868.356 235.922 869.415 235.638C870.47 235.35 871.502 234.969 872.496 234.463C873.492 233.942 874.465 233.347 875.353 232.44L875.252 232.069Z" fill="#373535"/>
<path d="M908.099 223.176C906.876 222.841 905.735 222.819 904.614 222.871C903.499 222.935 902.415 223.127 901.36 223.411C900.303 223.699 899.272 224.08 898.275 224.587C897.282 225.107 896.309 225.701 895.421 226.608L895.521 226.98C896.746 227.315 897.886 227.337 899.006 227.286C900.122 227.221 901.204 227.029 902.262 226.744C903.317 226.457 904.349 226.077 905.345 225.571C906.339 225.049 907.313 224.455 908.2 223.548L908.099 223.176Z" fill="#373535"/>
<path d="M887.149 242.201L882.727 243.398C880.529 243.993 879.654 240.758 881.851 240.164L893.804 236.928C896.052 236.32 896.928 239.554 894.679 240.162L890.486 241.298L893.94 254.058C894.535 256.256 891.212 257.211 890.603 254.961L887.149 242.201Z" fill="#373535"/>
<path d="M867.337 227.983C864.508 228.749 861.966 231.579 863.047 235.571C864.121 239.539 867.75 240.725 870.579 239.959C873.487 239.172 876.048 236.311 874.974 232.342C873.893 228.351 870.245 227.196 867.337 227.983ZM871.7 242.991C867.08 244.461 861.387 242.665 859.711 236.474C858.029 230.259 862.053 225.888 866.728 224.623C871.211 223.653 876.663 225.458 878.284 231.446C879.905 237.435 876.122 241.794 871.7 242.991Z" fill="#373535"/>
<path d="M900.151 219.1C897.321 219.866 894.779 222.697 895.859 226.688C896.933 230.657 900.563 231.843 903.393 231.077C906.299 230.29 908.86 227.428 907.786 223.46C906.706 219.468 903.057 218.313 900.151 219.1ZM904.511 234.109C899.893 235.578 894.199 233.783 892.523 227.591C890.841 221.376 894.865 217.006 899.539 215.741C904.023 214.771 909.477 216.576 911.098 222.563C912.719 228.552 908.933 232.912 904.511 234.109Z" fill="#373535"/>
<path d="M486.534 190.028C486.087 182.638 485.088 174.84 482.05 169.207C472.631 172.515 463.791 186.024 463.791 186.024C459.824 183.643 452.952 182.776 449.981 185.027C449.228 178.485 447.432 171.34 441.447 164.064C435.571 169.069 432.452 175.786 426.436 185.045C420.047 194.871 405.786 206.249 409.392 222.503C414.079 243.627 445.624 253.61 456.959 252.89C477.378 251.587 493.991 245.083 496.674 222.535C498.908 203.744 486.889 195.798 486.534 190.028Z" fill="#C1CFEA"/>
<path d="M437.212 202.125C437.773 203.432 437.973 204.693 438.09 205.945C438.19 207.192 438.145 208.423 437.993 209.638C437.836 210.856 437.573 212.059 437.166 213.243C436.741 214.425 436.233 215.596 435.364 216.721L434.936 216.667C434.375 215.361 434.174 214.1 434.058 212.849C433.958 211.601 434.003 210.371 434.155 209.152C434.311 207.937 434.575 206.734 434.983 205.551C435.407 204.368 435.915 203.197 436.784 202.071L437.212 202.125Z" fill="#373535"/>
<path d="M475.029 206.914C475.589 208.221 475.79 209.482 475.905 210.734C476.006 211.981 475.961 213.212 475.808 214.427C475.653 215.646 475.39 216.848 474.981 218.032C474.557 219.214 474.049 220.385 473.18 221.511L472.751 221.456C472.19 220.15 471.989 218.889 471.873 217.638C471.775 216.39 471.818 215.16 471.971 213.941C472.126 212.726 472.391 211.523 472.798 210.34C473.222 209.157 473.731 207.986 474.599 206.86L475.029 206.914Z" fill="#373535"/>
<path d="M451.403 225.671L446.313 225.027C443.784 224.706 444.255 220.983 446.785 221.304L460.544 223.046C463.132 223.374 462.66 227.097 460.072 226.769L455.245 226.158L453.384 240.846C453.064 243.378 449.215 242.95 449.543 240.36L451.403 225.671Z" fill="#373535"/>
<path d="M436.943 202.502C433.686 202.09 429.847 203.938 429.265 208.533C428.686 213.101 431.94 215.876 435.197 216.289C438.544 216.713 442.416 214.84 442.995 210.272C443.577 205.677 440.29 202.926 436.943 202.502ZM435.066 219.907C429.654 219.46 424.523 215.173 425.425 208.047C426.331 200.892 432.362 198.08 437.744 198.761C442.801 199.668 447.678 203.862 446.805 210.754C445.932 217.648 440.156 220.551 435.066 219.907Z" fill="#373535"/>
<path d="M474.718 207.286C471.46 206.873 467.62 208.722 467.038 213.317C466.46 217.885 469.714 220.66 472.972 221.073C476.317 221.496 480.19 219.624 480.768 215.056C481.35 210.461 478.063 207.71 474.718 207.286ZM472.838 224.69C467.428 224.244 462.296 219.957 463.199 212.83C464.105 205.676 470.136 202.864 475.516 203.545C480.573 204.452 485.453 208.645 484.58 215.538C483.707 222.432 477.928 225.335 472.838 224.69Z" fill="#373535"/>
</svg>
