<svg width="85" height="42" viewBox="0 0 85 42" fill="none" xmlns="http://www.w3.org/2000/svg">
<path d="M43.0608 0.281464C41.4691 -0.927116 34.9871 3.45957 32.7946 6.42034C30.7729 5.43706 16.7868 4.49157 14.8171 6.48206C11.9827 3.61695 7.24847 -1.50144 4.3708 0.421429C2.30522 3.79707 -0.637336 15.6546 0.122421 16.588C0.886855 17.5199 5.98211 11.063 7.50893 9.2509C7.97929 9.8329 8.45198 10.1403 8.90129 10.4494C9.04862 13.8785 8.74781 17.7644 8.04564 20.9723C7.00759 25.7308 5.77836 34.141 8.65076 38.6145C12.0406 43.892 17.8854 40.8048 24.3999 40.4998C29.2455 40.2722 35.5118 45.0161 39.9297 38.7154C43.6592 33.396 42.7817 24.4289 41.2765 20.1952C40.5635 18.1825 37.5762 12.1198 38.3339 9.90731C38.9414 9.45051 39.5152 8.98692 39.9753 8.37037C43.0255 11.3111 47.81 18.0488 48.4888 17.2663C49.1678 16.4853 45.7768 2.33662 43.0608 0.281464Z" fill="#FCD5B5"/>
<path d="M19.2221 22.0016C18.674 21.6762 18.1259 21.5144 17.5766 21.391C17.0296 21.2755 16.4809 21.2265 15.9334 21.2253C15.3841 21.2265 14.836 21.2755 14.2879 21.391C13.7398 21.5144 13.1917 21.6762 12.6436 22.0016V22.1962C13.1917 22.5219 13.7398 22.6834 14.2879 22.8062C14.836 22.922 15.3841 22.9716 15.9334 22.9728C16.4809 22.9716 17.0296 22.922 17.5766 22.8062C18.1259 22.6834 18.674 22.5219 19.2221 22.1962V22.0016Z" fill="#1E4041"/>
<path d="M36.2645 22.0016C35.7169 21.6762 35.1682 21.5147 34.6195 21.3918C34.072 21.2758 33.5233 21.2265 32.9758 21.2256C32.4271 21.2265 31.879 21.2758 31.3309 21.3918C30.7827 21.5147 30.2346 21.6762 29.6865 22.0016V22.1965C30.2346 22.5219 30.7827 22.6834 31.3309 22.8062C31.879 22.922 32.4271 22.9716 32.9758 22.9722C33.5233 22.9716 34.072 22.922 34.6195 22.8068C35.1682 22.6834 35.7169 22.5219 36.2645 22.1965V22.0016Z" fill="#1E4041"/>
<path d="M4.99191 26.808L3.85389 28.2903L3.99274 30.139C4.07547 31.2354 2.35133 31.3813 2.26801 30.2716C2.07654 27.7366 1.89208 25.2808 1.70031 22.7316C1.61525 21.6096 3.33793 21.4374 3.42533 22.5997L3.67761 25.9532L7.15981 21.7283C7.58397 21.257 8.04994 21.3276 8.40161 21.6326C8.7945 21.9619 8.8287 22.4228 8.4896 22.8078C7.78831 23.7917 6.94846 24.6793 6.18051 25.6679L9.52122 29.1691C10.388 30.2049 8.77433 31.1259 8.18821 30.3212L4.99191 26.808Z" fill="#1E4041"/>
<path d="M23.6473 28.5213H21.3531C20.213 28.5213 20.213 26.8264 21.3531 26.8264H27.5542C28.7206 26.8264 28.7206 28.5213 27.5542 28.5213H25.3784V35.2083C25.3784 36.3602 23.6473 36.3873 23.6473 35.2083V28.5213Z" fill="#1E4041"/>
<path d="M15.9315 18.9605C14.4637 18.9605 12.8644 20.0067 12.8644 22.0984C12.8644 24.1781 14.4637 25.237 15.9315 25.237C17.4399 25.237 19.0523 24.1781 19.0523 22.0984C19.0523 20.0067 17.4399 18.9605 15.9315 18.9605ZM16.0764 26.8654C13.651 26.9723 11.1338 25.343 11.1338 22.0984C11.1338 18.8415 13.651 17.2393 16.0764 17.2393C18.3706 17.3583 20.7698 18.9605 20.7698 22.0984C20.7698 25.237 18.3706 26.8654 16.0764 26.8654Z" fill="#1E4041"/>
<path d="M32.9565 18.9605C31.4881 18.9605 29.8888 20.0067 29.8888 22.0984C29.8888 24.1781 31.4881 25.237 32.9565 25.237C34.4643 25.237 36.0768 24.1781 36.0768 22.0984C36.0768 20.0067 34.4643 18.9605 32.9565 18.9605ZM33.1003 26.8654C30.6754 26.9723 28.1582 25.343 28.1582 22.0984C28.1582 18.8415 30.6754 17.2393 33.1003 17.2393C35.3945 17.3583 37.7948 18.9605 37.7948 22.0984C37.7948 25.237 35.3945 26.8654 33.1003 26.8654Z" fill="#1E4041"/>
<path d="M51.3348 28.5364C50.8779 28.5854 50.4886 28.2671 50.4406 27.8068L49.6516 20.3273C49.6019 19.8534 49.9176 19.4731 50.374 19.4244L55.0541 18.9209C56.2529 18.7916 56.4079 20.5063 55.2351 20.632L51.4804 21.0363L51.6883 23.0114L54.9734 22.658C56.1343 22.5328 56.3158 24.2584 55.155 24.383L51.8704 24.7364L52.0788 26.7116L56.0545 26.2837C57.2413 26.1556 57.5138 27.8714 56.2366 28.0093L51.3348 28.5364Z" fill="#1E4041"/>
<path d="M61.1199 24.7398L58.8447 24.4439C57.7137 24.2969 57.9271 22.6153 59.0587 22.7623L65.209 23.5616C66.3669 23.7122 66.1523 25.3938 64.9944 25.2433L62.8361 24.9624L61.9916 31.5953C61.846 32.7372 60.126 32.5405 60.2748 31.3721L61.1199 24.7398Z" fill="#1E4041"/>
<path d="M70.672 29.7625L69.5495 31.2557L69.7059 33.1024C69.7985 34.1976 68.0753 34.3606 67.9817 33.2509C67.7668 30.718 67.5587 28.2648 67.3427 25.718C67.2474 24.5962 68.9689 24.4075 69.0671 25.5686L69.3513 28.9197L72.7925 24.6621C73.2126 24.1867 73.6786 24.2531 74.0337 24.5546C74.4299 24.8788 74.4687 25.3406 74.1331 25.7283C73.4412 26.719 72.6087 27.6155 71.8509 28.6109L75.2241 32.0804C76.1005 33.108 74.4962 34.044 73.9019 33.2447L70.672 29.7625Z" fill="#1E4041"/>
<path d="M83.5708 30.1471C83.46 30.7194 82.985 30.9627 82.5226 30.872C82.0595 30.7805 81.7745 30.3866 81.8853 29.8149L82.8549 24.7981L77.5404 29.4163C77.1002 29.6939 76.8611 29.7544 76.41 29.6655C76.096 29.4954 75.7917 29.2058 75.9019 28.6338L77.3171 21.3171C77.4001 20.8883 77.9406 20.5092 78.4043 20.6007C78.8416 20.6866 79.1243 21.2288 79.0415 21.6572L78.0657 26.7006L83.3653 22.1595C83.7787 21.8908 83.9038 21.7939 84.3668 21.8852C85.036 22.0178 85.0512 22.4923 84.96 22.96L83.5708 30.1471Z" fill="#1E4041"/>
<path d="M41.6063 23.6487L45.5203 23.7958L45.3066 29.6063L41.3932 29.4604L41.6063 23.6487ZM47.5686 29.6916L47.0354 29.6712L47.2809 22.9873C47.2982 22.5057 46.9258 22.1003 46.4484 22.0819L40.8065 21.8708C40.3291 21.8528 39.9278 22.2299 39.9099 22.7115L39.665 29.3957L39.1323 29.3757C39.1016 29.3745 39.0707 29.3751 39.0411 29.3771C39.0113 29.3733 38.9806 29.3703 38.9502 29.3686C38.4728 29.3515 38.0715 29.7273 38.0539 30.2095L38.0133 31.3121C37.9955 31.7943 38.3685 32.1991 38.8459 32.2177C39.3229 32.2355 39.7243 31.859 39.7421 31.3768L39.75 31.1473L46.6405 31.4051L46.6317 31.6346C46.6141 32.1168 46.9863 32.5222 47.4642 32.5393C47.941 32.5573 48.343 32.1808 48.3602 31.6992L48.4006 30.5964C48.4184 30.1142 48.0454 29.7093 47.5686 29.6916Z" fill="#1E4041"/>
</svg>
