<svg width="91" height="60" viewBox="0 0 91 60" fill="none" xmlns="http://www.w3.org/2000/svg">
<path d="M22.8493 14.9256C22.8493 14.9256 13.8638 7.04987 21.6369 0.455555C24.5388 -2.00604 33.9062 7.88635 33.9062 7.88635C33.9062 7.88635 39.8481 5.82597 45.0129 5.73947C50.1776 5.65435 56.7728 8.50014 56.7728 8.50014C56.7728 8.50014 62.6544 -1.97521 66.6353 0.455555C74.5326 5.27844 66.9551 14.2184 66.9551 14.2184C66.9551 14.2184 76.8079 25.9558 90.8082 29.6321C73.7077 35.9964 65.7611 49.1578 56.2515 55.7531C50.2089 59.9447 42.9916 60.8773 34.5163 55.2493C28.6877 51.3797 17.8916 42.0073 0.952637 31.0078C14.0271 26.3396 22.8493 14.9256 22.8493 14.9256Z" fill="#C1BDBB"/>
<path d="M44.404 39.9948H40.7931C38.9987 39.9948 38.9987 37.3547 40.7931 37.3547H50.5534C52.3893 37.3547 52.3893 39.9948 50.5534 39.9948H47.1288V50.4154C47.1288 52.2103 44.404 52.2526 44.404 50.4154V39.9948Z" fill="#373535"/>
<path d="M32.2598 25.0975C29.9496 25.0975 27.4324 26.7286 27.4324 29.9881C27.4324 33.2277 29.9496 34.8786 32.2598 34.8786C34.634 34.8786 37.172 33.2277 37.172 29.9881C37.172 26.7286 34.634 25.0975 32.2598 25.0975ZM32.4881 37.4161C28.6705 37.5817 24.7085 35.0438 24.7085 29.9881C24.7085 24.9126 28.6705 22.416 32.4881 22.416C36.099 22.601 39.8751 25.0975 39.8751 29.9881C39.8751 34.8786 36.099 37.4161 32.4881 37.4161Z" fill="#373535"/>
<path d="M59.0557 25.0975C56.7445 25.0975 54.2273 26.7286 54.2273 29.9881C54.2273 33.2277 56.7445 34.8786 59.0557 34.8786C61.4289 34.8786 63.9669 33.2277 63.9669 29.9881C63.9669 26.7286 61.4289 25.0975 59.0557 25.0975ZM59.2821 37.4161C55.4654 37.5817 51.5034 35.0438 51.5034 29.9881C51.5034 24.9126 55.4654 22.416 59.2821 22.416C62.893 22.601 66.671 25.0975 66.671 29.9881C66.671 34.8786 62.893 37.4161 59.2821 37.4161Z" fill="#373535"/>
<path d="M40.7614 18.8822C36.037 12.0417 18.4189 25.2681 0.952637 31.008C0.952637 31.008 16.0636 30.737 24.8287 28.58C25.4922 24.4551 29.0443 22.4159 32.4886 22.4159C36.0991 22.6008 39.8753 25.0974 39.8753 29.9879C39.8753 31.8486 39.3268 33.366 38.4512 34.5356C39.4648 33.995 40.7513 33.0012 41.5091 31.3052C43.6946 26.4165 41.4912 19.9391 40.7614 18.8822Z" fill="white"/>
<path d="M90.8084 29.6319C74.1492 27.2361 55.6684 11.8118 50.0472 18.3449C48.6204 20.0036 47.593 27.6313 49.7914 31.4203C50.707 32.9985 52.0303 34.0613 52.9436 34.5808C52.0551 33.4052 51.5039 31.8717 51.5039 29.9875C51.5039 24.912 55.4659 22.4155 59.2826 22.4155C62.5599 22.5839 65.9652 24.6627 66.568 28.7015C78.1701 31.6955 90.8084 29.6319 90.8084 29.6319Z" fill="white"/>
<path d="M29.8342 27.4745C28.6793 27.4745 27.4204 28.2893 27.4204 29.9195C27.4204 31.5391 28.6793 32.365 29.8342 32.365C31.0222 32.365 32.2911 31.5391 32.2911 29.9195C32.2911 28.2893 31.0222 27.4745 29.8342 27.4745Z" fill="#373535"/>
<path d="M56.6305 27.475C55.4757 27.475 54.2168 28.2898 54.2168 29.92C54.2168 31.5396 55.4757 32.3655 56.6305 32.3655C57.8185 32.3655 59.0875 31.5396 59.0875 29.92C59.0875 28.2898 57.8185 27.475 56.6305 27.475Z" fill="#373535"/>
</svg>
