<svg width="320" height="493" viewBox="0 0 320 493" fill="none" xmlns="http://www.w3.org/2000/svg" preserveAspectRatio="none">
<path d="M-141.999 427.65C-117.925 415.156 -92.0812 402.104 -86.1182 398.467C-62.3774 383.983 -30.3583 384.158 -3.63409 383.579C15.4699 383.165 34.1868 383.617 52.628 389.183C69.6372 394.317 85.3385 402.626 99.3242 413.521C109.313 421.303 118.257 430.049 124.707 440.996C128.735 447.832 128.945 454.729 128.945 462.407C128.945 466.396 127.774 469.677 123.658 471.147C121.269 472.001 116.747 473.198 115.016 470.687C109.265 462.351 121.193 453.455 128.106 451.576C141.533 447.926 154.266 448.867 159.488 463.244C163.007 472.932 164.29 473.71 162.125 483.417" stroke="#F3E4E9" stroke-width="2" stroke-linecap="round" stroke-dasharray="15 15"/>
<path d="M170 482.689C167.833 484.659 164.959 486.033 163.102 488.356C162.534 489.065 161.865 490.077 161.535 490.925C161.498 491.022 161.131 492.104 161.131 491.638C161.131 491.006 160.634 490.012 160.339 489.464C159.578 488.054 159.117 486.445 158.5 484.968C157.561 482.723 156 481.36 154.32 479.68" stroke="#F3E4E9" stroke-width="2" stroke-linecap="round"/>
<path d="M28 1C28 9.27504 28.3763 17.6082 30.8836 25.5641C33.5826 34.128 36.6006 43.2421 41.607 50.765C48.4182 61 56.478 67.1054 66.8835 73.464C79.0764 80.9148 92.8406 85.7955 107.029 87.3381C123.169 89.093 139.492 89.3441 151.093 76.3298C157.639 68.9872 165.818 52.4842 156.23 44.1236C152.724 41.0667 139.413 39.837 136.045 43.9416C132.898 47.7759 131.146 54.9995 134.423 59.1349C136.883 62.2404 140.738 64.3007 143.614 67.0045C149.751 72.7728 156.738 77.4507 164.25 81.2426C187.953 93.2082 215.51 100.894 242.107 100.894C251.479 100.894 295.791 102.688 320 91.5236" stroke="#F3E4E9" stroke-width="2" stroke-linecap="round" stroke-dasharray="15 15"/>
<path d="M320 190.605C316.501 190.807 312.932 193.614 309.374 194.369C302.84 195.755 293.965 195.033 287.42 194.188C267.976 191.678 249.056 185.839 230.636 179.386C197.059 167.624 161.897 161.472 126.108 164.982C105.528 167.001 86.7395 176.194 70.3203 187.963C29.9216 215.413 35.8216 212.106 0 215" stroke="#F3E4E9" stroke-width="2" stroke-linecap="round" stroke-dasharray="15 15"/>
</svg>
