<svg width="956" height="577" viewBox="0 0 956 577" fill="none" xmlns="http://www.w3.org/2000/svg" preserveAspectRatio="none">
<path d="M521.998 132.5C521.998 54 562.627 28.7979 590.955 19.067C633.313 4.51627 678.33 2.82593 722.673 2.82593C763.939 2.82593 802.46 4.69333 841.995 17.6749C872.705 27.7589 904.133 39.6654 926.647 63.8791C937.467 75.5147 936.883 93.5352 936.193 108.36C935.662 119.786 926.922 129.803 915.975 132.887C913.918 133.467 901.152 137.799 899.535 134.743C896.462 128.94 904.738 128.114 908.219 128.114C928.089 128.114 944.854 143.005 950.578 161.524C953.479 170.909 952.965 182.805 952.965 192.548C952.965 204.875 951.428 215.723 948.788 227.748C946.764 236.971 944.044 245.306 940.502 253.999C939.193 257.213 938.113 266.197 935.066 267.721" stroke="#F3E4E9" stroke-width="5" stroke-linecap="round" stroke-dasharray="15 15"/>
<path d="M3 28C3 41.712 3.62946 55.5202 7.8241 68.7033C12.3393 82.894 17.3883 97.9962 25.7637 110.462C37.1586 127.422 50.6422 137.539 68.0499 148.075C88.448 160.421 111.475 168.508 135.21 171.065C162.212 173.972 189.52 174.389 208.929 152.823C219.879 140.657 233.563 113.311 217.522 99.4569C211.656 94.3916 189.388 92.354 183.753 99.1554C178.488 105.509 175.557 117.479 181.039 124.331C185.156 129.477 191.604 132.891 196.416 137.371C206.682 146.929 218.372 154.681 230.939 160.964C270.593 180.791 316.693 193.527 361.189 193.527C376.868 193.527 451 196.5 491.5 178" stroke="#F3E4E9" stroke-width="5" stroke-linecap="round" stroke-dasharray="15 15"/>
<path d="M917.659 298.992C913.508 299.236 909.273 302.632 905.052 303.545C897.299 305.221 886.771 304.348 879.005 303.326C855.935 300.291 833.489 293.227 811.635 285.422C771.797 271.194 730.08 263.753 687.619 267.999C663.202 270.441 640.911 281.561 621.43 295.797C573.5 329 580.5 325 538 328.5" stroke="#F3E4E9" stroke-width="5" stroke-linecap="round" stroke-dasharray="15 15"/>
<path d="M577 468.5C537.5 448 495.097 426.585 485.313 420.616C446.36 396.852 393.823 397.139 349.975 396.189C318.63 395.51 287.92 396.251 257.662 405.383C229.753 413.807 203.991 427.441 181.044 445.317C164.654 458.085 149.98 472.436 139.396 490.398C132.788 501.613 132.443 512.93 132.443 525.528C132.443 532.073 134.364 537.456 141.117 539.869C145.038 541.27 152.457 543.233 155.298 539.114C164.733 525.436 145.162 510.84 133.82 507.757C111.789 501.768 90.897 503.312 82.3283 526.901C76.5542 542.797 74.4503 544.073 78.0012 560" stroke="#F3E4E9" stroke-width="5" stroke-linecap="round" stroke-dasharray="15 15"/>
<path d="M65.0781 558.806C68.6331 562.038 73.3485 564.293 76.397 568.104C77.3281 569.268 78.4256 570.928 78.9668 572.32C79.0286 572.478 79.631 574.254 79.631 573.489C79.631 572.452 80.4454 570.822 80.9303 569.923C82.179 567.609 82.9342 564.969 83.9477 562.545C85.4884 558.861 88.0488 556.625 90.8055 553.869" stroke="#F3E4E9" stroke-width="5" stroke-linecap="round"/>
</svg>
